<svg width="708" height="120" viewBox="0 0 708 120" fill="none" xmlns="http://www.w3.org/2000/svg">
<path d="M69.986 70.0255V119.002H21.0117V70.0255V21.0492H69.986H118.96V70.0255H69.986Z" fill="#8CC0E5"/>
<path d="M99.9486 0.0366058H0V99.9895H50.9744V51.0132H99.9486V0.0366058ZM2.00017 2.03687H97.9485V49.0129H48.9742V97.9892H2.00017V2.03687Z" fill="#E81C25"/>
<path d="M638.014 69.9922L638.014 118.969L686.988 118.969L686.988 69.9922L686.988 21.0159L638.014 21.0159L589.04 21.0159L589.04 69.9922L638.014 69.9922Z" fill="#F5924C"/>
<path d="M608.051 0.00363811L708 0.00364685L708 99.9565L657.026 99.9565L657.026 50.9802L608.051 50.9802L608.051 0.00363811ZM706 2.00391L610.052 2.0039L610.052 48.98L659.026 48.98L659.026 97.9563L706 97.9563L706 2.00391Z" fill="#162D65"/>
</svg>
