<svg width="2373" height="1386" viewBox="0 0 2373 1386" fill="none" xmlns="http://www.w3.org/2000/svg">
<path fill-rule="evenodd" clip-rule="evenodd" d="M1165.36 401.516L1408.73 1144.09H2231.1L1987.73 401.516H1165.36Z" fill="#066952"/>
<path fill-rule="evenodd" clip-rule="evenodd" d="M898.17 401.516L654.8 1144.09H1744.36L1987.73 401.516H898.17Z" fill="#EDE8D6"/>
<path fill-rule="evenodd" clip-rule="evenodd" d="M1378.28 703.465H1529.77L1576.09 569.205H1424.6L1378.28 703.465Z" fill="#D3CCB8"/>
<path fill-rule="evenodd" clip-rule="evenodd" d="M1598.55 700.602H1743.98L1788.32 572.069H1642.89L1598.55 700.602ZM1748.07 706.329H1590.52L1638.81 566.342H1796.36L1748.07 706.329Z" fill="white"/>
<path fill-rule="evenodd" clip-rule="evenodd" d="M1162.53 703.465H1314.02L1360.34 569.205H1208.85L1162.53 703.465Z" fill="#D3CCB8"/>
<path fill-rule="evenodd" clip-rule="evenodd" d="M946.787 703.465H1098.28L1144.59 569.205H993.102L946.787 703.465Z" fill="#F73132"/>
<path fill-rule="evenodd" clip-rule="evenodd" d="M1533.58 878.677H1685.08L1731.39 744.418H1579.9L1533.58 878.677Z" fill="#DCE9FF"/>
<path fill-rule="evenodd" clip-rule="evenodd" d="M1317.84 878.677H1469.33L1515.65 744.418H1364.15L1317.84 878.677Z" fill="#D3CCB8"/>
<path fill-rule="evenodd" clip-rule="evenodd" d="M1102.09 878.677H1253.58L1299.9 744.418H1148.41L1102.09 878.677Z" fill="white"/>
<path fill-rule="evenodd" clip-rule="evenodd" d="M886.344 878.677H1037.83L1084.15 744.418H932.658L886.344 878.677Z" fill="#D3CCB8"/>
<path fill-rule="evenodd" clip-rule="evenodd" d="M1473.75 1052.13H1625.24L1671.56 917.869H1520.06L1473.75 1052.13Z" fill="#F73132"/>
<path fill-rule="evenodd" clip-rule="evenodd" d="M1258 1052.13H1409.49L1455.81 917.869H1304.32L1258 1052.13Z" fill="#D3CCB8"/>
<path fill-rule="evenodd" clip-rule="evenodd" d="M1042.25 1052.13H1193.75L1240.06 917.869H1088.57L1042.25 1052.13Z" fill="#D3CCB8"/>
<path fill-rule="evenodd" clip-rule="evenodd" d="M831.869 1049.27H977.303L1021.64 920.733H876.209L831.869 1049.27ZM981.385 1054.99H823.836L872.127 915.006H1029.68L981.385 1054.99Z" fill="white"/>
<path fill-rule="evenodd" clip-rule="evenodd" d="M1697.73 506.308C1639.95 506.308 1592.94 459.299 1592.94 401.516C1592.94 343.733 1639.95 296.723 1697.73 296.723C1755.52 296.723 1802.53 343.733 1802.53 401.516H1793.32C1793.32 348.808 1750.44 305.926 1697.73 305.926C1645.03 305.926 1602.14 348.808 1602.14 401.516C1602.14 454.224 1645.03 497.105 1697.73 497.105V506.308Z" fill="#21211D"/>
<path fill-rule="evenodd" clip-rule="evenodd" d="M1149.49 506.308C1091.71 506.308 1044.7 459.299 1044.7 401.516C1044.7 343.733 1091.71 296.723 1149.49 296.723C1207.28 296.723 1254.29 343.733 1254.29 401.516H1245.08C1245.08 348.808 1202.2 305.926 1149.49 305.926C1096.79 305.926 1053.9 348.808 1053.9 401.516C1053.9 454.224 1096.79 497.105 1149.49 497.105V506.308Z" fill="#21211D"/>
<path d="M645.8 476.723H349.8V504.723H645.8V476.723Z" fill="#EDC829"/>
<path fill-rule="evenodd" clip-rule="evenodd" d="M652.021 1246.72L516.687 652.214L537.08 1222.63L317.8 1221.69L349.706 498.723H645.05L861.8 1188.6L652.021 1246.72Z" fill="#EDC829"/>
<path fill-rule="evenodd" clip-rule="evenodd" d="M537.343 1221.7C537.343 1202.36 487.963 1186.82 427.641 1186.82C367.32 1186.82 318.274 1202.5 318.274 1221.84C318.274 1241.19 367.32 1256.87 427.641 1256.87C487.963 1256.87 537.343 1241.04 537.343 1221.7Z" fill="#21211D"/>
<path fill-rule="evenodd" clip-rule="evenodd" d="M820.45 1235.11C805.192 1242.73 786.601 1249.44 765.939 1254.03C745.398 1258.58 725.812 1260.99 708.806 1261.37C677.041 1262.12 654.376 1255.84 651.701 1243.53C648.959 1230.88 668.948 1213.23 700.149 1199.03C715.541 1192.03 733.662 1185.86 753.128 1181.54C767.283 1178.4 780.726 1176.26 793.04 1175.08C832.024 1171.35 859.73 1177.28 862.849 1191.63C865.511 1203.91 848.694 1221.03 820.45 1235.11Z" fill="#21211D"/>
<mask id="mask0_706_208" style="mask-type:alpha" maskUnits="userSpaceOnUse" x="374" y="1186" width="243" height="178">
<path fill-rule="evenodd" clip-rule="evenodd" d="M374.725 1186.82H616.375V1363.71H374.725V1186.82Z" fill="white"/>
</mask>
<g mask="url(#mask0_706_208)">
<path fill-rule="evenodd" clip-rule="evenodd" d="M616.375 1363.71H374.725V1191.18C390.399 1188.39 408.427 1186.82 427.583 1186.82C444.198 1186.82 459.98 1188 474.122 1190.11C478.491 1208.1 485.669 1229.37 497.418 1248.75C506.99 1264.54 519.586 1279.08 536.175 1289.56C603.228 1331.97 616.375 1363.71 616.375 1363.71Z" fill="#F1A596"/>
</g>
<mask id="mask1_706_208" style="mask-type:alpha" maskUnits="userSpaceOnUse" x="700" y="1175" width="257" height="189">
<path fill-rule="evenodd" clip-rule="evenodd" d="M700.149 1175.08H956.613V1363.71H700.149V1175.08Z" fill="white"/>
</mask>
<g mask="url(#mask1_706_208)">
<path fill-rule="evenodd" clip-rule="evenodd" d="M956.613 1363.71H723.029L708.806 1261.37L700.149 1199.03C715.541 1192.02 733.662 1185.86 753.128 1181.54C767.283 1178.4 780.726 1176.26 793.04 1175.08C798.376 1191.7 807.101 1213.8 820.45 1235.11C833.516 1255.99 851.046 1276.11 874.181 1289.56C947.122 1331.97 956.613 1363.71 956.613 1363.71Z" fill="#F1A596"/>
</g>
<path d="M514.499 497.589C515.198 497.562 515.792 498.074 515.883 498.752L515.894 498.882L518.154 558.616C518.635 570.133 509.536 579.745 498.13 579.745C497.388 579.745 496.786 579.143 496.786 578.4C496.786 577.658 497.388 577.056 498.13 577.056C507.891 577.056 515.712 568.907 515.478 559.052L515.467 558.723L513.207 498.983C513.179 498.241 513.757 497.617 514.499 497.589Z" fill="#21211D"/>
<path d="M593.078 497.69C593.765 497.407 594.551 497.734 594.834 498.421C598.767 507.973 604.746 516.327 613.168 522.689C623.725 530.664 637.564 535.061 655.14 535.061C655.883 535.061 656.485 535.663 656.485 536.405C656.485 537.148 655.883 537.75 655.14 537.75C636.993 537.75 622.583 533.172 611.547 524.835C602.712 518.16 596.452 509.415 592.347 499.445C592.064 498.758 592.392 497.972 593.078 497.69Z" fill="#21211D"/>
<path d="M410.276 498.423C410.558 497.736 411.343 497.407 412.03 497.689C412.717 497.97 413.046 498.755 412.764 499.443C408.691 509.384 402.449 518.122 393.612 524.8C382.554 533.158 368.09 537.75 349.85 537.75C349.108 537.75 348.506 537.148 348.506 536.405C348.506 535.663 349.108 535.061 349.85 535.061C367.519 535.061 381.412 530.65 391.991 522.655C400.413 516.29 406.375 507.944 410.276 498.423Z" fill="#21211D"/>
<path d="M532.75 652.445C533.493 652.445 534.094 653.047 534.094 653.79C534.094 654.489 533.561 655.063 532.879 655.128L532.75 655.134H503.449C502.706 655.134 502.104 654.532 502.104 653.79C502.104 653.091 502.638 652.517 503.32 652.451L503.449 652.445H532.75Z" fill="#21211D"/>
<path d="M521.945 653.328C522.618 653.15 523.306 653.516 523.546 654.154L523.588 654.285L673.171 1221.5C673.36 1222.22 672.931 1222.95 672.213 1223.14C671.54 1223.32 670.852 1222.95 670.612 1222.32L670.571 1222.18L520.988 654.971C520.798 654.253 521.227 653.517 521.945 653.328Z" fill="#21211D"/>
<path d="M363.621 535.124C364.319 535.149 364.875 535.702 364.916 536.386L364.918 536.515L341.528 1208.26C341.502 1209 340.879 1209.58 340.137 1209.56C339.439 1209.53 338.883 1208.98 338.842 1208.3L338.84 1208.17L362.23 536.422C362.256 535.679 362.879 535.099 363.621 535.124Z" fill="#21211D"/>
<path d="M748.917 1146.76C778.541 1141.08 811.018 1139.52 846.396 1142.81C847.136 1142.88 847.68 1143.53 847.611 1144.27C847.542 1145.01 846.887 1145.55 846.148 1145.49C811.021 1142.22 778.798 1143.77 749.423 1149.4C725.095 1154.07 703.509 1161.38 684.613 1170.62C672.621 1176.47 662.436 1182.75 654.03 1189.02L652.798 1189.94C650.588 1191.63 648.646 1193.21 646.969 1194.66L646.518 1195.05C646.002 1195.51 645.54 1195.92 645.132 1196.3L644.435 1196.95C644.331 1197.05 644.246 1197.14 644.181 1197.2L644.075 1197.31C643.553 1197.83 642.702 1197.84 642.174 1197.32C641.646 1196.8 641.641 1195.94 642.163 1195.42L642.569 1195.02L642.822 1194.78C643.356 1194.27 643.997 1193.69 644.744 1193.03C646.87 1191.17 649.428 1189.09 652.422 1186.86C660.96 1180.49 671.286 1174.13 683.432 1168.2C702.539 1158.87 724.351 1151.48 748.917 1146.76Z" fill="#21211D"/>
<path d="M426.685 1157.27C454.382 1157.37 480.54 1161.3 504.375 1167.78C512.468 1169.98 519.739 1172.33 526.099 1174.69L526.961 1175.01C529.261 1175.87 531.273 1176.68 532.984 1177.4L533.979 1177.83L535.087 1178.32C535.761 1178.63 536.053 1179.43 535.74 1180.1C535.427 1180.78 534.627 1181.07 533.954 1180.76L533.454 1180.53L532.603 1180.16L531.939 1179.88C530.26 1179.17 528.281 1178.38 526.015 1177.53C519.529 1175.09 512.046 1172.65 503.669 1170.37C480.051 1163.95 454.122 1160.06 426.675 1159.96C391.444 1159.83 356.267 1166 321.924 1179.73C321.234 1180 320.452 1179.67 320.176 1178.98C319.9 1178.29 320.236 1177.51 320.925 1177.23C355.169 1163.54 390.233 1157.29 425.352 1157.27L426.685 1157.27Z" fill="#21211D"/>
<path d="M603.924 1347.33C604.667 1347.33 605.269 1347.93 605.269 1348.68C605.269 1349.38 604.736 1349.95 604.054 1350.01L603.924 1350.02H375.128C374.386 1350.02 373.784 1349.42 373.784 1348.68C373.784 1347.98 374.317 1347.4 374.999 1347.34L375.128 1347.33H603.924Z" fill="#21211D"/>
<path d="M945.321 1347.33C946.063 1347.33 946.665 1347.93 946.665 1348.68C946.665 1349.38 946.132 1349.95 945.45 1350.01L945.321 1350.02H721.768C721.025 1350.02 720.423 1349.42 720.423 1348.68C720.423 1347.98 720.956 1347.4 721.638 1347.34L721.768 1347.33H945.321Z" fill="#21211D"/>
<path d="M375.176 1311.32L375.676 1311.34L376.174 1311.38C376.35 1311.39 376.535 1311.41 376.729 1311.42L377.027 1311.45C378.469 1311.59 380.074 1311.8 381.801 1312.1C386.736 1312.96 391.673 1314.38 396.295 1316.48C409.622 1322.53 417.694 1332.97 417.694 1348.68C417.694 1349.42 417.092 1350.02 416.349 1350.02C415.607 1350.02 415.005 1349.42 415.005 1348.68C415.005 1334.13 407.619 1324.58 395.183 1318.93C390.787 1316.93 386.064 1315.58 381.338 1314.75C379.89 1314.5 378.533 1314.31 377.296 1314.18L376.773 1314.13C376.39 1314.09 376.042 1314.06 375.732 1314.04L375.081 1314C374.339 1313.98 373.759 1313.35 373.785 1312.61C373.811 1311.87 374.433 1311.29 375.176 1311.32Z" fill="#21211D"/>
<path d="M717.323 1311.32L717.823 1311.34L718.321 1311.38C718.497 1311.39 718.682 1311.41 718.876 1311.42L719.174 1311.45C720.617 1311.59 722.221 1311.8 723.948 1312.1C728.883 1312.96 733.821 1314.38 738.442 1316.48C751.769 1322.53 759.841 1332.97 759.841 1348.68C759.841 1349.42 759.239 1350.02 758.497 1350.02C757.754 1350.02 757.152 1349.42 757.152 1348.68C757.152 1334.13 749.766 1324.58 737.33 1318.93C732.935 1316.93 728.211 1315.58 723.485 1314.75C722.037 1314.5 720.681 1314.31 719.443 1314.18L718.92 1314.13C718.537 1314.09 718.189 1314.06 717.879 1314.04L717.229 1314C716.487 1313.98 715.906 1313.35 715.932 1312.61C715.958 1311.87 716.581 1311.29 717.323 1311.32Z" fill="#21211D"/>
<path fill-rule="evenodd" clip-rule="evenodd" d="M427.453 1235.6C427.453 1244.62 420.223 1251.94 411.303 1251.94C402.384 1251.94 395.153 1244.62 395.153 1235.6C395.153 1226.57 402.384 1219.26 411.303 1219.26C420.223 1219.26 427.453 1226.57 427.453 1235.6Z" fill="white"/>
<path fill-rule="evenodd" clip-rule="evenodd" d="M756.456 1235.6C756.456 1244.62 749.226 1251.94 740.306 1251.94C731.387 1251.94 724.156 1244.62 724.156 1235.6C724.156 1226.57 731.387 1219.26 740.306 1219.26C749.226 1219.26 756.456 1226.57 756.456 1235.6Z" fill="white"/>
<path d="M883.544 1295.3C884.221 1295.14 884.902 1295.52 885.129 1296.16L885.168 1296.29L888.541 1310.18C891.921 1324.08 881.646 1337.53 867.546 1337.79L867.118 1337.8H756.456C755.713 1337.8 755.111 1337.2 755.111 1336.45C755.111 1335.75 755.645 1335.18 756.326 1335.11L756.456 1335.11H867.118C879.56 1335.11 888.747 1323.41 886.015 1311.18L885.928 1310.81L882.555 1296.93C882.38 1296.2 882.823 1295.48 883.544 1295.3Z" fill="#21211D"/>
<path d="M547.11 1296.11C547.792 1295.97 548.46 1296.37 548.664 1297.02L548.699 1297.15L551.547 1310.94C554.38 1324.65 544.163 1337.54 530.372 1337.8L529.953 1337.8H415.539C414.797 1337.8 414.195 1337.2 414.195 1336.45C414.195 1335.76 414.728 1335.18 415.41 1335.12L415.539 1335.11H529.953C542.12 1335.11 551.248 1323.9 548.986 1311.85L548.914 1311.48L546.066 1297.7C545.915 1296.97 546.383 1296.26 547.11 1296.11Z" fill="#21211D"/>
<path d="M497.379 1248.71C498.08 1248.46 498.847 1248.83 499.091 1249.53C499.321 1250.19 499.01 1250.9 498.392 1251.19L498.265 1251.25L476.179 1258.95C475.478 1259.2 474.711 1258.83 474.466 1258.12C474.237 1257.47 474.548 1256.75 475.165 1256.46L475.293 1256.41L497.379 1248.71Z" fill="#21211D"/>
<path d="M507.914 1263.99C508.611 1263.73 509.384 1264.09 509.641 1264.78C509.881 1265.44 509.583 1266.16 508.971 1266.45L508.844 1266.51L483.873 1275.71C483.176 1275.97 482.403 1275.61 482.147 1274.91C481.906 1274.26 482.204 1273.54 482.817 1273.24L482.943 1273.19L507.914 1263.99Z" fill="#21211D"/>
<path d="M521.784 1279.07C522.473 1278.79 523.256 1279.12 523.534 1279.81C523.795 1280.46 523.519 1281.18 522.916 1281.5L522.791 1281.56L497.922 1291.6C497.233 1291.88 496.45 1291.54 496.172 1290.86C495.911 1290.21 496.188 1289.48 496.79 1289.16L496.915 1289.11L521.784 1279.07Z" fill="#21211D"/>
<path d="M818.735 1234.15C819.436 1233.9 820.203 1234.27 820.447 1234.97C820.677 1235.63 820.366 1236.35 819.748 1236.63L819.621 1236.69L797.535 1244.39C796.834 1244.64 796.067 1244.27 795.822 1243.57C795.593 1242.91 795.904 1242.19 796.521 1241.91L796.649 1241.85L818.735 1234.15Z" fill="#21211D"/>
<path d="M830.077 1249.84C830.774 1249.58 831.547 1249.94 831.803 1250.63C832.044 1251.29 831.746 1252.01 831.133 1252.3L831.007 1252.36L806.036 1261.56C805.339 1261.82 804.566 1261.46 804.309 1260.76C804.069 1260.11 804.367 1259.39 804.979 1259.09L805.106 1259.04L830.077 1249.84Z" fill="#21211D"/>
<path d="M843.14 1264.92C843.829 1264.64 844.612 1264.97 844.89 1265.66C845.151 1266.31 844.875 1267.03 844.272 1267.35L844.147 1267.41L819.278 1277.45C818.589 1277.73 817.806 1277.39 817.528 1276.71C817.267 1276.06 817.543 1275.33 818.146 1275.01L818.271 1274.96L843.14 1264.92Z" fill="#21211D"/>
<path d="M908.091 1197.12C899.543 1198.04 888.349 1201.57 875.112 1207.19C869.766 1209.46 864.174 1212.04 858.409 1214.87C851.082 1218.46 843.811 1222.28 836.87 1226.13L834.985 1227.17C832.597 1228.51 830.408 1229.76 828.45 1230.89L825.25 1232.77C824.093 1233.47 824.569 1235.25 825.919 1235.27L826.883 1235.28L828.502 1235.29C832.962 1235.31 838.539 1235.24 844.855 1235.02C855.48 1234.65 865.965 1233.93 875.778 1232.76L877.585 1232.54C891.632 1230.79 903.243 1228.22 911.657 1224.7C922.426 1220.19 927.814 1214.13 926.435 1206.35C925.1 1198.83 918.555 1195.98 908.091 1197.12ZM923.787 1206.82C925.88 1218.61 907.526 1226.3 875.462 1230.09C865.731 1231.25 855.317 1231.96 844.762 1232.33L842.139 1232.42C838.804 1232.51 835.709 1232.57 832.916 1232.59L830.859 1232.61L833.545 1231.07C834.429 1230.57 835.347 1230.05 836.297 1229.52C843.762 1225.35 851.647 1221.17 859.592 1217.28C865.316 1214.48 870.865 1211.92 876.164 1209.67C889.178 1204.14 900.152 1200.68 908.38 1199.79C917.472 1198.81 922.597 1200.96 923.736 1206.56L923.787 1206.82Z" fill="#21211D"/>
<path d="M828.217 1232.55L826.163 1232.67C824.839 1232.75 823.607 1232.83 822.479 1232.92L820.366 1233.08C819.096 1233.2 818.683 1234.85 819.75 1235.55L821.105 1236.42C821.307 1236.55 821.521 1236.68 821.745 1236.82L823.419 1237.87C824.583 1238.59 825.841 1239.36 827.183 1240.17C832.935 1243.63 839.062 1247.08 845.309 1250.31C850.963 1253.24 856.447 1255.83 861.663 1258.01L863.087 1258.59C872.993 1262.62 881.506 1264.93 888.266 1265.14C896.869 1265.42 902.583 1262.26 904.511 1255.23C906.63 1247.5 902.392 1241.75 893.166 1237.98C885.734 1234.94 875.139 1233.16 862.168 1232.41C851.188 1231.78 839.457 1231.92 828.217 1232.55ZM862.013 1235.1C874.713 1235.83 885.052 1237.57 892.149 1240.47C900.256 1243.78 903.612 1248.33 901.918 1254.51C898.984 1265.21 884.83 1264.76 862.698 1255.52C857.555 1253.38 852.136 1250.82 846.544 1247.93C840.353 1244.72 834.275 1241.29 828.569 1237.86L826.636 1236.69C826.014 1236.31 825.414 1235.94 824.838 1235.59L824.634 1235.46L826.329 1235.35C826.985 1235.31 827.664 1235.27 828.366 1235.23C839.513 1234.61 851.148 1234.47 862.013 1235.1Z" fill="#21211D"/>
<path d="M585.695 1210.19C577.209 1211.26 566.137 1214.97 553.064 1220.8C547.806 1223.15 542.31 1225.81 536.643 1228.71C529.315 1232.47 522.036 1236.47 515.084 1240.5L513.196 1241.59C511.283 1242.71 509.496 1243.77 507.853 1244.76L505.706 1246.06L503.441 1247.46C502.298 1248.17 502.808 1249.94 504.158 1249.94L505.281 1249.93C506.061 1249.92 506.947 1249.91 507.932 1249.89L508.432 1249.88C511.823 1249.81 515.599 1249.69 519.666 1249.49C531.289 1248.95 542.913 1247.99 553.77 1246.5C568.639 1244.46 580.876 1241.59 589.611 1237.74C600.34 1233.02 605.639 1226.85 604.11 1219.09C602.638 1211.62 596.078 1208.89 585.695 1210.19ZM601.472 1219.61C603.792 1231.38 585.504 1239.43 553.405 1243.83C542.636 1245.31 531.089 1246.27 519.541 1246.81L518.536 1246.85C515.577 1246.99 512.782 1247.08 510.189 1247.15L509.053 1247.18L511.137 1245.93C512.223 1245.28 513.363 1244.61 514.553 1243.92C522.03 1239.55 529.923 1235.18 537.87 1231.1C543.496 1228.22 548.95 1225.59 554.16 1223.26C567.011 1217.52 577.865 1213.89 586.03 1212.86C595.187 1211.71 600.338 1213.85 601.472 1219.61Z" fill="#21211D"/>
<path d="M508.282 1246.22L506.005 1246.39C504.775 1246.48 503.604 1246.57 502.498 1246.67L500.493 1246.85L498.564 1247.04C497.297 1247.18 496.916 1248.84 497.995 1249.52L499.345 1250.35L499.983 1250.74C501.578 1251.7 503.396 1252.78 505.403 1253.93C511.137 1257.23 517.248 1260.54 523.482 1263.62C529.209 1266.45 534.763 1268.96 540.044 1271.05C550.701 1275.28 559.81 1277.67 566.942 1277.79C575.614 1277.93 581.308 1274.66 583.111 1267.56C585.079 1259.81 580.759 1254.15 571.507 1250.56C564.051 1247.66 553.463 1246.08 540.521 1245.58C530.17 1245.17 519.093 1245.47 508.282 1246.22ZM540.416 1248.26C553.086 1248.76 563.415 1250.3 570.534 1253.06C578.659 1256.22 582.079 1260.7 580.505 1266.9C577.762 1277.7 563.49 1277.46 541.036 1268.56C535.828 1266.49 530.339 1264.01 524.674 1261.21C518.494 1258.15 512.432 1254.88 506.745 1251.6L506.088 1251.22C505.223 1250.72 504.395 1250.24 503.608 1249.77L502.876 1249.34L503.397 1249.29C504.968 1249.16 506.664 1249.03 508.468 1248.9C519.19 1248.16 530.175 1247.86 540.416 1248.26Z" fill="#21211D"/>
<path fill-rule="evenodd" clip-rule="evenodd" d="M504.236 337.312C530.157 331.403 555.895 324.751 581.583 317.873L620.083 307.401L622.488 306.745L623.09 306.581C622.631 306.699 622.044 306.834 621.522 306.936C620.476 307.158 619.284 307.281 618.338 307.398C614.471 307.781 610.469 307.598 606.653 306.742C598.999 305.029 592.089 301.026 586.871 295.156C584.244 292.248 582.051 288.877 580.45 285.262C580.035 284.373 579.666 283.456 579.349 282.526C579.04 281.638 578.804 280.997 578.588 280.2L578.436 279.626L578.365 279.338C578.358 279.305 578.334 279.208 578.34 279.228L578.363 279.304L578.55 279.917L578.921 281.143L581.897 290.942L593.816 330.135L605.91 369.271L620.634 432.624L632.962 471.677C641.11 497.486 668.198 511.662 693.467 503.34C717.547 495.41 731.284 469.911 725.472 445.194L725.425 445.006L713.448 381.176L703.866 341.644L694.217 302.139L684.39 262.69L681.931 252.83L681.622 251.597L681.469 250.981L680.88 248.864C680.403 247.26 679.966 245.788 679.35 244.11C678.709 242.395 678.016 240.695 677.277 239.021C674.236 232.336 670.168 226.113 665.29 220.692C655.506 209.883 642.563 202.277 628.352 199.262C621.273 197.75 613.904 197.322 606.722 198.11C604.943 198.275 602.939 198.617 601.069 198.962C600.137 199.138 599.138 199.345 598.27 199.54L597.658 199.683L595.21 200.252L556.042 209.401C529.953 215.602 503.913 222.03 478.057 229.2C448.991 237.261 431.827 267.861 439.719 297.549C447.381 326.372 475.847 343.736 504.097 337.345L504.236 337.312Z" fill="#21211D"/>
<path fill-rule="evenodd" clip-rule="evenodd" d="M308.8 507.723L378.427 280.955C383.582 237.635 420.178 211.226 463.026 212.788L540.555 218.727C577.418 220.072 609.461 238.756 618.273 275.211L638.8 507.723H308.8Z" fill="#21211D"/>
<mask id="mask2_706_208" style="mask-type:alpha" maskUnits="userSpaceOnUse" x="204" y="190" width="342" height="325">
<path fill-rule="evenodd" clip-rule="evenodd" d="M204.549 190.691H545.312V514.308H204.549V190.691Z" fill="white"/>
</mask>
<g mask="url(#mask2_706_208)">
<path fill-rule="evenodd" clip-rule="evenodd" d="M503.672 220.335C491.716 217.352 479.722 214.543 467.741 211.674L431.74 203.33L395.692 195.195L386.672 193.2L384.417 192.7L383.29 192.451L381.064 191.995L378.589 191.557C371.966 190.519 365.096 190.382 358.386 191.324C344.935 193.123 332.226 198.916 321.965 207.763C316.842 212.206 312.322 217.398 308.588 223.148C304.882 228.923 302.016 235.209 300.049 241.686L303.165 233.662L279.332 286.5C271.397 304.117 263.408 321.708 255.577 339.377L231.99 392.339C224.218 410.038 216.363 427.694 208.67 445.432C197.92 470.218 208.926 499.188 233.254 510.141C256.385 520.554 283.317 510.762 295.142 488.483C304.15 471.4 312.996 454.236 321.925 437.113L348.443 385.611C357.314 368.459 366.027 351.229 374.794 334.025L401.065 282.4L404.181 274.375C403.174 277.872 401.61 281.301 399.572 284.435C397.572 287.593 395.11 290.43 392.319 292.827C386.784 297.662 379.901 300.778 372.564 301.794C368.901 302.268 365.141 302.272 361.553 301.69C361.105 301.624 360.658 301.546 360.214 301.456L359.123 301.213L360.246 301.482L362.493 302.021L371.477 304.176L407.449 312.653L443.467 320.919C455.494 323.586 467.505 326.313 479.556 328.868C509.09 335.13 538.014 315.813 544.16 285.724C550.168 256.306 532.078 227.457 503.672 220.335Z" fill="#21211D"/>
</g>
<path fill-rule="evenodd" clip-rule="evenodd" d="M303.063 234.142C294.459 251.395 286.093 268.765 277.8 286.173L265.45 312.328L253.241 338.553C245.119 356.046 236.973 373.526 228.979 391.082C220.905 408.597 213.003 426.2 205.077 443.789L203.437 447.43C191.73 473.41 202.954 504.122 228.507 516.024C240.235 521.488 253.028 522.013 264.479 518.498L523.578 438.574C543.843 432.323 555.286 410.553 549.138 389.948C543.392 370.689 524.132 359.305 505.116 362.998L239.347 415.621L298.749 490.329C307.526 473.163 316.331 456.01 324.96 438.769C333.669 421.57 342.228 404.294 350.81 387.031L363.657 361.122L376.364 335.143C384.774 317.795 393.113 300.41 401.212 282.907C414.057 255.151 402.339 222.064 375.039 209.005C348.257 196.192 316.386 207.5 303.063 234.142Z" fill="#21211D"/>
<path fill-rule="evenodd" clip-rule="evenodd" d="M341.408 419.723C341.196 419.723 340.982 419.673 340.78 419.567C340.68 419.515 330.501 414.239 311.853 408.674C294.645 403.539 266.499 397.101 230.135 395.591C229.368 395.559 228.77 394.891 228.801 394.1C228.832 393.308 229.481 392.688 230.246 392.724C266.938 394.247 295.349 400.755 312.721 405.946C331.59 411.585 341.621 416.79 342.039 417.009C342.723 417.367 342.996 418.23 342.649 418.936C342.404 419.436 341.915 419.723 341.408 419.723Z" fill="#21211D"/>
<path fill-rule="evenodd" clip-rule="evenodd" d="M490.833 290.723C479.365 290.723 468.43 287.025 459.21 280.028C446.029 270.025 438.026 253.645 437.804 236.209C437.755 232.418 438.154 228.434 439.024 224.032L442.01 206.891C442.144 206.122 442.86 205.607 443.621 205.745C444.376 205.882 444.88 206.617 444.746 207.386L441.753 224.558C440.917 228.794 440.536 232.582 440.582 236.172C440.795 252.733 448.378 268.28 460.87 277.76C469.607 284.389 479.968 287.893 490.833 287.893C500.999 287.893 510.807 284.792 519.198 278.923C532.689 269.487 540.847 253.472 541.019 236.085C541.056 232.319 540.62 228.354 539.685 223.963L537.553 214.557C537.38 213.795 537.846 213.037 538.594 212.861C539.34 212.685 540.088 213.159 540.26 213.921L542.397 223.345C543.38 227.965 543.837 232.134 543.798 236.114C543.616 254.422 535.008 271.298 520.771 281.255C511.916 287.449 501.563 290.723 490.833 290.723Z" fill="#21211D"/>
<path fill-rule="evenodd" clip-rule="evenodd" d="M337.172 395.723C337.084 395.723 336.995 395.713 336.905 395.695C336.163 395.544 335.679 394.798 335.826 394.029L355.086 292.867C355.232 292.099 355.952 291.598 356.695 291.75C357.437 291.901 357.921 292.647 357.774 293.417L338.514 394.578C338.385 395.255 337.812 395.723 337.172 395.723Z" fill="#21211D"/>
<path fill-rule="evenodd" clip-rule="evenodd" d="M645.848 507.723L611.809 297.354C611.698 296.671 612.678 296.461 612.841 297.134L661.8 497.464L645.848 507.723Z" fill="#21211D"/>
<path fill-rule="evenodd" clip-rule="evenodd" d="M269.008 520.424C279.662 517.217 290.3 513.946 300.93 510.646L332.831 500.774C354.085 494.148 375.356 487.583 396.569 480.781C417.789 474.011 438.943 466.974 460.128 460.065L491.858 449.499L523.543 438.754C543.664 431.931 554.529 409.83 547.814 389.39C541.736 370.895 523.338 360.104 504.988 363.271L472.05 368.922L439.157 374.749C417.26 378.771 395.333 382.664 373.472 386.822C351.602 390.951 329.791 395.317 307.965 399.62L275.242 406.143C264.332 408.308 253.429 410.502 242.542 412.76C212.96 418.896 193.876 448.233 199.916 478.285C205.955 508.338 234.834 527.725 264.415 521.589C265.942 521.272 267.54 520.86 269.008 520.424Z" fill="#FFDDBA"/>
<path fill-rule="evenodd" clip-rule="evenodd" d="M471.986 412.242C484.809 408.409 497.589 404.4 510.351 400.305L529.471 394.056L534.244 392.465C535.792 391.951 537.588 391.342 538.677 391.01C541.218 390.204 543.609 389.628 545.348 389.345C547.138 389.062 548.326 389.007 549.592 389.185C550.845 389.366 552.346 389.926 554.116 391.059C555.875 392.191 557.841 393.704 559.792 395.61L560.414 396.181L560.917 396.674C561.25 397.012 561.572 397.37 561.886 397.743L562.123 398.022L562.242 398.167L562.429 398.425L563.171 399.462L564.659 401.536C572.596 412.593 580.669 423.565 589.234 434.232C592.502 438.3 598.387 438.9 602.38 435.57C605.673 432.825 606.643 428.254 605.051 424.457C599.726 411.786 593.908 399.421 587.954 387.14L586.837 384.837L586.279 383.686L586.138 383.398L585.929 382.998L585.495 382.195C584.9 381.134 584.26 380.097 583.578 379.077C583.236 378.569 582.884 378.064 582.521 377.565L581.966 376.821L581.49 376.21C579.04 372.974 576.194 369.703 572.699 366.607C569.208 363.536 564.847 360.585 559.737 358.602C554.65 356.588 549.078 355.744 544.187 355.724C539.228 355.691 534.996 356.309 531.01 357.003C528.825 357.391 527.396 357.706 525.702 358.043L520.758 359.046L501.009 363.17C487.859 365.991 474.727 368.895 461.638 371.978C450.643 374.566 443.789 385.746 446.329 396.949C448.868 408.153 459.84 415.137 470.834 412.549C471.201 412.463 471.628 412.347 471.986 412.242Z" fill="#FFDDBA"/>
<path fill-rule="evenodd" clip-rule="evenodd" d="M458.649 439.162L545.426 404.691L532.282 402.774C532.162 402.653 532.449 402.822 532.574 402.88L533.116 403.184C533.488 403.398 533.882 403.641 534.276 403.892C535.065 404.389 535.861 404.942 536.651 405.507C538.231 406.649 539.777 407.887 541.251 409.194C544.2 411.812 546.886 414.7 549.117 417.813C550.247 419.366 551.267 420.974 552.142 422.638C553.037 424.299 553.814 426.01 554.422 427.773C555.714 431.294 556.327 435.025 556.423 438.919L556.438 439.534C556.566 444.737 560.809 448.849 565.916 448.72C570.338 448.608 573.955 445.347 574.767 441.1C575.875 435.296 576.149 429.137 575.308 423.128C574.93 420.115 574.284 417.147 573.442 414.258C572.617 411.357 571.575 408.545 570.37 405.836C567.979 400.391 564.947 395.364 561.51 390.708C559.786 388.377 557.956 386.143 556.005 383.983C555.024 382.904 554.023 381.841 552.958 380.792C552.427 380.265 551.887 379.744 551.311 379.214L550.422 378.409C550.066 378.104 549.869 377.912 549.258 377.444L549.256 377.442C545.683 374.835 541.33 374.149 537.381 375.185L536.111 375.525L446.032 399.662C435.124 402.586 428.608 413.963 431.477 425.073C434.347 436.184 445.516 442.822 456.424 439.899C457.182 439.695 457.936 439.444 458.649 439.162Z" fill="#FFDDBA"/>
<path fill-rule="evenodd" clip-rule="evenodd" d="M442.663 448.369L529.483 413.779L517.813 412.766L517.812 412.765C517.64 412.663 517.657 412.663 517.663 412.658C517.658 412.646 517.658 412.636 517.689 412.646C517.738 412.66 517.765 412.654 517.837 412.683C517.959 412.722 518.094 412.77 518.248 412.837C518.544 412.957 518.871 413.108 519.201 413.273C519.863 413.607 520.553 413.98 521.228 414.404C522.59 415.234 523.915 416.205 525.162 417.265C527.669 419.384 529.854 421.883 531.6 424.719C533.369 427.548 534.678 430.746 535.513 434.25C536.324 437.757 536.669 441.563 536.516 445.529L536.502 445.877C536.301 451.104 540.286 455.509 545.403 455.715C549.833 455.893 553.658 452.863 554.737 448.657C556.081 443.433 556.851 437.857 556.797 432.086C556.723 426.328 555.777 420.373 553.83 414.691C551.912 408.994 549.051 403.593 545.479 398.768C543.694 396.349 541.743 394.062 539.596 391.916C538.531 390.835 537.402 389.801 536.21 388.778C535.612 388.267 534.996 387.764 534.332 387.255C534.008 387.003 533.659 386.745 533.294 386.483L532.706 386.074L532.361 385.846C532.242 385.77 532.135 385.699 531.837 385.528L531.834 385.526C528.497 383.658 524.75 383.289 521.336 384.198L520.163 384.513L430.04 408.734C419.126 411.667 412.606 423.083 415.477 434.232C418.349 445.382 429.524 452.042 440.437 449.109C441.196 448.905 441.949 448.652 442.663 448.369Z" fill="#FFDDBA"/>
<path fill-rule="evenodd" clip-rule="evenodd" d="M428.376 458.014L516.369 419.439L500.983 416.361H500.982C501.151 416.435 501.601 416.783 501.932 417.027L503.025 417.871C503.759 418.448 504.492 419.046 505.217 419.655C506.664 420.873 508.071 422.136 509.409 423.416C512.077 425.964 514.51 428.662 516.229 431.088C517.091 432.288 517.744 433.415 518.134 434.154C518.543 434.927 518.659 435.1 518.986 434.851C519.142 434.752 519.354 434.637 519.48 434.679C519.607 434.713 519.623 434.896 519.462 435.165C519.157 435.718 518.099 436.496 516.775 437.155L515.97 437.555C511.383 439.838 509.488 445.462 511.739 450.115C513.653 454.075 517.956 456.054 522.021 455.151C524.817 454.531 527.828 453.656 531.046 451.652C532.64 450.648 534.271 449.345 535.736 447.657C537.201 445.981 538.459 443.915 539.297 441.735C540.145 439.555 540.582 437.311 540.732 435.236C540.883 433.153 540.769 431.224 540.532 429.448C540.042 425.891 539.099 422.905 538.053 420.179C535.926 414.746 533.318 410.253 530.56 405.993C529.175 403.871 527.74 401.83 526.247 399.838C525.5 398.841 524.739 397.857 523.954 396.876L522.751 395.401C522.31 394.879 521.98 394.469 521.356 393.799L521.353 393.796C517.437 389.999 511.97 388.869 507.132 390.354L505.966 390.718L414.287 419.117C403.483 422.464 397.398 434.064 400.697 445.025C403.997 455.987 415.431 462.16 426.236 458.812C426.966 458.586 427.691 458.313 428.376 458.014Z" fill="#FFDDBA"/>
<path fill-rule="evenodd" clip-rule="evenodd" d="M578.404 421.723C577.885 421.723 577.385 421.428 577.145 420.922C577.041 420.703 566.555 398.946 553.656 393.447C552.945 393.143 552.61 392.313 552.91 391.591C553.208 390.869 554.027 390.531 554.739 390.834C568.613 396.749 579.216 418.755 579.66 419.689C579.996 420.394 579.706 421.241 579.01 421.581C578.815 421.677 578.608 421.723 578.404 421.723Z" fill="#21211D"/>
<path fill-rule="evenodd" clip-rule="evenodd" d="M556.128 440.723C556.065 440.723 556.003 440.719 555.94 440.709C555.184 440.604 554.655 439.892 554.758 439.12C554.791 438.87 557.906 413.995 541.744 408.474C541.02 408.227 540.63 407.427 540.872 406.687C541.113 405.948 541.897 405.549 542.619 405.796C550.265 408.408 555.258 415.12 557.06 425.207C558.388 432.642 557.531 439.226 557.494 439.503C557.399 440.21 556.807 440.723 556.128 440.723Z" fill="#21211D"/>
<path fill-rule="evenodd" clip-rule="evenodd" d="M536.364 447.723C536.166 447.723 535.964 447.68 535.773 447.591C535.065 447.261 534.757 446.415 535.082 445.7C535.121 445.614 539.006 436.934 535.491 429.695C533.319 425.221 528.744 422.14 521.893 420.535C521.134 420.357 520.661 419.592 520.837 418.825C521.014 418.059 521.773 417.583 522.532 417.76C530.26 419.569 535.477 423.17 538.036 428.462C542.135 436.932 537.831 446.495 537.645 446.898C537.406 447.417 536.897 447.723 536.364 447.723Z" fill="#21211D"/>
<path fill-rule="evenodd" clip-rule="evenodd" d="M509.217 442.723C508.62 442.723 508.064 442.353 507.869 441.773C507.629 441.052 508.035 440.276 508.78 440.043L514.712 438.174L512.179 437.408C511.432 437.183 511.016 436.412 511.249 435.688C511.481 434.964 512.273 434.559 513.021 434.786L519.804 436.834C520.394 437.012 520.796 437.539 520.8 438.137C520.804 438.735 520.408 439.267 519.822 439.452L509.654 442.655C509.509 442.701 509.362 442.723 509.217 442.723Z" fill="#21211D"/>
<path fill-rule="evenodd" clip-rule="evenodd" d="M620.8 508.723H870.781L937.8 316.723H696.539C691.311 316.723 686.645 320.069 684.889 325.079L620.8 508.723Z" fill="#21211D"/>
<path fill-rule="evenodd" clip-rule="evenodd" d="M640.757 508.723H886.382C887.208 508.723 887.946 508.193 888.224 507.4L950.246 329.506C952.429 323.275 947.891 316.723 941.394 316.723H715.04C708.988 316.723 703.59 320.597 701.556 326.402L638.915 506.062C638.461 507.358 639.406 508.723 640.757 508.723Z" fill="#2E4C9E"/>
<mask id="mask3_706_208" style="mask-type:alpha" maskUnits="userSpaceOnUse" x="638" y="317" width="313" height="192">
<path fill-rule="evenodd" clip-rule="evenodd" d="M940.908 317.496C947.401 317.496 951.936 324.03 949.754 330.242L887.77 507.601C887.492 508.391 886.755 508.92 885.929 508.92H640.454C639.103 508.92 638.159 507.559 638.613 506.266L701.216 327.147C703.248 321.36 708.643 317.496 714.691 317.496H940.908Z" fill="white"/>
</mask>
<g mask="url(#mask3_706_208)">
<path fill-rule="evenodd" clip-rule="evenodd" d="M925.442 278.094L617.354 493.48L695.793 545.275L982.439 360.861L925.442 278.094Z" fill="#4965CC"/>
</g>
<path fill-rule="evenodd" clip-rule="evenodd" d="M808.8 490.723V508.723H502.8C502.8 498.782 510.56 490.723 520.131 490.723H808.8ZM798.179 393.723C805.561 393.723 810.705 399.766 809.667 407.222C808.629 414.678 801.804 420.723 794.421 420.723C787.04 420.723 781.895 414.678 782.933 407.222C783.971 399.766 790.796 393.723 798.179 393.723Z" fill="#2E4C9E"/>
<path fill-rule="evenodd" clip-rule="evenodd" d="M892.408 491.723H644.191C643.423 491.723 642.8 491.051 642.8 490.223C642.8 489.395 643.423 488.723 644.191 488.723H892.408C893.177 488.723 893.8 489.395 893.8 490.223C893.8 491.051 893.177 491.723 892.408 491.723Z" fill="#21211D"/>
<path fill-rule="evenodd" clip-rule="evenodd" d="M530.624 215.489L532.523 231.833C532.779 234.166 532.876 236.784 532.735 239.204C531.388 262.352 511.746 280.012 488.864 278.649C465.982 277.285 448.525 257.415 449.873 234.267L451.419 207.723C451.419 207.723 479.951 217.215 530.624 215.489Z" fill="#FFDDBA"/>
<mask id="mask4_706_208" style="mask-type:alpha" maskUnits="userSpaceOnUse" x="434" y="46" width="140" height="139">
<path fill-rule="evenodd" clip-rule="evenodd" d="M434.094 46.4023H573.734V184.892H434.094V46.4023Z" fill="white"/>
</mask>
<g mask="url(#mask4_706_208)">
<path fill-rule="evenodd" clip-rule="evenodd" d="M563.189 175.905C554.63 184.824 542.93 186.294 530.567 183.816C499.011 177.49 462.973 145.458 462.973 145.458C455.826 139.853 448.218 132.173 443.42 123.7L443.175 123.254C441.907 120.991 440.855 118.657 440.063 116.308C439.688 115.185 439.371 114.046 439.126 112.908C437.584 105.876 436.489 106.467 434.63 94.7229C432.051 78.4409 438.852 64.0319 453.434 56.1639C473.074 45.5589 498.521 42.8359 519.501 51.7839C519.558 51.8129 519.616 51.8269 519.673 51.8559C544.428 62.5329 557.455 90.7319 566.633 114.435C574.14 133.816 579.184 159.233 563.189 175.905Z" fill="#FFDDBA"/>
</g>
<path fill-rule="evenodd" clip-rule="evenodd" d="M519.099 111.427L532.1 222.014C534.668 243.854 519.044 263.641 497.204 266.208C475.364 268.776 455.578 253.153 453.011 231.313C452.742 229.028 452.691 226.545 452.807 224.322L459.353 113.166C460.328 96.6246 474.526 84.0056 491.067 84.9806C505.816 85.8486 517.444 97.2436 519.099 111.427Z" fill="#FFDDBA"/>
<path fill-rule="evenodd" clip-rule="evenodd" d="M527.677 183.009C527.677 183.009 518.333 181.45 505.953 175.088C504.44 174.31 502.944 176.151 504.033 177.459L530.463 208.444L527.677 183.009Z" fill="#21211D"/>
<path fill-rule="evenodd" clip-rule="evenodd" d="M456.913 151.711C456.913 151.711 459.892 149.935 462.037 146.79C462.364 146.311 463.105 146.447 463.217 147.017C463.98 150.901 464.664 161.181 455.881 169.644L456.913 151.711Z" fill="#21211D"/>
<path fill-rule="evenodd" clip-rule="evenodd" d="M518.048 51.2191C517.99 51.1901 517.933 51.1761 517.875 51.1471C496.895 42.1991 471.448 44.9221 451.809 55.5271C437.227 63.3951 430.425 77.8041 433.005 94.0861C434.863 105.83 435.959 105.239 437.501 112.271C437.745 113.409 438.063 114.547 438.437 115.671C438.451 115.729 438.48 115.787 438.495 115.844L455.959 117.617C458.769 118.496 461.103 120.455 462.472 123.063L466.131 130.023C467.846 133.452 471.895 135.023 475.483 133.64C478.437 132.501 480.253 129.677 480.253 126.694C480.253 125.859 480.109 125.009 479.82 124.187L466.496 86.8991" fill="#9F9BE6"/>
<mask id="mask5_706_208" style="mask-type:alpha" maskUnits="userSpaceOnUse" x="421" y="110" width="46" height="46">
<path fill-rule="evenodd" clip-rule="evenodd" d="M421.8 110.967H466.6V155.766H421.8V110.967Z" fill="white"/>
</mask>
<g mask="url(#mask5_706_208)">
<path fill-rule="evenodd" clip-rule="evenodd" d="M466.562 134.663C465.846 147.013 455.254 156.444 442.904 155.728C430.554 155.012 421.123 144.42 421.838 132.07C422.555 119.72 433.146 110.289 445.497 111.005C457.847 111.721 467.278 122.313 466.562 134.663Z" fill="#FFDDBA"/>
</g>
<path fill-rule="evenodd" clip-rule="evenodd" d="M452.218 136.149C452.032 136.149 451.843 136.113 451.662 136.037L434.073 128.669C433.34 128.361 432.993 127.517 433.301 126.783C433.609 126.049 434.456 125.703 435.187 126.011L452.775 133.379C453.509 133.686 453.855 134.53 453.548 135.264C453.316 135.816 452.781 136.149 452.218 136.149Z" fill="#21211D"/>
<path fill-rule="evenodd" clip-rule="evenodd" d="M441.285 139.24C441.114 139.24 440.94 139.209 440.771 139.145C440.028 138.861 439.656 138.028 439.939 137.284L442.465 130.673C442.749 129.929 443.584 129.557 444.326 129.841C445.069 130.125 445.441 130.958 445.158 131.701L442.632 138.313C442.412 138.887 441.865 139.24 441.285 139.24Z" fill="#21211D"/>
<path fill-rule="evenodd" clip-rule="evenodd" d="M436.618 112.401C432.19 112.401 427.839 110.282 425.158 106.345C420.853 100.023 422.489 91.408 428.811 87.104C430.667 85.841 475.089 56.142 547.513 54.458C555.228 54.302 561.502 60.335 561.68 67.981C561.857 75.627 555.804 81.97 548.157 82.148C483.825 83.644 444.786 109.734 444.399 109.998C442.014 111.622 439.301 112.401 436.618 112.401Z" fill="#D5962F"/>
<mask id="mask6_706_208" style="mask-type:alpha" maskUnits="userSpaceOnUse" x="424" y="9" width="129" height="92">
<path fill-rule="evenodd" clip-rule="evenodd" d="M424.356 9.72266H552.365V100.886H424.356V9.72266Z" fill="white"/>
</mask>
<g mask="url(#mask6_706_208)">
<path fill-rule="evenodd" clip-rule="evenodd" d="M552.365 59.9645C552.365 59.9645 542.123 32.4535 520.903 31.3785C520.903 31.3785 496.192 -3.95247 442.264 15.6415C418.658 24.2185 424.248 40.3735 426.871 57.2295C430.24 78.8805 430.934 100.887 430.934 100.887C430.934 100.887 483.82 67.7105 552.365 59.9645Z" fill="#D5962F"/>
</g>
<path fill-rule="evenodd" clip-rule="evenodd" d="M428.812 88.5448C428.352 88.5448 427.899 88.3248 427.621 87.9158C427.172 87.2588 427.341 86.3628 427.998 85.9138C428.469 85.5918 439.776 77.9418 460.235 69.9988C479.085 62.6808 509.522 53.7948 547.483 53.0177C548.293 53.0088 548.936 53.6328 548.954 54.4288C548.969 55.2238 548.337 55.8828 547.541 55.8988C510.049 56.6658 479.99 65.4308 461.375 72.6478C441.193 80.4728 429.736 88.2168 429.623 88.2938C429.374 88.4638 429.092 88.5448 428.812 88.5448Z" fill="#21211D"/>
<path fill-rule="evenodd" clip-rule="evenodd" d="M533.355 36.8163C533.023 36.8163 532.69 36.7023 532.418 36.4703C532.316 36.3853 526.778 31.9493 512.31 32.9523C511.51 33.0063 510.827 32.4083 510.772 31.6143C510.717 30.8213 511.316 30.1323 512.11 30.0773C527.997 28.9773 534.051 34.0703 534.301 34.2883C534.901 34.8103 534.965 35.7203 534.443 36.3203C534.158 36.6483 533.757 36.8163 533.355 36.8163Z" fill="#21211D"/>
<path fill-rule="evenodd" clip-rule="evenodd" d="M428.805 62.9902C428.009 62.9902 427.364 62.3443 427.364 61.5493L427.37 43.8463C427.37 43.0513 428.015 42.4062 428.811 42.4062C429.607 42.4062 430.252 43.0513 430.252 43.8473L430.246 61.5503C430.245 62.3453 429.6 62.9902 428.805 62.9902Z" fill="#21211D"/>
<path fill-rule="evenodd" clip-rule="evenodd" d="M577.683 114.116C577.683 114.116 570.245 123.311 558.15 122.88C553.024 122.689 547.058 120.793 540.496 115.7C540.496 115.7 546.888 108.366 557.527 107.657C563.165 107.263 569.982 108.712 577.683 114.116Z" fill="white"/>
<path fill-rule="evenodd" clip-rule="evenodd" d="M577.683 114.116C577.683 114.116 570.245 123.311 558.15 122.88C556.451 120.828 555.42 118.262 555.298 115.402C555.176 112.541 556.008 109.845 557.527 107.657C563.165 107.263 569.982 108.712 577.683 114.116Z" fill="#21211D"/>
<path d="M530.422 108.689C531.175 108.482 531.952 108.887 532.224 109.603L532.269 109.74L538.507 132.465C539.629 136.55 536.623 140.58 532.429 140.712L532.199 140.715L527.006 140.7C526.176 140.698 525.505 140.023 525.508 139.193C525.51 138.409 526.112 137.767 526.878 137.7L527.015 137.694L532.208 137.709C534.47 137.715 536.132 135.622 535.653 133.443L535.608 133.261L529.37 110.536C529.151 109.736 529.621 108.908 530.422 108.689Z" fill="#21211D"/>
<path d="M545.546 96.0957C554.469 92.5997 564.498 92.6207 574.61 98.4999C575.328 98.9171 575.572 99.837 575.154 100.555C574.737 101.272 573.817 101.516 573.1 101.099C563.861 95.7277 554.774 95.7086 546.643 98.8946C545.467 99.3552 544.422 99.8475 543.522 100.337L543.052 100.6C542.778 100.758 542.583 100.88 542.473 100.954C541.785 101.419 540.851 101.239 540.386 100.551C539.921 99.8632 540.102 98.9288 540.789 98.464L540.98 98.3395C541.235 98.1774 541.606 97.9579 542.085 97.6972C543.091 97.1493 544.249 96.6038 545.546 96.0957Z" fill="#21211D"/>
<path fill-rule="evenodd" clip-rule="evenodd" d="M525.356 114.116C525.356 114.116 517.918 123.311 505.823 122.88C500.697 122.689 494.731 120.793 488.169 115.7C488.169 115.7 494.56 108.366 505.2 107.657C510.838 107.263 517.655 108.712 525.356 114.116Z" fill="white"/>
<path fill-rule="evenodd" clip-rule="evenodd" d="M525.356 114.116C525.356 114.116 517.918 123.311 505.823 122.88C504.124 120.828 503.093 118.262 502.971 115.402C502.849 112.541 503.681 109.845 505.2 107.657C510.838 107.263 517.655 108.712 525.356 114.116Z" fill="#21211D"/>
<path d="M488.548 98.4999C498.66 92.6207 508.688 92.5997 517.612 96.0957C518.909 96.6037 520.067 97.1493 521.074 97.6972L521.457 97.9102C521.874 98.146 522.18 98.336 522.369 98.464C523.057 98.9288 523.237 99.8631 522.772 100.551C522.308 101.239 521.373 101.419 520.686 100.954L520.457 100.809C520.264 100.69 519.989 100.529 519.637 100.337C518.736 99.8476 517.691 99.3552 516.515 98.8946C508.383 95.7086 499.296 95.7277 490.059 101.099C489.341 101.516 488.421 101.272 488.004 100.555C487.587 99.8371 487.83 98.9171 488.548 98.4999Z" fill="#21211D"/>
<path d="M517.586 143.795C518.322 143.535 519.126 143.884 519.448 144.578L519.554 144.842C519.611 144.976 519.703 145.173 519.834 145.416C520.149 146 520.553 146.587 521.05 147.132C522.687 148.929 524.907 149.86 527.938 149.499C528.763 149.401 529.511 149.989 529.609 150.814C529.707 151.638 529.118 152.386 528.294 152.484C524.25 152.966 521.092 151.64 518.828 149.157C517.672 147.889 516.988 146.62 516.668 145.712C516.392 144.929 516.803 144.071 517.586 143.795Z" fill="#21211D"/>
<path d="M507.043 139.94C511.94 136.402 517.77 135.798 524.202 138.048C530.829 140.367 535.361 145.388 537.666 152.835C538.156 154.418 537.27 156.098 535.687 156.588C534.104 157.078 532.424 156.192 531.934 154.609C530.172 148.915 526.978 145.376 522.221 143.712C517.561 142.082 513.783 142.473 510.557 144.804C509.214 145.774 507.339 145.472 506.368 144.129C505.398 142.786 505.7 140.911 507.043 139.94Z" fill="#9F9BE6"/>
<path fill-rule="evenodd" clip-rule="evenodd" d="M483.711 106.453C483.633 106.475 483.554 106.492 483.472 106.503L441.657 112.13C440.743 112.252 439.904 111.612 439.781 110.698C439.658 109.786 440.301 108.95 441.212 108.821L483.027 103.195C483.94 103.072 484.779 103.713 484.903 104.627C485.014 105.457 484.494 106.229 483.711 106.453Z" fill="#20201D"/>
<path fill-rule="evenodd" clip-rule="evenodd" d="M527.8 99.7227V115.191C527.8 128.057 517.488 138.512 504.689 138.72L504.3 138.723C491.321 138.723 480.8 128.187 480.8 115.191V99.7227H527.8ZM523.8 104.723H486.8V117.012C486.8 120.141 487.558 123.09 488.897 125.683C490.557 128.876 493.107 131.534 496.203 133.309C498.203 134.451 500.428 135.233 502.799 135.542C503.622 135.657 504.445 135.723 505.299 135.723C506.008 135.723 506.703 135.69 507.396 135.591C516.622 134.549 523.8 126.627 523.8 117.012V104.723Z" fill="#20201D"/>
<path fill-rule="evenodd" clip-rule="evenodd" d="M585.8 100.723V116.191C585.8 129.057 575.488 139.512 562.688 139.72L562.299 139.723C549.32 139.723 538.8 129.187 538.8 116.191V100.723H585.8ZM580.8 104.723H543.8V117.012C543.8 120.483 544.736 123.727 546.364 126.497C548.22 129.725 551.025 132.316 554.364 133.93C556.623 135.005 559.122 135.641 561.768 135.706C561.944 135.723 562.122 135.723 562.3 135.723C563.784 135.723 565.219 135.542 566.59 135.217C574.736 133.261 580.8 125.846 580.8 117.012V104.723Z" fill="#20201D"/>
<path fill-rule="evenodd" clip-rule="evenodd" d="M477.8 99.7227H482.8V104.723H480.759C479.125 104.723 477.8 103.398 477.8 101.764V99.7227Z" fill="#20201D"/>
<path fill-rule="evenodd" clip-rule="evenodd" d="M589.8 100.723H584.8V105.723H586.841C588.476 105.723 589.8 104.398 589.8 102.764V100.723Z" fill="#20201D"/>
<path fill-rule="evenodd" clip-rule="evenodd" d="M543.124 103.723C542.84 103.723 542.551 103.65 542.287 103.497C533.678 98.5073 525.611 102.749 525.271 102.932C524.459 103.37 523.442 103.068 523.003 102.255C522.563 101.443 522.861 100.427 523.671 99.9843C524.075 99.7636 533.689 94.6362 543.965 100.592C544.764 101.056 545.038 102.082 544.575 102.884C544.264 103.422 543.702 103.723 543.124 103.723Z" fill="#20201D"/>
</svg>
