<svg width="2898" height="1733" viewBox="0 0 2898 1733" fill="none" xmlns="http://www.w3.org/2000/svg">
<mask id="mask0_710_882" style="mask-type:alpha" maskUnits="userSpaceOnUse" x="2410" y="51" width="5" height="321">
<path fill-rule="evenodd" clip-rule="evenodd" d="M2410.92 51.252H2414.42V371.895H2410.92V51.252Z" fill="white"/>
</mask>
<g mask="url(#mask0_710_882)">
<path fill-rule="evenodd" clip-rule="evenodd" d="M2412.67 371.895C2411.71 371.895 2410.92 371.112 2410.92 370.144V53.0035C2410.92 52.0367 2411.71 51.252 2412.67 51.252C2413.64 51.252 2414.42 52.0367 2414.42 53.0035V370.144C2414.42 371.112 2413.64 371.895 2412.67 371.895Z" fill="#21211D"/>
</g>
<path fill-rule="evenodd" clip-rule="evenodd" d="M2458.89 513.776C2458.89 539.3 2438.2 559.99 2412.67 559.99C2387.15 559.99 2366.46 539.3 2366.46 513.776C2366.46 488.253 2387.15 467.562 2412.67 467.562C2438.2 467.562 2458.89 488.253 2458.89 513.776Z" fill="#EDC829"/>
<path fill-rule="evenodd" clip-rule="evenodd" d="M2269.04 513.775C2269.04 434.448 2333.35 370.141 2412.67 370.141C2492 370.141 2556.31 434.448 2556.31 513.775H2269.04Z" fill="#F73132"/>
<path fill-rule="evenodd" clip-rule="evenodd" d="M2419.06 548.402C2418.27 548.402 2417.56 547.87 2417.36 547.073C2417.13 546.135 2417.7 545.184 2418.64 544.95C2438.93 539.89 2439.21 523.615 2439.21 522.925C2439.21 521.959 2440 521.176 2440.96 521.176C2441.93 521.176 2442.71 521.954 2442.71 522.919C2442.71 523.115 2442.51 542.609 2419.49 548.349C2419.34 548.384 2419.2 548.402 2419.06 548.402Z" fill="white"/>
<mask id="mask1_710_882" style="mask-type:alpha" maskUnits="userSpaceOnUse" x="2269" y="370" width="288" height="144">
<path fill-rule="evenodd" clip-rule="evenodd" d="M2269.04 513.775H2556.31C2556.31 434.449 2492 370.141 2412.67 370.141C2333.35 370.141 2269.04 434.449 2269.04 513.775Z" fill="white"/>
</mask>
<g mask="url(#mask1_710_882)">
<path fill-rule="evenodd" clip-rule="evenodd" d="M2228.94 526.276C2228.58 526.276 2228.23 526.169 2227.92 525.949C2227.13 525.385 2226.95 524.291 2227.51 523.505C2245.51 498.349 2265.59 472.074 2290.42 450.319C2317.24 426.812 2346.82 411.679 2375.94 406.553C2387.12 404.587 2394.78 406.169 2399.35 411.395C2404.43 417.197 2404.34 426.692 2399.13 436.792C2397.13 440.657 2394.75 444.35 2392.45 447.922C2389.41 452.656 2386.25 457.552 2384.08 462.757C2380.85 470.482 2379.45 482.081 2386.16 489.339C2390.08 493.585 2396.59 495.902 2404.11 495.726C2419.8 495.331 2433.21 485.887 2447.87 474.515L2588.7 365.294C2589.46 364.701 2590.56 364.839 2591.16 365.604C2591.75 366.368 2591.61 367.469 2590.85 368.062L2450.02 477.284C2438.33 486.353 2422.31 498.772 2404.19 499.228C2395.71 499.446 2388.19 496.702 2383.58 491.716C2375.75 483.238 2377.22 470.089 2380.85 461.404C2383.14 455.916 2386.38 450.887 2389.51 446.025C2391.76 442.523 2394.09 438.901 2396.01 435.184C2397.71 431.898 2402.78 420.634 2396.71 413.701C2393.02 409.476 2386.42 408.265 2376.55 410.003C2348.06 415.017 2319.07 429.87 2292.73 452.954C2268.17 474.474 2248.24 500.56 2230.36 525.543C2230.02 526.021 2229.48 526.276 2228.94 526.276Z" fill="#ED7AD8"/>
</g>
<mask id="mask2_710_882" style="mask-type:alpha" maskUnits="userSpaceOnUse" x="2269" y="370" width="288" height="144">
<path fill-rule="evenodd" clip-rule="evenodd" d="M2269.04 513.775H2556.31C2556.31 434.449 2492 370.141 2412.67 370.141C2333.35 370.141 2269.04 434.449 2269.04 513.775Z" fill="white"/>
</mask>
<g mask="url(#mask2_710_882)">
<path fill-rule="evenodd" clip-rule="evenodd" d="M2441.66 442.792C2434.97 442.792 2428.33 440.26 2424.63 434.515C2420.6 428.261 2421.29 420.229 2422.34 413.932C2426.79 387.221 2439.64 361.824 2458.52 342.419C2459.19 341.726 2460.3 341.71 2461 342.385C2461.69 343.06 2461.71 344.169 2461.03 344.861C2442.64 363.76 2430.13 388.494 2425.79 414.507C2424.85 420.183 2424.19 427.373 2427.57 432.618C2432.29 439.942 2443.09 440.806 2450.81 437.409C2459.33 433.655 2465.8 425.635 2470.99 419.192C2501.27 381.63 2531.03 342.808 2559.43 303.804C2560 303.023 2561.1 302.85 2561.88 303.419C2562.66 303.989 2562.84 305.085 2562.27 305.867C2533.83 344.917 2504.03 383.785 2473.72 421.391C2468.28 428.13 2461.52 436.517 2452.22 440.615C2449.01 442.029 2445.33 442.792 2441.66 442.792Z" fill="#ED7AD8"/>
</g>
<mask id="mask3_710_882" style="mask-type:alpha" maskUnits="userSpaceOnUse" x="2269" y="370" width="288" height="144">
<path fill-rule="evenodd" clip-rule="evenodd" d="M2269.04 513.775H2556.31C2556.31 434.449 2492 370.141 2412.67 370.141C2333.35 370.141 2269.04 434.449 2269.04 513.775Z" fill="white"/>
</mask>
<g mask="url(#mask3_710_882)">
<path fill-rule="evenodd" clip-rule="evenodd" d="M2543.9 530.82C2538.07 530.82 2532.47 529.945 2527.29 528.169C2509.73 522.154 2497.57 504.524 2499.6 488.033C2500.82 478.097 2506.83 468.137 2516.97 459.23C2537.9 440.837 2567.81 433.156 2595.02 439.182C2595.96 439.391 2596.56 440.326 2596.35 441.271C2596.14 442.216 2595.21 442.812 2594.26 442.602C2568.13 436.812 2539.39 444.193 2519.28 461.862C2512.67 467.672 2504.49 477.003 2503.08 488.462C2501.24 503.37 2512.38 519.356 2528.42 524.855C2542.29 529.608 2559.5 527.426 2575.63 518.869C2590.36 511.054 2602.69 499.325 2614.61 487.983C2615.31 487.317 2616.42 487.343 2617.09 488.044C2617.75 488.745 2617.73 489.854 2617.02 490.521C2604.93 502.027 2592.42 513.924 2577.27 521.964C2566.24 527.815 2554.69 530.82 2543.9 530.82Z" fill="#ED7AD8"/>
</g>
<mask id="mask4_710_882" style="mask-type:alpha" maskUnits="userSpaceOnUse" x="2269" y="370" width="288" height="144">
<path fill-rule="evenodd" clip-rule="evenodd" d="M2269.04 513.775H2556.31C2556.31 434.449 2492 370.141 2412.67 370.141C2333.35 370.141 2269.04 434.449 2269.04 513.775Z" fill="white"/>
</mask>
<g mask="url(#mask4_710_882)">
<path fill-rule="evenodd" clip-rule="evenodd" d="M2336.46 590.271C2336.32 590.271 2336.18 590.255 2336.04 590.22C2335.1 589.989 2334.53 589.039 2334.76 588.1C2341.75 559.703 2348.98 530.34 2346.72 500.695C2345.75 487.967 2342.2 479.752 2335.89 475.581C2326.81 469.586 2314.39 473.509 2305.57 477.857C2276.54 492.162 2253.37 519.118 2243.57 549.961C2243.28 550.883 2242.3 551.394 2241.37 551.1C2240.45 550.808 2239.94 549.824 2240.23 548.901C2250.31 517.167 2274.16 489.433 2304.02 474.715C2313.67 469.962 2327.35 465.745 2337.82 472.658C2345.1 477.465 2349.15 486.549 2350.21 500.429C2352.52 530.632 2345.22 560.273 2338.16 588.938C2337.97 589.737 2337.25 590.271 2336.46 590.271Z" fill="#ED7AD8"/>
</g>
<mask id="mask5_710_882" style="mask-type:alpha" maskUnits="userSpaceOnUse" x="2269" y="370" width="288" height="144">
<path fill-rule="evenodd" clip-rule="evenodd" d="M2269.04 513.775H2556.31C2556.31 434.449 2492 370.141 2412.67 370.141C2333.35 370.141 2269.04 434.449 2269.04 513.775Z" fill="white"/>
</mask>
<g mask="url(#mask5_710_882)">
<path fill-rule="evenodd" clip-rule="evenodd" d="M2334.52 401.809C2326.62 401.809 2317.24 398.086 2313.54 389.606C2313.15 388.719 2313.56 387.685 2314.44 387.299C2315.33 386.911 2316.37 387.318 2316.75 388.205C2319.43 394.356 2326.94 398.489 2335.07 398.298C2343.22 398.089 2351.02 394.095 2356.9 390.638C2389.11 371.708 2413.37 340.362 2434.76 312.704C2435.36 311.94 2436.46 311.8 2437.22 312.392C2437.99 312.983 2438.13 314.083 2437.53 314.848C2415.94 342.755 2391.47 374.386 2358.67 393.659C2352.43 397.329 2344.11 401.571 2335.16 401.8C2334.95 401.806 2334.74 401.809 2334.52 401.809Z" fill="#ED7AD8"/>
</g>
<path fill-rule="evenodd" clip-rule="evenodd" d="M2657.07 507.984V188.582C2657.07 187.614 2657.86 186.83 2658.82 186.83C2659.79 186.83 2660.58 187.614 2660.58 188.582V507.984C2660.58 508.952 2659.79 509.735 2658.82 509.735C2657.86 509.735 2657.07 508.952 2657.07 507.984Z" fill="#21211D"/>
<path fill-rule="evenodd" clip-rule="evenodd" d="M2639.41 521.822H2676.95V487.572H2639.41V521.822Z" fill="#F73132"/>
<path fill-rule="evenodd" clip-rule="evenodd" d="M2753.65 602.813C2753.65 655.185 2711.2 697.642 2658.82 697.642C2606.45 697.642 2564 655.185 2564 602.813C2564 550.44 2606.45 507.984 2658.82 507.984C2711.2 507.984 2753.65 550.44 2753.65 602.813Z" fill="#EDC829"/>
<path fill-rule="evenodd" clip-rule="evenodd" d="M2671.91 569.736C2671.3 572.891 2670.7 576.049 2670.09 579.203L2669.48 582.38C2667.85 590.899 2665.81 601.5 2669.22 610.488C2669.7 611.761 2671.53 615.945 2674.79 616.265C2677.1 616.484 2679.29 614.509 2680.21 612.437C2681.34 609.873 2681.26 606.802 2681.09 604.125C2680.48 594.683 2678.46 585.388 2675.09 576.502C2674.18 574.107 2673.1 571.82 2671.91 569.736ZM2644.29 562.822C2641.32 565.562 2639.09 568.88 2637.64 571.412C2631.24 582.59 2628.24 595.829 2629.18 608.692C2629.6 614.412 2631.97 621.314 2637.26 621.948C2640.87 622.388 2644.22 619.394 2645.65 616.211C2647.25 612.656 2647.29 608.617 2647.19 604.086C2646.9 590.363 2645.92 576.499 2644.29 562.822ZM2638 625.497C2637.62 625.497 2637.23 625.474 2636.84 625.426C2629.43 624.541 2626.2 615.995 2625.69 608.948C2624.7 595.398 2627.86 581.448 2634.6 569.67C2636.47 566.415 2639.53 561.958 2643.78 558.671C2641.77 542.978 2638.86 527.266 2635.13 511.957C2634.9 511.017 2635.47 510.07 2636.41 509.84C2637.36 509.609 2638.3 510.188 2638.53 511.128C2642.16 526.011 2645.02 541.271 2647.03 556.53C2649.86 554.996 2652.78 554.244 2655.79 554.261C2660.92 554.296 2665.77 556.668 2669.99 561.164C2672.52 547.922 2675.06 534.684 2677.6 521.442L2679.55 511.321C2679.73 510.37 2680.65 509.744 2681.6 509.93C2682.55 510.112 2683.17 511.031 2682.99 511.981L2681.04 522.103C2678.32 536.311 2675.59 550.515 2672.87 564.725C2675 567.756 2676.89 571.381 2678.37 575.259C2681.86 584.473 2683.95 594.108 2684.58 603.9C2684.78 606.994 2684.87 610.566 2683.41 613.856C2681.72 617.671 2678.03 620.09 2674.45 619.753C2670.84 619.398 2667.74 616.475 2665.94 611.732C2662.18 601.814 2664.32 590.673 2666.04 581.721L2666.65 578.545C2667.48 574.22 2668.31 569.892 2669.14 565.57C2665.15 560.423 2660.65 557.798 2655.76 557.764C2652.96 557.761 2650.19 558.595 2647.52 560.312C2649.31 574.779 2650.38 589.474 2650.69 604.008C2650.8 608.787 2650.74 613.428 2648.85 617.646C2647.09 621.564 2643.02 625.495 2638 625.497Z" fill="#21211D"/>
<path fill-rule="evenodd" clip-rule="evenodd" d="M2599.71 652.01C2599.25 652.01 2598.79 651.83 2598.45 651.471C2576.18 628.279 2581.33 598.284 2581.56 597.019C2581.73 596.068 2582.65 595.434 2583.6 595.609C2584.55 595.781 2585.18 596.693 2585.01 597.644C2584.96 597.937 2579.98 627.175 2600.97 649.045C2601.64 649.743 2601.62 650.852 2600.92 651.521C2600.58 651.848 2600.15 652.01 2599.71 652.01Z" fill="white"/>
<path fill-rule="evenodd" clip-rule="evenodd" d="M2131.05 981.546H1538.65C1523.92 981.546 1511.99 969.607 1511.99 954.879V636.525C1511.99 621.799 1523.92 609.859 1538.65 609.859H2131.05C2145.77 609.859 2157.72 621.799 2157.72 636.525V954.879C2157.72 969.607 2145.77 981.546 2131.05 981.546Z" fill="#EDE8D6"/>
<mask id="mask6_710_882" style="mask-type:alpha" maskUnits="userSpaceOnUse" x="1487" y="535" width="700" height="546">
<path fill-rule="evenodd" clip-rule="evenodd" d="M1487.13 1080.73H2186.45V535.975H1487.13V1080.73Z" fill="white"/>
</mask>
<g mask="url(#mask6_710_882)">
<path fill-rule="evenodd" clip-rule="evenodd" d="M1543.25 916.008H2126.46V639.01H1543.25V916.008Z" fill="#B6CCFC"/>
<path fill-rule="evenodd" clip-rule="evenodd" d="M1935.64 1080.73H1734.05C1728.26 1080.73 1727.24 1072.46 1732.87 1071.05L1735.99 1070.27C1764.74 1063.09 1785.39 1038.37 1787.73 1009.24C1787.89 1007.41 1787.96 1005.56 1787.96 1003.7V981.549H1881.75V1003.7C1881.75 1035.19 1903.17 1062.63 1933.7 1070.27L1936.84 1071.05C1942.45 1072.46 1941.44 1080.73 1935.64 1080.73Z" fill="#EDE8D6"/>
<path fill-rule="evenodd" clip-rule="evenodd" d="M1834.85 931.668C1827.32 931.668 1821.2 937.796 1821.2 945.327C1821.2 952.86 1827.32 958.989 1834.85 958.989C1842.38 958.989 1848.51 952.86 1848.51 945.327C1848.51 937.796 1842.38 931.668 1834.85 931.668ZM1834.85 961.916C1825.71 961.916 1818.26 954.474 1818.26 945.327C1818.26 936.18 1825.71 928.738 1834.85 928.738C1844 928.738 1851.44 936.18 1851.44 945.327C1851.44 954.474 1844 961.916 1834.85 961.916Z" fill="#21211D"/>
<path fill-rule="evenodd" clip-rule="evenodd" d="M1881.75 981.549V988.493L1787.73 1009.24C1787.89 1007.41 1787.96 1005.56 1787.96 1003.7V981.549H1881.75Z" fill="#21211D"/>
</g>
<mask id="mask7_710_882" style="mask-type:alpha" maskUnits="userSpaceOnUse" x="1603" y="638" width="524" height="278">
<path fill-rule="evenodd" clip-rule="evenodd" d="M1603.79 638.486H2126.64V915.467H1603.79V638.486Z" fill="white"/>
</mask>
<g mask="url(#mask7_710_882)">
<path fill-rule="evenodd" clip-rule="evenodd" d="M1603.79 937.554L1804.17 977.781L2186.65 681.645L2142.24 535.459L2031.18 574.417L1603.79 937.554Z" fill="#CDDDF9"/>
</g>
<mask id="mask8_710_882" style="mask-type:alpha" maskUnits="userSpaceOnUse" x="1543" y="638" width="375" height="278">
<path fill-rule="evenodd" clip-rule="evenodd" d="M1543.25 638.486H1917.08V915.467H1543.25V638.486Z" fill="white"/>
</mask>
<g mask="url(#mask8_710_882)">
<path fill-rule="evenodd" clip-rule="evenodd" d="M1509.38 938.764L1917.08 608.385L1828.17 623.031L1487.11 885.29L1509.38 938.764Z" fill="#CDDDF9"/>
</g>
<path fill-rule="evenodd" clip-rule="evenodd" d="M2384.76 1271.58C2366.57 1277.68 2364.64 1302.61 2381.71 1311.37C2437.63 1340.08 2494.95 1366.58 2556.45 1378.42C2630.32 1392.65 2712.45 1382.91 2770.57 1335.14C2826.24 1289.37 2851.76 1216.63 2866.34 1146.06C2881.39 1073.24 2887.5 998.587 2884.55 924.294C2883.68 902.52 2865.87 885.273 2844.08 885.273C2823.59 885.273 2806.28 900.571 2803.87 920.918C2792.38 1017.94 2786.16 1248.08 2616.7 1248.08C2486.68 1248.08 2419.44 1259.93 2384.76 1271.58Z" fill="#EDC829"/>
<path fill-rule="evenodd" clip-rule="evenodd" d="M2372.05 1303.11C2372.17 1303.11 2372.28 1303.09 2372.4 1303.07C2429.91 1289.87 2513.64 1283.17 2621.25 1283.17C2664.93 1283.17 2702.64 1270.33 2733.32 1245.01C2759.56 1223.36 2781.39 1191.91 2798.22 1151.53C2828.91 1077.89 2837.93 988.529 2844.51 923.283C2845.81 910.435 2847.03 898.301 2848.29 887.651C2848.38 886.98 2848.47 886.3 2848.58 885.631C2848.71 884.782 2848.13 883.984 2847.29 883.849C2846.43 883.717 2845.64 884.294 2845.5 885.142C2845.39 885.846 2845.29 886.561 2845.2 887.275C2843.94 897.96 2842.71 910.109 2841.41 922.97C2834.85 988.023 2825.86 1077.12 2795.34 1150.34C2778.71 1190.23 2757.18 1221.28 2731.33 1242.61C2701.23 1267.46 2664.19 1280.06 2621.25 1280.06C2513.41 1280.06 2429.45 1286.78 2371.71 1300.03C2370.87 1300.23 2370.34 1301.06 2370.54 1301.9C2370.7 1302.62 2371.34 1303.11 2372.05 1303.11Z" fill="#21211D"/>
<mask id="mask9_710_882" style="mask-type:alpha" maskUnits="userSpaceOnUse" x="2368" y="1306" width="519" height="399">
<path fill-rule="evenodd" clip-rule="evenodd" d="M2886.83 1306.52H2368.39V1704.68H2886.83V1306.52Z" fill="white"/>
</mask>
<g mask="url(#mask9_710_882)">
<path fill-rule="evenodd" clip-rule="evenodd" d="M2369.95 1704.68C2370.56 1704.68 2371.13 1704.32 2371.38 1703.72L2504.41 1383.98C2523.2 1338.81 2566.95 1309.63 2615.87 1309.63C2638.5 1309.63 2660.61 1315.97 2679.8 1327.95C2699 1339.93 2714.4 1357.01 2724.33 1377.35L2883.87 1703.81C2884.25 1704.58 2885.18 1704.9 2885.96 1704.52C2886.73 1704.15 2887.05 1703.22 2886.67 1702.44L2727.13 1375.98C2716.94 1355.12 2701.14 1337.6 2681.45 1325.31C2661.76 1313.02 2639.08 1306.52 2615.87 1306.52C2565.69 1306.52 2520.81 1336.45 2501.53 1382.79L2368.51 1702.53C2368.18 1703.32 2368.55 1704.23 2369.35 1704.56C2369.54 1704.64 2369.75 1704.68 2369.95 1704.68Z" fill="#21211D"/>
</g>
<path fill-rule="evenodd" clip-rule="evenodd" d="M1266.68 648.475C1261.71 679.196 1279.97 712.152 1308.66 724.226C1322.76 730.166 1338.37 731.327 1353.13 735.383C1367.89 739.44 1382.96 747.608 1388.67 761.807C1388.54 743.298 1375.57 717.275 1359.85 707.51C1344.12 697.744 1326 692.701 1309.07 685.204C1292.15 677.707 1275.48 666.737 1267.88 649.861" fill="#F1A596"/>
<path fill-rule="evenodd" clip-rule="evenodd" d="M1432.36 805.913C1441.26 786.239 1462.97 770.916 1482.26 761.219C1501.56 751.522 1522.25 739.959 1530.14 719.857C1538.64 733.497 1533.39 760.312 1520.84 770.354C1508.29 780.396 1491.88 783.839 1476.18 787.294C1460.48 790.749 1444.08 794.915 1432.36 805.913Z" fill="#F1A596"/>
<path fill-rule="evenodd" clip-rule="evenodd" d="M1402.53 917.118C1401.63 917.118 1400.87 916.431 1400.78 915.519L1369.15 555.664C1369.07 554.701 1369.78 553.85 1370.74 553.766C1371.7 553.683 1372.55 554.394 1372.64 555.358L1404.27 915.213C1404.36 916.176 1403.65 917.026 1402.68 917.111C1402.63 917.116 1402.58 917.118 1402.53 917.118Z" fill="#21211D"/>
<path fill-rule="evenodd" clip-rule="evenodd" d="M1415.91 896.826C1415.8 896.826 1415.7 896.816 1415.59 896.795C1414.64 896.617 1414.01 895.7 1414.19 894.75L1456.77 668.704C1456.95 667.752 1457.87 667.132 1458.82 667.307C1459.77 667.485 1460.4 668.402 1460.22 669.353L1417.63 895.398C1417.47 896.24 1416.74 896.826 1415.91 896.826Z" fill="#21211D"/>
<mask id="mask10_710_882" style="mask-type:alpha" maskUnits="userSpaceOnUse" x="1318" y="503" width="106" height="105">
<path fill-rule="evenodd" clip-rule="evenodd" d="M1318.58 503.193H1423.21V607.828H1318.58V503.193Z" fill="white"/>
</mask>
<g mask="url(#mask10_710_882)">
<path fill-rule="evenodd" clip-rule="evenodd" d="M1423.21 555.511C1423.21 584.405 1399.79 607.828 1370.89 607.828C1342 607.828 1318.58 584.405 1318.58 555.511C1318.58 526.616 1342 503.193 1370.89 503.193C1399.79 503.193 1423.21 526.616 1423.21 555.511Z" fill="#EDC829"/>
</g>
<path fill-rule="evenodd" clip-rule="evenodd" d="M1504.71 669.029C1504.71 694.55 1484.02 715.239 1458.5 715.239C1432.97 715.239 1412.29 694.55 1412.29 669.029C1412.29 643.507 1432.97 622.818 1458.5 622.818C1484.02 622.818 1504.71 643.507 1504.71 669.029Z" fill="#EDC829"/>
<path fill-rule="evenodd" clip-rule="evenodd" d="M1458.49 841.541H1346.56L1372.72 1079.91H1432.34L1458.49 841.541Z" fill="#4965CC"/>
<mask id="mask11_710_882" style="mask-type:alpha" maskUnits="userSpaceOnUse" x="1346" y="841" width="113" height="239">
<path fill-rule="evenodd" clip-rule="evenodd" d="M1346.56 841.541L1372.72 1079.91H1432.34L1458.49 841.541H1346.56Z" fill="white"/>
</mask>
<g mask="url(#mask11_710_882)">
<path fill-rule="evenodd" clip-rule="evenodd" d="M1360.52 887.945C1353.71 887.945 1346.81 889.85 1341.15 893.596C1331.54 899.959 1327.01 910.365 1328.41 922.895C1330.58 942.349 1345.45 950.559 1359.25 950.058C1373.61 949.539 1389.43 939.663 1390.22 919.204C1390.7 906.869 1385.83 897.182 1376.49 891.927C1371.75 889.26 1366.17 887.945 1360.52 887.945ZM1358.05 954.44C1342.65 954.44 1326.49 944.976 1324.08 923.377C1322.49 909.139 1327.7 897.272 1338.74 889.961C1350.42 882.235 1366.81 881.482 1378.63 888.127C1389.46 894.225 1395.13 905.321 1394.58 919.374C1393.72 941.576 1376.23 953.808 1359.4 954.416C1358.95 954.431 1358.5 954.44 1358.05 954.44Z" fill="white"/>
</g>
<mask id="mask12_710_882" style="mask-type:alpha" maskUnits="userSpaceOnUse" x="1346" y="841" width="113" height="239">
<path fill-rule="evenodd" clip-rule="evenodd" d="M1346.56 841.541L1372.72 1079.91H1432.34L1458.49 841.541" fill="white"/>
</mask>
<g mask="url(#mask12_710_882)">
<path fill-rule="evenodd" clip-rule="evenodd" d="M1451.58 914.389C1443.72 914.389 1435.33 911.659 1430.34 904.851C1426.9 900.15 1425.69 894.058 1426.93 887.699C1428.38 880.262 1432.94 873.541 1439.13 869.72C1449.26 863.467 1463.69 863.406 1476.78 869.556C1477.87 870.067 1478.34 871.367 1477.83 872.456C1477.32 873.546 1476.02 874.016 1474.93 873.502C1465.7 869.167 1452.05 866.871 1441.43 873.429C1436.33 876.576 1432.41 882.363 1431.21 888.533C1430.2 893.686 1431.14 898.565 1433.86 902.274C1439.25 909.626 1449.74 911.138 1457.74 909.371C1466.87 907.36 1475.18 901.648 1482.51 896.608C1483.5 895.924 1484.86 896.177 1485.54 897.169C1486.22 898.161 1485.97 899.518 1484.98 900.2C1477.32 905.466 1468.63 911.434 1458.68 913.628C1456.45 914.122 1454.04 914.389 1451.58 914.389Z" fill="white"/>
</g>
<mask id="mask13_710_882" style="mask-type:alpha" maskUnits="userSpaceOnUse" x="1346" y="841" width="113" height="239">
<path fill-rule="evenodd" clip-rule="evenodd" d="M1346.56 841.541L1372.72 1079.91H1432.34L1458.49 841.541" fill="white"/>
</mask>
<g mask="url(#mask13_710_882)">
<path fill-rule="evenodd" clip-rule="evenodd" d="M1428.46 1054.2C1417.85 1054.2 1407.9 1050.25 1401.75 1043.15C1396.49 1037.07 1393.49 1028.54 1392.82 1017.78C1391.97 1004.18 1394.97 991.133 1401.28 981.036C1408.5 969.474 1420.2 961.646 1432.56 960.097C1445.99 958.411 1459.93 964.832 1466.46 975.707C1467.08 976.739 1466.75 978.078 1465.71 978.697C1464.68 979.318 1463.34 978.983 1462.72 977.95C1457.06 968.51 1444.87 962.947 1433.1 964.422C1422.03 965.811 1411.51 972.885 1404.98 983.346C1399.15 992.678 1396.38 1004.81 1397.17 1017.51C1397.78 1027.29 1400.43 1034.96 1405.04 1040.29C1413.41 1049.97 1427.96 1051.38 1438.66 1048.48C1451.51 1045 1462.37 1035.98 1470.38 1028.51C1471.26 1027.69 1472.64 1027.73 1473.47 1028.61C1474.29 1029.5 1474.24 1030.88 1473.36 1031.7C1464.97 1039.51 1453.57 1048.96 1439.8 1052.69C1436.03 1053.71 1432.2 1054.2 1428.46 1054.2Z" fill="white"/>
</g>
<mask id="mask14_710_882" style="mask-type:alpha" maskUnits="userSpaceOnUse" x="1346" y="841" width="113" height="239">
<path fill-rule="evenodd" clip-rule="evenodd" d="M1346.56 841.541L1372.72 1079.91H1432.34L1458.49 841.541" fill="white"/>
</mask>
<g mask="url(#mask14_710_882)">
<path fill-rule="evenodd" clip-rule="evenodd" d="M1359.51 1041.43C1356.9 1041.43 1354.23 1041.07 1351.56 1040.34C1350.4 1040.02 1349.72 1038.82 1350.04 1037.66C1350.36 1036.5 1351.55 1035.82 1352.72 1036.13C1358.28 1037.66 1364.07 1037.28 1368.61 1035.07C1376.86 1031.05 1381.07 1020.16 1377.61 1011.76C1374.4 1003.96 1364.94 999.392 1356.89 1001.34C1357.18 1002.44 1356.59 1003.59 1355.5 1003.97C1354.37 1004.37 1353.12 1003.77 1352.73 1002.63L1352.04 1000.67C1351.65 999.565 1352.2 998.351 1353.29 997.92C1363.98 993.689 1377.23 999.382 1381.64 1010.1C1386 1020.7 1380.91 1033.93 1370.51 1038.99C1367.18 1040.61 1363.42 1041.43 1359.51 1041.43Z" fill="white"/>
</g>
<mask id="mask15_710_882" style="mask-type:alpha" maskUnits="userSpaceOnUse" x="1346" y="841" width="113" height="239">
<path fill-rule="evenodd" clip-rule="evenodd" d="M1346.56 841.541L1372.72 1079.91H1432.34L1458.49 841.541" fill="white"/>
</mask>
<g mask="url(#mask15_710_882)">
<path fill-rule="evenodd" clip-rule="evenodd" d="M1382.42 872.761C1381.71 872.761 1381 872.716 1380.27 872.621C1370.76 871.37 1364.74 862.02 1363.71 853.43C1362.67 844.707 1365.52 836.169 1368.03 828.635C1368.41 827.491 1369.64 826.875 1370.78 827.256C1371.93 827.636 1372.54 828.87 1372.16 830.013C1369.8 837.112 1367.12 845.16 1368.04 852.912C1368.85 859.661 1373.61 867.348 1380.84 868.298C1388.54 869.31 1395.25 862.602 1398.56 858.514C1409.1 845.48 1414.23 827.759 1412.27 811.106C1412.13 809.911 1412.98 808.827 1414.18 808.687C1415.37 808.548 1416.46 809.401 1416.6 810.596C1418.73 828.657 1413.38 847.121 1401.94 861.256C1398.35 865.697 1391.24 872.76 1382.42 872.761Z" fill="white"/>
</g>
<mask id="mask16_710_882" style="mask-type:alpha" maskUnits="userSpaceOnUse" x="1346" y="841" width="113" height="239">
<path fill-rule="evenodd" clip-rule="evenodd" d="M1346.56 841.541L1372.72 1079.91H1432.34L1458.49 841.541" fill="white"/>
</mask>
<g mask="url(#mask16_710_882)">
<path fill-rule="evenodd" clip-rule="evenodd" d="M1427.95 1106.24C1426.9 1106.24 1425.97 1105.48 1425.8 1104.41C1423.82 1092.26 1416.58 1080.87 1406.41 1073.93C1399.2 1069.02 1388.69 1067.01 1383.43 1072.97C1379.2 1077.77 1380.14 1085.47 1381.35 1092.3C1381.56 1093.49 1380.77 1094.62 1379.58 1094.83C1378.4 1095.04 1377.27 1094.25 1377.06 1093.06C1376.05 1087.4 1374.18 1076.86 1380.16 1070.09C1385.45 1064.09 1397.01 1062.25 1408.87 1070.33C1420 1077.93 1427.94 1090.4 1430.1 1103.71C1430.29 1104.9 1429.49 1106.02 1428.3 1106.21C1428.18 1106.23 1428.06 1106.24 1427.95 1106.24Z" fill="white"/>
</g>
<mask id="mask17_710_882" style="mask-type:alpha" maskUnits="userSpaceOnUse" x="1318" y="503" width="106" height="105">
<path fill-rule="evenodd" clip-rule="evenodd" d="M1370.89 503.193C1342 503.193 1318.58 526.616 1318.58 555.51C1318.58 584.404 1342 607.829 1370.89 607.829C1399.79 607.829 1423.21 584.404 1423.21 555.51" fill="white"/>
</mask>
<g mask="url(#mask17_710_882)">
<path fill-rule="evenodd" clip-rule="evenodd" d="M1393.09 540.843C1390.93 545.476 1389.65 550.523 1389.41 555.675C1389.31 557.898 1389.78 560.662 1391.45 561.142C1391.95 561.285 1392.43 561.216 1392.95 560.92C1394.12 560.261 1395.23 558.603 1395.72 556.795C1397.17 551.414 1396.13 545.483 1393.09 540.843ZM1353.45 552.349C1351.72 557.33 1350.74 562.805 1349.91 569.113C1349.51 572.091 1349.81 575.933 1351.35 577.804C1351.91 578.474 1352.56 578.808 1353.4 578.856C1355.34 578.976 1357.09 576.94 1357.74 576.063C1362.21 570.041 1361.75 560.616 1356.72 555.053C1355.77 554 1354.67 553.097 1353.45 552.349ZM1322.29 583.889C1322.25 583.889 1322.21 583.888 1322.18 583.885C1321.21 583.827 1320.48 582.996 1320.54 582.03C1321.36 568.562 1323.57 555.23 1334.12 548.928C1339.35 545.81 1345.93 545.465 1351.58 547.545C1351.93 546.76 1352.3 545.983 1352.69 545.217C1356.94 536.926 1363.72 531.108 1371.29 529.254C1378.68 527.447 1386.85 529.582 1392.44 534.707C1395.27 530.168 1398.93 526.144 1403.26 522.929C1413.54 515.307 1427.08 512.633 1439.48 515.78C1440.42 516.018 1440.99 516.97 1440.75 517.909C1440.51 518.845 1439.57 519.413 1438.62 519.175C1427.23 516.287 1414.79 518.743 1405.35 525.743C1401.11 528.888 1397.57 532.877 1394.91 537.382C1399.33 543.032 1400.97 550.758 1399.1 557.705C1398.52 559.852 1397.06 562.626 1394.68 563.971C1393.34 564.727 1391.89 564.914 1390.48 564.508C1387.4 563.623 1385.69 560.261 1385.91 555.514C1386.2 549.336 1387.86 543.299 1390.66 537.849C1385.91 533.095 1378.66 531.057 1372.12 532.657C1365.54 534.269 1359.6 539.43 1355.81 546.816C1355.43 547.544 1355.08 548.282 1354.75 549.029C1356.45 550.009 1358 551.236 1359.32 552.703C1365.52 559.555 1366.06 570.733 1360.55 578.151C1358.43 581.011 1355.81 582.508 1353.2 582.354C1351.39 582.251 1349.82 581.449 1348.65 580.037C1346.29 577.172 1345.95 572.279 1346.43 568.655C1347.21 562.749 1348.24 556.608 1350.29 550.83C1345.61 549.149 1340.14 549.416 1335.92 551.936C1326.76 557.404 1324.79 569.734 1324.03 582.243C1323.98 583.173 1323.21 583.889 1322.29 583.889Z" fill="#21211D"/>
</g>
<mask id="mask18_710_882" style="mask-type:alpha" maskUnits="userSpaceOnUse" x="1412" y="622" width="93" height="94">
<path fill-rule="evenodd" clip-rule="evenodd" d="M1412.29 669.028C1412.29 694.548 1432.98 715.239 1458.5 715.239C1484.02 715.239 1504.71 694.548 1504.71 669.028C1504.71 643.507 1484.02 622.816 1458.5 622.816C1432.98 622.816 1412.29 643.507 1412.29 669.028Z" fill="white"/>
</mask>
<g mask="url(#mask18_710_882)">
<path fill-rule="evenodd" clip-rule="evenodd" d="M1518.79 700.672C1517.83 700.672 1517.04 699.893 1517.04 698.928C1517 689.668 1510.59 680.833 1501.8 677.921C1493.01 675.01 1482.59 678.268 1477.03 685.673C1476.54 686.321 1475.68 686.549 1474.93 686.228C1474.19 685.904 1473.76 685.113 1473.91 684.315C1475.44 675.641 1476.6 663.507 1468.92 658.296C1462.82 654.165 1454.05 657.03 1449.09 662.185C1443.61 667.873 1441.09 676.021 1438.87 683.209C1438.62 684.025 1437.82 684.542 1436.97 684.428C1436.12 684.314 1435.48 683.604 1435.45 682.749C1435.17 674.254 1432.35 666.885 1427.51 662C1422.07 656.52 1413.62 654.577 1407.42 657.379C1404.08 658.887 1401.38 662.035 1400.18 665.8C1399.14 669.095 1399.4 672.343 1400.93 674.946C1401.42 675.78 1401.14 676.853 1400.31 677.344C1399.48 677.833 1398.4 677.555 1397.91 676.722C1395.87 673.25 1395.49 668.995 1396.84 664.74C1398.33 660.042 1401.75 656.097 1405.98 654.187C1413.59 650.751 1423.46 652.949 1429.99 659.532C1433.86 663.433 1436.59 668.678 1437.96 674.735C1439.9 669.376 1442.44 664.037 1446.56 659.755C1452.53 653.555 1463.26 650.228 1470.88 655.397C1478.58 660.617 1479.15 670.688 1478.16 679.457C1484.91 673.88 1494.54 671.823 1502.9 674.595C1513.08 677.966 1520.5 688.193 1520.54 698.913C1520.55 699.88 1519.77 700.668 1518.8 700.672H1518.79Z" fill="#21211D"/>
</g>
<mask id="mask19_710_882" style="mask-type:alpha" maskUnits="userSpaceOnUse" x="2160" y="1006" width="293" height="70">
<path fill-rule="evenodd" clip-rule="evenodd" d="M2160.71 1006.69H2452.33V1075.04H2160.71V1006.69Z" fill="white"/>
</mask>
<g mask="url(#mask19_710_882)">
<path fill-rule="evenodd" clip-rule="evenodd" d="M2452.33 1006.69H2194.79C2175.97 1006.69 2160.71 1021.99 2160.71 1040.86V1040.87C2160.71 1059.74 2175.97 1075.04 2194.79 1075.04H2452.33V1006.69Z" fill="#B6CCFC"/>
</g>
<path fill-rule="evenodd" clip-rule="evenodd" d="M2452.33 1016.7H2324.17C2310.87 1016.7 2300.08 1027.52 2300.08 1040.87C2300.08 1054.21 2310.87 1065.04 2324.17 1065.04H2452.33V1016.7Z" fill="white"/>
<path fill-rule="evenodd" clip-rule="evenodd" d="M2488.27 937.951H2230.72C2211.91 937.951 2196.65 953.252 2196.65 972.125C2196.65 990.999 2211.91 1006.3 2230.72 1006.3H2488.27V937.951Z" fill="#2E4C9E"/>
<path fill-rule="evenodd" clip-rule="evenodd" d="M2488.27 947.959H2360.11C2346.81 947.959 2336.02 958.779 2336.02 972.126C2336.02 985.473 2346.81 996.294 2360.11 996.294H2488.27V947.959Z" fill="white"/>
<path fill-rule="evenodd" clip-rule="evenodd" d="M2488.27 961.448H2339.17C2338.47 961.448 2337.91 960.884 2337.91 960.186C2337.91 959.49 2338.47 958.924 2339.17 958.924H2488.27C2488.96 958.924 2489.53 959.49 2489.53 960.186C2489.53 960.884 2488.96 961.448 2488.27 961.448Z" fill="#21211D"/>
<path fill-rule="evenodd" clip-rule="evenodd" d="M2488.28 973.388H2336.02C2335.32 973.388 2334.76 972.822 2334.76 972.125C2334.76 971.428 2335.32 970.863 2336.02 970.863H2488.28C2488.96 970.863 2489.53 971.428 2489.53 972.125C2489.53 972.822 2488.96 973.388 2488.28 973.388Z" fill="#21211D"/>
<path fill-rule="evenodd" clip-rule="evenodd" d="M2488.27 984.702H2339.17C2338.47 984.702 2337.91 984.136 2337.91 983.44C2337.91 982.742 2338.47 982.178 2339.17 982.178H2488.27C2488.96 982.178 2489.53 982.742 2489.53 983.44C2489.53 984.136 2488.96 984.702 2488.27 984.702Z" fill="#21211D"/>
<path fill-rule="evenodd" clip-rule="evenodd" d="M2452.96 1030.5H2303.86C2303.17 1030.5 2302.6 1029.94 2302.6 1029.24C2302.6 1028.54 2303.17 1027.98 2303.86 1027.98H2452.96C2453.66 1027.98 2454.23 1028.54 2454.23 1029.24C2454.23 1029.94 2453.66 1030.5 2452.96 1030.5Z" fill="#21211D"/>
<path fill-rule="evenodd" clip-rule="evenodd" d="M2452.96 1042.44H2300.72C2300.02 1042.44 2299.45 1041.88 2299.45 1041.18C2299.45 1040.48 2300.02 1039.92 2300.72 1039.92H2452.96C2453.66 1039.92 2454.23 1040.48 2454.23 1041.18C2454.23 1041.88 2453.66 1042.44 2452.96 1042.44Z" fill="#21211D"/>
<path fill-rule="evenodd" clip-rule="evenodd" d="M2452.96 1053.75H2303.86C2303.17 1053.75 2302.6 1053.19 2302.6 1052.49C2302.6 1051.79 2303.17 1051.23 2303.86 1051.23H2452.96C2453.66 1051.23 2454.23 1051.79 2454.23 1052.49C2454.23 1053.19 2453.66 1053.75 2452.96 1053.75Z" fill="#21211D"/>
<path fill-rule="evenodd" clip-rule="evenodd" d="M2311.84 977.118H2230.24C2227.08 977.118 2224.52 974.549 2224.52 971.38C2224.52 968.212 2227.08 965.643 2230.24 965.643H2311.84C2315 965.643 2317.56 968.212 2317.56 971.38C2317.56 974.549 2315 977.118 2311.84 977.118Z" fill="#B6CCFC"/>
<path fill-rule="evenodd" clip-rule="evenodd" d="M2277.68 1043.38H2212.77C2209.61 1043.38 2207.05 1040.81 2207.05 1037.64C2207.05 1034.47 2209.61 1031.9 2212.77 1031.9H2277.68C2280.84 1031.9 2283.4 1034.47 2283.4 1037.64C2283.4 1040.81 2280.84 1043.38 2277.68 1043.38Z" fill="#2E4C9E"/>
<path fill-rule="evenodd" clip-rule="evenodd" d="M2196.65 1037.64C2196.65 1042.54 2192.69 1046.51 2187.81 1046.51C2182.93 1046.51 2178.97 1042.54 2178.97 1037.64C2178.97 1032.74 2182.93 1028.77 2187.81 1028.77C2192.69 1028.77 2196.65 1032.74 2196.65 1037.64Z" fill="#2E4C9E"/>
<path fill-rule="evenodd" clip-rule="evenodd" d="M1609.19 1706.36C1608.21 1706.36 1607.31 1705.84 1607.06 1705.04L1425.3 1133.38C1422.97 1126.06 1415.28 1123.47 1409.38 1123.47H1409.34C1403.42 1123.49 1395.71 1126.11 1393.43 1133.44L1215.69 1705.03C1215.39 1705.97 1214.2 1706.54 1213.04 1706.31C1211.86 1706.08 1211.14 1705.13 1211.43 1704.18L1389.17 1132.6C1391.56 1124.95 1399.46 1119.99 1409.33 1119.97H1409.38C1419.21 1119.97 1427.12 1124.89 1429.54 1132.52L1611.31 1704.18C1611.61 1705.12 1610.9 1706.07 1609.72 1706.31C1609.55 1706.34 1609.36 1706.36 1609.19 1706.36Z" fill="#21211D"/>
<mask id="mask20_710_882" style="mask-type:alpha" maskUnits="userSpaceOnUse" x="2144" y="1120" width="401" height="587">
<path fill-rule="evenodd" clip-rule="evenodd" d="M2144.68 1120.14H2544.94V1706.36H2144.68V1120.14Z" fill="white"/>
</mask>
<g mask="url(#mask20_710_882)">
<path fill-rule="evenodd" clip-rule="evenodd" d="M2542.75 1706.36C2541.77 1706.36 2540.88 1705.84 2540.63 1705.04L2358.75 1133.54C2356.41 1126.22 2348.67 1123.59 2342.77 1123.64C2336.86 1123.65 2329.14 1126.28 2326.86 1133.62L2149 1705.03C2148.71 1705.97 2147.51 1706.54 2146.35 1706.31C2145.17 1706.08 2144.45 1705.13 2144.75 1704.18L2322.6 1132.77C2324.98 1125.11 2332.89 1120.17 2342.76 1120.14H2342.82C2352.65 1120.14 2360.57 1125.06 2363 1132.68L2544.88 1704.18C2545.17 1705.12 2544.46 1706.07 2543.29 1706.31C2543.11 1706.34 2542.93 1706.36 2542.75 1706.36Z" fill="#21211D"/>
</g>
<mask id="mask21_710_882" style="mask-type:alpha" maskUnits="userSpaceOnUse" x="1211" y="1075" width="1335" height="632">
<path fill-rule="evenodd" clip-rule="evenodd" d="M1211.37 1706.36H2545.47V1075.28H1211.37V1706.36Z" fill="white"/>
</mask>
<g mask="url(#mask21_710_882)">
<path fill-rule="evenodd" clip-rule="evenodd" d="M1276.77 1137.41H2480.07V1075.28H1276.77V1137.41Z" fill="#066952"/>
<path fill-rule="evenodd" clip-rule="evenodd" d="M2474.07 1099.26H1280.58C1279.08 1099.26 1277.86 1098.28 1277.86 1097.08C1277.86 1095.88 1279.08 1094.9 1280.58 1094.9H2474.07C2475.58 1094.9 2476.8 1095.88 2476.8 1097.08C2476.8 1098.28 2475.58 1099.26 2474.07 1099.26Z" fill="white"/>
</g>
<path fill-rule="evenodd" clip-rule="evenodd" d="M1422.54 423.006L1433.65 531.956H1455.56L1466.68 423.006H1422.54Z" fill="#D6A47F"/>
<path fill-rule="evenodd" clip-rule="evenodd" d="M1853.71 423.006L1864.83 531.956H1886.73L1897.85 423.006H1853.71Z" fill="#D6A47F"/>
<path fill-rule="evenodd" clip-rule="evenodd" d="M1433.49 410.588H1453.13V335.928H1433.49V410.588Z" fill="#74262E"/>
<path fill-rule="evenodd" clip-rule="evenodd" d="M1413.84 410.588H1433.49V335.928L1413.84 410.588Z" fill="#74262E"/>
<path fill-rule="evenodd" clip-rule="evenodd" d="M1672.28 410.588H1691.93V335.928H1672.28V410.588Z" fill="#74262E"/>
<path fill-rule="evenodd" clip-rule="evenodd" d="M1711.58 410.588H1691.93V335.928L1711.58 410.588Z" fill="#74262E"/>
<path fill-rule="evenodd" clip-rule="evenodd" d="M1516.29 403.29H1580.62V143.379H1516.29V403.29Z" fill="#B6CCFC"/>
<path fill-rule="evenodd" clip-rule="evenodd" d="M1548.46 356.223C1547.6 356.223 1546.9 355.525 1546.9 354.666V205.733C1546.9 204.873 1547.6 204.176 1548.46 204.176C1549.31 204.176 1550.01 204.873 1550.01 205.733V354.666C1550.01 355.525 1549.31 356.223 1548.46 356.223Z" fill="#21211D"/>
<mask id="mask22_710_882" style="mask-type:alpha" maskUnits="userSpaceOnUse" x="1351" y="143" width="618" height="389">
<path fill-rule="evenodd" clip-rule="evenodd" d="M1351.97 531.957H1968.41V143.377H1351.97V531.957Z" fill="white"/>
</mask>
<g mask="url(#mask22_710_882)">
<path fill-rule="evenodd" clip-rule="evenodd" d="M1580.79 403.289H1627.83V192.492H1580.79V403.289Z" fill="#2E4C9E"/>
<path fill-rule="evenodd" clip-rule="evenodd" d="M1604.31 364.736C1603.45 364.736 1602.75 364.039 1602.75 363.18V243.508C1602.75 242.648 1603.45 241.951 1604.31 241.951C1605.17 241.951 1605.86 242.648 1605.86 243.508V363.18C1605.86 364.039 1605.17 364.736 1604.31 364.736Z" fill="#21211D"/>
<path fill-rule="evenodd" clip-rule="evenodd" d="M1616.21 219.631C1616.21 226.206 1610.88 231.534 1604.31 231.534C1597.73 231.534 1592.4 226.206 1592.4 219.631C1592.4 213.056 1597.73 207.727 1604.31 207.727C1610.88 207.727 1616.21 213.056 1616.21 219.631Z" fill="white"/>
<path fill-rule="evenodd" clip-rule="evenodd" d="M1610.26 381.439C1610.26 384.726 1607.6 387.39 1604.31 387.39C1601.03 387.39 1598.36 384.726 1598.36 381.439C1598.36 378.151 1601.03 375.486 1604.31 375.486C1607.6 375.486 1610.26 378.151 1610.26 381.439Z" fill="white"/>
<path fill-rule="evenodd" clip-rule="evenodd" d="M1452.35 403.289H1516.67V192.492H1452.35V403.289Z" fill="#EDC829"/>
<path fill-rule="evenodd" clip-rule="evenodd" d="M1484.51 363.892C1483.65 363.892 1482.95 363.194 1482.95 362.335V246.959C1482.95 246.099 1483.65 245.402 1484.51 245.402C1485.37 245.402 1486.07 246.099 1486.07 246.959V362.335C1486.07 363.194 1485.37 363.892 1484.51 363.892Z" fill="#21211D"/>
<path fill-rule="evenodd" clip-rule="evenodd" d="M1496.41 219.631C1496.41 226.206 1491.08 231.534 1484.51 231.534C1477.94 231.534 1472.61 226.206 1472.61 219.631C1472.61 213.056 1477.94 207.727 1484.51 207.727C1491.08 207.727 1496.41 213.056 1496.41 219.631Z" fill="white"/>
<path fill-rule="evenodd" clip-rule="evenodd" d="M1498.15 389.839H1470.89C1468.17 389.839 1465.98 387.642 1465.98 384.932C1465.98 382.223 1468.17 380.025 1470.89 380.025H1498.15C1500.85 380.025 1503.05 382.223 1503.05 384.932C1503.05 387.642 1500.85 389.839 1498.15 389.839Z" fill="white"/>
<path fill-rule="evenodd" clip-rule="evenodd" d="M1627.71 403.29H1672.28V242.871H1627.71V403.29Z" fill="#D5962F"/>
<path fill-rule="evenodd" clip-rule="evenodd" d="M1650 357.845C1649.14 357.845 1648.44 357.148 1648.44 356.289V278.3C1648.44 277.44 1649.14 276.742 1650 276.742C1650.86 276.742 1651.54 277.44 1651.54 278.3V356.289C1651.54 357.148 1650.86 357.845 1650 357.845Z" fill="#21211D"/>
<path fill-rule="evenodd" clip-rule="evenodd" d="M1657.99 379.394C1657.99 383.811 1654.41 387.39 1650 387.39C1645.57 387.39 1642 383.811 1642 379.394C1642 374.978 1645.57 371.398 1650 371.398C1654.41 371.398 1657.99 374.978 1657.99 379.394Z" fill="white"/>
<path fill-rule="evenodd" clip-rule="evenodd" d="M1659.23 263.722H1640.77C1638.05 263.722 1635.85 261.525 1635.85 258.815C1635.85 256.106 1638.05 253.908 1640.77 253.908H1659.23C1661.94 253.908 1664.13 256.106 1664.13 258.815C1664.13 261.525 1661.94 263.722 1659.23 263.722Z" fill="white"/>
<path fill-rule="evenodd" clip-rule="evenodd" d="M1534.55 187.535H1562.35V159.73H1534.55V187.535Z" fill="white"/>
<path fill-rule="evenodd" clip-rule="evenodd" d="M1534.55 385.301H1562.35V371.398H1534.55V385.301Z" fill="white"/>
<path fill-rule="evenodd" clip-rule="evenodd" d="M1903.3 335.929C1903.3 374.36 1872.14 405.514 1833.71 405.514C1795.28 405.514 1764.13 374.36 1764.13 335.929C1764.13 297.499 1795.28 266.344 1833.71 266.344C1872.14 266.344 1903.3 297.499 1903.3 335.929Z" fill="#FF6D7B"/>
<path fill-rule="evenodd" clip-rule="evenodd" d="M1848.06 279.178H1819.35L1799.18 211.468C1798.37 208.779 1800.39 206.076 1803.19 206.076H1864.23C1867.04 206.076 1869.04 208.779 1868.25 211.468L1848.06 279.178Z" fill="#FF6D7B"/>
<path fill-rule="evenodd" clip-rule="evenodd" d="M1863.95 227.427H1803.46C1802.6 227.427 1801.9 226.73 1801.9 225.871C1801.9 225.011 1802.6 224.314 1803.46 224.314H1863.95C1864.82 224.314 1865.51 225.011 1865.51 225.871C1865.51 226.73 1864.82 227.427 1863.95 227.427Z" fill="#21211D"/>
</g>
<mask id="mask23_710_882" style="mask-type:alpha" maskUnits="userSpaceOnUse" x="1764" y="206" width="140" height="200">
<path fill-rule="evenodd" clip-rule="evenodd" d="M1803.2 206.078C1800.39 206.078 1798.37 208.781 1799.18 211.471L1816.19 268.571C1786.24 276.338 1764.13 303.55 1764.13 335.929C1764.13 374.361 1795.28 405.515 1833.71 405.515C1872.14 405.515 1903.3 374.361 1903.3 335.929C1903.3 303.55 1881.18 276.338 1851.23 268.571L1868.25 211.471C1869.04 208.781 1867.04 206.078 1864.23 206.078H1803.2Z" fill="white"/>
</mask>
<g mask="url(#mask23_710_882)">
<path fill-rule="evenodd" clip-rule="evenodd" d="M1875.81 272.297L1803.48 343.255L1820.6 342.915L1805.61 365.056L1823.67 363.41L1812.77 387.623L1854.38 365.592L1814.67 395.828L1857.91 380.518L1844.81 408.705L1933.56 354.231L1875.81 272.297Z" fill="#2E4C9E"/>
</g>
<mask id="mask24_710_882" style="mask-type:alpha" maskUnits="userSpaceOnUse" x="1351" y="400" width="618" height="46">
<path fill-rule="evenodd" clip-rule="evenodd" d="M1351.97 400.934H1968.41V445.079H1351.97V400.934Z" fill="white"/>
</mask>
<g mask="url(#mask24_710_882)">
<path fill-rule="evenodd" clip-rule="evenodd" d="M1352.21 445.079H1968.18V400.934H1352.21V445.079Z" fill="#F4BF8E"/>
<path fill-rule="evenodd" clip-rule="evenodd" d="M1966.86 424.562H1353.53C1352.67 424.562 1351.97 423.865 1351.97 423.006C1351.97 422.146 1352.67 421.449 1353.53 421.449H1966.86C1967.72 421.449 1968.41 422.146 1968.41 423.006C1968.41 423.865 1967.72 424.562 1966.86 424.562Z" fill="#F4BF8E"/>
</g>
<path d="M936.702 741.758H614.077V784.266H936.702V741.758Z" fill="#2E4C9E"/>
<mask id="mask25_710_882" style="mask-type:alpha" maskUnits="userSpaceOnUse" x="436" y="1383" width="221" height="328">
<path fill-rule="evenodd" clip-rule="evenodd" d="M436.415 1383.01H656.724V1710.07H436.415V1383.01Z" fill="white"/>
</mask>
<g mask="url(#mask25_710_882)">
<path fill-rule="evenodd" clip-rule="evenodd" d="M656.724 1488.65C642.526 1502.67 626.848 1521.12 615.478 1542.82C606.218 1560.49 599.8 1580.31 599.361 1601.62C599.332 1603.26 599.288 1604.89 599.229 1606.48C596.562 1688.64 571.039 1710.07 571.039 1710.07L436.415 1484.17L487.39 1453.73L605.838 1383.01C617.163 1396.14 623.098 1425.34 633.794 1443.26C643.068 1458.82 650.79 1474.25 656.724 1488.65Z" fill="#F62A26"/>
</g>
<mask id="mask26_710_882" style="mask-type:alpha" maskUnits="userSpaceOnUse" x="436" y="1453" width="164" height="258">
<path fill-rule="evenodd" clip-rule="evenodd" d="M436.415 1453.73H599.229V1710.07H436.415V1453.73Z" fill="white"/>
</mask>
<g mask="url(#mask26_710_882)">
<path fill-rule="evenodd" clip-rule="evenodd" d="M599.229 1606.48C596.562 1688.63 571.039 1710.07 571.039 1710.07L436.415 1484.16L487.39 1453.73C492.958 1463.58 502.247 1485.66 488.151 1505.47C488.151 1505.47 536.196 1583.92 546.569 1600.09C556.006 1614.8 572.636 1640.24 599.229 1606.48Z" fill="#EDE8D6"/>
</g>
<path d="M451.981 1476.39C452.629 1475.99 453.462 1476.16 453.909 1476.76L453.993 1476.88L582.543 1689.03C582.962 1689.72 582.741 1690.63 582.049 1691.04C581.4 1691.44 580.568 1691.27 580.121 1690.67L580.037 1690.55L451.487 1478.4C451.067 1477.71 451.289 1476.81 451.981 1476.39Z" fill="#21211D"/>
<path fill-rule="evenodd" clip-rule="evenodd" d="M589.124 1460.64C580.81 1465.68 569.986 1463.03 564.948 1454.71C559.91 1446.4 562.567 1435.57 570.881 1430.53C579.195 1425.5 590.019 1428.15 595.057 1436.47C600.095 1444.78 597.438 1455.61 589.124 1460.64Z" fill="white"/>
<path fill-rule="evenodd" clip-rule="evenodd" d="M596.385 1518.51C596.902 1517.89 597.827 1517.8 598.448 1518.32L618.023 1534.61C618.646 1535.12 618.731 1536.05 618.213 1536.67C617.695 1537.29 616.772 1537.38 616.15 1536.86L596.574 1520.57C595.952 1520.06 595.867 1519.13 596.385 1518.51Z" fill="black"/>
<path d="M583.787 1533.58C584.262 1532.99 585.103 1532.86 585.726 1533.26L585.848 1533.35L608.431 1551.49C609.062 1552 609.162 1552.92 608.655 1553.55C608.18 1554.15 607.34 1554.27 606.716 1553.87L606.595 1553.78L584.013 1535.64C583.382 1535.13 583.28 1534.21 583.787 1533.58Z" fill="#21211D"/>
<path d="M577.021 1555.55C577.477 1554.95 578.313 1554.79 578.949 1555.18L579.073 1555.26L602.371 1572.84C603.017 1573.33 603.146 1574.25 602.657 1574.89C602.201 1575.5 601.365 1575.65 600.729 1575.27L600.605 1575.18L577.307 1557.6C576.662 1557.12 576.533 1556.2 577.021 1555.55Z" fill="#21211D"/>
<path fill-rule="evenodd" clip-rule="evenodd" d="M608.445 1550.72L607.702 1548.46C607.253 1547.05 608.929 1545.94 610.049 1546.9L612.31 1548.87L613.574 1549.98C615.75 1551.91 618.143 1554.06 620.705 1556.42L622.547 1558.12C629.913 1564.94 637.245 1572.08 644.127 1579.27C649.278 1584.64 653.997 1589.86 658.188 1594.86C667.108 1605.49 673.372 1614.79 676.415 1622.43C680.086 1631.64 679.031 1638.55 672.384 1642.22C667.556 1644.88 662.365 1644.34 657.047 1640.98C647.341 1634.83 637.2 1619.41 626.916 1597.4L626.19 1595.84C621.41 1585.47 616.92 1574.37 612.852 1563.27C611.783 1560.36 610.803 1557.6 609.914 1555.04L609.058 1552.54C608.837 1551.89 608.634 1551.29 608.445 1550.72ZM613.586 1553.92L612.202 1552.68L612.717 1554.17C613.591 1556.69 614.554 1559.4 615.604 1562.26C619.647 1573.29 624.109 1584.32 628.852 1594.61C639.151 1616.95 649.322 1632.62 658.614 1638.5C663.088 1641.33 667.156 1641.76 670.968 1639.65C676.066 1636.84 676.881 1631.51 673.693 1623.51C670.913 1616.54 665.193 1607.93 657.044 1598.07L655.943 1596.74C651.796 1591.8 647.12 1586.63 642.01 1581.29C634.603 1573.56 626.662 1565.87 618.722 1558.58C616.92 1556.92 615.203 1555.36 613.586 1553.92Z" fill="#21211D"/>
<path fill-rule="evenodd" clip-rule="evenodd" d="M605.874 1542.84L606.101 1541.92C606.442 1540.57 608.301 1540.42 608.863 1541.69L609.749 1543.76C610.217 1544.86 610.719 1546.07 611.252 1547.37L612.072 1549.4C614.474 1555.38 616.876 1561.78 619.118 1568.36C621.455 1575.21 623.485 1581.86 625.115 1588.16C628.445 1601.04 629.963 1611.84 629.223 1619.94C628.314 1629.91 623.92 1635.75 615.673 1636.22C607.314 1636.69 601.964 1631.25 599.39 1621.18C597.298 1613 597.014 1601.84 598.191 1588.4C598.916 1580.12 600.171 1571.29 601.804 1562.28C602.743 1557.1 603.749 1552.17 604.755 1547.67C605.02 1546.48 605.27 1545.39 605.503 1544.4L605.874 1542.84ZM607.917 1546.97L607.367 1549.43C606.452 1553.59 605.542 1558.09 604.688 1562.8C603.07 1571.73 601.828 1580.47 601.11 1588.66C598.599 1617.34 602.859 1634 615.509 1633.29C622.074 1632.92 625.513 1628.35 626.304 1619.68C627.008 1611.98 625.531 1601.47 622.278 1588.9C620.667 1582.67 618.66 1576.09 616.345 1569.31C614.12 1562.78 611.736 1556.43 609.353 1550.49C609.075 1549.8 608.803 1549.13 608.539 1548.48L607.917 1546.97Z" fill="#21211D"/>
<path fill-rule="evenodd" clip-rule="evenodd" d="M853.643 1155.59L853.578 1155.41L853.458 1155.07C853.12 1154.16 852.825 1153.22 852.597 1152.28C852.346 1151.32 852.052 1150.38 851.877 1149.41L851.387 1146.9L853.12 1153.53L853.469 1154.89L853.643 1155.56V1155.59ZM805.5 1144.47L794.099 928.484L801.892 958.054L824.803 1044.89L843.496 1116.57L805.5 1144.47ZM1054.4 1122.72C1054.04 1119.88 1053.6 1117.06 1053.05 1114.25C1052.49 1111.45 1051.94 1108.64 1051.23 1105.89C1050.51 1103.14 1049.75 1100.39 1048.93 1097.67L1048.37 1095.82L1048.14 1095.16L1047.68 1093.83L1040.16 1072.67L1010.17 988.017L980.437 903.262L965.57 860.896L950.834 818.486L936.435 777.014H614.148L603.38 1159.12L597.145 1358.62L593.745 1458.37L592.033 1508.25L590.191 1558.14L829.152 1555.19L826.067 1505.38L823.124 1455.56L821.108 1421.03C856.935 1388.53 892.925 1356.25 928.958 1324L996.023 1264.23L1000.21 1260.51L1002.78 1258.28L1006 1255.38L1009.18 1252.44L1012.23 1249.34C1020.34 1241.08 1027.44 1231.81 1033.44 1221.93C1039.47 1212.09 1044.3 1201.54 1047.9 1190.64C1049.75 1185.19 1051.17 1179.62 1052.43 1174.02C1053.55 1168.39 1054.5 1162.74 1055 1157.02C1056.09 1145.61 1055.94 1134.07 1054.4 1122.72Z" fill="#2E4C9E"/>
<path fill-rule="evenodd" clip-rule="evenodd" d="M829.153 1556.51C829.153 1535.67 775.331 1518.93 709.583 1518.93C643.837 1518.93 590.379 1535.83 590.379 1556.67C590.379 1577.5 643.837 1594.4 709.583 1594.4C775.331 1594.4 829.153 1577.35 829.153 1556.51Z" fill="#21211D"/>
<path fill-rule="evenodd" clip-rule="evenodd" d="M913.09 1709.51H651.901V1523.64C668.986 1520.63 688.635 1518.93 709.514 1518.93C727.624 1518.93 744.825 1520.21 760.239 1522.48C765.001 1541.86 772.826 1564.78 785.632 1585.66C796.063 1602.67 809.794 1618.33 827.874 1629.63C832.738 1632.66 837.325 1635.65 841.661 1638.6C902.511 1679.71 913.09 1709.51 913.09 1709.51Z" fill="#F62A26"/>
<path fill-rule="evenodd" clip-rule="evenodd" d="M913.09 1709.51H651.901V1653.41C659.931 1654.47 690.979 1659.83 695.419 1680.15C695.419 1680.15 806.086 1680.24 818.877 1680.15C831.683 1680.05 840.284 1675.26 844.079 1664C846.481 1656.93 843.888 1645.84 841.661 1638.6C902.511 1679.71 913.09 1709.51 913.09 1709.51Z" fill="#EDE8D6"/>
<path d="M901.747 1691.85C902.557 1691.85 903.213 1692.51 903.213 1693.32C903.213 1694.08 902.632 1694.7 901.889 1694.77L901.747 1694.78H653.69C652.881 1694.78 652.225 1694.12 652.225 1693.32C652.225 1692.55 652.806 1691.93 653.549 1691.86L653.69 1691.85H901.747Z" fill="#21211D"/>
<path fill-rule="evenodd" clip-rule="evenodd" d="M710.724 1571.48C710.724 1581.2 702.843 1589.09 693.121 1589.09C683.4 1589.09 675.518 1581.2 675.518 1571.48C675.518 1561.76 683.4 1553.88 693.121 1553.88C702.843 1553.88 710.724 1561.76 710.724 1571.48Z" fill="white"/>
<path d="M786.945 1585.15C787.71 1584.89 788.544 1585.29 788.808 1586.06C789.055 1586.78 788.714 1587.55 788.039 1587.87L787.901 1587.92L763.828 1596.22C763.063 1596.49 762.228 1596.08 761.964 1595.32C761.717 1594.6 762.059 1593.82 762.733 1593.51L762.872 1593.45L786.945 1585.15Z" fill="#21211D"/>
<path d="M798.428 1602.05C799.188 1601.78 800.029 1602.17 800.305 1602.93C800.566 1603.64 800.237 1604.43 799.569 1604.75L799.43 1604.81L772.213 1614.72C771.452 1615 770.612 1614.6 770.335 1613.84C770.076 1613.13 770.404 1612.35 771.072 1612.02L771.21 1611.97L798.428 1602.05Z" fill="#21211D"/>
<path d="M813.543 1618.3C814.294 1618 815.146 1618.37 815.447 1619.12C815.728 1619.82 815.423 1620.62 814.765 1620.96L814.628 1621.02L787.523 1631.84C786.772 1632.14 785.918 1631.77 785.618 1631.02C785.337 1630.32 785.641 1629.52 786.301 1629.18L786.437 1629.12L813.543 1618.3Z" fill="#21211D"/>
<path fill-rule="evenodd" clip-rule="evenodd" d="M847.638 1555.09C861.886 1548.81 873.954 1544.81 883.201 1543.66C894.516 1542.26 901.664 1545.19 903.27 1553.25C904.94 1561.63 899.16 1568.29 887.462 1573.38C878.331 1577.35 865.688 1580.35 850.371 1582.53L848.4 1582.81C836.567 1584.41 823.898 1585.45 811.231 1586.04C807.537 1586.21 804.062 1586.33 800.869 1586.41L798.986 1586.45C798.247 1586.47 797.555 1586.48 796.912 1586.49L795.552 1586.51L794.328 1586.52C792.852 1586.52 792.299 1584.58 793.553 1583.81L795.643 1582.53L798.362 1580.9C799.481 1580.23 800.662 1579.54 801.899 1578.82L804.185 1577.49C812.379 1572.76 821.027 1568.03 829.741 1563.61C835.918 1560.48 841.909 1557.62 847.638 1555.09ZM848.007 1579.9C882.983 1575.16 902.919 1566.49 900.396 1553.83L900.335 1553.54C898.986 1547.57 893.389 1545.35 883.562 1546.57C875.017 1547.63 863.772 1551.28 850.492 1557.04L848.822 1557.77C843.142 1560.28 837.199 1563.12 831.067 1566.22C822.405 1570.62 813.801 1575.32 805.651 1580.03L804.88 1580.47C803.86 1581.07 802.875 1581.64 801.928 1582.2L799.718 1583.5L800.901 1583.48C803.728 1583.4 806.775 1583.3 810 1583.16L811.095 1583.11C823.682 1582.53 836.269 1581.49 848.007 1579.9Z" fill="#21211D"/>
<path fill-rule="evenodd" clip-rule="evenodd" d="M797.154 1582.59L798.824 1582.47C810.607 1581.67 822.68 1581.34 833.961 1581.78C848.066 1582.33 859.604 1584.03 867.73 1587.15C877.816 1591.02 882.531 1597.12 880.382 1605.49C878.414 1613.15 872.208 1616.67 862.759 1616.52C854.988 1616.39 845.062 1613.82 833.447 1609.26C827.691 1607.01 821.638 1604.3 815.396 1601.25C808.601 1597.93 801.94 1594.37 795.692 1590.82C793.503 1589.57 791.522 1588.41 789.784 1587.38L788.465 1586.58L787.617 1586.06C786.432 1585.33 786.847 1583.51 788.233 1583.36L789.627 1583.22L791.805 1583.02C793.453 1582.88 795.242 1582.73 797.154 1582.59ZM866.679 1589.88C858.918 1586.9 847.659 1585.24 833.847 1584.71C822.684 1584.28 810.711 1584.6 799.025 1585.4C797.62 1585.49 796.276 1585.59 794.998 1585.7L792.976 1585.86L794.374 1586.68C795.033 1587.06 795.718 1587.46 796.425 1587.86L797.141 1588.27C803.341 1591.8 809.948 1595.33 816.683 1598.62C822.857 1601.64 828.84 1604.31 834.518 1606.53C858.99 1616.13 874.556 1616.38 877.543 1604.76C879.255 1598.1 875.532 1593.28 866.679 1589.88Z" fill="#21211D"/>
<path d="M795.011 775.548C795.773 775.519 796.421 776.076 796.52 776.816L796.532 776.956L799.028 842.141C799.554 854.553 789.63 864.911 777.204 864.911C776.394 864.911 775.738 864.255 775.738 863.446C775.738 862.636 776.394 861.98 777.204 861.98C787.844 861.98 796.366 853.207 796.111 842.613L796.099 842.258L793.603 777.068C793.573 776.26 794.203 775.579 795.011 775.548Z" fill="#21211D"/>
<path d="M880.378 775.658C881.126 775.349 881.983 775.706 882.291 776.455C886.561 786.809 893.108 795.952 902.387 802.962C914.128 811.831 929.562 816.737 949.211 816.737C950.021 816.737 950.677 817.393 950.677 818.202C950.677 819.012 950.021 819.668 949.211 819.668C928.94 819.668 912.883 814.564 900.621 805.3C890.891 797.951 884.038 788.382 879.582 777.572C879.273 776.823 879.63 775.966 880.378 775.658Z" fill="#21211D"/>
<path d="M681.772 776.469C682.073 775.717 682.927 775.351 683.677 775.652C684.43 775.953 684.795 776.807 684.494 777.557C680.149 788.409 673.41 797.987 663.784 805.337C651.675 814.58 635.752 819.668 615.588 819.668C614.78 819.668 614.124 819.012 614.124 818.202C614.124 817.393 614.78 816.737 615.588 816.737C635.126 816.737 650.422 811.849 662.005 803.007C671.178 796.004 677.613 786.857 681.772 776.469Z" fill="#21211D"/>
<path d="M814.935 928.256C815.745 928.256 816.401 928.912 816.401 929.722C816.401 930.484 815.82 931.109 815.077 931.18L814.935 931.187H782.998C782.19 931.187 781.533 930.531 781.533 929.722C781.533 928.96 782.114 928.333 782.858 928.262L782.998 928.256H814.935Z" fill="#21211D"/>
<path d="M803.478 928.326C804.201 928.095 804.971 928.453 805.268 929.135L805.32 929.275L867.21 1122.52C867.381 1123.05 867.232 1123.63 866.836 1124.02L866.723 1124.12L810.168 1168.73C809.533 1169.23 808.611 1169.12 808.11 1168.49C807.64 1167.89 807.706 1167.05 808.239 1166.53L808.353 1166.43L864.109 1122.45L802.529 930.169C802.298 929.446 802.657 928.676 803.338 928.379L803.478 928.326Z" fill="#21211D"/>
<path d="M630.582 816.805C631.344 816.825 631.955 817.422 632.006 818.167L632.01 818.307L613.549 1546.42C613.528 1547.23 612.856 1547.86 612.047 1547.84C611.285 1547.83 610.675 1547.23 610.623 1546.48L610.619 1546.34L629.08 818.233C629.101 817.424 629.773 816.784 630.582 816.805Z" fill="#21211D"/>
<path fill-rule="evenodd" clip-rule="evenodd" d="M805.575 1144.41L820.95 1420.76L826.541 1129.25L805.575 1144.41Z" fill="#21211D"/>
<path d="M703.006 1488.96C741.479 1488.22 782.638 1494.65 826.192 1509.67C826.957 1509.94 827.363 1510.77 827.1 1511.54C826.836 1512.3 826.001 1512.71 825.236 1512.44C782.01 1497.54 741.192 1491.16 703.062 1491.89C673.217 1492.47 646.625 1497.34 623.569 1505.1C614.96 1508 607.459 1511.1 601.11 1514.2L599.93 1514.78C598.207 1515.64 596.688 1516.45 595.375 1517.18L594.457 1517.71L593.603 1518.21C593.548 1518.25 593.506 1518.27 593.477 1518.29C592.792 1518.72 591.888 1518.52 591.456 1517.83C591.024 1517.15 591.23 1516.24 591.915 1515.81L592.44 1515.49L592.984 1515.17C593.178 1515.06 593.385 1514.94 593.604 1514.82L593.943 1514.63C595.595 1513.7 597.556 1512.67 599.823 1511.56C606.285 1508.41 613.902 1505.26 622.635 1502.32C645.965 1494.47 672.852 1489.55 703.006 1488.96Z" fill="#21211D"/>
<path fill-rule="evenodd" clip-rule="evenodd" d="M563.634 567.297L531.966 551.451C524.781 547.856 516.038 550.587 512.176 557.634L480.874 614.761C476.914 621.988 479.554 631.059 486.776 635.032L517.859 652.13L563.634 567.297Z" fill="#D5962F"/>
<path fill-rule="evenodd" clip-rule="evenodd" d="M635.603 464.62C632.085 445.728 642.711 427.845 659.29 424.757C667.391 423.248 675.663 425.445 682.577 430.948C689.373 436.358 694.047 444.34 695.739 453.421L690.373 454.419C688.922 446.629 684.946 439.811 679.177 435.218C673.522 430.716 666.811 428.906 660.288 430.123C646.668 432.66 638.001 447.687 640.969 463.622L635.603 464.62Z" fill="#D5962F"/>
<path fill-rule="evenodd" clip-rule="evenodd" d="M704.153 452.107C659.485 432.68 607.342 449.652 582.667 491.649L485.924 656.307C477.268 671.04 482.851 690.044 498.135 697.686C522.336 709.785 561.916 723.418 612.696 719.323C618.025 718.894 622.633 715.443 624.447 710.414L711.487 469.11C713.909 462.395 710.7 454.954 704.153 452.107Z" fill="#D5962F"/>
<path fill-rule="evenodd" clip-rule="evenodd" d="M550.407 685.877C550.208 685.877 550.006 685.836 549.812 685.749L485.766 657.204C485.027 656.875 484.694 656.009 485.024 655.27C485.351 654.531 486.217 654.198 486.958 654.527L551.005 683.072C551.745 683.402 552.076 684.269 551.747 685.008C551.504 685.553 550.969 685.877 550.407 685.877Z" fill="#21211D"/>
<path fill-rule="evenodd" clip-rule="evenodd" d="M563.633 568.761C563.437 568.761 563.239 568.722 563.048 568.638C562.306 568.314 561.967 567.451 562.291 566.71C595.946 489.617 625.608 464.666 644.566 457.308C657.725 452.202 665.602 455.581 665.93 455.727C666.669 456.056 667.003 456.923 666.673 457.662C666.343 458.399 665.481 458.732 664.745 458.407C664.582 458.337 653.694 453.89 636.171 464.85C619.721 475.138 594.015 501.364 564.977 567.882C564.737 568.433 564.199 568.761 563.633 568.761Z" fill="#21211D"/>
<path fill-rule="evenodd" clip-rule="evenodd" d="M570.034 573.567C569.811 573.567 569.585 573.516 569.373 573.408L553.562 565.389C552.84 565.023 552.551 564.141 552.918 563.42C553.284 562.697 554.167 562.411 554.888 562.776L570.698 570.796C571.419 571.161 571.708 572.042 571.342 572.764C571.084 573.274 570.568 573.567 570.034 573.567Z" fill="#21211D"/>
<path fill-rule="evenodd" clip-rule="evenodd" d="M531.834 579.628C531.607 579.628 531.378 579.576 531.163 579.465L507.528 567.279C506.808 566.909 506.526 566.025 506.898 565.305C507.268 564.586 508.152 564.305 508.872 564.674L532.506 576.861C533.225 577.232 533.508 578.116 533.137 578.834C532.877 579.338 532.364 579.628 531.834 579.628Z" fill="#21211D"/>
<path fill-rule="evenodd" clip-rule="evenodd" d="M397.905 1009.14L594.809 1072.98L643.055 924.187L430.016 855.111L387.002 987.772C384.113 996.684 388.994 1006.25 397.905 1009.14Z" fill="#D5962F"/>
<path fill-rule="evenodd" clip-rule="evenodd" d="M599.511 1073.88C597.921 1073.88 596.322 1073.63 594.766 1073.12C590.869 1071.86 587.699 1069.15 585.837 1065.51C583.975 1061.86 583.645 1057.7 584.911 1053.81L628.47 919.457L631.257 920.362L587.696 1054.71C586.675 1057.86 586.942 1061.22 588.447 1064.17C589.953 1067.13 592.518 1069.31 595.67 1070.34C598.823 1071.36 602.183 1071.09 605.133 1069.58C608.084 1068.08 610.273 1065.51 611.295 1062.36L654.856 928.013L657.643 928.917L614.081 1063.27C612.819 1067.16 610.114 1070.33 606.465 1072.19C604.275 1073.31 601.902 1073.88 599.511 1073.88Z" fill="#D5962F"/>
<path fill-rule="evenodd" clip-rule="evenodd" d="M654.991 928.057L611.837 1061.15C609.475 1068.44 601.652 1072.43 594.367 1070.07C587.081 1067.7 583.089 1059.88 585.451 1052.6L628.607 919.502" fill="white"/>
<mask id="mask27_710_882" style="mask-type:alpha" maskUnits="userSpaceOnUse" x="386" y="855" width="258" height="218">
<path fill-rule="evenodd" clip-rule="evenodd" d="M430.016 855.111L643.055 924.187L594.81 1072.98L397.905 1009.14C388.994 1006.25 384.113 996.684 387.002 987.773L430.016 855.111Z" fill="white"/>
</mask>
<g mask="url(#mask27_710_882)">
<path fill-rule="evenodd" clip-rule="evenodd" d="M320.495 918.332L594.481 1002.87L571.501 1072.98L315.431 991.698L320.495 918.332Z" fill="#BA7400"/>
</g>
<path fill-rule="evenodd" clip-rule="evenodd" d="M711.672 497.888L744.039 488.231L776.441 478.691L808.866 469.232C836.309 461.228 864.917 474.659 876.77 499.697L877.118 500.453L880.633 507.858L884.287 515.46L891.724 530.691C896.712 540.845 901.717 551 906.819 561.087C911.914 571.175 917.074 581.213 922.304 591.176C927.541 601.133 932.758 611.063 938.102 620.854C948.742 640.432 959.817 659.624 971.066 677.579C973.006 680.664 976.92 686.691 976.92 686.691L981.354 677.324C981.354 677.324 990.142 657.922 994.445 647.881C998.72 637.823 1002.84 627.561 1006.89 617.197C1010.98 606.851 1014.97 596.388 1018.86 585.854C1022.81 575.341 1026.66 564.749 1030.46 554.14L1036.14 538.227L1041.66 522.606L1041.97 521.742C1050.97 496.289 1078.9 482.955 1104.36 491.958C1127.96 500.309 1141.14 524.945 1135.74 548.781L1134.71 553.386L1133.68 557.798L1131.6 566.546C1130.16 572.35 1128.7 578.13 1127.21 583.906C1124.2 595.445 1121.02 606.937 1117.72 618.433C1114.35 629.908 1110.86 641.38 1107.2 652.868C1103.47 664.336 1099.55 675.808 1095.39 687.334C1091.26 698.876 1086.74 710.402 1081.8 722.08C1076.82 733.766 1071.51 745.563 1064.95 757.84C1061.65 763.986 1058.06 770.256 1053.73 776.881C1051.56 780.196 1049.21 783.607 1046.49 787.171C1043.78 790.728 1040.71 794.458 1036.87 798.478C1035.95 799.459 1034.87 800.522 1033.83 801.539L1032.15 803.128L1031.29 803.918L1030.37 804.74C1027.95 806.887 1025.09 809.183 1021.73 811.509C1018.36 813.829 1014.45 816.23 1009.45 818.515C1004.49 820.772 998.481 822.903 991.286 824.12C984.144 825.35 975.771 825.493 967.651 824.005C963.851 823.314 960.876 822.494 958.017 821.57C955.243 820.662 952.727 819.668 950.542 818.689C946.118 816.711 942.591 814.707 939.533 812.794C936.551 810.905 933.954 809.055 931.65 807.291C927.077 803.769 923.471 800.509 920.202 797.378C916.968 794.256 914.134 791.275 911.488 788.363C906.22 782.544 901.71 776.998 897.477 771.535C889.073 760.633 881.79 750.061 874.856 739.518C867.928 728.996 861.485 718.495 855.254 707.999C849.024 697.507 843.025 687.021 837.163 676.525C825.419 655.553 814.369 634.468 803.639 613.29C798.279 602.697 792.973 592.099 787.794 581.429L780.095 565.369L776.275 557.282L772.398 548.956L840.65 580.176L808.137 589.323L775.6 598.387L743.029 607.335L710.417 616.142C680.336 624.266 649.365 606.468 641.241 576.387C633.275 546.892 650.323 516.514 679.344 507.684L711.672 497.888Z" fill="#FFDDBA"/>
<path fill-rule="evenodd" clip-rule="evenodd" d="M1125.76 504.443L1078.29 494.652L1085.8 458.262L1133.27 468.053L1125.76 504.443Z" fill="#FFDDBA"/>
<mask id="mask28_710_882" style="mask-type:alpha" maskUnits="userSpaceOnUse" x="1097" y="439" width="113" height="50">
<path fill-rule="evenodd" clip-rule="evenodd" d="M1097.4 439.648H1209V488.622H1097.4V439.648Z" fill="white"/>
</mask>
<g mask="url(#mask28_710_882)">
<path fill-rule="evenodd" clip-rule="evenodd" d="M1097.4 465.583C1097.4 465.583 1204.98 427.605 1208.9 443.565C1212.41 457.81 1121.14 488.622 1121.14 488.622L1097.4 465.583Z" fill="#FFDDBA"/>
</g>
<path fill-rule="evenodd" clip-rule="evenodd" d="M655.228 520.244L574.039 776.741H924.154L854.73 520.756C844.036 488.508 792.404 465.885 748.3 465.885C704.457 465.885 666.17 488.246 655.228 520.244Z" fill="#FFC300"/>
<path fill-rule="evenodd" clip-rule="evenodd" d="M773.508 580.376C763.694 578.882 753.903 577.252 744.102 575.675C734.298 574.122 724.525 572.385 714.736 570.749C704.953 569.072 695.157 567.468 685.383 565.732L678.052 564.445L676.218 564.124L675.76 564.043C675.334 563.967 676.101 564.109 676.538 564.174C677.501 564.323 678.472 564.43 679.442 564.493C683.361 564.828 687.366 564.593 691.255 563.833C695.146 563.098 698.908 561.818 702.413 560.065C705.929 558.341 709.199 556.134 712.118 553.508C717.987 548.314 722.483 541.295 724.745 533.892L718.347 547.596C718.403 547.484 717.7 548.604 717.288 549.271L715.791 551.728L712.659 557.056C710.556 560.684 708.449 564.471 706.33 568.266C702.107 575.894 697.97 583.774 693.903 591.729C685.776 607.666 677.952 624.01 670.439 640.594C655.378 673.758 641.547 707.838 628.403 742.295C615.234 776.749 594.254 840.746 582.701 876.008C571.079 911.254 560.163 946.822 549.921 982.644L549.913 982.668C542.235 1009.53 514.236 1025.07 487.377 1017.39C461.172 1009.9 445.76 982.967 452.155 956.721C461.32 919.329 471.184 882.046 481.904 844.919C492.743 807.826 513.087 741.851 525.783 705.114C532.047 686.724 538.783 668.445 545.693 650.192C552.629 631.944 559.868 613.757 567.512 595.633C575.141 577.504 583.181 559.448 591.774 541.405C596.084 532.379 600.508 523.365 605.21 514.294C607.57 509.746 609.976 505.21 612.532 500.596C613.793 498.302 615.115 495.957 616.459 493.6L618.582 489.95C619.393 488.588 619.913 487.684 621.234 485.57L614.837 499.273C616.757 493.22 619.475 487.345 622.964 481.92C626.468 476.514 630.678 471.582 635.457 467.305C640.252 463.054 645.59 459.453 651.318 456.6C657.061 453.771 663.191 451.706 669.513 450.471C675.844 449.254 682.341 448.915 688.738 449.406C690.324 449.545 691.91 449.728 693.488 449.954L695.646 450.29L697.483 450.594L704.827 451.812C714.622 453.417 724.395 455.152 734.181 456.814C743.959 458.519 753.755 460.121 763.519 461.909C773.288 463.671 796.252 465.381 806.006 467.226C837.156 473.12 857.631 503.149 851.738 534.299C845.98 564.734 803.881 584.962 773.508 580.376Z" fill="#FFDDBA"/>
<path fill-rule="evenodd" clip-rule="evenodd" d="M519.361 905.452L456.81 1022.45C452.975 1029.63 444.05 1032.33 436.876 1028.5C430.483 1025.08 427.642 1017.62 429.813 1010.95L470.832 884.783C475.353 870.877 490.291 863.268 504.198 867.789C518.104 872.31 525.712 887.249 521.192 901.155C520.716 902.616 520.053 904.136 519.361 905.452Z" fill="#FFDDBA"/>
<path fill-rule="evenodd" clip-rule="evenodd" d="M526.861 947.135L476.084 1034.71C472.108 1041.56 463.323 1043.9 456.464 1039.92C450.562 1036.5 448.014 1029.51 449.951 1023.26L479.887 926.56C484.102 912.945 498.554 905.325 512.169 909.54C525.783 913.755 533.402 928.208 529.188 941.821C528.615 943.67 527.782 945.523 526.861 947.135Z" fill="#FFDDBA"/>
<path fill-rule="evenodd" clip-rule="evenodd" d="M545.067 955.694L499.638 1045.26C496.155 1052.13 487.766 1054.87 480.898 1051.39C474.969 1048.38 472.118 1041.71 473.693 1035.52L498.427 938.186C501.836 924.772 515.474 916.66 528.888 920.069C542.303 923.478 550.413 937.116 547.005 950.53C546.552 952.311 545.856 954.114 545.067 955.694Z" fill="#FFDDBA"/>
<path fill-rule="evenodd" clip-rule="evenodd" d="M557.399 966.915L518.898 1051.95C516.003 1058.35 508.472 1061.18 502.078 1058.29C496.54 1055.78 493.674 1049.79 494.887 1044.08L514.241 952.757C516.857 940.414 528.982 932.53 541.325 935.146C553.667 937.76 561.553 949.887 558.936 962.229C558.597 963.834 558.041 965.473 557.399 966.915Z" fill="#FFDDBA"/>
<path fill-rule="evenodd" clip-rule="evenodd" d="M721.214 542.147C720.76 542.953 720.276 543.759 719.764 544.55L721.243 541.385L724.746 533.883C723.867 536.726 722.679 539.509 721.214 542.147ZM675.764 564.038L675.954 564.081C675.675 564.022 675.5 563.993 675.764 564.038ZM806.007 467.216C796.249 465.385 773.288 463.671 763.516 461.913C753.757 460.124 743.955 458.513 734.182 456.813C727.121 455.612 720.072 454.366 712.995 453.18C710.27 452.71 707.543 452.257 704.818 451.802L697.48 450.586L695.648 450.293L693.492 449.956C691.91 449.722 690.328 449.546 688.73 449.399C684.541 449.077 680.305 449.121 676.099 449.517C673.888 449.736 671.69 450.044 669.508 450.469C663.193 451.7 657.054 453.765 651.309 456.594C645.596 459.451 640.248 463.055 635.456 467.304C630.68 471.583 626.459 476.506 622.958 481.912C621.17 484.696 619.601 487.582 618.224 490.557L616.452 493.59C615.119 495.949 613.786 498.293 612.525 500.594C609.975 505.209 607.572 509.736 605.213 514.294C600.51 523.363 596.085 532.375 591.778 541.399C583.177 559.451 575.133 577.503 567.513 595.628C559.866 613.752 552.628 631.935 545.698 650.192C538.782 668.448 532.041 686.719 525.786 705.108C522.226 715.423 518.752 725.738 515.369 736.083C539.836 743.056 579.147 754.661 618.796 767.98C621.946 759.379 625.14 750.822 628.409 742.294C632.788 730.807 637.244 719.364 641.802 707.994C643.751 703.115 645.714 698.251 647.706 693.4C655.002 675.598 662.548 657.972 670.432 640.595C677.948 624.009 685.771 607.656 693.903 591.73C694.183 591.202 694.444 590.661 694.722 590.133C698.356 583.056 701.821 582.182 705.587 575.369C708.561 575.867 711.536 576.365 714.524 576.878C715.726 577.083 716.926 577.288 718.128 577.493C726.713 578.944 735.385 580.279 743.987 581.641C753.789 583.224 763.574 584.85 773.391 586.345C803.765 590.931 852.993 566.959 858.752 536.526C864.642 505.377 837.158 473.121 806.007 467.216Z" fill="#FFC300"/>
<path fill-rule="evenodd" clip-rule="evenodd" d="M557.747 927.172C557.747 927.172 582.855 1034.55 557.832 1038.57C537.778 1041.8 528.333 949.606 528.333 949.606L557.747 927.172Z" fill="#FFDDBA"/>
<path fill-rule="evenodd" clip-rule="evenodd" d="M449.66 1030.45C449.46 1030.45 449.257 1030.41 449.062 1030.32C448.323 1029.99 447.994 1029.12 448.324 1028.38L457.011 1009C457.342 1008.26 458.208 1007.93 458.948 1008.26C459.685 1008.59 460.016 1009.46 459.684 1010.2L450.999 1029.58C450.754 1030.13 450.22 1030.45 449.66 1030.45Z" fill="#21211D"/>
<path fill-rule="evenodd" clip-rule="evenodd" d="M473.371 1039.4C473.167 1039.4 472.961 1039.36 472.763 1039.27C472.028 1038.94 471.703 1038.07 472.039 1037.33L480.287 1019.26C480.621 1018.53 481.488 1018.2 482.228 1018.54C482.964 1018.88 483.289 1019.74 482.952 1020.48L474.705 1038.55C474.459 1039.09 473.928 1039.4 473.371 1039.4Z" fill="#21211D"/>
<path fill-rule="evenodd" clip-rule="evenodd" d="M495.093 1051.55C494.893 1051.55 494.69 1051.51 494.495 1051.42C493.756 1051.09 493.427 1050.22 493.757 1049.49L502.444 1030.1C502.775 1029.36 503.641 1029.03 504.381 1029.36C505.119 1029.69 505.449 1030.56 505.118 1031.3L496.432 1050.68C496.188 1051.23 495.654 1051.55 495.093 1051.55Z" fill="#21211D"/>
<path fill-rule="evenodd" clip-rule="evenodd" d="M956.227 720.357C956.121 720.447 956.161 720.361 956.441 720.089C956.548 719.992 956.724 719.832 956.951 719.64C956.602 720.019 956.336 720.28 956.227 720.357ZM976.818 686.491C975.177 683.974 972.692 680.167 971.066 677.581C959.817 659.626 948.742 640.432 938.102 620.854C927.473 601.237 917.017 581.26 906.819 561.087C901.717 551 896.712 540.846 891.724 530.693L884.287 515.46L877.118 500.453L876.782 499.729C864.877 474.754 836.326 461.321 808.866 469.234C787.228 475.468 765.645 481.885 744.039 488.232L711.672 497.888L679.344 507.686C650.323 516.514 633.275 546.892 641.241 576.388C649.365 606.468 680.336 624.267 710.416 616.143L743.029 607.336L775.599 598.387C781.619 596.706 787.64 595.031 793.665 593.356C796.961 600.011 800.282 606.655 803.639 613.29C814.369 634.469 825.418 655.554 837.163 676.526C843.025 687.022 849.025 697.507 855.253 708C861.485 718.495 867.927 728.998 874.856 739.519C881.79 750.061 889.073 760.634 897.477 771.535C901.709 776.999 906.22 782.546 911.488 788.363C914.134 791.276 916.967 794.257 920.201 797.378C923.471 800.509 927.078 803.769 931.651 807.291L976.818 686.491Z" fill="#FFC300"/>
<path fill-rule="evenodd" clip-rule="evenodd" d="M538.914 1012.38C538.751 1012.38 538.586 1012.35 538.424 1012.29C537.662 1012.03 537.262 1011.19 537.532 1010.43L545.59 987.673C545.86 986.91 546.7 986.512 547.461 986.782C548.223 987.051 548.622 987.889 548.353 988.651L540.296 1011.4C540.082 1012 539.518 1012.38 538.914 1012.38Z" fill="#21211D"/>
<path fill-rule="evenodd" clip-rule="evenodd" d="M1098.75 418.279L1111.09 554.895C1111.38 558.12 1114.08 560.591 1117.32 560.591H1166.06C1169.37 560.591 1172.11 558.012 1172.31 554.706L1180.49 418.279H1098.75Z" fill="#D5962F"/>
<mask id="mask29_710_882" style="mask-type:alpha" maskUnits="userSpaceOnUse" x="1098" y="418" width="83" height="143">
<path fill-rule="evenodd" clip-rule="evenodd" d="M1180.49 418.277L1172.31 554.704C1172.11 558.01 1169.37 560.589 1166.06 560.589H1117.32C1114.08 560.589 1111.38 558.118 1111.09 554.893L1098.75 418.277H1180.49Z" fill="white"/>
</mask>
<g mask="url(#mask29_710_882)">
<path fill-rule="evenodd" clip-rule="evenodd" d="M1050.09 421.918L1110.53 410.398L1159.02 576.35L1106.62 589.804L1050.09 421.918Z" fill="#BA7400"/>
</g>
<path fill-rule="evenodd" clip-rule="evenodd" d="M1177.86 424.546H1101.99C1098.56 424.546 1095.78 421.768 1095.78 418.341C1095.78 414.915 1098.56 412.137 1101.99 412.137H1177.86C1181.29 412.137 1184.07 414.915 1184.07 418.341C1184.07 421.768 1181.29 424.546 1177.86 424.546Z" fill="#EDE8D6"/>
<mask id="mask30_710_882" style="mask-type:alpha" maskUnits="userSpaceOnUse" x="1109" y="403" width="63" height="11">
<path fill-rule="evenodd" clip-rule="evenodd" d="M1109.27 403.875H1171.99V413.741H1109.27V403.875Z" fill="white"/>
</mask>
<g mask="url(#mask30_710_882)">
<path fill-rule="evenodd" clip-rule="evenodd" d="M1167.73 403.875H1113.54C1111.18 403.875 1109.27 405.785 1109.27 408.14V413.741H1171.99V408.14C1171.99 405.785 1170.08 403.875 1167.73 403.875Z" fill="#EDE8D6"/>
</g>
<path fill-rule="evenodd" clip-rule="evenodd" d="M1171.99 413.887H1109.27C1108.46 413.887 1107.81 413.231 1107.81 412.422C1107.81 411.612 1108.46 410.957 1109.27 410.957H1171.99C1172.8 410.957 1173.46 411.612 1173.46 412.422C1173.46 413.231 1172.8 413.887 1171.99 413.887Z" fill="#21211D"/>
<path fill-rule="evenodd" clip-rule="evenodd" d="M1090.15 486.185C1090.15 486.185 1111.67 508.904 1109.62 544.601L1044.53 515.511C1044.53 515.511 1055.75 484.569 1068.09 456.748C1071.31 449.482 1077.79 444.179 1085.54 442.395L1118.34 434.842C1122.69 433.841 1127.03 436.957 1127.2 441.412C1127.48 448.83 1122.86 459.634 1097.24 466.146L1090.15 486.185Z" fill="#FFDDBA"/>
<path fill-rule="evenodd" clip-rule="evenodd" d="M1106.17 547.171C1106.01 547.171 1105.84 547.144 1105.68 547.086C1104.92 546.815 1104.52 545.978 1104.79 545.215C1114.82 517.01 1087.92 492.938 1087.65 492.698C1087.19 492.295 1087.03 491.652 1087.25 491.08L1092.02 478.4C1093.95 473.26 1096.56 467.602 1101.26 464.61C1101.32 464.575 1101.38 464.543 1101.43 464.516L1112.21 459.542C1112.94 459.203 1113.81 459.522 1114.15 460.258C1114.49 460.991 1114.17 461.862 1113.44 462.201L1102.75 467.134C1098.83 469.68 1096.51 474.776 1094.76 479.431L1090.33 491.196C1094.8 495.487 1117.26 518.891 1107.55 546.196C1107.34 546.796 1106.78 547.171 1106.17 547.171Z" fill="#21211D"/>
<path fill-rule="evenodd" clip-rule="evenodd" d="M711.236 453.18C711.236 453.18 739.928 532.574 789.814 533.884C839.7 535.194 834.021 467.7 834.021 467.7L711.236 453.18Z" fill="#FFDDBA"/>
<path fill-rule="evenodd" clip-rule="evenodd" d="M1201.91 485.42C1195.22 505.492 1141.85 483.791 1143.92 473.392C1146.35 461.239 1209.22 463.493 1201.91 485.42Z" fill="#FFDDBA"/>
<path fill-rule="evenodd" clip-rule="evenodd" d="M1181.12 494.697C1181.08 494.697 1181.02 494.695 1180.97 494.689C1166.82 493.247 1148.43 485.102 1143.13 477.929C1141.82 476.161 1141.32 474.479 1141.63 472.93C1141.98 471.17 1143.22 469.635 1145.31 468.369C1153.12 463.646 1172.98 463.085 1186.96 467.193C1187.75 467.421 1188.19 468.235 1187.97 469.011C1187.74 469.789 1186.92 470.231 1186.15 470.004C1173.04 466.157 1153.93 466.581 1146.83 470.877C1145.47 471.699 1144.69 472.583 1144.5 473.504C1144.33 474.383 1144.94 475.449 1145.49 476.189C1149.81 482.037 1166.73 490.293 1181.28 491.774C1182.08 491.857 1182.66 492.575 1182.58 493.38C1182.51 494.135 1181.86 494.697 1181.12 494.697Z" fill="#21211D"/>
<path fill-rule="evenodd" clip-rule="evenodd" d="M1196.53 505.422C1189.84 525.494 1136.83 501.177 1138.55 493.394C1141.25 481.187 1203.85 483.495 1196.53 505.422Z" fill="#FFDDBA"/>
<path fill-rule="evenodd" clip-rule="evenodd" d="M1177.42 514.256C1177.37 514.256 1177.32 514.253 1177.27 514.248C1161.75 512.671 1142.01 503.054 1137.33 496.579C1136.37 495.257 1136.01 494.02 1136.26 492.9C1136.82 490.35 1139.2 488.307 1143.31 486.828C1156.05 482.252 1181.8 483.941 1192.58 492.363C1193.21 492.862 1193.32 493.782 1192.83 494.42C1192.33 495.057 1191.41 495.171 1190.77 494.672C1182.43 488.157 1158.4 484.521 1144.3 489.586C1141.28 490.67 1139.44 492.073 1139.12 493.533C1139.11 493.575 1139.05 493.962 1139.7 494.862C1143.5 500.118 1162.37 509.789 1177.56 511.332C1178.37 511.414 1178.95 512.133 1178.87 512.939C1178.79 513.693 1178.16 514.256 1177.42 514.256Z" fill="#21211D"/>
<path fill-rule="evenodd" clip-rule="evenodd" d="M1191.02 525.39C1184.33 545.461 1130.91 524.167 1133.03 513.361C1135.11 502.748 1198.33 503.462 1191.02 525.39Z" fill="#FFDDBA"/>
<path fill-rule="evenodd" clip-rule="evenodd" d="M1157.02 531.985C1156.87 531.985 1156.73 531.963 1156.58 531.918C1143.07 527.712 1129.42 519.618 1130.73 512.902C1131.16 510.751 1133.17 508.989 1136.72 507.661C1148.2 503.372 1175.99 503.947 1187.26 512.724C1187.9 513.221 1188.01 514.142 1187.52 514.78C1187.02 515.42 1186.1 515.533 1185.46 515.036C1175.08 506.953 1148.38 506.433 1137.75 510.407C1135.32 511.314 1133.81 512.429 1133.61 513.466C1132.89 517.129 1142.93 524.601 1157.45 529.12C1158.22 529.36 1158.66 530.182 1158.41 530.955C1158.22 531.582 1157.64 531.985 1157.02 531.985Z" fill="#21211D"/>
<path fill-rule="evenodd" clip-rule="evenodd" d="M720.631 504.993C719.708 492.114 718.053 479.293 715.738 466.546C714.887 462.077 713.993 457.622 712.997 453.183C686.436 447.119 676.102 449.52 676.102 449.52C677.085 452.026 678.038 454.604 678.961 457.168C680.954 462.662 682.712 468.289 684.412 473.93C687.693 485.242 690.418 496.772 692.47 508.422C694.536 520.084 695.928 531.85 696.587 543.674C697.218 555.499 697.012 567.367 695.972 579.162L695.561 583.587L695.357 585.799L695.035 587.997L694.725 590.136L693.774 596.788C692.616 602.59 691.576 608.452 689.964 614.165L688.864 618.488C688.485 619.923 687.986 621.315 687.547 622.737C686.609 625.565 685.787 628.437 684.777 631.235L681.539 639.558C681.261 640.261 680.998 640.964 680.718 641.653L679.767 643.674L677.876 647.733L675.987 651.807C675.371 653.184 674.58 654.444 673.891 655.777L669.568 663.675L664.703 671.28C663.869 672.524 663.121 673.843 662.228 675.06L659.532 678.693C657.715 681.097 655.985 683.601 654.081 685.946L648.293 692.725L642.701 707.257L646.345 704.246L649.979 701.228C651.195 700.218 652.279 699.089 653.437 698.019L660.294 691.499C662.506 689.257 664.572 686.869 666.741 684.554L669.934 681.038C671.004 679.851 671.927 678.576 672.939 677.345L678.872 669.872L684.308 662.019C685.187 660.685 686.17 659.411 686.975 658.033L689.422 653.931L691.884 649.799L693.114 647.733C693.496 647.03 693.847 646.312 694.213 645.609L698.609 637.052C700 634.166 701.217 631.191 702.521 628.246C703.151 626.766 703.853 625.315 704.411 623.807L706.097 619.293C708.455 613.301 710.227 607.118 712.133 600.934L714.491 591.572L715.078 589.213L715.547 586.854L716.499 582.107C717.188 578.547 717.803 574.957 718.345 571.366C719.751 562.194 720.676 552.949 721.144 543.689C721.174 543.176 721.188 542.663 721.217 542.15C721.217 541.902 721.233 541.638 721.246 541.388C721.731 529.271 721.511 517.11 720.631 504.993Z" fill="#73262D"/>
<path fill-rule="evenodd" clip-rule="evenodd" d="M618.8 769.445C618.62 769.445 618.438 769.412 618.261 769.343C617.508 769.045 617.14 768.194 617.437 767.441L693.494 575.081C693.792 574.328 694.646 573.96 695.395 574.257C696.148 574.554 696.517 575.406 696.219 576.159L620.162 768.519C619.934 769.094 619.383 769.445 618.8 769.445Z" fill="#21211D"/>
<path fill-rule="evenodd" clip-rule="evenodd" d="M844.072 506.091C844.478 507.977 844.855 509.87 845.237 511.761L870.572 593.502C870.751 591.517 871.916 581.132 872.065 579.144C873.763 554.733 874.637 525.945 872.087 501.622C871.662 497.637 871.194 493.666 870.665 489.695C861.684 477.901 848.482 470.062 834.021 467.703C834.519 469.359 835.017 471.014 835.515 472.684C838.797 483.673 841.626 494.838 844.072 506.091Z" fill="#73262D"/>
<path fill-rule="evenodd" clip-rule="evenodd" d="M924.152 777.469H898.786C897.976 777.469 897.32 776.813 897.32 776.005C897.32 775.195 897.976 774.539 898.786 774.539H922.185L843.833 512.178C843.601 511.402 844.042 510.586 844.817 510.355C845.586 510.123 846.409 510.563 846.641 511.339L925.556 775.585C925.688 776.029 925.604 776.508 925.327 776.88C925.05 777.25 924.616 777.469 924.152 777.469Z" fill="#21211D"/>
<path fill-rule="evenodd" clip-rule="evenodd" d="M628.373 739.307C628.246 739.307 628.115 739.289 627.986 739.254L523.937 710.785C523.155 710.571 522.696 709.766 522.909 708.985C523.124 708.205 523.928 707.745 524.709 707.959L628.759 736.428C629.54 736.642 629.999 737.447 629.786 738.228C629.607 738.879 629.018 739.307 628.373 739.307Z" fill="#21211D"/>
<path fill-rule="evenodd" clip-rule="evenodd" d="M919.321 759.703C919.133 759.703 918.942 759.667 918.756 759.59C918.011 759.278 917.659 758.419 917.971 757.673L958.452 660.744C958.764 659.998 959.619 659.643 960.37 659.955C961.116 660.267 961.468 661.126 961.156 661.873L920.674 758.802C920.439 759.364 919.894 759.703 919.321 759.703Z" fill="#21211D"/>
<mask id="mask31_710_882" style="mask-type:alpha" maskUnits="userSpaceOnUse" x="707" y="273" width="152" height="151">
<path fill-rule="evenodd" clip-rule="evenodd" d="M707.799 273.926H858.745V423.629H707.799V273.926Z" fill="white"/>
</mask>
<g mask="url(#mask31_710_882)">
<path fill-rule="evenodd" clip-rule="evenodd" d="M847.347 413.914C838.096 423.556 825.447 425.144 812.083 422.465C777.972 415.627 739.016 381.002 739.016 381.002C731.291 374.943 723.067 366.641 717.88 357.483L717.616 357C716.245 354.554 715.107 352.031 714.252 349.493C713.846 348.277 713.503 347.047 713.239 345.816C713.207 345.692 713.192 345.583 713.161 345.474C711.541 338.231 710.356 338.651 708.379 326.159C705.59 308.558 712.943 292.983 728.705 284.478C749.935 273.014 777.442 270.07 800.121 279.743C800.183 279.774 800.245 279.79 800.307 279.821C802.955 280.958 805.495 282.297 807.908 283.809C829.824 297.359 842.129 324.383 851.07 347.467C859.184 368.417 864.635 395.893 847.347 413.914Z" fill="#FFDDBA"/>
</g>
<path fill-rule="evenodd" clip-rule="evenodd" d="M800.024 343.744L814.195 464.278C816.993 488.082 799.964 509.649 776.16 512.447C752.356 515.246 730.79 498.218 727.991 474.413C727.698 471.923 727.643 469.217 727.769 466.794L734.905 345.639C735.967 327.61 751.442 313.856 769.471 314.919C785.546 315.865 798.22 328.285 800.024 343.744Z" fill="#FFDDBA"/>
<path fill-rule="evenodd" clip-rule="evenodd" d="M809.178 421.585C809.178 421.585 799.077 419.9 785.696 413.022C784.059 412.182 782.442 414.172 783.621 415.586L812.189 449.08L809.178 421.585Z" fill="#21211D"/>
<path fill-rule="evenodd" clip-rule="evenodd" d="M732.471 387.758C732.471 387.758 735.691 385.837 738.009 382.439C738.364 381.92 739.165 382.068 739.286 382.684C740.111 386.882 740.85 397.994 731.355 407.142L732.471 387.758Z" fill="#21211D"/>
<path fill-rule="evenodd" clip-rule="evenodd" d="M780.168 317.498C791.569 308.386 801.585 296.845 807.908 283.808C805.493 282.297 802.955 280.958 800.306 279.821C800.276 279.805 800.244 279.793 800.213 279.781C800.182 279.77 800.15 279.758 800.12 279.743C777.442 270.07 749.935 273.014 728.705 284.478C712.943 292.982 705.59 308.559 708.379 326.159C709.612 333.948 710.537 336.716 711.45 339.453C712.003 341.106 712.55 342.746 713.159 345.473C716.285 345.088 719.398 344.595 722.491 343.992C726.463 345.254 736.435 348.766 739.13 356.37L743.16 364.034C745.048 367.81 749.507 369.54 753.458 368.018C756.712 366.764 758.711 363.653 758.711 360.369C758.711 359.448 758.551 358.512 758.234 357.607C758.234 357.607 756.39 348.235 751.446 334.894C761.711 330.349 771.4 324.519 780.168 317.498Z" fill="#9F9BE6"/>
<path fill-rule="evenodd" clip-rule="evenodd" d="M742.899 369.331C742.125 382.68 730.675 392.876 717.326 392.102C703.976 391.327 693.782 379.878 694.555 366.527C695.328 353.178 706.778 342.982 720.128 343.756C733.479 344.531 743.674 355.981 742.899 369.331Z" fill="#FFDDBA"/>
<path fill-rule="evenodd" clip-rule="evenodd" d="M727.395 370.937C727.194 370.937 726.99 370.897 726.794 370.816L707.782 362.85C706.988 362.518 706.615 361.606 706.946 360.812C707.279 360.02 708.193 359.644 708.984 359.977L727.997 367.941C728.791 368.274 729.165 369.187 728.832 369.981C728.583 370.577 728.004 370.937 727.395 370.937Z" fill="#21211D"/>
<path fill-rule="evenodd" clip-rule="evenodd" d="M715.576 374.279C715.391 374.279 715.202 374.246 715.02 374.175C714.217 373.869 713.815 372.969 714.121 372.164L716.852 365.017C717.16 364.214 718.063 363.812 718.863 364.118C719.667 364.426 720.069 365.326 719.763 366.129L717.031 373.277C716.794 373.897 716.203 374.279 715.576 374.279Z" fill="#21211D"/>
<path fill-rule="evenodd" clip-rule="evenodd" d="M723.534 288.516C707.853 266.492 676.919 256.759 651.452 265.838C639.398 270.134 628.999 277.978 617.914 284.376C606.831 290.774 594.133 295.888 581.498 293.864C570.727 292.139 561.358 285.39 553.864 277.465C546.369 269.541 540.363 260.344 533.396 251.952C520.04 235.865 502.828 222.652 483.054 215.855C463.281 209.058 440.885 209.036 421.843 217.675L380.828 373.545C399.195 359.486 422.161 351.536 445.289 351.231C468.418 350.925 491.585 358.264 510.319 371.833C521.757 380.118 531.939 390.838 545.352 395.257C558.784 399.684 573.853 396.986 586.334 390.337C598.816 383.69 609.002 373.41 617.857 362.383C628.46 349.179 637.871 329.531 652.231 320.553C669.345 309.852 692.517 306.595 712.657 307.915L723.534 288.516Z" fill="#9F9BE6"/>
<path fill-rule="evenodd" clip-rule="evenodd" d="M707.886 308.96C707.601 308.96 707.311 308.918 707.023 308.828C705.496 308.351 704.641 306.731 705.116 305.203C705.274 304.695 709.094 292.678 720.054 284.812C721.355 283.877 723.168 284.176 724.102 285.477C725.037 286.78 724.739 288.591 723.438 289.525C714.104 296.224 710.688 306.82 710.656 306.926C710.267 308.166 709.121 308.96 707.886 308.96Z" fill="#EDC829"/>
<path fill-rule="evenodd" clip-rule="evenodd" d="M863.548 346.536C863.548 346.536 855.441 356.558 842.258 356.088C836.671 355.88 830.168 353.814 823.016 348.262C823.016 348.262 829.983 340.269 841.579 339.496C847.724 339.067 855.154 340.646 863.548 346.536Z" fill="white"/>
<path fill-rule="evenodd" clip-rule="evenodd" d="M863.547 346.536C863.547 346.536 855.441 356.558 842.258 356.088C840.406 353.852 839.282 351.055 839.149 347.938C839.016 344.819 839.923 341.881 841.579 339.496C847.724 339.067 855.154 340.646 863.547 346.536Z" fill="#21211D"/>
<path d="M812.036 340.621C812.857 340.396 813.704 340.837 814 341.617L814.049 341.767L820.848 366.536C822.071 370.989 818.795 375.381 814.224 375.525L813.973 375.528L808.313 375.512C807.408 375.51 806.677 374.774 806.68 373.869C806.682 373.015 807.338 372.315 808.173 372.242L808.323 372.236L813.982 372.252C816.448 372.259 818.26 369.977 817.738 367.602L817.689 367.404L810.89 342.635C810.65 341.762 811.163 340.861 812.036 340.621Z" fill="#21211D"/>
<path d="M828.52 326.895C838.246 323.085 849.177 323.108 860.199 329.515C860.981 329.97 861.247 330.973 860.792 331.755C860.337 332.537 859.334 332.803 858.552 332.348C848.483 326.494 838.579 326.473 829.716 329.946C828.434 330.448 827.295 330.984 826.314 331.518L825.802 331.805C825.503 331.977 825.291 332.109 825.17 332.191C824.421 332.697 823.403 332.501 822.896 331.751C822.389 331.001 822.586 329.983 823.336 329.476L823.544 329.341C823.822 329.164 824.226 328.925 824.747 328.641C825.845 328.043 827.107 327.449 828.52 326.895Z" fill="#21211D"/>
<path fill-rule="evenodd" clip-rule="evenodd" d="M806.514 346.536C806.514 346.536 798.407 356.558 785.224 356.088C779.637 355.88 773.134 353.814 765.982 348.262C765.982 348.262 772.948 340.269 784.545 339.496C790.69 339.067 798.12 340.646 806.514 346.536Z" fill="white"/>
<path fill-rule="evenodd" clip-rule="evenodd" d="M806.514 346.536C806.514 346.536 798.407 356.558 785.224 356.088C783.372 353.852 782.248 351.055 782.115 347.938C781.982 344.819 782.889 341.881 784.545 339.496C790.69 339.067 798.12 340.646 806.514 346.536Z" fill="#21211D"/>
<path d="M766.395 329.515C777.416 323.108 788.347 323.085 798.073 326.895C799.487 327.449 800.749 328.043 801.846 328.641L802.265 328.873C802.718 329.13 803.052 329.337 803.258 329.476C804.008 329.983 804.205 331.001 803.698 331.751C803.191 332.501 802.173 332.697 801.423 332.191L801.174 332.032C800.964 331.902 800.664 331.727 800.28 331.518C799.299 330.984 798.16 330.448 796.878 329.946C788.014 326.473 778.11 326.494 768.042 332.348C767.26 332.803 766.257 332.537 765.802 331.755C765.347 330.973 765.613 329.97 766.395 329.515Z" fill="#21211D"/>
<path d="M798.045 378.885C798.848 378.602 799.724 378.982 800.075 379.739L800.19 380.026C800.252 380.172 800.353 380.387 800.495 380.651C800.839 381.288 801.279 381.928 801.82 382.522C803.605 384.48 806.024 385.496 809.329 385.102C810.227 384.995 811.042 385.636 811.149 386.535C811.256 387.433 810.615 388.248 809.716 388.355C805.308 388.88 801.866 387.436 799.399 384.729C798.139 383.347 797.393 381.963 797.044 380.974C796.743 380.121 797.191 379.186 798.045 378.885Z" fill="#21211D"/>
<path opacity="0.01" d="M786.554 374.684C791.892 370.828 798.245 370.17 805.256 372.623C812.479 375.15 817.419 377.354 819.931 385.469C820.465 387.195 819.499 389.026 817.774 389.56C816.05 390.094 814.218 389.128 813.684 387.403C811.763 381.197 808.282 380.609 803.097 378.796C798.018 377.019 793.9 377.445 790.384 379.986C788.92 381.043 786.876 380.714 785.819 379.25C784.761 377.786 785.09 375.743 786.554 374.684Z" fill="#9F9BE6"/>
</svg>
