<svg width="3243" height="1801" viewBox="0 0 3243 1801" fill="none" xmlns="http://www.w3.org/2000/svg">
<path fill-rule="evenodd" clip-rule="evenodd" d="M3173.8 205.395H2401.31C2371.96 205.395 2343.97 229.174 2338.8 258.508L2093.7 1647.72C2088.52 1677.05 2108.12 1700.83 2137.47 1700.83H2909.95C2939.3 1700.83 2967.29 1677.05 2972.47 1647.72L3217.58 258.508C3222.75 229.174 3203.14 205.395 3173.8 205.395Z" fill="#4965CC"/>
<mask id="mask0_710_605" style="mask-type:alpha" maskUnits="userSpaceOnUse" x="1977" y="205" width="1127" height="1496">
<path fill-rule="evenodd" clip-rule="evenodd" d="M1977.96 205.395H3103.54V1700.83H1977.96V205.395Z" fill="white"/>
</mask>
<g mask="url(#mask0_710_605)">
<path fill-rule="evenodd" clip-rule="evenodd" d="M3058.94 205.395H2286.42C2257.07 205.395 2229.08 229.174 2223.9 258.508L1978.79 1647.72C1973.61 1677.05 1993.21 1700.83 2022.56 1700.83H2795.08C2824.43 1700.83 2852.42 1677.05 2857.6 1647.72L3102.72 258.508C3107.88 229.174 3088.29 205.395 3058.94 205.395Z" fill="#B6CCFC"/>
</g>
<path fill-rule="evenodd" clip-rule="evenodd" d="M2751.88 270.202H2504.4C2502.05 270.202 2500.14 268.174 2500.14 265.67C2500.14 263.169 2502.05 261.141 2504.4 261.141H2751.88C2754.23 261.141 2756.14 263.169 2756.14 265.67C2756.14 268.174 2754.23 270.202 2751.88 270.202Z" fill="#21211D"/>
<path fill-rule="evenodd" clip-rule="evenodd" d="M2796.82 265.106C2796.22 268.546 2792.99 271.335 2789.61 271.335C2786.22 271.335 2783.96 268.546 2784.55 265.106C2785.15 261.664 2788.38 258.875 2791.77 258.875C2795.16 258.875 2797.42 261.664 2796.82 265.106Z" fill="#21211D"/>
<path fill-rule="evenodd" clip-rule="evenodd" d="M3126.3 461.632C3126.05 461.632 3125.8 461.609 3125.55 461.565C3123.22 461.157 3121.67 458.94 3122.08 456.618L3148.62 306.579C3149.02 304.257 3151.26 302.711 3153.58 303.115C3155.91 303.524 3157.46 305.74 3157.05 308.062L3130.51 458.101C3130.15 460.174 3128.34 461.632 3126.3 461.632Z" fill="#21211D"/>
<path fill-rule="evenodd" clip-rule="evenodd" d="M3092.32 657.592C3092.07 657.592 3091.82 657.57 3091.57 657.526C3089.24 657.118 3087.68 654.901 3088.09 652.579L3114.63 502.539C3115.04 500.216 3117.27 498.675 3119.6 499.075C3121.93 499.484 3123.48 501.699 3123.07 504.021L3096.53 654.062C3096.16 656.135 3094.36 657.592 3092.32 657.592Z" fill="#21211D"/>
<path fill-rule="evenodd" clip-rule="evenodd" d="M2834.44 280.675C2824.64 295.401 2808.03 304.74 2791.63 304.74H2498.26C2481.87 304.74 2468.55 295.401 2463.95 280.675C2459.35 265.949 2446.03 256.609 2429.63 256.609H2328.16C2308.47 256.609 2289.69 272.566 2286.22 292.247L2054.41 1606.29C2050.93 1625.97 2064.08 1641.93 2083.78 1641.93H2753.68C2773.38 1641.93 2792.16 1625.97 2795.63 1606.29L3027.44 292.247C3030.91 272.566 3017.76 256.609 2998.07 256.609H2877.25C2860.85 256.609 2844.24 265.949 2834.44 280.675Z" fill="white"/>
<path fill-rule="evenodd" clip-rule="evenodd" d="M2473.52 639.469H2403.13C2356.65 639.469 2325.62 601.923 2333.81 555.607L2346.22 485.46C2354.42 439.144 2398.74 401.598 2445.21 401.598H2515.61C2562.08 401.598 2593.11 439.144 2584.92 485.46L2572.51 555.607C2564.31 601.923 2519.99 639.469 2473.52 639.469Z" fill="#EDC829"/>
<path fill-rule="evenodd" clip-rule="evenodd" d="M2791.81 639.469H2721.42C2674.95 639.469 2643.91 601.923 2652.11 555.607L2664.52 485.46C2672.71 439.144 2717.03 401.598 2763.51 401.598H2833.9C2880.38 401.598 2911.41 439.144 2903.21 485.46L2890.8 555.607C2882.61 601.923 2838.29 639.469 2791.81 639.469Z" fill="#F73132"/>
<path fill-rule="evenodd" clip-rule="evenodd" d="M2421.41 932.844H2351.02C2304.55 932.844 2273.51 895.299 2281.71 848.983L2294.12 778.834C2302.31 732.519 2346.63 694.973 2393.11 694.973H2463.5C2509.97 694.973 2541.01 732.519 2532.81 778.834L2520.4 848.983C2512.21 895.299 2467.89 932.844 2421.41 932.844Z" fill="#4965CC"/>
<path fill-rule="evenodd" clip-rule="evenodd" d="M2740.84 932.844H2670.45C2623.97 932.844 2592.94 895.299 2601.14 848.983L2613.55 778.834C2621.74 732.519 2666.06 694.973 2712.54 694.973H2782.93C2829.4 694.973 2860.44 732.519 2852.24 778.834L2839.83 848.983C2831.63 895.299 2787.32 932.844 2740.84 932.844Z" fill="#FFDDBA"/>
<path fill-rule="evenodd" clip-rule="evenodd" d="M2369.31 1227.35H2298.92C2252.44 1227.35 2221.41 1189.8 2229.6 1143.5L2242.01 1073.34C2250.21 1027.03 2294.53 989.48 2341 989.48H2411.39C2457.87 989.48 2488.9 1027.03 2480.71 1073.34L2468.3 1143.5C2460.1 1189.8 2415.78 1227.35 2369.31 1227.35Z" fill="#B6CCFC"/>
<path fill-rule="evenodd" clip-rule="evenodd" d="M2688.74 1227.35H2618.34C2571.87 1227.35 2540.84 1189.8 2549.03 1143.5L2561.44 1073.34C2569.64 1027.03 2613.96 989.48 2660.43 989.48H2730.82C2777.3 989.48 2808.33 1027.03 2800.13 1073.34L2787.72 1143.5C2779.53 1189.8 2735.21 1227.35 2688.74 1227.35Z" fill="#D5962F"/>
<path fill-rule="evenodd" clip-rule="evenodd" d="M2317.2 1520.73H2246.81C2200.34 1520.73 2169.3 1483.18 2177.5 1436.86L2189.91 1366.72C2198.1 1320.41 2242.42 1282.86 2288.9 1282.86H2359.29C2405.76 1282.86 2436.8 1320.41 2428.6 1366.72L2416.19 1436.86C2408 1483.18 2363.68 1520.73 2317.2 1520.73Z" fill="#FFDDBA"/>
<path fill-rule="evenodd" clip-rule="evenodd" d="M2636.63 1520.73H2566.24C2519.76 1520.73 2488.73 1483.18 2496.93 1436.86L2509.34 1366.72C2517.53 1320.41 2561.85 1282.86 2608.33 1282.86H2678.72C2725.19 1282.86 2756.22 1320.41 2748.03 1366.72L2735.62 1436.86C2727.42 1483.18 2683.11 1520.73 2636.63 1520.73Z" fill="#066952"/>
<mask id="mask1_710_605" style="mask-type:alpha" maskUnits="userSpaceOnUse" x="1981" y="208" width="1124" height="1494">
<path fill-rule="evenodd" clip-rule="evenodd" d="M2289.22 208.945C2259.95 208.945 2232.04 232.672 2226.88 261.943L1982.46 1648.14C1977.3 1677.41 1996.84 1701.14 2026.11 1701.14H2796.45C2825.72 1701.14 2853.64 1677.41 2858.8 1648.14L3103.22 261.943C3108.38 232.672 3088.84 208.945 3059.57 208.945H2289.22Z" fill="white"/>
</mask>
<g mask="url(#mask1_710_605)">
<path opacity="0.5" fill-rule="evenodd" clip-rule="evenodd" d="M2884.71 64.9004L3249.53 128.53L1977.3 1592.85L1818.92 1507.8L2884.71 64.9004Z" fill="white"/>
</g>
<mask id="mask2_710_605" style="mask-type:alpha" maskUnits="userSpaceOnUse" x="1981" y="208" width="1124" height="1494">
<path fill-rule="evenodd" clip-rule="evenodd" d="M2289.22 208.945C2259.95 208.945 2232.04 232.672 2226.88 261.943L1982.46 1648.14C1977.3 1677.41 1996.84 1701.14 2026.11 1701.14H2796.45C2825.72 1701.14 2853.64 1677.41 2858.8 1648.14L3103.22 261.943C3108.38 232.672 3088.84 208.945 3059.57 208.945H2289.22Z" fill="white"/>
</mask>
<g mask="url(#mask2_710_605)">
<path opacity="0.5" fill-rule="evenodd" clip-rule="evenodd" d="M3218.95 335.295L3249.53 422.59L2169.24 1632.36L2068.38 1629.98L3218.95 335.295Z" fill="white"/>
</g>
<path d="M1711.77 778.795H1376.48V822.971H1711.77V778.795Z" fill="#2E4C9E"/>
<mask id="mask3_710_605" style="mask-type:alpha" maskUnits="userSpaceOnUse" x="1191" y="1445" width="230" height="341">
<path fill-rule="evenodd" clip-rule="evenodd" d="M1191.85 1445.21H1420.81V1785.11H1191.85V1445.21Z" fill="white"/>
</mask>
<g mask="url(#mask3_710_605)">
<path fill-rule="evenodd" clip-rule="evenodd" d="M1420.81 1554.99C1406.05 1569.57 1389.76 1588.74 1377.94 1611.29C1368.32 1629.65 1361.65 1650.25 1361.19 1672.39C1361.16 1674.1 1361.12 1675.79 1361.05 1677.45C1358.28 1762.83 1331.76 1785.11 1331.76 1785.11L1191.85 1550.33L1244.83 1518.71L1367.92 1445.21C1379.69 1458.85 1385.86 1489.2 1396.98 1507.82C1406.61 1523.99 1414.64 1540.03 1420.81 1554.99Z" fill="#F62A26"/>
</g>
<mask id="mask4_710_605" style="mask-type:alpha" maskUnits="userSpaceOnUse" x="1191" y="1518" width="171" height="268">
<path fill-rule="evenodd" clip-rule="evenodd" d="M1191.85 1518.71H1361.05V1785.11H1191.85V1518.71Z" fill="white"/>
</mask>
<g mask="url(#mask4_710_605)">
<path fill-rule="evenodd" clip-rule="evenodd" d="M1361.05 1677.45C1358.28 1762.83 1331.76 1785.11 1331.76 1785.11L1191.85 1550.33L1244.83 1518.71C1250.61 1528.94 1260.27 1551.89 1245.62 1572.47C1245.62 1572.47 1295.55 1654 1306.33 1670.81C1316.14 1686.1 1333.42 1712.53 1361.05 1677.45Z" fill="#EDE8D6"/>
</g>
<path d="M1208.03 1542.25C1208.7 1541.84 1209.57 1542.02 1210.03 1542.64L1210.12 1542.77L1343.71 1763.24C1344.15 1763.96 1343.92 1764.9 1343.2 1765.33C1342.53 1765.74 1341.66 1765.56 1341.2 1764.95L1341.11 1764.82L1207.51 1544.34C1207.08 1543.62 1207.31 1542.69 1208.03 1542.25Z" fill="#21211D"/>
<path fill-rule="evenodd" clip-rule="evenodd" d="M1350.55 1525.89C1341.91 1531.13 1330.66 1528.37 1325.43 1519.72C1320.19 1511.08 1322.95 1499.84 1331.59 1494.6C1340.23 1489.36 1351.48 1492.12 1356.72 1500.77C1361.95 1509.41 1359.19 1520.65 1350.55 1525.89Z" fill="white"/>
<path fill-rule="evenodd" clip-rule="evenodd" d="M1358.1 1586.03C1358.64 1585.38 1359.6 1585.3 1360.24 1585.83L1380.59 1602.76C1381.23 1603.29 1381.32 1604.25 1380.78 1604.9C1380.24 1605.55 1379.29 1605.64 1378.64 1605.1L1358.29 1588.17C1357.65 1587.64 1357.56 1586.68 1358.1 1586.03Z" fill="black"/>
<path d="M1345.01 1601.69C1345.5 1601.07 1346.37 1600.94 1347.02 1601.36L1347.15 1601.45L1370.62 1620.31C1371.27 1620.83 1371.38 1621.79 1370.85 1622.45C1370.36 1623.06 1369.48 1623.19 1368.84 1622.77L1368.71 1622.68L1345.24 1603.83C1344.58 1603.3 1344.48 1602.34 1345.01 1601.69Z" fill="#21211D"/>
<path d="M1337.97 1624.52C1338.45 1623.89 1339.32 1623.74 1339.98 1624.14L1340.11 1624.23L1364.32 1642.49C1364.99 1643 1365.12 1643.95 1364.62 1644.63C1364.14 1645.26 1363.27 1645.41 1362.61 1645.01L1362.48 1644.92L1338.27 1626.66C1337.6 1626.15 1337.47 1625.19 1337.97 1624.52Z" fill="#21211D"/>
<path fill-rule="evenodd" clip-rule="evenodd" d="M1370.63 1619.5L1369.86 1617.15C1369.39 1615.69 1371.13 1614.53 1372.3 1615.53L1374.65 1617.57L1375.96 1618.73C1378.22 1620.74 1380.71 1622.98 1383.37 1625.42L1385.29 1627.19C1392.94 1634.28 1400.56 1641.7 1407.71 1649.17C1413.07 1654.76 1417.97 1660.18 1422.33 1665.37C1431.6 1676.42 1438.11 1686.09 1441.27 1694.02C1445.08 1703.6 1443.99 1710.78 1437.08 1714.59C1432.06 1717.36 1426.67 1716.8 1421.14 1713.3C1411.05 1706.91 1400.51 1690.89 1389.83 1668.02L1389.07 1666.39C1384.11 1655.62 1379.44 1644.08 1375.21 1632.54C1374.1 1629.52 1373.08 1626.65 1372.16 1623.99L1371.27 1621.39C1371.04 1620.72 1370.83 1620.09 1370.63 1619.5ZM1375.97 1622.82L1374.54 1621.54L1375.07 1623.09C1375.98 1625.71 1376.98 1628.52 1378.07 1631.5C1382.27 1642.96 1386.91 1654.42 1391.84 1665.12C1402.54 1688.33 1413.11 1704.61 1422.77 1710.73C1427.42 1713.67 1431.65 1714.11 1435.61 1711.92C1440.91 1709 1441.75 1703.46 1438.44 1695.15C1435.55 1687.9 1429.61 1678.95 1421.14 1668.7L1419.99 1667.33C1415.68 1662.19 1410.82 1656.82 1405.51 1651.27C1397.82 1643.24 1389.56 1635.24 1381.31 1627.67C1379.44 1625.95 1377.65 1624.33 1375.97 1622.82Z" fill="#21211D"/>
<path fill-rule="evenodd" clip-rule="evenodd" d="M1367.96 1611.31L1368.2 1610.36C1368.55 1608.96 1370.48 1608.79 1371.07 1610.12L1371.99 1612.26C1372.47 1613.41 1373 1614.67 1373.55 1616.02L1374.4 1618.13C1376.9 1624.34 1379.39 1631 1381.72 1637.83C1384.15 1644.95 1386.26 1651.86 1387.96 1658.42C1391.42 1671.79 1392.99 1683.02 1392.23 1691.44C1391.28 1701.8 1386.71 1707.87 1378.14 1708.35C1369.46 1708.84 1363.9 1703.19 1361.22 1692.73C1359.05 1684.22 1358.75 1672.62 1359.98 1658.66C1360.73 1650.05 1362.03 1640.88 1363.73 1631.51C1364.71 1626.13 1365.75 1621.01 1366.8 1616.33C1367.07 1615.1 1367.33 1613.97 1367.57 1612.94L1367.96 1611.31ZM1370.08 1615.61L1369.51 1618.16C1368.56 1622.48 1367.62 1627.16 1366.73 1632.06C1365.05 1641.34 1363.75 1650.42 1363.01 1658.93C1360.4 1688.74 1364.83 1706.05 1377.97 1705.31C1384.8 1704.93 1388.37 1700.18 1389.19 1691.16C1389.92 1683.16 1388.39 1672.24 1385.01 1659.18C1383.33 1652.71 1381.25 1645.87 1378.84 1638.82C1376.53 1632.04 1374.05 1625.43 1371.58 1619.26C1371.29 1618.54 1371 1617.85 1370.73 1617.18L1370.08 1615.61Z" fill="#21211D"/>
<path fill-rule="evenodd" clip-rule="evenodd" d="M1625.45 1208.86L1625.38 1208.68L1625.26 1208.33C1624.91 1207.38 1624.6 1206.4 1624.36 1205.43C1624.1 1204.43 1623.8 1203.45 1623.62 1202.44L1623.11 1199.83L1624.91 1206.72L1625.27 1208.13L1625.45 1208.84V1208.86ZM1575.42 1197.31L1563.57 972.846L1571.67 1003.58L1595.48 1093.82L1614.91 1168.31L1575.42 1197.31ZM1834.09 1174.71C1833.71 1171.75 1833.26 1168.82 1832.68 1165.91C1832.11 1163 1831.53 1160.07 1830.79 1157.22C1830.04 1154.35 1829.25 1151.5 1828.4 1148.67L1827.82 1146.75L1827.59 1146.06L1827.1 1144.68L1819.28 1122.69L1788.12 1034.72L1757.22 946.635L1741.77 902.606L1726.46 858.532L1711.49 815.432H1376.56L1365.37 1212.53L1358.89 1419.86L1355.35 1523.53L1353.58 1575.36L1351.66 1627.21L1600 1624.15L1596.79 1572.38L1593.74 1520.61L1591.64 1484.72C1628.87 1450.95 1666.28 1417.39 1703.72 1383.89L1773.42 1321.77L1777.77 1317.91L1780.44 1315.58L1783.78 1312.57L1787.09 1309.51L1790.26 1306.3C1798.69 1297.71 1806.06 1288.07 1812.31 1277.81C1818.57 1267.58 1823.59 1256.62 1827.34 1245.29C1829.25 1239.62 1830.74 1233.84 1832.04 1228.01C1833.2 1222.17 1834.19 1216.29 1834.71 1210.36C1835.84 1198.5 1835.68 1186.5 1834.09 1174.71Z" fill="#2E4C9E"/>
<path fill-rule="evenodd" clip-rule="evenodd" d="M1600 1625.52C1600 1603.87 1544.07 1586.47 1475.74 1586.47C1407.41 1586.47 1351.86 1604.02 1351.86 1625.68C1351.86 1647.34 1407.41 1664.9 1475.74 1664.9C1544.07 1664.9 1600 1647.18 1600 1625.52Z" fill="#21211D"/>
<path fill-rule="evenodd" clip-rule="evenodd" d="M1687.23 1784.53H1415.79V1591.36C1433.55 1588.23 1453.97 1586.47 1475.67 1586.47C1494.49 1586.47 1512.36 1587.79 1528.38 1590.15C1533.33 1610.3 1541.46 1634.11 1554.77 1655.81C1565.61 1673.49 1579.88 1689.77 1598.67 1701.51C1603.73 1704.66 1608.49 1707.77 1613 1710.83C1676.24 1753.56 1687.23 1784.53 1687.23 1784.53Z" fill="#F62A26"/>
<path fill-rule="evenodd" clip-rule="evenodd" d="M1687.23 1784.53H1415.79V1726.22C1424.14 1727.32 1456.4 1732.89 1461.02 1754.01C1461.02 1754.01 1576.03 1754.1 1589.32 1754.01C1602.63 1753.9 1611.57 1748.93 1615.51 1737.23C1618.01 1729.88 1615.31 1718.35 1613 1710.83C1676.24 1753.55 1687.23 1784.53 1687.23 1784.53Z" fill="#EDE8D6"/>
<path d="M1675.44 1766.17C1676.28 1766.17 1676.97 1766.85 1676.97 1767.69C1676.97 1768.48 1676.36 1769.13 1675.59 1769.21L1675.44 1769.21H1417.65C1416.81 1769.21 1416.13 1768.53 1416.13 1767.69C1416.13 1766.9 1416.73 1766.25 1417.51 1766.17L1417.65 1766.17H1675.44Z" fill="#21211D"/>
<path fill-rule="evenodd" clip-rule="evenodd" d="M1476.92 1641.08C1476.92 1651.18 1468.73 1659.37 1458.63 1659.37C1448.53 1659.37 1440.34 1651.18 1440.34 1641.08C1440.34 1630.98 1448.53 1622.79 1458.63 1622.79C1468.73 1622.79 1476.92 1630.98 1476.92 1641.08Z" fill="white"/>
<path d="M1556.14 1655.28C1556.93 1655.01 1557.8 1655.43 1558.07 1656.23C1558.33 1656.97 1557.97 1657.78 1557.27 1658.1L1557.13 1658.16L1532.11 1666.79C1531.32 1667.06 1530.45 1666.64 1530.18 1665.85C1529.92 1665.1 1530.27 1664.29 1530.97 1663.97L1531.12 1663.91L1556.14 1655.28Z" fill="#21211D"/>
<path d="M1568.07 1672.85C1568.86 1672.56 1569.73 1672.97 1570.02 1673.76C1570.29 1674.5 1569.95 1675.32 1569.26 1675.65L1569.11 1675.71L1540.83 1686.01C1540.04 1686.3 1539.16 1685.89 1538.87 1685.1C1538.61 1684.36 1538.95 1683.55 1539.64 1683.21L1539.78 1683.15L1568.07 1672.85Z" fill="#21211D"/>
<path d="M1583.78 1689.73C1584.56 1689.42 1585.44 1689.8 1585.76 1690.58C1586.05 1691.31 1585.73 1692.14 1585.05 1692.5L1584.91 1692.56L1556.74 1703.8C1555.96 1704.11 1555.07 1703.73 1554.76 1702.95C1554.47 1702.22 1554.78 1701.39 1555.47 1701.04L1555.61 1700.97L1583.78 1689.73Z" fill="#21211D"/>
<path fill-rule="evenodd" clip-rule="evenodd" d="M1619.21 1624.04C1634.02 1617.51 1646.56 1613.36 1656.17 1612.16C1667.93 1610.7 1675.36 1613.76 1677.03 1622.13C1678.76 1630.84 1672.76 1637.76 1660.6 1643.05C1651.11 1647.17 1637.97 1650.3 1622.05 1652.56L1620 1652.85C1607.71 1654.51 1594.54 1655.59 1581.38 1656.2C1577.54 1656.38 1573.93 1656.51 1570.61 1656.59L1568.65 1656.63C1567.88 1656.65 1567.16 1656.66 1566.5 1656.67L1565.08 1656.69L1563.81 1656.7C1562.28 1656.7 1561.7 1654.69 1563 1653.88L1565.18 1652.56L1568 1650.87C1569.16 1650.17 1570.39 1649.45 1571.68 1648.7L1574.05 1647.32C1582.57 1642.4 1591.56 1637.49 1600.61 1632.9C1607.03 1629.64 1613.26 1626.67 1619.21 1624.04ZM1619.59 1649.83C1655.94 1644.9 1676.66 1635.88 1674.04 1622.73L1673.98 1622.43C1672.57 1616.22 1666.76 1613.92 1656.55 1615.19C1647.66 1616.29 1635.98 1620.09 1622.18 1626.07L1620.44 1626.83C1614.54 1629.43 1608.36 1632.38 1601.99 1635.61C1592.99 1640.18 1584.05 1645.07 1575.58 1649.96L1574.78 1650.42C1573.72 1651.04 1572.69 1651.63 1571.71 1652.21L1569.41 1653.57L1570.64 1653.54C1573.58 1653.47 1576.75 1653.36 1580.1 1653.21L1581.23 1653.16C1594.32 1652.55 1607.4 1651.48 1619.59 1649.83Z" fill="#21211D"/>
<path fill-rule="evenodd" clip-rule="evenodd" d="M1566.75 1652.62L1568.48 1652.5C1580.73 1651.66 1593.27 1651.32 1605 1651.78C1619.66 1652.35 1631.65 1654.12 1640.09 1657.36C1650.57 1661.38 1655.47 1667.72 1653.24 1676.42C1651.2 1684.38 1644.75 1688.04 1634.93 1687.88C1626.85 1687.75 1616.53 1685.08 1604.46 1680.34C1598.48 1678 1592.19 1675.19 1585.7 1672.02C1578.64 1668.57 1571.72 1664.87 1565.23 1661.17C1562.95 1659.88 1560.89 1658.67 1559.09 1657.6L1557.72 1656.77L1556.84 1656.23C1555.6 1655.47 1556.03 1653.58 1557.48 1653.42L1558.92 1653.28L1561.19 1653.07C1562.9 1652.92 1564.76 1652.77 1566.75 1652.62ZM1639 1660.2C1630.93 1657.1 1619.23 1655.38 1604.88 1654.82C1593.28 1654.37 1580.84 1654.71 1568.69 1655.54C1567.23 1655.64 1565.83 1655.74 1564.51 1655.85L1562.4 1656.02L1563.86 1656.87C1564.54 1657.27 1565.25 1657.68 1565.99 1658.1L1566.73 1658.52C1573.18 1662.19 1580.04 1665.86 1587.04 1669.28C1593.46 1672.42 1599.68 1675.19 1605.58 1677.51C1631.01 1687.48 1647.19 1687.74 1650.29 1675.66C1652.07 1668.74 1648.2 1663.73 1639 1660.2Z" fill="#21211D"/>
<path d="M1564.52 813.909C1565.31 813.879 1565.98 814.458 1566.09 815.227L1566.1 815.373L1568.69 883.115C1569.24 896.015 1558.93 906.779 1546.01 906.779C1545.17 906.779 1544.49 906.097 1544.49 905.257C1544.49 904.415 1545.17 903.733 1546.01 903.733C1557.07 903.733 1565.93 894.616 1565.66 883.606L1565.65 883.238L1563.06 815.489C1563.02 814.649 1563.68 813.941 1564.52 813.909Z" fill="#21211D"/>
<path d="M1653.24 814.024C1654.01 813.703 1654.9 814.073 1655.22 814.852C1659.66 825.612 1666.47 835.114 1676.11 842.399C1688.31 851.616 1704.35 856.715 1724.77 856.715C1725.61 856.715 1726.29 857.397 1726.29 858.237C1726.29 859.079 1725.61 859.761 1724.77 859.761C1703.7 859.761 1687.02 854.456 1674.27 844.829C1664.16 837.191 1657.04 827.247 1652.41 816.013C1652.09 815.234 1652.46 814.344 1653.24 814.024Z" fill="#21211D"/>
<path d="M1446.84 814.866C1447.15 814.085 1448.04 813.705 1448.82 814.018C1449.6 814.33 1449.98 815.217 1449.66 815.998C1445.15 827.275 1438.15 837.229 1428.14 844.867C1415.56 854.473 1399.01 859.76 1378.06 859.76C1377.21 859.76 1376.53 859.079 1376.53 858.237C1376.53 857.396 1377.21 856.715 1378.06 856.715C1398.36 856.715 1414.26 851.635 1426.29 842.446C1435.83 835.168 1442.51 825.662 1446.84 814.866Z" fill="#21211D"/>
<path d="M1585.22 972.611C1586.07 972.611 1586.75 973.293 1586.75 974.135C1586.75 974.927 1586.14 975.577 1585.37 975.65L1585.22 975.657H1552.04C1551.19 975.657 1550.51 974.975 1550.51 974.135C1550.51 973.343 1551.12 972.692 1551.89 972.618L1552.04 972.611H1585.22Z" fill="#21211D"/>
<path d="M1573.32 972.684C1574.07 972.444 1574.87 972.817 1575.18 973.525L1575.23 973.671L1639.55 1174.5C1639.73 1175.05 1639.57 1175.66 1639.16 1176.06L1639.04 1176.16L1580.27 1222.52C1579.61 1223.04 1578.65 1222.93 1578.13 1222.27C1577.64 1221.65 1577.71 1220.77 1578.27 1220.23L1578.38 1220.13L1636.33 1174.42L1572.33 974.6C1572.09 973.849 1572.46 973.048 1573.17 972.74L1573.32 972.684Z" fill="#21211D"/>
<path d="M1393.64 856.786C1394.43 856.806 1395.06 857.427 1395.12 858.2L1395.12 858.347L1375.94 1615.03C1375.91 1615.87 1375.22 1616.53 1374.38 1616.51C1373.58 1616.49 1372.95 1615.87 1372.89 1615.1L1372.89 1614.95L1392.08 858.27C1392.1 857.429 1392.8 856.764 1393.64 856.786Z" fill="#21211D"/>
<path fill-rule="evenodd" clip-rule="evenodd" d="M1575.5 1197.25L1591.48 1484.44L1597.29 1181.49L1575.5 1197.25Z" fill="#21211D"/>
<path d="M1468.9 1555.32C1508.89 1554.55 1551.66 1561.23 1596.92 1576.84C1597.72 1577.12 1598.14 1577.98 1597.87 1578.78C1597.59 1579.57 1596.73 1580 1595.93 1579.72C1551.01 1564.23 1508.59 1557.6 1468.96 1558.37C1437.95 1558.97 1410.31 1564.03 1386.35 1572.09C1377.4 1575.1 1369.61 1578.33 1363.01 1581.55L1361.78 1582.15C1359.99 1583.05 1358.41 1583.88 1357.05 1584.65L1356.09 1585.19L1355.21 1585.72C1355.15 1585.75 1355.11 1585.78 1355.08 1585.8C1354.36 1586.25 1353.42 1586.03 1352.98 1585.32C1352.53 1584.61 1352.74 1583.67 1353.45 1583.22L1354 1582.89L1354.56 1582.56C1354.77 1582.44 1354.98 1582.32 1355.21 1582.19L1355.56 1581.99C1357.28 1581.03 1359.32 1579.96 1361.67 1578.81C1368.39 1575.53 1376.3 1572.26 1385.38 1569.2C1409.62 1561.05 1437.57 1555.93 1468.9 1555.32Z" fill="#21211D"/>
<path fill-rule="evenodd" clip-rule="evenodd" d="M1636.92 555.345L1636.74 554.691L1636.66 554.364L1636.87 555.033L1637.3 556.419L1637.77 557.992C1637.42 556.981 1637.16 556.249 1636.92 555.345ZM1770.26 815.839C1779.07 814.865 1786.01 808.364 1791.9 802.368C1792.37 801.9 1792.84 801.417 1793.28 800.919C1805.48 787.588 1810.93 768.478 1806.55 749.773L1806.5 749.555L1795.82 704.576L1778.96 625.165L1771.24 593.549V593.533L1768.02 580.28L1765.58 570.468L1759.25 545.035L1756.88 535.457L1754.08 524.244L1753.73 522.843L1753.56 522.156L1752.89 519.743C1752.36 517.921 1751.86 516.254 1751.16 514.338C1750.43 512.391 1749.65 510.46 1748.81 508.56C1747.86 506.442 1746.81 504.37 1745.65 502.346C1744.74 500.71 1743.76 499.108 1742.73 497.534C1740.48 494.076 1737.96 490.79 1735.21 487.737C1724.12 475.45 1709.45 466.806 1693.34 463.379C1685.31 461.667 1676.95 461.183 1668.81 462.071C1666.8 462.259 1664.52 462.647 1662.41 463.037C1661.34 463.24 1660.21 463.472 1659.22 463.707L1658.54 463.862L1655.76 464.516L1651.39 465.544L1651.22 465.576L1622.28 472.35L1621.49 472.537L1615.8 473.861L1611.36 474.904C1601.71 477.21 1592.08 479.514 1582.45 481.912C1582.3 481.945 1582.14 481.991 1581.99 482.022H1581.98C1579.16 482.707 1576.36 483.392 1573.56 484.108C1567.7 485.557 1561.86 487.052 1556.02 488.563H1556H1555.99C1550.57 489.965 1545.15 491.382 1539.75 492.83C1534.14 494.325 1528.54 495.852 1522.94 497.408C1510.51 500.867 1499.99 507.953 1492.22 517.266C1488.9 521.222 1486.09 525.567 1483.84 530.225C1477.28 543.634 1475.33 559.457 1479.47 575.062C1482.59 586.852 1488.78 596.959 1496.91 604.7C1511.36 618.515 1531.96 624.93 1552.46 620.274L1552.61 620.243C1582.01 613.531 1611.19 605.976 1640.31 598.16L1649.21 595.729L1654.17 612.081L1667.9 656.561L1687.69 735.492C1698.05 784.099 1680.75 825.748 1770.26 815.839Z" fill="#FFDDBA"/>
<path fill-rule="evenodd" clip-rule="evenodd" d="M1708.37 815.044H1314.18L1359.23 714.562C1359.23 714.545 1365.68 694.145 1365.68 694.145L1365.69 694.098L1368.49 685.235L1369.5 682.064L1401.16 581.898L1401.92 579.472L1408.12 559.866L1409.39 555.855C1411.95 534.226 1421.37 516.314 1435.25 503.175C1447.3 491.746 1462.7 483.926 1479.9 480.427C1480.39 480.302 1480.89 480.209 1481.39 480.115C1482.14 479.976 1482.9 479.836 1483.64 479.711C1486.41 479.245 1489.23 478.888 1492.09 478.654L1504.08 475.078H1504.1C1530.28 480.989 1556.37 482.753 1583.23 480.7C1586.35 480.468 1590.48 480.945 1593.57 480.556C1597.34 480.104 1601.75 475.529 1605.47 474.906C1612.26 473.756 1618.99 472.373 1625.71 470.88L1626.16 470.786C1634.31 468.952 1645.85 466.978 1654.01 465.065L1654.18 465.033C1659.72 474.519 1661.51 487.253 1663.44 503.299L1670.92 555.155L1671.85 561.592L1672.15 563.723L1698.37 745.549L1699.76 755.173L1701.23 765.421L1701.45 766.866L1708.37 815.044Z" fill="#446A46"/>
<path fill-rule="evenodd" clip-rule="evenodd" d="M1436.91 555.651L1439.66 548.6C1438.97 551.007 1438.04 553.368 1436.91 555.651ZM1593.92 522.257C1593.78 521.947 1593.63 521.635 1593.48 521.325C1591.18 516.402 1588.25 511.819 1584.78 507.688C1577.43 498.913 1567.7 492.11 1556.33 488.459H1556.31H1556.3C1555.29 488.102 1554.26 487.807 1553.22 487.544C1552.96 487.466 1552.69 487.388 1552.43 487.326C1541.26 484.53 1530.17 482.23 1519 479.668H1518.98C1518.97 479.668 1518.95 479.653 1518.95 479.653C1516.59 479.126 1514.23 478.581 1511.87 478.006L1519 479.668L1504.69 477.541L1492.78 475.952C1492.75 475.936 1491.62 475.518 1491.58 475.518L1491.54 475.503L1484.29 471.141L1478.88 469.883L1474.82 468.951L1470.89 468.034L1430.04 458.81L1419.81 456.541L1417.26 455.983L1415.98 455.703L1413.46 455.175L1410.64 454.678C1403.15 453.512 1395.36 453.357 1387.76 454.413C1372.5 456.464 1358.1 463.034 1346.46 473.068C1340.66 478.099 1335.54 483.986 1331.3 490.509C1330.6 491.598 1329.93 492.7 1329.3 493.834C1327.69 496.598 1326.26 499.441 1325.02 502.36C1324.96 502.485 1324.9 502.593 1324.84 502.719C1324.31 503.96 1323.8 505.219 1323.33 506.477L1309.11 538.007L1298.14 562.36C1289.15 582.335 1280.09 602.278 1271.22 622.331L1244.47 682.393C1239.08 694.694 1233.64 706.963 1228.25 719.266V719.281C1224.82 727.048 1221.42 734.813 1218.04 742.594C1205.86 770.707 1218.33 803.557 1245.91 815.983C1272.13 827.788 1302.65 816.682 1316.06 791.426C1316.4 790.806 1316.72 790.17 1317.04 789.548C1326.91 770.786 1336.62 751.96 1346.42 733.167L1366.39 694.368L1366.41 694.32L1371.16 685.079L1372.87 681.786V681.772L1376.48 674.751C1386.54 655.305 1396.41 635.765 1406.35 616.256L1421.31 586.809L1422.51 587.103L1443.36 592.011L1484.19 601.394C1488.51 602.355 1492.82 603.319 1497.13 604.282C1505.7 606.192 1514.29 608.103 1522.87 609.921C1523.61 610.09 1524.35 610.246 1525.09 610.401C1558.57 617.5 1591.36 595.599 1598.32 561.476C1601.13 547.73 1599.3 534.092 1593.92 522.257Z" fill="#446A46"/>
<path fill-rule="evenodd" clip-rule="evenodd" d="M1759.34 545.085L1673.09 564.453L1646.69 570.376L1616.62 486.568C1616.62 486.568 1618.41 480.6 1622.77 472.357L1651.62 465.578L1651.79 465.546L1656.14 464.518L1658.92 463.864L1659.6 463.708C1660.59 463.473 1661.71 463.241 1662.77 463.038C1664.88 462.649 1667.16 462.259 1669.16 462.071C1677.28 461.183 1685.61 461.666 1693.62 463.38C1709.69 466.809 1724.31 475.457 1735.37 487.752C1738.12 490.807 1740.62 494.095 1742.87 497.555C1743.9 499.129 1744.87 500.733 1745.78 502.37C1746.93 504.395 1747.98 506.468 1748.93 508.588C1749.77 510.488 1750.54 512.42 1751.27 514.37C1751.97 516.285 1752.47 517.954 1753 519.777L1753.67 522.191L1753.84 522.878L1754.19 524.281L1756.98 535.5L1759.34 545.085Z" fill="#446A46"/>
<path fill-rule="evenodd" clip-rule="evenodd" d="M1604.84 699.221C1604.56 701.194 1604.17 703.12 1603.64 705.031C1603.22 706.491 1602.74 707.92 1602.17 709.333C1600.07 714.709 1596.95 719.647 1592.93 723.825C1592.22 724.618 1591.42 725.379 1590.6 726.109C1589.64 726.995 1588.64 727.819 1587.59 728.595C1583.78 731.453 1579.46 733.721 1574.69 735.211C1574.63 735.243 1574.59 735.257 1574.52 735.274L1574.46 735.289L1560.18 739.717L1406.66 787.233L1281.05 826.112C1268.09 830.104 1253.6 829.499 1240.32 823.3C1219.48 813.561 1207.71 789.842 1207.71 766.31C1207.71 757.16 1209.48 748.057 1213.19 739.794C1213.5 739.095 1213.81 738.411 1214.12 737.728C1222.81 718.513 1232.02 700.542 1240.85 681.327C1249.9 661.382 1259.13 641.516 1268.32 621.633L1282.15 591.84L1296.14 562.125C1299.9 554.187 1303.69 546.25 1307.5 538.344C1313.12 526.647 1318.8 514.967 1324.56 503.347C1324.63 503.223 1324.69 503.114 1324.75 502.99C1339.84 472.715 1375.92 459.87 1406.25 474.439C1419.66 480.871 1429.76 491.588 1435.68 504.233C1442.14 517.965 1443.69 533.964 1439.29 549.233C1438.42 552.324 1437.28 555.399 1435.89 558.412C1434.71 561.007 1433.5 563.584 1432.29 566.164C1428.95 573.371 1425.57 580.564 1422.16 587.74C1417.4 597.758 1412.58 607.777 1407.76 617.765L1393.37 647.279L1378.81 676.728C1377.99 678.375 1377.18 680.022 1376.36 681.668C1375.83 682.756 1375.28 683.843 1374.75 684.946L1548.75 650.385L1549.48 650.23L1553.51 649.422C1553.71 649.39 1553.89 649.36 1554.09 649.328C1568.83 646.642 1583.63 651.939 1593.49 662.609H1593.51C1597.91 667.347 1601.34 673.157 1603.35 679.804C1603.38 679.882 1603.39 679.96 1603.42 680.038C1605.33 686.468 1605.74 692.992 1604.84 699.221Z" fill="#FFDDBA"/>
<path fill-rule="evenodd" clip-rule="evenodd" d="M1706.91 808.247L1665.34 529.182C1665.21 528.405 1666.33 528.168 1666.51 528.932L1728.76 808.245L1706.91 808.247Z" fill="#21211D"/>
<path fill-rule="evenodd" clip-rule="evenodd" d="M1286.1 828.281C1298.17 824.626 1310.22 820.897 1322.26 817.137L1358.39 805.884C1382.47 798.331 1406.56 790.848 1430.59 783.097C1454.63 775.38 1478.59 767.359 1502.59 759.483L1538.53 747.44L1574.42 735.193C1597.21 727.416 1609.52 702.226 1601.91 678.929C1595.03 657.847 1574.19 645.548 1553.4 649.158L1516.09 655.599L1478.83 662.241C1454.03 666.824 1429.19 671.262 1404.43 676.002C1379.66 680.708 1354.95 685.684 1330.23 690.589L1293.16 698.024C1280.8 700.491 1268.45 702.991 1256.12 705.566C1222.61 712.56 1201 745.997 1207.84 780.252C1214.68 814.505 1247.39 836.603 1280.9 829.609C1282.63 829.248 1284.44 828.779 1286.1 828.281Z" fill="#FFDDBA"/>
<path fill-rule="evenodd" clip-rule="evenodd" d="M1516.02 705.757C1530.54 701.415 1545.02 696.874 1559.48 692.236L1581.13 685.158L1586.54 683.355C1588.29 682.774 1590.33 682.083 1591.56 681.707C1594.44 680.795 1597.15 680.142 1599.12 679.821C1601.14 679.5 1602.49 679.437 1603.92 679.641C1605.34 679.846 1607.04 680.479 1609.05 681.762C1611.04 683.046 1613.27 684.76 1615.48 686.919L1616.18 687.564L1616.75 688.122C1617.13 688.506 1617.49 688.912 1617.85 689.332L1618.12 689.65L1618.25 689.813L1618.46 690.106L1619.31 691.282L1620.99 693.63C1629.98 706.154 1639.13 718.583 1648.83 730.665C1652.53 735.274 1659.19 735.953 1663.72 732.182C1667.45 729.071 1668.55 723.894 1666.74 719.594C1660.71 705.241 1654.12 691.234 1647.38 677.323L1646.11 674.716L1645.48 673.411L1645.32 673.085L1645.08 672.632L1644.59 671.722C1643.92 670.521 1643.19 669.344 1642.42 668.19C1642.03 667.615 1641.63 667.044 1641.22 666.477L1640.6 665.635L1640.06 664.944C1637.28 661.277 1634.06 657.571 1630.1 654.066C1626.14 650.588 1621.2 647.244 1615.42 644.998C1609.65 642.716 1603.34 641.761 1597.8 641.738C1592.19 641.701 1587.39 642.4 1582.88 643.186C1580.4 643.626 1578.78 643.983 1576.86 644.366L1571.26 645.501L1548.89 650.172C1534 653.367 1519.12 656.658 1504.3 660.149C1491.84 663.08 1484.08 675.744 1486.96 688.434C1489.83 701.125 1502.26 709.036 1514.71 706.105C1515.13 706.006 1515.61 705.876 1516.02 705.757Z" fill="#FFDDBA"/>
<path fill-rule="evenodd" clip-rule="evenodd" d="M1500.91 735.117L1599.21 696.071L1584.32 693.9C1584.18 693.762 1584.51 693.955 1584.65 694.02L1585.26 694.364C1585.68 694.606 1586.13 694.882 1586.57 695.166C1587.47 695.73 1588.37 696.356 1589.27 696.995C1591.06 698.289 1592.81 699.691 1594.48 701.172C1597.82 704.137 1600.86 707.409 1603.39 710.934C1604.67 712.693 1605.82 714.516 1606.81 716.401C1607.83 718.28 1608.71 720.219 1609.4 722.217C1610.86 726.204 1611.55 730.431 1611.66 734.841L1611.68 735.539C1611.82 741.432 1616.63 746.089 1622.42 745.943C1627.42 745.815 1631.52 742.124 1632.44 737.313C1633.7 730.738 1634.01 723.761 1633.05 716.956C1632.63 713.542 1631.89 710.18 1630.94 706.907C1630.01 703.622 1628.83 700.437 1627.46 697.366C1624.75 691.2 1621.32 685.506 1617.42 680.232C1615.47 677.593 1613.4 675.06 1611.19 672.614C1610.08 671.392 1608.94 670.189 1607.74 669C1607.14 668.404 1606.52 667.814 1605.87 667.212L1604.86 666.3C1604.46 665.955 1604.24 665.739 1603.55 665.207L1603.55 665.205C1599.5 662.252 1594.57 661.475 1590.09 662.649L1588.65 663.035L1486.62 690.375C1474.26 693.686 1466.88 706.573 1470.13 719.159C1473.38 731.745 1486.03 739.262 1498.39 735.953C1499.25 735.722 1500.1 735.436 1500.91 735.117Z" fill="#FFDDBA"/>
<path fill-rule="evenodd" clip-rule="evenodd" d="M1482.8 746.681L1581.15 707.5L1567.93 706.351L1567.93 706.35C1567.73 706.235 1567.75 706.235 1567.76 706.229C1567.75 706.216 1567.75 706.205 1567.79 706.216C1567.84 706.232 1567.87 706.224 1567.96 706.257C1568.09 706.301 1568.25 706.356 1568.42 706.432C1568.76 706.569 1569.13 706.739 1569.5 706.926C1570.25 707.305 1571.03 707.726 1571.8 708.207C1573.34 709.147 1574.84 710.248 1576.25 711.447C1579.09 713.848 1581.57 716.678 1583.54 719.891C1585.55 723.095 1587.03 726.718 1587.98 730.686C1588.9 734.659 1589.29 738.97 1589.11 743.461L1589.1 743.857C1588.87 749.779 1593.38 754.767 1599.18 755.002C1604.2 755.202 1608.53 751.77 1609.75 747.006C1611.28 741.088 1612.15 734.772 1612.09 728.237C1612 721.714 1610.93 714.968 1608.73 708.533C1606.55 702.08 1603.31 695.961 1599.27 690.497C1597.24 687.757 1595.03 685.165 1592.6 682.734C1591.4 681.511 1590.12 680.338 1588.77 679.18C1588.09 678.601 1587.39 678.031 1586.64 677.454C1586.27 677.17 1585.88 676.877 1585.46 676.58L1584.8 676.117L1584.41 675.858C1584.27 675.773 1584.15 675.691 1583.81 675.498L1583.81 675.496C1580.03 673.38 1575.79 672.962 1571.92 673.992L1570.59 674.348L1468.51 701.784C1456.14 705.106 1448.76 718.036 1452.01 730.666C1455.26 743.295 1467.92 750.84 1480.28 747.518C1481.14 747.287 1482 747.001 1482.8 746.681Z" fill="#FFDDBA"/>
<path fill-rule="evenodd" clip-rule="evenodd" d="M1466.62 756.473L1566.29 712.778L1548.86 709.292L1548.86 709.291C1549.05 709.376 1549.56 709.769 1549.94 710.045L1551.18 711.001C1552.01 711.655 1552.84 712.332 1553.66 713.022C1555.3 714.403 1556.89 715.832 1558.41 717.282C1561.43 720.168 1564.19 723.224 1566.13 725.974C1567.11 727.332 1567.85 728.608 1568.29 729.445C1568.76 730.321 1568.89 730.518 1569.26 730.236C1569.43 730.123 1569.67 729.992 1569.82 730.04C1569.96 730.08 1569.98 730.286 1569.8 730.592C1569.45 731.218 1568.25 732.098 1566.75 732.845L1565.84 733.299C1560.64 735.885 1558.5 742.254 1561.05 747.526C1563.22 752.01 1568.09 754.252 1572.69 753.229C1575.86 752.527 1579.27 751.536 1582.92 749.267C1584.72 748.128 1586.57 746.652 1588.23 744.742C1589.89 742.842 1591.31 740.501 1592.26 738.034C1593.22 735.563 1593.72 733.022 1593.89 730.671C1594.06 728.311 1593.93 726.126 1593.66 724.115C1593.11 720.086 1592.04 716.704 1590.85 713.617C1588.45 707.461 1585.49 702.372 1582.37 697.547C1580.8 695.144 1579.17 692.832 1577.48 690.575C1576.64 689.445 1575.77 688.331 1574.88 687.22L1573.52 685.549C1573.02 684.959 1572.65 684.493 1571.94 683.734L1571.94 683.731C1567.5 679.431 1561.31 678.15 1555.83 679.832L1554.51 680.244L1450.66 712.413C1438.42 716.205 1431.53 729.343 1435.27 741.759C1439.01 754.176 1451.96 761.168 1464.2 757.377C1465.02 757.12 1465.85 756.811 1466.62 756.473Z" fill="#FFDDBA"/>
<path fill-rule="evenodd" clip-rule="evenodd" d="M1636.56 715.364C1635.97 715.364 1635.41 715.03 1635.13 714.457C1635.02 714.209 1623.14 689.564 1608.53 683.335C1607.72 682.991 1607.34 682.051 1607.68 681.233C1608.02 680.415 1608.95 680.033 1609.75 680.375C1625.47 687.075 1637.48 712.003 1637.98 713.061C1638.36 713.859 1638.04 714.818 1637.25 715.204C1637.03 715.312 1636.79 715.364 1636.56 715.364Z" fill="#21211D"/>
<path fill-rule="evenodd" clip-rule="evenodd" d="M1611.33 738.018C1611.26 738.018 1611.19 738.013 1611.11 738.003C1610.26 737.884 1609.66 737.078 1609.78 736.202C1609.81 735.919 1613.34 707.744 1595.03 701.489C1594.21 701.209 1593.77 700.304 1594.05 699.465C1594.32 698.627 1595.21 698.176 1596.03 698.456C1604.69 701.415 1610.34 709.018 1612.38 720.443C1613.89 728.864 1612.92 736.323 1612.88 736.636C1612.77 737.438 1612.1 738.018 1611.33 738.018Z" fill="#21211D"/>
<path fill-rule="evenodd" clip-rule="evenodd" d="M1588.94 744.814C1588.72 744.814 1588.49 744.765 1588.27 744.664C1587.47 744.291 1587.12 743.332 1587.49 742.524C1587.53 742.425 1591.93 732.593 1587.95 724.393C1585.49 719.328 1580.31 715.837 1572.55 714.02C1571.69 713.817 1571.15 712.949 1571.35 712.082C1571.55 711.214 1572.41 710.673 1573.27 710.874C1582.03 712.926 1587.94 717.003 1590.83 722.997C1595.48 732.591 1590.6 743.424 1590.39 743.879C1590.12 744.467 1589.54 744.814 1588.94 744.814Z" fill="#21211D"/>
<path fill-rule="evenodd" clip-rule="evenodd" d="M1558.19 740.284C1557.52 740.284 1556.89 739.866 1556.66 739.208C1556.39 738.392 1556.85 737.514 1557.7 737.249L1564.42 735.132L1561.55 734.265C1560.7 734.009 1560.23 733.137 1560.49 732.317C1560.76 731.497 1561.65 731.037 1562.5 731.294L1570.18 733.614C1570.85 733.817 1571.31 734.414 1571.31 735.091C1571.32 735.768 1570.87 736.371 1570.2 736.579L1558.69 740.207C1558.52 740.26 1558.36 740.284 1558.19 740.284Z" fill="#21211D"/>
<path fill-rule="evenodd" clip-rule="evenodd" d="M1741.22 826.371H2024.38L2100.29 608.889H1827.01C1821.09 608.889 1815.8 612.679 1813.81 618.355L1741.22 826.371Z" fill="#21211D"/>
<path fill-rule="evenodd" clip-rule="evenodd" d="M1763.83 826.371H2042.05C2042.99 826.371 2043.83 825.771 2044.13 824.874L2114.39 623.369C2116.86 616.31 2111.72 608.889 2104.37 608.889H1847.97C1841.11 608.889 1835 613.278 1832.69 619.852L1761.74 823.358C1761.22 824.826 1762.29 826.371 1763.83 826.371Z" fill="#2E4C9E"/>
<mask id="mask5_710_605" style="mask-type:alpha" maskUnits="userSpaceOnUse" x="1761" y="608" width="355" height="219">
<path fill-rule="evenodd" clip-rule="evenodd" d="M2104.38 608.516C2111.74 608.516 2116.88 615.954 2114.41 623.028L2044.2 824.966C2043.88 825.867 2043.04 826.467 2042.1 826.467H1764.05C1762.52 826.467 1761.45 824.92 1761.97 823.447L1832.88 619.504C1835.18 612.915 1841.29 608.516 1848.14 608.516H2104.38Z" fill="white"/>
</mask>
<g mask="url(#mask5_710_605)">
<path fill-rule="evenodd" clip-rule="evenodd" d="M2068.44 573.025L1719.46 818.262L1808.31 877.235L2168.69 649.665L2068.44 573.025Z" fill="#4965CC"/>
</g>
<path fill-rule="evenodd" clip-rule="evenodd" d="M1926 711.4C1924.83 719.846 1930.66 726.691 1939.02 726.691C1947.38 726.691 1955.11 719.846 1956.29 711.4C1957.46 702.954 1951.63 696.107 1943.27 696.107C1934.91 696.107 1927.18 702.954 1926 711.4Z" fill="white"/>
<path fill-rule="evenodd" clip-rule="evenodd" d="M1607.56 827.502H1954.17V807.113H1627.19C1616.35 807.113 1607.56 816.242 1607.56 827.502Z" fill="#2E4C9E"/>
<path fill-rule="evenodd" clip-rule="evenodd" d="M2050.01 807.115H1750.73C1749.86 807.115 1749.15 806.355 1749.15 805.417C1749.15 804.478 1749.86 803.717 1750.73 803.717H2050.01C2050.88 803.717 2051.59 804.478 2051.59 805.417C2051.59 806.355 2050.88 807.115 2050.01 807.115Z" fill="white"/>
<path fill-rule="evenodd" clip-rule="evenodd" d="M1481.83 486.565L1478.7 495.276L1451.75 570.375L1431.82 565.904L1408.15 560.589L1308.74 538.289L1307.39 537.993C1312.99 526.257 1318.65 514.539 1324.41 502.882C1324.47 502.757 1324.53 502.648 1324.59 502.523C1325.82 499.593 1327.24 496.742 1328.85 493.968C1329.48 492.831 1330.14 491.723 1330.84 490.632C1335.06 484.087 1340.16 478.181 1345.95 473.132C1357.55 463.065 1371.89 456.474 1387.09 454.415C1394.67 453.356 1402.42 453.511 1409.89 454.682L1412.7 455.18L1415.21 455.71L1416.48 455.99L1419.03 456.552L1429.22 458.827L1469.92 468.083L1473.84 469.003C1476.53 473.693 1478.46 477.87 1479.75 480.971C1480.14 481.921 1480.47 482.763 1480.75 483.48C1481.49 485.443 1481.83 486.565 1481.83 486.565Z" fill="#446A46"/>
<path fill-rule="evenodd" clip-rule="evenodd" d="M1422.21 588.499C1422 588.499 1421.79 588.453 1421.58 588.358C1420.8 587.997 1420.44 587.049 1420.8 586.242L1446 528.278C1446.35 527.472 1447.28 527.111 1448.06 527.472C1448.84 527.832 1449.19 528.781 1448.84 529.587L1423.63 587.551C1423.38 588.146 1422.81 588.499 1422.21 588.499Z" fill="#21211D"/>
<path fill-rule="evenodd" clip-rule="evenodd" d="M1277.24 710.834C1276.55 710.834 1275.91 710.358 1275.73 709.636C1275.5 708.772 1276 707.884 1276.83 707.652L1375.64 680.306C1376.47 680.074 1377.34 680.585 1377.56 681.448C1377.79 682.312 1377.29 683.2 1376.45 683.431L1277.65 710.778C1277.51 710.815 1277.38 710.834 1277.24 710.834Z" fill="#21211D"/>
<path fill-rule="evenodd" clip-rule="evenodd" d="M1439.46 549.986C1439.35 549.986 1439.24 549.974 1439.12 549.948L1315.43 522.587C1314.58 522.398 1314.03 521.54 1314.22 520.671C1314.41 519.801 1315.25 519.25 1316.11 519.44L1439.8 546.8C1440.66 546.99 1441.2 547.848 1441.01 548.717C1440.85 549.47 1440.19 549.986 1439.46 549.986Z" fill="#21211D"/>
<path fill-rule="evenodd" clip-rule="evenodd" d="M1672.56 548.854C1671.84 548.854 1671.19 548.343 1671.03 547.594C1670.84 546.73 1671.38 545.874 1672.23 545.684L1754.03 527.369C1754.88 527.181 1755.72 527.725 1755.91 528.591C1756.09 529.456 1755.56 530.311 1754.71 530.501L1672.9 548.815C1672.79 548.841 1672.68 548.854 1672.56 548.854Z" fill="#21211D"/>
<path fill-rule="evenodd" clip-rule="evenodd" d="M1484.3 479.763C1484.18 476.375 1484.12 473.332 1484.09 470.695L1493.16 472.802C1493.16 472.802 1493.19 472.818 1493.24 472.834C1493.27 472.834 1493.3 472.849 1493.33 472.864L1504.74 475.112H1504.75C1531.44 478.982 1558.7 479.591 1585.55 477.53C1588.67 477.297 1591.78 476.968 1594.86 476.579C1598.64 476.126 1602.38 475.564 1606.11 474.941C1607.52 512.424 1609.13 559.178 1551.49 557.991C1493.85 556.805 1485.41 514.327 1484.3 479.763Z" fill="#FFDDBA"/>
<mask id="mask6_710_605" style="mask-type:alpha" maskUnits="userSpaceOnUse" x="1473" y="292" width="158" height="157">
<path fill-rule="evenodd" clip-rule="evenodd" d="M1473.89 292.598H1630.76V448.176H1473.89V292.598Z" fill="white"/>
</mask>
<g mask="url(#mask6_710_605)">
<path fill-rule="evenodd" clip-rule="evenodd" d="M1618.91 438.079C1609.3 448.099 1596.15 449.75 1582.26 446.966C1546.81 439.86 1506.33 403.876 1506.33 403.876C1498.3 397.579 1489.75 388.951 1484.36 379.434L1484.09 378.932C1482.66 376.39 1481.48 373.768 1480.59 371.13C1480.17 369.867 1479.81 368.588 1479.54 367.309C1479.51 367.18 1479.49 367.067 1479.46 366.954C1477.77 359.427 1476.54 359.863 1474.49 346.881C1471.59 328.589 1479.23 312.403 1495.61 303.564C1517.68 291.65 1546.26 288.591 1569.83 298.644C1569.9 298.675 1569.96 298.692 1570.02 298.724C1572.78 299.905 1575.42 301.298 1577.92 302.869C1600.7 316.951 1613.49 345.035 1622.78 369.025C1631.21 390.797 1636.88 419.351 1618.91 438.079Z" fill="#FFDDBA"/>
</g>
<path fill-rule="evenodd" clip-rule="evenodd" d="M1569.73 365.155L1584.46 490.419C1587.36 515.157 1569.67 537.571 1544.93 540.478C1520.19 543.387 1497.78 525.691 1494.87 500.952C1494.57 498.364 1494.51 495.551 1494.64 493.033L1502.05 367.124C1503.16 348.388 1519.24 334.094 1537.98 335.199C1554.68 336.182 1567.85 349.089 1569.73 365.155Z" fill="#FFDDBA"/>
<path fill-rule="evenodd" clip-rule="evenodd" d="M1579.24 446.05C1579.24 446.05 1568.75 444.299 1554.84 437.151C1553.14 436.278 1551.46 438.346 1552.68 439.815L1582.37 474.624L1579.24 446.05Z" fill="#21211D"/>
<path fill-rule="evenodd" clip-rule="evenodd" d="M1499.53 410.895C1499.53 410.895 1502.87 408.899 1505.28 405.367C1505.65 404.828 1506.48 404.982 1506.61 405.622C1507.47 409.985 1508.23 421.533 1498.37 431.04L1499.53 410.895Z" fill="#21211D"/>
<path fill-rule="evenodd" clip-rule="evenodd" d="M1549.09 337.878C1560.94 328.409 1571.35 316.414 1577.92 302.866C1575.41 301.296 1572.78 299.904 1570.02 298.722C1569.99 298.705 1569.96 298.693 1569.93 298.68C1569.89 298.669 1569.86 298.657 1569.83 298.641C1546.26 288.589 1517.68 291.648 1495.61 303.562C1479.23 312.4 1471.59 328.588 1474.49 346.879C1475.77 354.973 1476.73 357.85 1477.68 360.695C1478.25 362.412 1478.82 364.117 1479.46 366.951C1482.7 366.551 1485.94 366.038 1489.15 365.411C1493.28 366.723 1503.65 370.373 1506.45 378.276L1510.63 386.24C1512.6 390.165 1517.23 391.962 1521.34 390.38C1524.72 389.077 1526.79 385.845 1526.79 382.432C1526.79 381.474 1526.63 380.501 1526.3 379.561C1526.3 379.561 1524.38 369.821 1519.25 355.957C1529.91 351.233 1539.98 345.174 1549.09 337.878Z" fill="#EDC829"/>
<path fill-rule="evenodd" clip-rule="evenodd" d="M1510.36 391.746C1509.56 405.62 1497.66 416.215 1483.79 415.411C1469.91 414.606 1459.32 402.707 1460.12 388.833C1460.93 374.959 1472.82 364.364 1486.7 365.168C1500.57 365.973 1511.17 377.873 1510.36 391.746Z" fill="#FFDDBA"/>
<path fill-rule="evenodd" clip-rule="evenodd" d="M1494.25 393.414C1494.04 393.414 1493.83 393.374 1493.63 393.289L1473.87 385.011C1473.04 384.665 1472.65 383.717 1473 382.893C1473.34 382.069 1474.29 381.678 1475.12 382.025L1494.88 390.302C1495.7 390.647 1496.09 391.596 1495.74 392.421C1495.48 393.041 1494.88 393.414 1494.25 393.414Z" fill="#21211D"/>
<path fill-rule="evenodd" clip-rule="evenodd" d="M1481.97 396.889C1481.77 396.889 1481.58 396.855 1481.39 396.781C1480.55 396.463 1480.14 395.527 1480.46 394.691L1483.29 387.264C1483.61 386.429 1484.55 386.011 1485.38 386.329C1486.22 386.649 1486.64 387.584 1486.32 388.419L1483.48 395.848C1483.23 396.492 1482.62 396.889 1481.97 396.889Z" fill="#21211D"/>
<path fill-rule="evenodd" clip-rule="evenodd" d="M1490.24 307.759C1473.94 284.87 1441.79 274.755 1415.33 284.191C1402.8 288.656 1391.99 296.807 1380.47 303.456C1368.95 310.105 1355.76 315.42 1342.63 313.316C1331.43 311.524 1321.7 304.511 1313.91 296.275C1306.12 288.04 1299.88 278.482 1292.64 269.76C1278.76 253.042 1260.87 239.31 1240.32 232.246C1219.77 225.183 1196.5 225.16 1176.71 234.138L1134.08 396.125C1153.17 381.514 1177.04 373.252 1201.07 372.935C1225.11 372.617 1249.19 380.244 1268.66 394.346C1280.54 402.955 1291.12 414.096 1305.06 418.689C1319.02 423.289 1334.68 420.485 1347.65 413.576C1360.63 406.667 1371.21 395.985 1380.41 384.525C1391.43 370.802 1401.21 350.384 1416.14 341.053C1433.92 329.932 1458 326.548 1478.93 327.919L1490.24 307.759Z" fill="#EDC829"/>
<path fill-rule="evenodd" clip-rule="evenodd" d="M1473.98 329.005C1473.68 329.005 1473.38 328.961 1473.08 328.868C1471.49 328.372 1470.6 326.689 1471.1 325.101C1471.26 324.573 1475.23 312.084 1486.62 303.91C1487.97 302.938 1489.86 303.249 1490.83 304.601C1491.8 305.955 1491.49 307.837 1490.14 308.808C1480.44 315.77 1476.89 326.781 1476.85 326.892C1476.45 328.18 1475.26 329.005 1473.98 329.005Z" fill="#EDC829"/>
<path fill-rule="evenodd" clip-rule="evenodd" d="M1635.75 368.061C1635.75 368.061 1627.32 378.476 1613.62 377.988C1607.81 377.772 1601.06 375.624 1593.62 369.855C1593.62 369.855 1600.86 361.548 1612.91 360.745C1619.3 360.298 1627.02 361.94 1635.75 368.061Z" fill="white"/>
<path fill-rule="evenodd" clip-rule="evenodd" d="M1635.75 368.061C1635.75 368.061 1627.32 378.476 1613.62 377.988C1611.7 375.664 1610.53 372.757 1610.39 369.518C1610.25 366.277 1611.19 363.223 1612.91 360.745C1619.3 360.298 1627.02 361.94 1635.75 368.061Z" fill="#21211D"/>
<path d="M1582.21 361.913C1583.07 361.678 1583.95 362.137 1584.25 362.948L1584.3 363.104L1591.37 388.845C1592.64 393.472 1589.24 398.037 1584.49 398.186L1584.23 398.19L1578.34 398.173C1577.4 398.17 1576.64 397.406 1576.65 396.465C1576.65 395.577 1577.33 394.85 1578.2 394.774L1578.35 394.768L1584.23 394.785C1586.8 394.792 1588.68 392.42 1588.14 389.952L1588.09 389.746L1581.02 364.005C1580.77 363.098 1581.31 362.162 1582.21 361.913Z" fill="#21211D"/>
<path d="M1599.34 347.649C1609.45 343.689 1620.81 343.713 1632.27 350.372C1633.08 350.845 1633.35 351.887 1632.88 352.7C1632.41 353.513 1631.37 353.788 1630.55 353.316C1620.09 347.232 1609.8 347.21 1600.59 350.819C1599.25 351.341 1598.07 351.899 1597.05 352.454L1596.52 352.751C1596.21 352.93 1595.99 353.068 1595.86 353.153C1595.08 353.679 1594.02 353.474 1593.5 352.695C1592.97 351.916 1593.18 350.858 1593.96 350.331L1594.17 350.191C1594.46 350.007 1594.88 349.758 1595.42 349.463C1596.56 348.842 1597.87 348.224 1599.34 347.649Z" fill="#21211D"/>
<path fill-rule="evenodd" clip-rule="evenodd" d="M1576.47 368.061C1576.47 368.061 1568.05 378.476 1554.35 377.988C1548.54 377.772 1541.78 375.624 1534.35 369.855C1534.35 369.855 1541.59 361.548 1553.64 360.745C1560.03 360.298 1567.75 361.94 1576.47 368.061Z" fill="white"/>
<path fill-rule="evenodd" clip-rule="evenodd" d="M1576.47 368.061C1576.47 368.061 1568.05 378.476 1554.35 377.988C1552.42 375.664 1551.26 372.757 1551.12 369.518C1550.98 366.277 1551.92 363.223 1553.64 360.745C1560.03 360.298 1567.75 361.94 1576.47 368.061Z" fill="#21211D"/>
<path d="M1534.78 350.372C1546.23 343.713 1557.59 343.689 1567.7 347.649C1569.17 348.224 1570.48 348.842 1571.62 349.463L1572.06 349.704C1572.53 349.971 1572.88 350.187 1573.09 350.331C1573.87 350.858 1574.07 351.916 1573.55 352.695C1573.02 353.474 1571.96 353.679 1571.18 353.153L1570.92 352.987C1570.71 352.852 1570.39 352.671 1569.99 352.454C1568.98 351.899 1567.79 351.341 1566.46 350.819C1557.25 347.21 1546.95 347.232 1536.49 353.316C1535.68 353.788 1534.64 353.513 1534.16 352.7C1533.69 351.887 1533.97 350.845 1534.78 350.372Z" fill="#21211D"/>
<path d="M1567.67 401.679C1568.51 401.385 1569.42 401.78 1569.78 402.567L1569.9 402.866C1569.97 403.017 1570.07 403.24 1570.22 403.515C1570.58 404.177 1571.03 404.842 1571.6 405.46C1573.45 407.495 1575.96 408.55 1579.4 408.14C1580.33 408.029 1581.18 408.696 1581.29 409.63C1581.4 410.563 1580.74 411.41 1579.8 411.521C1575.22 412.067 1571.64 410.566 1569.08 407.753C1567.77 406.317 1566.99 404.879 1566.63 403.851C1566.32 402.964 1566.78 401.992 1567.67 401.679Z" fill="#21211D"/>
<path opacity="0.01" d="M1555.73 397.312C1561.28 393.305 1567.88 392.621 1575.17 395.17C1582.67 397.796 1587.81 400.086 1590.42 408.521C1590.97 410.314 1589.97 412.217 1588.18 412.772C1586.38 413.327 1584.48 412.323 1583.92 410.53C1581.93 404.08 1578.31 403.47 1572.92 401.585C1567.64 399.739 1563.36 400.181 1559.71 402.822C1558.19 403.921 1556.06 403.578 1554.97 402.057C1553.87 400.536 1554.21 398.412 1555.73 397.312Z" fill="#EDC829"/>
<path d="M974.367 778.795H639.082V820.706H974.367V778.795Z" fill="#72222B"/>
<path fill-rule="evenodd" clip-rule="evenodd" d="M981.414 1652.12L828.118 986.813L851.218 1625.16L602.835 1624.1L638.975 815.041H973.518L1219.04 1587.08L981.414 1652.12Z" fill="#72222B"/>
<path fill-rule="evenodd" clip-rule="evenodd" d="M851.515 1624.52C851.515 1602.86 795.581 1585.46 727.253 1585.46C658.926 1585.46 603.37 1603.02 603.37 1624.68C603.37 1646.33 658.926 1663.89 727.253 1663.89C795.581 1663.89 851.515 1646.17 851.515 1624.52Z" fill="#21211D"/>
<path fill-rule="evenodd" clip-rule="evenodd" d="M1172.2 1639.53C1154.91 1648.06 1133.85 1655.58 1110.45 1660.71C1087.18 1665.81 1065 1668.51 1045.73 1668.93C1009.75 1669.77 984.08 1662.74 981.05 1648.95C977.944 1634.79 1000.59 1615.03 1035.93 1599.13C1053.36 1591.29 1073.89 1584.39 1095.94 1579.55C1111.97 1576.03 1127.2 1573.64 1141.15 1572.32C1185.3 1568.15 1216.69 1574.78 1220.22 1590.85C1223.24 1604.6 1204.19 1623.77 1172.2 1639.53Z" fill="#21211D"/>
<mask id="mask7_710_605" style="mask-type:alpha" maskUnits="userSpaceOnUse" x="667" y="1585" width="275" height="199">
<path fill-rule="evenodd" clip-rule="evenodd" d="M667.311 1585.46H941.034V1783.52H667.311V1585.46Z" fill="white"/>
</mask>
<g mask="url(#mask7_710_605)">
<path fill-rule="evenodd" clip-rule="evenodd" d="M941.034 1783.52H667.311V1590.35C685.066 1587.22 705.486 1585.46 727.185 1585.46C746.005 1585.46 763.881 1586.78 779.9 1589.14C784.849 1609.29 792.98 1633.1 806.288 1654.8C817.131 1672.48 831.399 1688.76 850.189 1700.5C926.142 1747.98 941.034 1783.52 941.034 1783.52Z" fill="#B6CCFC"/>
</g>
<mask id="mask8_710_605" style="mask-type:alpha" maskUnits="userSpaceOnUse" x="1035" y="1572" width="292" height="212">
<path fill-rule="evenodd" clip-rule="evenodd" d="M1035.93 1572.32H1326.43V1783.52H1035.93V1572.32Z" fill="white"/>
</mask>
<g mask="url(#mask8_710_605)">
<path fill-rule="evenodd" clip-rule="evenodd" d="M1326.43 1783.52H1061.85L1045.74 1668.93L1035.93 1599.13C1053.36 1591.29 1073.89 1584.39 1095.94 1579.55C1111.97 1576.03 1127.2 1573.64 1141.15 1572.32C1147.19 1590.93 1157.08 1615.67 1172.2 1639.53C1186.99 1662.9 1206.85 1685.44 1233.06 1700.5C1315.68 1747.98 1326.43 1783.52 1326.43 1783.52Z" fill="#B6CCFC"/>
</g>
<path d="M825.638 813.753C826.429 813.723 827.102 814.301 827.205 815.07L827.218 815.217L829.778 882.097C830.325 895.007 820.014 905.773 807.097 905.773C806.256 905.773 805.574 905.091 805.574 904.25C805.574 903.409 806.256 902.727 807.097 902.727C818.157 902.727 827.012 893.609 826.747 882.589L826.734 882.22L824.174 815.333C824.142 814.493 824.797 813.785 825.638 813.753Z" fill="#21211D"/>
<path d="M914.642 813.87C915.419 813.546 916.311 813.914 916.634 814.69C921.088 825.381 927.859 834.732 937.398 841.855C949.357 850.785 965.035 855.709 984.947 855.709C985.789 855.709 986.471 856.391 986.471 857.231C986.471 858.073 985.789 858.755 984.947 858.755C964.395 858.755 948.075 853.629 935.575 844.296C925.566 836.822 918.473 827.027 913.822 815.861C913.499 815.085 913.866 814.194 914.642 813.87Z" fill="#21211D"/>
<path d="M707.584 814.692C707.906 813.915 708.797 813.547 709.573 813.868C710.35 814.19 710.72 815.081 710.398 815.859C705.782 826.992 698.709 836.779 688.699 844.257C676.174 853.613 659.792 858.755 639.136 858.755C638.294 858.755 637.613 858.073 637.613 857.231C637.613 856.391 638.294 855.709 639.136 855.709C659.152 855.709 674.893 850.769 686.876 841.817C696.416 834.691 703.167 825.35 707.584 814.692Z" fill="#21211D"/>
<path d="M846.309 987.137C847.151 987.137 847.832 987.819 847.832 988.66C847.832 989.452 847.229 990.102 846.456 990.176L846.309 990.183H813.119C812.279 990.183 811.597 989.501 811.597 988.66C811.597 987.868 812.2 987.218 812.973 987.145L813.119 987.137H846.309Z" fill="#21211D"/>
<path d="M834.067 988.128C834.828 987.924 835.61 988.337 835.883 989.058L835.932 989.207L1005.37 1624.28C1005.58 1625.1 1005.1 1625.93 1004.29 1626.15C1003.53 1626.35 1002.75 1625.94 1002.47 1625.22L1002.42 1625.07L832.988 989.992C832.771 989.179 833.254 988.345 834.067 988.128Z" fill="#21211D"/>
<path d="M654.736 855.78C655.526 855.809 656.156 856.435 656.203 857.21L656.204 857.356L629.709 1609.47C629.68 1610.31 628.974 1610.97 628.134 1610.94C627.343 1610.91 626.714 1610.28 626.668 1609.51L626.666 1609.36L653.16 857.249C653.19 856.408 653.895 855.751 654.736 855.78Z" fill="#21211D"/>
<path d="M1091.17 1540.6C1124.73 1534.23 1161.51 1532.49 1201.58 1536.17C1202.42 1536.24 1203.04 1536.99 1202.96 1537.82C1202.88 1538.66 1202.15 1539.28 1201.31 1539.2C1161.52 1535.54 1125.01 1537.28 1091.74 1543.59C1064.18 1548.82 1039.73 1557 1018.32 1567.34C1004.74 1573.9 993.202 1580.92 983.681 1587.94C980.355 1590.39 977.52 1592.67 975.172 1594.7L974.5 1595.29C974.072 1595.67 973.682 1596.02 973.332 1596.34L972.702 1596.93C972.565 1597.07 972.466 1597.16 972.405 1597.22C971.811 1597.82 970.847 1597.82 970.252 1597.22C969.656 1596.63 969.656 1595.66 970.251 1595.07L970.712 1594.62L970.999 1594.35C971.603 1593.79 972.33 1593.14 973.176 1592.4C975.584 1590.31 978.481 1587.99 981.873 1585.49C991.544 1578.36 1003.24 1571.24 1017 1564.6C1038.64 1554.15 1063.35 1545.87 1091.17 1540.6Z" fill="#21211D"/>
<path d="M726.169 1552.36C757.539 1552.48 787.168 1556.87 814.164 1564.12C823.748 1566.7 832.314 1569.46 839.748 1572.22L841.137 1572.74C842.944 1573.43 844.578 1574.07 846.032 1574.67L847.343 1575.22L848.952 1575.92C849.716 1576.28 850.051 1577.18 849.7 1577.94C849.349 1578.71 848.445 1579.04 847.68 1578.69L847.114 1578.44L846.15 1578.02L845.397 1577.71C843.496 1576.91 841.254 1576.03 838.687 1575.08C831.34 1572.35 822.864 1569.62 813.375 1567.07C786.62 1559.88 757.25 1555.52 726.157 1555.41C686.248 1555.26 646.4 1562.17 607.497 1577.54C606.715 1577.85 605.831 1577.47 605.521 1576.68C605.212 1575.9 605.595 1575.02 606.378 1574.71C645.159 1559.38 684.869 1552.39 724.64 1552.36L726.169 1552.36Z" fill="#21211D"/>
<path fill-rule="evenodd" clip-rule="evenodd" d="M667.771 1767.64C667.771 1766.8 668.453 1766.12 669.295 1766.12H928.457C929.297 1766.12 929.979 1766.8 929.979 1767.64C929.979 1768.48 929.297 1769.17 928.457 1769.17H669.295C668.453 1769.17 667.771 1768.48 667.771 1767.64Z" fill="#21211D"/>
<path d="M1313.64 1765.16C1314.48 1765.16 1315.16 1765.84 1315.16 1766.68C1315.16 1767.48 1314.56 1768.13 1313.79 1768.2L1313.64 1768.21H1060.42C1059.57 1768.21 1058.89 1767.52 1058.89 1766.68C1058.89 1765.89 1059.5 1765.24 1060.27 1765.17L1060.42 1765.16H1313.64Z" fill="#21211D"/>
<path d="M667.82 1724.83L668.386 1724.86L669.257 1724.93C669.467 1724.94 669.687 1724.96 669.917 1724.99C671.55 1725.14 673.367 1725.38 675.323 1725.71C680.912 1726.68 686.503 1728.26 691.737 1730.61C706.835 1737.39 715.982 1749.09 715.982 1766.68C715.982 1767.52 715.301 1768.21 714.46 1768.21C713.618 1768.21 712.936 1767.52 712.936 1766.68C712.936 1750.41 704.575 1739.72 690.49 1733.39C685.51 1731.16 680.159 1729.64 674.804 1728.71C672.93 1728.39 671.19 1728.16 669.632 1728.02L669.012 1727.96L667.946 1727.89C667.839 1727.88 667.762 1727.88 667.716 1727.88C666.874 1727.85 666.217 1727.14 666.246 1726.3C666.275 1725.46 666.979 1724.81 667.82 1724.83Z" fill="#21211D"/>
<path d="M1055.38 1724.83L1055.95 1724.86L1056.82 1724.93C1057.03 1724.94 1057.25 1724.96 1057.48 1724.99C1059.11 1725.14 1060.93 1725.38 1062.88 1725.71C1068.47 1726.68 1074.06 1728.26 1079.3 1730.61C1094.39 1737.39 1103.54 1749.09 1103.54 1766.68C1103.54 1767.52 1102.86 1768.21 1102.02 1768.21C1101.18 1768.21 1100.5 1767.52 1100.5 1766.68C1100.5 1750.41 1092.13 1739.72 1078.05 1733.39C1073.07 1731.16 1067.72 1729.64 1062.36 1728.71C1060.49 1728.39 1058.75 1728.16 1057.19 1728.02L1056.57 1727.96C1056.28 1727.94 1056 1727.92 1055.76 1727.9L1055.27 1727.88C1054.43 1727.85 1053.78 1727.14 1053.81 1726.3C1053.83 1725.46 1054.54 1724.81 1055.38 1724.83Z" fill="#21211D"/>
<path fill-rule="evenodd" clip-rule="evenodd" d="M727.04 1640.07C727.04 1650.18 718.85 1658.37 708.746 1658.37C698.644 1658.37 690.453 1650.18 690.453 1640.07C690.453 1629.97 698.644 1621.78 708.746 1621.78C718.85 1621.78 727.04 1629.97 727.04 1640.07Z" fill="white"/>
<path fill-rule="evenodd" clip-rule="evenodd" d="M1099.71 1640.07C1099.71 1650.18 1091.52 1658.37 1081.42 1658.37C1071.31 1658.37 1063.12 1650.18 1063.12 1640.07C1063.12 1629.97 1071.31 1621.78 1081.42 1621.78C1091.52 1621.78 1099.71 1629.97 1099.71 1640.07Z" fill="white"/>
<path d="M1243.66 1706.91C1244.42 1706.72 1245.2 1707.15 1245.46 1707.87L1245.5 1708.02L1249.32 1723.57C1253.15 1739.16 1241.51 1754.22 1225.54 1754.52L1225.06 1754.52H1099.71C1098.87 1754.52 1098.18 1753.84 1098.18 1753C1098.18 1752.21 1098.79 1751.56 1099.56 1751.48L1099.71 1751.47H1225.06C1239.15 1751.47 1249.55 1738.39 1246.46 1724.71L1246.37 1724.3L1242.54 1708.75C1242.35 1707.93 1242.85 1707.11 1243.66 1706.91Z" fill="#21211D"/>
<path d="M862.576 1707.81C863.347 1707.65 864.105 1708.1 864.338 1708.84L864.378 1708.99L867.604 1724.42C870.816 1739.79 859.238 1754.23 843.62 1754.52L843.145 1754.52H713.546C712.704 1754.52 712.023 1753.84 712.023 1753C712.023 1752.21 712.627 1751.56 713.4 1751.48L713.546 1751.47H843.145C856.93 1751.47 867.263 1738.93 864.704 1725.45L864.623 1725.04L861.397 1709.61C861.224 1708.79 861.752 1707.98 862.576 1707.81Z" fill="#21211D"/>
<path d="M806.251 1654.73C807.046 1654.46 807.914 1654.88 808.188 1655.68C808.445 1656.42 808.09 1657.23 807.39 1657.55L807.245 1657.61L782.227 1666.24C781.432 1666.52 780.566 1666.09 780.291 1665.3C780.034 1664.55 780.389 1663.74 781.09 1663.42L781.234 1663.36L806.251 1654.73Z" fill="#21211D"/>
<path d="M818.185 1671.84C818.975 1671.56 819.849 1671.96 820.137 1672.75C820.407 1673.49 820.066 1674.31 819.37 1674.65L819.227 1674.71L790.942 1685.01C790.152 1685.29 789.277 1684.89 788.989 1684.1C788.72 1683.36 789.061 1682.54 789.756 1682.21L789.9 1682.15L818.185 1671.84Z" fill="#21211D"/>
<path d="M833.897 1688.73C834.679 1688.41 835.565 1688.8 835.876 1689.58C836.168 1690.31 835.852 1691.13 835.168 1691.49L835.026 1691.55L806.857 1702.79C806.075 1703.11 805.189 1702.73 804.878 1701.94C804.586 1701.21 804.902 1700.39 805.586 1700.03L805.727 1699.97L833.897 1688.73Z" fill="#21211D"/>
<path d="M1170.26 1638.44C1171.05 1638.16 1171.93 1638.58 1172.2 1639.38C1172.45 1640.12 1172.1 1640.93 1171.39 1641.26L1171.25 1641.31L1146.23 1649.94C1145.44 1650.22 1144.57 1649.79 1144.3 1649C1144.04 1648.25 1144.4 1647.45 1145.1 1647.12L1145.24 1647.06L1170.26 1638.44Z" fill="#21211D"/>
<path d="M1183.11 1656C1183.9 1655.71 1184.77 1656.12 1185.05 1656.91C1185.33 1657.65 1184.99 1658.46 1184.29 1658.8L1184.15 1658.86L1155.86 1669.16C1155.07 1669.45 1154.2 1669.04 1153.91 1668.25C1153.64 1667.51 1153.98 1666.7 1154.68 1666.36L1154.82 1666.3L1183.11 1656Z" fill="#21211D"/>
<path d="M1197.9 1672.88C1198.68 1672.57 1199.58 1672.95 1199.88 1673.73C1200.18 1674.47 1199.86 1675.29 1199.18 1675.65L1199.03 1675.71L1170.86 1686.95C1170.08 1687.27 1169.2 1686.88 1168.89 1686.1C1168.6 1685.37 1168.91 1684.55 1169.59 1684.19L1169.74 1684.12L1197.9 1672.88Z" fill="#21211D"/>
<path fill-rule="evenodd" clip-rule="evenodd" d="M1234.11 1608.26C1249.11 1601.96 1261.78 1598.01 1271.47 1596.97C1283.32 1595.71 1290.73 1598.89 1292.24 1607.33C1293.81 1616.05 1287.7 1622.84 1275.5 1627.89C1265.57 1632.01 1251.69 1634.96 1234.86 1636.92C1223.75 1638.22 1211.88 1639.03 1199.84 1639.45C1192.69 1639.69 1186.37 1639.78 1181.32 1639.76L1179.48 1639.74L1178.39 1639.73C1176.85 1639.7 1176.32 1637.68 1177.63 1636.9L1180.6 1635.17C1182.34 1634.17 1184.24 1633.09 1186.29 1631.95L1188.67 1630.63C1197.16 1625.93 1206.14 1621.23 1215.2 1616.85C1221.73 1613.68 1228.06 1610.8 1234.11 1608.26ZM1234.51 1633.9C1270.82 1629.65 1291.61 1621.04 1289.24 1607.87L1289.18 1607.57C1287.9 1601.31 1282.09 1598.9 1271.79 1600C1262.84 1600.96 1251.02 1604.57 1237.06 1610.33L1235.3 1611.06C1229.3 1613.59 1223.01 1616.45 1216.52 1619.59C1207.53 1623.95 1198.59 1628.62 1190.14 1633.29C1188.79 1634.04 1187.5 1634.76 1186.28 1635.45L1184.05 1636.71L1186.31 1636.7C1190.05 1636.67 1194.27 1636.58 1198.85 1636.43L1199.73 1636.4C1211.68 1635.99 1223.49 1635.19 1234.51 1633.9Z" fill="#21211D"/>
<path fill-rule="evenodd" clip-rule="evenodd" d="M1178.67 1636.78L1181 1636.64C1193.73 1635.95 1207.02 1635.79 1219.45 1636.5C1234.15 1637.34 1246.14 1639.33 1254.56 1642.73C1265.01 1646.95 1269.82 1653.39 1267.41 1662.06C1265.23 1669.95 1258.76 1673.49 1249.02 1673.18C1241 1672.92 1230.79 1670.1 1218.89 1665.19C1212.98 1662.75 1206.77 1659.85 1200.36 1656.57C1193.29 1652.96 1186.35 1649.09 1179.83 1645.21L1179.07 1644.77C1177.09 1643.58 1175.28 1642.47 1173.67 1641.47L1172.94 1641.02L1171.42 1640.04C1170.19 1639.26 1170.66 1637.37 1172.11 1637.25L1172.73 1637.19L1175.14 1637.01C1176.24 1636.93 1177.42 1636.85 1178.67 1636.78ZM1221.1 1639.65L1219.27 1639.54C1206.97 1638.84 1193.79 1638.99 1181.16 1639.69C1180.36 1639.73 1179.59 1639.77 1178.86 1639.82L1176.98 1639.94L1177.83 1640.45C1178.72 1641 1179.66 1641.56 1180.64 1642.15L1181.38 1642.6C1187.85 1646.44 1194.74 1650.28 1201.75 1653.86C1208.08 1657.1 1214.22 1659.97 1220.04 1662.37C1245.11 1672.71 1261.16 1673.22 1264.48 1661.25C1266.39 1654.35 1262.6 1649.26 1253.41 1645.55C1245.72 1642.44 1234.66 1640.53 1221.1 1639.65Z" fill="#21211D"/>
<path fill-rule="evenodd" clip-rule="evenodd" d="M869.328 1623.49C884.135 1616.96 896.675 1612.81 906.285 1611.61C918.044 1610.15 925.472 1613.21 927.142 1621.58C928.877 1630.29 922.87 1637.21 910.713 1642.5C900.821 1646.8 886.96 1650.01 870.119 1652.3C857.821 1653.97 844.655 1655.05 831.49 1655.65C827.651 1655.83 824.041 1655.96 820.721 1656.04L817.651 1656.11L815.196 1656.14L813.925 1656.15C812.391 1656.16 811.816 1654.14 813.12 1653.34L815.684 1651.77L816.752 1651.13C818.975 1649.8 821.46 1648.34 824.169 1646.77L826.307 1645.54C834.182 1641.04 842.427 1636.56 850.727 1632.35C857.146 1629.09 863.372 1626.12 869.328 1623.49ZM869.709 1649.28C906.058 1644.35 926.777 1635.34 924.155 1622.18C922.873 1615.75 917.036 1613.35 906.661 1614.64C897.779 1615.74 886.093 1619.54 872.293 1625.52L870.557 1626.28C864.655 1628.89 858.477 1631.83 852.105 1635.07C843.103 1639.63 834.161 1644.52 825.692 1649.41C824.075 1650.34 822.54 1651.24 821.092 1652.09L819.526 1653.02L821.869 1652.96C824.488 1652.89 827.279 1652.79 830.211 1652.66L831.35 1652.61C844.432 1652.01 857.511 1650.93 869.709 1649.28Z" fill="#21211D"/>
<path fill-rule="evenodd" clip-rule="evenodd" d="M816.862 1652.07L818.597 1651.95C830.842 1651.11 843.388 1650.78 855.113 1651.23C869.772 1651.8 881.763 1653.57 890.206 1656.81C900.689 1660.83 905.59 1667.17 903.356 1675.87C901.31 1683.83 894.862 1687.49 885.042 1687.33C876.966 1687.2 866.649 1684.53 854.58 1679.79C848.597 1677.45 842.305 1674.64 835.82 1671.47C828.758 1668.02 821.836 1664.32 815.341 1660.62C813.573 1659.62 811.935 1658.67 810.444 1657.78L809.203 1657.05C808.822 1656.82 808.47 1656.61 808.146 1656.41L806.951 1655.68C805.72 1654.92 806.149 1653.03 807.59 1652.87L809.039 1652.73L811.303 1652.52C813.014 1652.37 814.874 1652.22 816.862 1652.07ZM856.812 1654.35L854.995 1654.27C843.394 1653.82 830.951 1654.16 818.805 1654.99C816.761 1655.13 814.84 1655.28 813.061 1655.43L812.52 1655.47L813.295 1655.93C814.187 1656.45 815.124 1656.99 816.105 1657.55L816.848 1657.98C823.291 1661.64 830.157 1665.31 837.157 1668.73C843.574 1671.87 849.792 1674.64 855.691 1676.96C881.124 1686.93 897.301 1687.19 900.405 1675.11C902.183 1668.19 898.316 1663.18 889.115 1659.65C881.393 1656.69 870.337 1654.98 856.812 1654.35Z" fill="#21211D"/>
<path d="M1006.08 783.326H598.304V826.37H1006.08V783.326Z" fill="#B6CCFC"/>
<path fill-rule="evenodd" clip-rule="evenodd" d="M1264.64 852.867C1264.64 852.867 1356.93 878.92 1350.42 896.557C1344.64 912.229 1248.36 874.799 1248.36 874.799L1264.64 852.867Z" fill="#963716"/>
<path fill-rule="evenodd" clip-rule="evenodd" d="M1282.37 834.291C1282.37 834.291 1377.11 856.97 1372.85 873.85C1368.56 890.803 1271.89 861.673 1271.89 861.673L1282.37 834.291Z" fill="#963716"/>
<path fill-rule="evenodd" clip-rule="evenodd" d="M1289.08 810.535C1289.08 810.535 1388.59 830.965 1384.94 848.233C1381.4 865.044 1280.08 838.436 1280.08 838.436L1289.08 810.535Z" fill="#963716"/>
<path fill-rule="evenodd" clip-rule="evenodd" d="M1272.44 784.49C1272.44 784.49 1387.07 800.868 1384.18 818.226C1381 837.154 1283.37 815.749 1283.37 815.749L1272.44 784.49Z" fill="#963716"/>
<path fill-rule="evenodd" clip-rule="evenodd" d="M1232.58 782.456C1232.58 782.456 1341.36 743.852 1346.53 762.031C1353.67 787.047 1260.9 808.454 1260.9 808.454L1232.58 782.456Z" fill="#963716"/>
<path fill-rule="evenodd" clip-rule="evenodd" d="M740.387 512.03C753.292 508.251 766.245 504.65 779.185 500.995L818.074 490.296L837.545 485.039L839.98 484.385L840.85 484.154C841.895 483.882 842.945 483.628 844.002 483.392C846.106 482.91 848.243 482.541 850.406 482.262C859.036 481.118 867.908 481.52 876.38 483.428C893.335 487.181 908.793 497.094 919.312 511.056C920.623 512.789 921.843 514.591 923.013 516.419C923.336 516.923 923.52 517.242 923.729 517.594L924.346 518.653L925.544 520.794C925.575 520.85 925.887 521.428 925.687 521.057L925.092 519.984L925.225 520.224L925.513 520.736L926.101 521.781L928.502 526.034L933.379 534.603L943.225 551.782C956.415 574.686 969.859 597.461 983.549 619.911C997.241 642.343 1011.2 664.527 1025.48 685.81C1032.62 696.436 1039.85 706.831 1047.1 716.623C1050.71 721.509 1054.35 726.228 1057.86 730.6C1061.36 734.947 1064.85 738.982 1067.7 741.974C1069.04 743.369 1070.39 744.695 1070.78 745.033C1070.98 745.243 1070.89 745.132 1070.87 745.151C1070.85 745.141 1070.87 745.179 1070.8 745.139C1070.67 745.036 1070.53 744.941 1070.38 744.854C1070.24 744.766 1070.1 744.692 1069.93 744.613C1069.6 744.392 1069.25 744.185 1068.9 743.994L1068.36 743.721L1067.96 743.534C1067.93 743.521 1067.9 743.511 1067.87 743.506C1067.77 743.526 1069.13 744.164 1070.82 744.779C1072.54 745.419 1074.72 746.132 1077.12 746.825C1081.87 748.23 1087.43 749.575 1093.12 750.839C1098.86 752.094 1104.84 753.27 1110.93 754.376C1123.13 756.588 1135.77 758.518 1148.53 760.285C1161.3 762.071 1174.22 763.714 1187.2 765.215C1200.19 766.716 1213.25 768.096 1226.33 769.365L1245.96 771.184L1265.34 772.801L1266.17 772.87C1295.1 775.282 1316.59 800.687 1314.17 829.613C1311.83 857.797 1287.53 878.918 1259.54 877.754L1249 877.3L1238.67 876.8L1218.07 875.664C1204.34 874.85 1190.61 873.915 1176.83 872.844C1149.24 870.682 1121.64 868.032 1093.02 863.805C1085.85 862.734 1078.59 861.552 1071.15 860.172C1063.66 858.755 1056.08 857.209 1047.86 855.094C1043.76 854.05 1039.49 852.85 1034.84 851.339C1030.17 849.798 1025.23 848.06 1019.06 845.179C1016.79 844.221 1010.42 840.728 1007.79 838.851L1005.28 837.163L1003.19 835.638C1001.85 834.636 1000.38 833.544 999.314 832.65C994.472 828.766 990.965 825.427 987.529 822.097C980.899 815.551 975.485 809.489 970.371 803.518C965.279 797.562 960.6 791.709 956.074 785.894C947.055 774.271 938.671 762.767 930.546 751.256C914.325 728.246 899.118 705.226 884.252 682.089C869.407 658.954 854.974 635.733 840.784 612.348C837.237 606.501 833.702 600.644 830.207 594.746L824.959 585.873L822.324 581.389L821.658 580.249L821.318 579.667L821.139 579.359L820.387 578.013C820.137 577.55 820.396 578.036 820.377 578.001C820.563 578.352 820.758 578.698 820.96 579.041L821.662 580.185C822.351 581.325 823.123 582.414 823.926 583.476C830.39 592.068 839.836 598.148 850.224 600.456C855.418 601.63 860.882 601.882 866.182 601.183C867.51 601.002 868.818 600.763 870.107 600.493C870.753 600.352 871.395 600.191 872.029 600.012C872.271 599.944 872.21 599.961 872.138 599.981L871.986 600.023L871.683 600.108L869.254 600.785L849.823 606.186L810.91 616.802C797.915 620.251 784.934 623.755 771.905 627.082C739.983 635.23 707.498 615.959 699.349 584.037C691.38 552.826 709.734 521.046 740.387 512.03Z" fill="#963716"/>
<path fill-rule="evenodd" clip-rule="evenodd" d="M688.565 535.477L605.485 801.275H968.044L882.191 536.009C871.076 502.495 831.123 478.984 785.288 478.984C739.724 478.984 699.936 502.223 688.565 535.477Z" fill="#B6CCFC"/>
<path fill-rule="evenodd" clip-rule="evenodd" d="M552.077 1140.55C551.835 1140.55 551.588 1140.53 551.341 1140.48C549.388 1140.07 548.134 1138.16 548.539 1136.21L570.883 1028.39C575.81 1007.13 564.797 985.702 544.715 977.367C524.549 968.997 500.891 976.814 489.684 995.552L436.801 1090.08C435.828 1091.82 433.63 1092.44 431.89 1091.47C430.149 1090.49 429.528 1088.29 430.501 1086.55L483.436 991.938C496.521 970.055 524.032 960.965 547.482 970.699C570.836 980.392 583.643 1005.31 577.934 1029.94L555.608 1137.67C555.255 1139.38 553.753 1140.55 552.077 1140.55Z" fill="#21211D"/>
<path fill-rule="evenodd" clip-rule="evenodd" d="M559.918 1452.04L268.306 1307.48L446.067 1050L659.607 1152.88L565.161 1405.78C563.097 1411.31 561.878 1417.12 561.547 1423.01L559.918 1452.04Z" fill="#21211D"/>
<path fill-rule="evenodd" clip-rule="evenodd" d="M490.347 1418.23L212.44 1279.62L234.326 1261.4C236.415 1259.67 238.222 1257.62 239.683 1255.33L390.201 1019.39L597.134 1122.61L493.732 1372.68C490.422 1380.69 488.927 1389.32 489.352 1397.98L490.347 1418.23Z" fill="#EDC829"/>
<mask id="mask9_710_605" style="mask-type:alpha" maskUnits="userSpaceOnUse" x="212" y="1019" width="386" height="400">
<path fill-rule="evenodd" clip-rule="evenodd" d="M390.202 1019.39L597.135 1122.61L493.733 1372.68C490.423 1380.69 488.927 1389.32 489.353 1397.98L490.348 1418.23L212.44 1279.62L234.326 1261.4C236.415 1259.67 238.223 1257.62 239.684 1255.33L390.202 1019.39Z" fill="white"/>
</mask>
<g mask="url(#mask9_710_605)">
<path fill-rule="evenodd" clip-rule="evenodd" d="M125.959 1198.43L413.147 1003.43L513.842 1065.66L178.469 1334.59L125.959 1198.43Z" fill="#F4DA6D"/>
</g>
<mask id="mask10_710_605" style="mask-type:alpha" maskUnits="userSpaceOnUse" x="212" y="1019" width="386" height="400">
<path fill-rule="evenodd" clip-rule="evenodd" d="M390.202 1019.39L597.135 1122.61L493.733 1372.68C490.423 1380.69 488.927 1389.32 489.353 1397.98L490.348 1418.23L212.44 1279.62L234.326 1261.4C236.415 1259.67 238.223 1257.62 239.684 1255.33L390.202 1019.39Z" fill="white"/>
</mask>
<g mask="url(#mask10_710_605)">
<path fill-rule="evenodd" clip-rule="evenodd" d="M353.437 1411.09L613.958 1230.47L608.023 1379.29L508.599 1484.32L353.437 1411.09Z" fill="#F4DA6D"/>
</g>
<path fill-rule="evenodd" clip-rule="evenodd" d="M528.507 1436.98C527.694 1436.98 527.019 1436.33 526.987 1435.51L525.989 1410.91C525.739 1404.76 526.736 1398.72 528.951 1392.98L627.347 1137.77C627.65 1136.98 628.532 1136.59 629.315 1136.89C630.1 1137.2 630.491 1138.08 630.189 1138.86L531.793 1394.08C529.729 1399.44 528.8 1405.06 529.032 1410.79L530.029 1435.39C530.063 1436.23 529.409 1436.94 528.57 1436.98C528.549 1436.98 528.528 1436.98 528.507 1436.98Z" fill="white"/>
<path fill-rule="evenodd" clip-rule="evenodd" d="M535.677 1132.81C535.3 1132.81 534.92 1132.75 534.544 1132.63C532.651 1132 531.623 1129.96 532.249 1128.07L566.824 1023.38C573.67 1002.65 564.115 979.638 544.594 969.856C525.155 960.116 501.745 965.793 488.929 983.359L424.382 1073.51C423.222 1075.13 420.968 1075.5 419.346 1074.34C417.725 1073.18 417.352 1070.93 418.512 1069.31L483.079 979.131C497.999 958.677 525.223 952.074 547.83 963.402C570.529 974.778 581.641 1001.54 573.678 1025.65L539.103 1130.33C538.602 1131.85 537.191 1132.81 535.677 1132.81Z" fill="#21211D"/>
<mask id="mask11_710_605" style="mask-type:alpha" maskUnits="userSpaceOnUse" x="485" y="461" width="396" height="564">
<path fill-rule="evenodd" clip-rule="evenodd" d="M485.159 461.633H880.133V1024.02H485.159V461.633Z" fill="white"/>
</mask>
<g mask="url(#mask11_710_605)">
<path fill-rule="evenodd" clip-rule="evenodd" d="M811.486 597.968C801.287 596.415 791.112 594.721 780.927 593.082C770.738 591.468 760.582 589.663 750.408 587.962C740.241 586.22 730.061 584.553 719.904 582.748L712.284 581.412L710.379 581.078L709.903 580.994C709.459 580.915 710.256 581.062 710.712 581.13C711.712 581.285 712.721 581.396 713.729 581.462C717.802 581.809 721.964 581.565 726.006 580.775C730.049 580.012 733.959 578.681 737.601 576.859C741.256 575.067 744.654 572.774 747.687 570.045C753.787 564.648 758.459 557.353 760.809 549.659L754.161 563.901C754.221 563.784 753.488 564.949 753.061 565.642L751.504 568.195L748.25 573.732C746.064 577.503 743.873 581.438 741.672 585.382C737.284 593.31 732.984 601.498 728.758 609.766C720.311 626.329 712.181 643.314 704.374 660.548C688.721 695.014 674.347 730.432 660.687 766.24C647.003 802.047 634.334 838.406 622.329 875.052C610.251 911.681 598.906 948.645 588.262 985.872L588.254 985.897C580.273 1013.81 551.176 1029.97 523.263 1021.99C496.03 1014.2 480.014 986.208 486.659 958.932C496.184 920.072 506.435 881.325 517.576 842.742C528.841 804.193 540.846 765.779 554.039 727.601C560.55 708.489 567.551 689.493 574.733 670.523C581.939 651.559 589.463 632.658 597.407 613.824C605.336 594.983 613.691 576.218 622.621 557.467C627.1 548.087 631.698 538.72 636.583 529.292C639.035 524.566 641.537 519.852 644.194 515.057C645.503 512.673 646.878 510.236 648.275 507.786L650.481 503.993C651.324 502.578 651.864 501.638 653.237 499.441L646.588 513.682C648.584 507.391 651.409 501.285 655.035 495.648C658.676 490.03 663.052 484.904 668.018 480.459C673.001 476.042 678.548 472.299 684.502 469.335C690.47 466.394 696.84 464.248 703.41 462.964C709.99 461.7 716.742 461.348 723.389 461.858C725.037 462.003 726.686 462.193 728.327 462.427L730.569 462.776L732.478 463.092L740.11 464.359C750.29 466.026 760.446 467.829 770.616 469.557C780.778 471.328 790.958 472.993 801.105 474.851C811.258 476.683 821.419 478.46 831.556 480.378C863.928 486.502 885.206 517.71 879.082 550.082C873.099 581.712 843.053 602.733 811.486 597.968Z" fill="#963716"/>
</g>
<path fill-rule="evenodd" clip-rule="evenodd" d="M556.503 905.651L491.497 1027.24C487.511 1034.7 478.236 1037.51 470.781 1033.53C464.137 1029.97 461.184 1022.22 463.441 1015.29L506.07 884.171C510.768 869.719 526.292 861.811 540.745 866.51C555.197 871.208 563.103 886.733 558.405 901.185C557.911 902.704 557.222 904.284 556.503 905.651Z" fill="#963716"/>
<path fill-rule="evenodd" clip-rule="evenodd" d="M564.297 948.97L511.527 1039.98C507.395 1047.1 498.266 1049.53 491.138 1045.4C485.005 1041.84 482.356 1034.58 484.369 1028.08L515.479 927.588C519.86 913.439 534.879 905.52 549.028 909.9C563.177 914.28 571.095 929.3 566.716 943.448C566.121 945.369 565.254 947.295 564.297 948.97Z" fill="#963716"/>
<path fill-rule="evenodd" clip-rule="evenodd" d="M583.217 957.864L536.006 1050.95C532.386 1058.09 523.668 1060.94 516.53 1057.32C510.368 1054.19 507.406 1047.26 509.042 1040.83L534.747 939.67C538.29 925.729 552.463 917.299 566.404 920.841C580.345 924.385 588.774 938.557 585.231 952.498C584.761 954.348 584.037 956.223 583.217 957.864Z" fill="#963716"/>
<path fill-rule="evenodd" clip-rule="evenodd" d="M596.038 969.528L556.026 1057.9C553.017 1064.55 545.191 1067.5 538.547 1064.49C532.79 1061.88 529.814 1055.65 531.073 1049.72L551.186 954.813C553.904 941.987 566.506 933.792 579.333 936.511C592.16 939.23 600.355 951.831 597.636 964.658C597.283 966.327 596.705 968.03 596.038 969.528Z" fill="#963716"/>
<path fill-rule="evenodd" clip-rule="evenodd" d="M596.4 928.223C596.4 928.223 622.493 1039.82 596.488 1044C575.647 1047.35 565.831 951.537 565.831 951.537L596.4 928.223Z" fill="#963716"/>
<path fill-rule="evenodd" clip-rule="evenodd" d="M1348.58 826.637C1348.46 826.637 1348.34 826.623 1348.21 826.592L1309.31 816.931C1308.5 816.728 1308 815.901 1308.2 815.086C1308.4 814.269 1309.22 813.773 1310.04 813.975L1348.95 823.637C1349.76 823.839 1350.26 824.665 1350.06 825.481C1349.89 826.174 1349.26 826.637 1348.58 826.637Z" fill="#21211D"/>
<path fill-rule="evenodd" clip-rule="evenodd" d="M1341.07 853.138C1340.93 853.138 1340.77 853.116 1340.62 853.071L1301.5 841.136C1300.69 840.891 1300.24 840.04 1300.49 839.236C1300.73 838.431 1301.58 837.977 1302.38 838.223L1341.52 850.158C1342.32 850.403 1342.77 851.254 1342.52 852.059C1342.32 852.715 1341.72 853.138 1341.07 853.138Z" fill="#21211D"/>
<path fill-rule="evenodd" clip-rule="evenodd" d="M1328.01 877.308C1327.86 877.308 1327.69 877.283 1327.53 877.228L1294.89 866.301C1294.1 866.034 1293.67 865.172 1293.93 864.374C1294.2 863.577 1295.06 863.145 1295.87 863.414L1328.5 874.341C1329.29 874.607 1329.72 875.47 1329.45 876.268C1329.25 876.906 1328.65 877.308 1328.01 877.308Z" fill="#21211D"/>
<path fill-rule="evenodd" clip-rule="evenodd" d="M1272.1 856.728C1271.82 856.728 1271.53 856.649 1271.28 856.483C1270.56 856.026 1270.37 855.083 1270.82 854.378C1284.18 833.76 1275.85 805.966 1275.77 805.687C1275.64 805.255 1275.71 804.784 1275.95 804.405C1276.2 804.026 1276.6 803.777 1277.05 803.726C1295.8 801.613 1312.9 790.464 1313.07 790.352C1313.78 789.888 1314.72 790.082 1315.18 790.784C1315.65 791.485 1315.45 792.43 1314.75 792.893C1314.05 793.354 1297.91 803.886 1279.16 806.528C1280.86 813.154 1285.7 837.019 1273.38 856.032C1273.09 856.483 1272.6 856.728 1272.1 856.728Z" fill="#21211D"/>
<path fill-rule="evenodd" clip-rule="evenodd" d="M820.376 578.001L821.202 579.436L820.96 579.041C820.757 578.699 820.563 578.352 820.376 578.001ZM872.028 600.012C872.017 600.016 872.006 600.018 871.993 600.021L872.137 599.982C872.211 599.96 872.27 599.944 872.028 600.012ZM884.257 682.089C891.895 693.967 899.628 705.815 907.536 717.648C935.355 707.988 983.146 692.85 1025.93 686.448C1025.78 686.229 1025.63 686.015 1025.49 685.795C1011.21 664.495 997.251 642.332 983.553 619.908C969.857 597.465 956.424 574.677 943.229 551.781L933.38 534.603L928.505 526.038L926.105 521.789L925.544 520.795L924.347 518.654L923.729 517.594C923.521 517.242 923.336 516.925 923.012 516.421C921.843 514.591 920.622 512.79 919.313 511.057C908.793 497.095 893.335 487.182 876.38 483.428C867.908 481.52 831.464 477.615 822.835 478.759C820.672 479.036 846.106 482.91 844.001 483.393C842.947 483.628 841.896 483.882 840.85 484.154L839.979 484.385L837.545 485.04L818.075 490.297L779.184 500.995C766.245 504.651 753.291 508.252 740.386 512.03C709.733 521.047 691.381 552.826 699.348 584.037C707.497 615.959 739.982 635.231 771.905 627.082C784.933 623.755 797.914 620.252 810.91 616.803L838.878 609.172C839.517 610.227 840.147 611.293 840.787 612.348C854.988 635.73 869.404 658.956 884.257 682.089Z" fill="#B6CCFC"/>
<path fill-rule="evenodd" clip-rule="evenodd" d="M755.637 560.737L760.807 549.659C759.631 553.515 757.868 557.27 755.637 560.737ZM709.902 580.994L710.316 581.066C709.927 581 709.573 580.935 709.902 580.994ZM831.555 480.377C821.418 478.46 811.257 476.682 801.105 474.851C790.958 472.993 780.777 471.328 770.616 469.558C760.446 467.829 750.289 466.026 740.109 464.358L732.477 463.093L730.569 462.776L728.327 462.427C726.685 462.193 725.036 462.002 723.388 461.857C716.742 461.348 709.99 461.701 703.409 462.964C696.839 464.247 690.469 466.394 684.5 469.335C678.547 472.299 673 476.041 668.017 480.46C663.051 484.904 658.674 490.029 655.034 495.648C653.178 498.532 651.541 501.541 650.108 504.632L648.274 507.787C646.877 510.236 645.503 512.672 644.193 515.057C641.537 519.852 639.035 524.566 636.583 529.292C631.696 538.719 627.099 548.087 622.62 557.467C613.69 576.218 605.335 594.983 597.406 613.823C589.462 632.658 581.938 651.559 574.732 670.523C574.397 671.408 574.068 672.293 573.734 673.178C630.672 680.626 667.221 691.07 687.79 698.481C693.168 685.73 698.683 673.074 704.373 660.548C712.18 643.314 720.31 626.329 728.757 609.766C732.805 601.846 736.924 594.005 741.121 586.39C744.216 586.912 747.312 587.432 750.407 587.963C760.581 589.662 770.738 591.468 780.927 593.082C791.111 594.721 801.286 596.415 811.485 597.968C843.052 602.733 873.098 581.712 879.081 550.082C885.205 517.71 863.927 486.502 831.555 480.377Z" fill="#B6CCFC"/>
<path fill-rule="evenodd" clip-rule="evenodd" d="M484.067 1035.55C483.858 1035.55 483.647 1035.51 483.445 1035.42C482.678 1035.08 482.335 1034.17 482.678 1033.41L491.706 1013.26C492.049 1012.49 492.949 1012.15 493.718 1012.49C494.485 1012.84 494.829 1013.74 494.484 1014.51L485.458 1034.65C485.204 1035.22 484.649 1035.55 484.067 1035.55Z" fill="#21211D"/>
<path fill-rule="evenodd" clip-rule="evenodd" d="M508.708 1044.86C508.496 1044.86 508.282 1044.82 508.077 1044.72C507.312 1044.37 506.974 1043.47 507.323 1042.7L515.894 1023.93C516.244 1023.16 517.146 1022.83 517.911 1023.17C518.677 1023.52 519.014 1024.43 518.665 1025.19L510.094 1043.97C509.838 1044.53 509.285 1044.86 508.708 1044.86Z" fill="#21211D"/>
<path fill-rule="evenodd" clip-rule="evenodd" d="M531.283 1057.49C531.074 1057.49 530.864 1057.44 530.661 1057.35C529.894 1057.01 529.551 1056.11 529.894 1055.34L538.922 1035.19C539.266 1034.43 540.166 1034.08 540.935 1034.43C541.702 1034.77 542.045 1035.67 541.7 1036.44L532.674 1056.59C532.42 1057.15 531.865 1057.49 531.283 1057.49Z" fill="#21211D"/>
<path fill-rule="evenodd" clip-rule="evenodd" d="M576.823 1016.78C576.654 1016.78 576.483 1016.75 576.314 1016.69C575.522 1016.41 575.107 1015.54 575.388 1014.75L583.761 991.103C584.043 990.31 584.913 989.894 585.704 990.176C586.497 990.456 586.913 991.327 586.632 992.119L578.258 1015.76C578.037 1016.39 577.449 1016.78 576.823 1016.78Z" fill="#21211D"/>
<path fill-rule="evenodd" clip-rule="evenodd" d="M687.79 700.004C687.603 700.004 687.413 699.968 687.228 699.896C686.447 699.584 686.065 698.7 686.375 697.918L734.698 576.392C735.009 575.611 735.894 575.229 736.676 575.54C737.458 575.85 737.839 576.736 737.528 577.518L689.206 699.043C688.968 699.64 688.396 700.004 687.79 700.004Z" fill="#21211D"/>
<path fill-rule="evenodd" clip-rule="evenodd" d="M937.765 707.712L893.96 579.733C893.742 579.097 894.653 578.72 894.948 579.324L958.093 701.618L937.765 707.712Z" fill="#21211D"/>
<path fill-rule="evenodd" clip-rule="evenodd" d="M700.065 669.133C699.859 669.133 699.65 669.091 699.449 669.001C663.431 653.015 587.964 641.951 587.207 641.841C586.374 641.72 585.798 640.947 585.918 640.116C586.038 639.283 586.809 638.705 587.643 638.827C588.405 638.938 664.284 650.061 700.684 666.218C701.453 666.559 701.8 667.458 701.458 668.228C701.206 668.795 700.65 669.133 700.065 669.133Z" fill="#21211D"/>
<path fill-rule="evenodd" clip-rule="evenodd" d="M936.577 669.497C935.906 669.497 935.291 669.049 935.107 668.371C934.889 667.559 935.369 666.723 936.18 666.504L1000.88 649.035C1001.69 648.817 1002.53 649.296 1002.75 650.108C1002.97 650.92 1002.49 651.756 1001.67 651.975L936.975 669.444C936.842 669.48 936.708 669.497 936.577 669.497Z" fill="#21211D"/>
<path fill-rule="evenodd" clip-rule="evenodd" d="M742.373 464.902C742.373 464.902 742.373 560.736 825.981 566.246C909.59 571.755 860.807 481.134 860.807 481.134L742.373 464.902Z" fill="#963716"/>
<path fill-rule="evenodd" clip-rule="evenodd" d="M880.179 437.57C870.314 447.849 856.832 449.543 842.584 446.686C806.217 439.397 764.686 402.482 764.686 402.482C756.45 396.023 747.681 387.172 742.152 377.408L741.869 376.892C740.408 374.286 739.196 371.596 738.282 368.888C737.852 367.594 737.486 366.281 737.204 364.969C737.171 364.837 737.153 364.72 737.12 364.604C737.037 364.239 736.956 363.89 736.889 363.575C735.277 356.9 734.032 356.7 732.023 344.013C729.05 325.248 736.889 308.642 753.694 299.576C776.327 287.354 805.652 284.216 829.831 294.527C829.897 294.561 829.963 294.577 830.03 294.611C832.853 295.823 835.559 297.252 838.134 298.862C841.338 300.838 844.343 303.08 847.166 305.57C865.018 321.114 875.928 345.491 884.147 366.729C892.8 389.064 898.611 418.357 880.179 437.57Z" fill="#963716"/>
<path fill-rule="evenodd" clip-rule="evenodd" d="M831.234 364.766L845.961 490.031C848.869 514.77 831.172 537.183 806.433 540.091C781.696 543 759.283 525.302 756.374 500.563C756.07 497.975 756.012 495.164 756.144 492.646L763.56 366.736C764.663 347.999 780.745 333.706 799.482 334.81C816.188 335.793 829.36 348.7 831.234 364.766Z" fill="#963716"/>
<path fill-rule="evenodd" clip-rule="evenodd" d="M840.744 446.292C840.744 446.292 831.821 444.89 817.554 437.559C815.81 436.662 814.087 438.785 815.342 440.292L843.246 467.075L840.744 446.292Z" fill="#21211D"/>
<path fill-rule="evenodd" clip-rule="evenodd" d="M761.122 407.032C761.122 407.032 764.555 404.986 767.028 401.361C767.404 400.809 768.258 400.967 768.387 401.623C769.267 406.099 770.056 417.946 759.933 427.699L761.122 407.032Z" fill="#21211D"/>
<path fill-rule="evenodd" clip-rule="evenodd" d="M829.104 294.223L830.029 294.61C832.852 295.823 835.559 297.25 838.133 298.861C841.337 300.838 844.343 303.079 847.166 305.57C839.561 314.587 828.086 319.984 816.428 322.408C805.57 324.665 794.405 324.627 783.28 324.381L777.106 324.235C775.923 324.205 774.701 324.192 773.481 324.243L773.115 324.318C770.011 324.998 767.658 326.7 772.151 336.138L772.515 336.89C780.117 352.309 785.199 366.533 787.764 379.564C788.093 380.504 788.259 381.477 788.259 382.435C788.259 385.847 786.181 389.08 782.8 390.383C778.786 391.93 774.266 390.246 772.233 386.501L772.098 386.243L767.909 378.279C767.796 377.956 767.672 377.639 767.538 377.328C765.219 378.991 762.023 379.604 759.134 379.103L758.774 379.034C754.373 378.104 745.156 379.98 741.869 376.892C738.597 373.819 734.031 356.699 732.023 344.013C729.05 325.248 736.889 308.642 753.693 299.576C776.1 287.476 805.066 284.28 829.104 294.223Z" fill="#792709"/>
<path fill-rule="evenodd" clip-rule="evenodd" d="M749.749 403.897C749.749 407.319 746.975 410.093 743.554 410.093C740.133 410.093 737.359 407.319 737.359 403.897C737.359 400.475 740.133 397.701 743.554 397.701C746.975 397.701 749.749 400.475 749.749 403.897Z" fill="white"/>
<path fill-rule="evenodd" clip-rule="evenodd" d="M772.497 391.008C771.694 404.847 759.825 415.415 745.987 414.613C732.147 413.81 721.579 401.941 722.382 388.103C723.184 374.263 735.053 363.695 748.892 364.498C762.731 365.3 773.299 377.17 772.497 391.008Z" fill="#963716"/>
<path fill-rule="evenodd" clip-rule="evenodd" d="M756.423 392.674C756.214 392.674 756.003 392.633 755.8 392.548L736.091 384.292C735.268 383.947 734.88 383.001 735.226 382.178C735.569 381.357 736.516 380.968 737.338 381.314L757.048 389.57C757.87 389.914 758.258 390.86 757.912 391.683C757.654 392.301 757.055 392.674 756.423 392.674Z" fill="#21211D"/>
<path fill-rule="evenodd" clip-rule="evenodd" d="M744.172 396.135C743.981 396.135 743.785 396.101 743.596 396.029C742.763 395.71 742.346 394.777 742.663 393.943L745.494 386.535C745.812 385.701 746.748 385.285 747.579 385.603C748.412 385.921 748.829 386.855 748.512 387.687L745.681 395.096C745.434 395.74 744.821 396.135 744.172 396.135Z" fill="#21211D"/>
<path fill-rule="evenodd" clip-rule="evenodd" d="M897.21 368.061C897.21 368.061 888.785 378.476 875.085 377.988C869.279 377.772 862.521 375.624 855.088 369.855C855.088 369.855 862.328 361.548 874.379 360.745C880.766 360.298 888.487 361.94 897.21 368.061Z" fill="white"/>
<path fill-rule="evenodd" clip-rule="evenodd" d="M897.21 368.061C897.21 368.061 888.785 378.476 875.085 377.988C873.16 375.664 871.992 372.757 871.854 369.518C871.716 366.277 872.658 363.223 874.379 360.745C880.765 360.298 888.487 361.94 897.21 368.061Z" fill="#21211D"/>
<path d="M843.677 361.913C844.53 361.678 845.41 362.137 845.718 362.948L845.769 363.104L852.835 388.845C854.106 393.472 850.701 398.037 845.951 398.186L845.69 398.19L839.808 398.173C838.868 398.17 838.108 397.406 838.11 396.465C838.113 395.577 838.795 394.85 839.663 394.774L839.818 394.768L845.7 394.785C848.262 394.792 850.145 392.42 849.602 389.952L849.552 389.746L842.486 364.005C842.237 363.098 842.77 362.162 843.677 361.913Z" fill="#21211D"/>
<path d="M860.808 347.649C870.916 343.689 882.275 343.713 893.73 350.372C894.543 350.845 894.819 351.887 894.347 352.7C893.873 353.513 892.831 353.788 892.019 353.316C881.554 347.232 871.262 347.21 862.05 350.819C860.719 351.341 859.535 351.899 858.515 352.454L857.983 352.751C857.673 352.93 857.452 353.068 857.327 353.153C856.548 353.679 855.49 353.474 854.963 352.695C854.437 351.916 854.641 350.858 855.42 350.331L855.636 350.191C855.925 350.007 856.345 349.758 856.887 349.463C858.028 348.842 859.34 348.224 860.808 347.649Z" fill="#21211D"/>
<path fill-rule="evenodd" clip-rule="evenodd" d="M837.938 368.061C837.938 368.061 829.513 378.476 815.813 377.988C810.006 377.772 803.248 375.624 795.815 369.855C795.815 369.855 803.055 361.548 815.107 360.745C821.493 360.298 829.215 361.94 837.938 368.061Z" fill="white"/>
<path fill-rule="evenodd" clip-rule="evenodd" d="M837.938 368.061C837.938 368.061 829.512 378.476 815.812 377.988C813.888 375.664 812.72 372.757 812.582 369.518C812.444 366.277 813.386 363.223 815.107 360.745C821.493 360.298 829.215 361.94 837.938 368.061Z" fill="#21211D"/>
<path d="M796.244 350.372C807.698 343.713 819.058 343.689 829.166 347.649C830.635 348.224 831.947 348.842 833.087 349.463L833.522 349.704C833.993 349.971 834.34 350.187 834.554 350.331C835.333 350.858 835.538 351.916 835.012 352.695C834.485 353.474 833.427 353.679 832.648 353.153L832.389 352.987C832.17 352.852 831.858 352.671 831.459 352.454C830.44 351.899 829.256 351.341 827.924 350.819C818.712 347.21 808.42 347.232 797.956 353.316C797.143 353.788 796.101 353.513 795.628 352.7C795.156 351.887 795.432 350.845 796.244 350.372Z" fill="#21211D"/>
<path d="M829.136 401.679C829.971 401.385 830.881 401.78 831.246 402.567L831.366 402.866C831.43 403.017 831.535 403.24 831.683 403.515C832.04 404.177 832.498 404.842 833.06 405.46C834.915 407.495 837.429 408.55 840.863 408.14C841.797 408.029 842.644 408.696 842.755 409.63C842.867 410.563 842.2 411.41 841.266 411.521C836.685 412.067 833.108 410.566 830.544 407.753C829.234 406.317 828.459 404.879 828.097 403.851C827.784 402.964 828.25 401.992 829.136 401.679Z" fill="#21211D"/>
<path opacity="0.01" d="M817.194 397.312C822.742 393.305 829.345 392.621 836.631 395.17C844.137 397.796 849.271 400.086 851.882 408.521C852.437 410.314 851.433 412.217 849.64 412.772C847.848 413.327 845.944 412.323 845.389 410.53C843.393 404.08 839.775 403.47 834.387 401.585C829.108 399.739 824.829 400.181 821.175 402.822C819.653 403.921 817.529 403.578 816.431 402.057C815.331 400.536 815.673 398.412 817.194 397.312Z" fill="#792709"/>
<path fill-rule="evenodd" clip-rule="evenodd" d="M878.597 340.599C875.046 340.599 871.507 341.372 868.191 342.913C862.195 345.697 857.644 350.649 855.373 356.857C850.685 369.671 857.297 383.909 870.112 388.597C882.925 393.285 897.165 386.672 901.852 373.858C904.123 367.649 903.84 360.93 901.057 354.934C898.273 348.94 893.32 344.388 887.113 342.118C884.34 341.104 881.465 340.599 878.597 340.599ZM878.582 394.178C875.302 394.178 871.967 393.613 868.712 392.424C853.788 386.963 846.087 370.381 851.546 355.457C854.192 348.226 859.493 342.46 866.475 339.218C873.457 335.975 881.283 335.646 888.513 338.291C895.742 340.935 901.51 346.236 904.752 353.218C907.994 360.2 908.323 368.027 905.678 375.258C901.41 386.926 890.342 394.178 878.582 394.178Z" fill="#E73417"/>
<path fill-rule="evenodd" clip-rule="evenodd" d="M815.999 340.7C812.448 340.7 808.909 341.475 805.592 343.015C799.597 345.799 795.045 350.751 792.774 356.959C788.087 369.773 794.698 384.011 807.513 388.698C820.327 393.385 834.566 386.775 839.253 373.959C843.94 361.146 837.328 346.906 824.514 342.22C821.742 341.205 818.866 340.7 815.999 340.7ZM815.984 394.28C812.703 394.28 809.368 393.716 806.113 392.526C791.189 387.066 783.489 370.483 788.947 355.558C791.592 348.329 796.894 342.562 803.876 339.319C810.858 336.076 818.685 335.748 825.914 338.393C840.837 343.853 848.539 360.436 843.079 375.36C838.811 387.027 827.743 394.28 815.984 394.28Z" fill="#E73417"/>
<path fill-rule="evenodd" clip-rule="evenodd" d="M790.766 359.385C790.678 359.41 790.588 359.429 790.495 359.441L743.13 365.815C742.095 365.954 741.145 365.228 741.005 364.194C740.866 363.16 741.594 362.214 742.626 362.067L789.991 355.695C791.025 355.555 791.976 356.282 792.116 357.316C792.242 358.257 791.652 359.131 790.766 359.385Z" fill="#E73417"/>
<path fill-rule="evenodd" clip-rule="evenodd" d="M843.118 363.303C842.526 363.303 841.94 363.046 841.536 362.552C840.826 361.679 840.958 360.397 841.83 359.687C846.627 355.781 851.515 357.216 853.429 358.52C854.359 359.154 854.598 360.422 853.965 361.351C853.335 362.275 852.08 362.517 851.151 361.899C850.813 361.684 847.919 359.982 844.403 362.846C844.025 363.153 843.57 363.303 843.118 363.303Z" fill="#E73417"/>
</svg>
