<svg width="2618" height="1590" viewBox="0 0 2618 1590" fill="none" xmlns="http://www.w3.org/2000/svg">
<path fill-rule="evenodd" clip-rule="evenodd" d="M2054.93 1106.83H1337.02C1289.01 1106.83 1256.94 1067.9 1265.41 1019.89L1325.87 677.02C1334.33 629.003 1380.12 590.074 1428.14 590.074H2146.03C2194.05 590.074 2226.11 629.003 2217.64 677.02L2157.19 1019.89C2148.72 1067.9 2102.93 1106.83 2054.93 1106.83Z" fill="#FFC300"/>
<path fill-rule="evenodd" clip-rule="evenodd" d="M1544.27 740.109C1544.27 779.65 1512.21 811.709 1472.67 811.709C1433.13 811.709 1401.08 779.65 1401.08 740.109C1401.08 700.568 1433.13 668.51 1472.67 668.51C1512.21 668.51 1544.27 700.568 1544.27 740.109Z" fill="#ED7AD8"/>
<path fill-rule="evenodd" clip-rule="evenodd" d="M2039.01 935.978H1401.08C1392.67 935.978 1385.86 929.173 1385.86 920.763C1385.86 912.352 1392.67 905.547 1401.08 905.547H2039.01C2047.42 905.547 2054.23 912.352 2054.23 920.763C2054.23 929.173 2047.42 935.978 2039.01 935.978Z" fill="#ED7AD8"/>
<path fill-rule="evenodd" clip-rule="evenodd" d="M1556.98 1008.79H1388.36C1379.96 1008.79 1373.14 1001.97 1373.14 993.574C1373.14 985.163 1379.96 978.348 1388.36 978.348H1556.98C1565.39 978.348 1572.2 985.163 1572.2 993.574C1572.2 1001.97 1565.39 1008.79 1556.98 1008.79Z" fill="#ED7AD8"/>
<path fill-rule="evenodd" clip-rule="evenodd" d="M1825.84 1008.79H1657.22C1648.81 1008.79 1642 1001.97 1642 993.574C1642 985.163 1648.81 978.348 1657.22 978.348H1825.84C1834.25 978.348 1841.06 985.163 1841.06 993.574C1841.06 1001.97 1834.25 1008.79 1825.84 1008.79Z" fill="#ED7AD8"/>
<path fill-rule="evenodd" clip-rule="evenodd" d="M2032.68 797.936H1909.01C1892.34 797.936 1881.22 784.425 1884.16 767.767L1895.05 705.987C1897.99 689.33 1913.88 675.818 1930.54 675.818H2054.21C2070.86 675.818 2081.99 689.33 2079.06 705.987L2068.16 767.767C2065.23 784.425 2049.33 797.936 2032.68 797.936Z" fill="#EDC829"/>
<mask id="mask0_708_560" style="mask-type:alpha" maskUnits="userSpaceOnUse" x="1883" y="675" width="197" height="123">
<path fill-rule="evenodd" clip-rule="evenodd" d="M1930.54 675.818C1913.88 675.818 1897.99 689.33 1895.05 705.987L1884.16 767.767C1881.22 784.425 1892.34 797.936 1909.01 797.936H2032.68C2049.33 797.936 2065.23 784.425 2068.16 767.767L2079.06 705.987C2081.99 689.33 2070.86 675.818 2054.21 675.818H1930.54Z" fill="white"/>
</mask>
<g mask="url(#mask0_708_560)">
<path fill-rule="evenodd" clip-rule="evenodd" d="M1892.28 725.944C1889.91 725.944 1887.97 724.043 1887.94 721.662C1887.9 719.259 1889.82 717.282 1892.22 717.249C1914.12 716.921 1936.03 716.605 1957.96 716.255C1962.64 716.19 1967.44 715.917 1970.62 713.208C1973.45 710.805 1974.72 706.719 1975.88 702.383C1978.33 693.153 1980.84 683.902 1983.33 674.672C1983.96 672.356 1986.35 670.98 1988.67 671.613C1990.98 672.236 1992.35 674.628 1991.73 676.944C1989.24 686.163 1986.73 695.403 1984.28 704.622C1983.13 708.948 1981.39 715.469 1976.26 719.827C1970.87 724.414 1964.06 724.873 1958.09 724.95C1936.16 725.299 1914.25 725.627 1892.35 725.944H1892.28Z" fill="white"/>
</g>
<mask id="mask1_708_560" style="mask-type:alpha" maskUnits="userSpaceOnUse" x="1883" y="675" width="197" height="123">
<path fill-rule="evenodd" clip-rule="evenodd" d="M1930.54 675.818C1913.88 675.818 1897.99 689.33 1895.05 705.987L1884.16 767.767C1881.22 784.425 1892.34 797.936 1909.01 797.936H2032.68C2049.33 797.936 2065.23 784.425 2068.16 767.767L2079.06 705.987C2081.99 689.33 2070.86 675.818 2054.21 675.818" fill="white"/>
</mask>
<g mask="url(#mask1_708_560)">
<path fill-rule="evenodd" clip-rule="evenodd" d="M1982.29 802.295C1982.06 802.295 1981.82 802.274 1981.59 802.23C1979.22 801.848 1977.6 799.619 1978 797.249C1979.54 787.702 1981.42 778.341 1983.56 769.396C1985.34 761.892 1987.9 754.3 1994.52 749.68C2000.28 745.627 2007.27 745.453 2011.89 745.333C2021.67 745.059 2031.46 744.786 2041.26 744.513C2051.34 744.229 2061.44 743.934 2071.52 743.661C2073.94 743.607 2075.92 745.485 2075.99 747.888C2076.05 750.292 2074.16 752.29 2071.76 752.356C2061.68 752.629 2051.58 752.913 2041.5 753.208C2031.7 753.481 2021.91 753.754 2012.12 754.027C2007.19 754.147 2002.86 754.453 1999.51 756.802C1995.27 759.762 1993.4 765.573 1992.01 771.405C1989.92 780.155 1988.09 789.308 1986.58 798.636C1986.23 800.777 1984.39 802.295 1982.29 802.295Z" fill="white"/>
</g>
<mask id="mask2_708_560" style="mask-type:alpha" maskUnits="userSpaceOnUse" x="1883" y="675" width="197" height="123">
<path fill-rule="evenodd" clip-rule="evenodd" d="M1930.54 675.818C1913.88 675.818 1897.99 689.33 1895.05 705.987L1884.16 767.767C1881.22 784.425 1892.34 797.936 1909.01 797.936H2032.68C2049.33 797.936 2065.23 784.425 2068.16 767.767L2079.06 705.987C2081.99 689.33 2070.86 675.818 2054.21 675.818" fill="white"/>
</mask>
<g mask="url(#mask2_708_560)">
<path fill-rule="evenodd" clip-rule="evenodd" d="M2078.22 715.054H2013.92C2011.53 715.054 2009.57 713.11 2009.57 710.707C2009.57 708.304 2011.53 706.359 2013.92 706.359H2078.22C2080.63 706.359 2082.57 708.304 2082.57 710.707C2082.57 713.11 2080.63 715.054 2078.22 715.054Z" fill="white"/>
</g>
<mask id="mask3_708_560" style="mask-type:alpha" maskUnits="userSpaceOnUse" x="1883" y="675" width="197" height="123">
<path fill-rule="evenodd" clip-rule="evenodd" d="M1930.54 675.818C1913.88 675.818 1897.99 689.33 1895.05 705.987L1884.16 767.767C1881.22 784.425 1892.34 797.936 1909.01 797.936H2032.68C2049.33 797.936 2065.23 784.425 2068.16 767.767L2079.06 705.987C2081.99 689.33 2070.86 675.818 2054.21 675.818" fill="white"/>
</mask>
<g mask="url(#mask3_708_560)">
<path fill-rule="evenodd" clip-rule="evenodd" d="M1946.12 770.312H1884.46C1882.06 770.312 1880.11 768.368 1880.11 765.964C1880.11 763.572 1882.06 761.617 1884.46 761.617H1946.12C1948.52 761.617 1950.47 763.572 1950.47 765.964C1950.47 768.368 1948.52 770.312 1946.12 770.312Z" fill="white"/>
</g>
<mask id="mask4_708_560" style="mask-type:alpha" maskUnits="userSpaceOnUse" x="1264" y="590" width="956" height="517">
<path fill-rule="evenodd" clip-rule="evenodd" d="M1428.14 590.074C1380.12 590.074 1334.33 629.003 1325.87 677.02L1265.41 1019.88C1256.94 1067.9 1289 1106.83 1337.02 1106.83H2054.93C2102.93 1106.83 2148.72 1067.9 2157.19 1019.88L2217.64 677.02C2226.11 629.003 2194.05 590.074 2146.03 590.074H1428.14Z" fill="white"/>
</mask>
<g mask="url(#mask4_708_560)">
<path opacity="0.35" fill-rule="evenodd" clip-rule="evenodd" d="M2220.03 491.525L1168.1 1228.58L1378.95 1206.5L2317.2 621.554L2220.03 491.525Z" fill="white"/>
</g>
<mask id="mask5_708_560" style="mask-type:alpha" maskUnits="userSpaceOnUse" x="1264" y="590" width="956" height="517">
<path fill-rule="evenodd" clip-rule="evenodd" d="M1428.14 590.074C1380.12 590.074 1334.33 629.003 1325.87 677.02L1265.41 1019.88C1256.94 1067.9 1289 1106.83 1337.02 1106.83H2054.93C2102.93 1106.83 2148.72 1067.9 2157.19 1019.88L2217.64 677.02C2226.11 629.003 2194.05 590.074 2146.03 590.074H1428.14Z" fill="white"/>
</mask>
<g mask="url(#mask5_708_560)">
<path opacity="0.35" fill-rule="evenodd" clip-rule="evenodd" d="M2293.7 713.58L1556.98 1183.5L1799 1219.58L2356.52 906.424L2293.7 713.58Z" fill="white"/>
</g>
<path d="M909.278 602.682H585.961V643.096H909.278V602.682Z" fill="#72222B"/>
<path fill-rule="evenodd" clip-rule="evenodd" d="M916.073 1444.83L768.25 803.273L790.525 1418.83L551.008 1417.82L585.858 637.633H908.459L1145.21 1382.11L916.073 1444.83Z" fill="#72222B"/>
<path fill-rule="evenodd" clip-rule="evenodd" d="M790.811 1418.21C790.811 1397.33 736.873 1380.55 670.984 1380.55C605.096 1380.55 551.524 1397.48 551.524 1418.37C551.524 1439.25 605.096 1456.18 670.984 1456.18C736.873 1456.18 790.811 1439.1 790.811 1418.21Z" fill="#21211D"/>
<path fill-rule="evenodd" clip-rule="evenodd" d="M1100.05 1432.69C1083.38 1440.92 1063.07 1448.17 1040.5 1453.12C1018.07 1458.04 996.672 1460.64 978.097 1461.05C943.4 1461.86 918.643 1455.07 915.721 1441.78C912.726 1428.13 934.56 1409.07 968.641 1393.74C985.453 1386.18 1005.25 1379.52 1026.51 1374.86C1041.97 1371.46 1056.65 1369.16 1070.1 1367.88C1112.68 1363.86 1142.95 1370.26 1146.36 1385.75C1149.26 1399.01 1130.89 1417.5 1100.05 1432.69Z" fill="#21211D"/>
<mask id="mask6_708_560" style="mask-type:alpha" maskUnits="userSpaceOnUse" x="613" y="1380" width="265" height="192">
<path fill-rule="evenodd" clip-rule="evenodd" d="M613.182 1380.55H877.134V1571.54H613.182V1380.55Z" fill="white"/>
</mask>
<g mask="url(#mask6_708_560)">
<path fill-rule="evenodd" clip-rule="evenodd" d="M877.134 1571.54H613.182V1385.27C630.303 1382.26 649.995 1380.55 670.919 1380.55C689.067 1380.55 706.306 1381.83 721.753 1384.11C726.525 1403.53 734.365 1426.5 747.199 1447.42C757.654 1464.47 771.413 1480.17 789.533 1491.49C862.774 1537.27 877.134 1571.54 877.134 1571.54Z" fill="#B6CCFC"/>
</g>
<mask id="mask7_708_560" style="mask-type:alpha" maskUnits="userSpaceOnUse" x="968" y="1367" width="281" height="205">
<path fill-rule="evenodd" clip-rule="evenodd" d="M968.642 1367.88H1248.77V1571.54H968.642V1367.88Z" fill="white"/>
</mask>
<g mask="url(#mask7_708_560)">
<path fill-rule="evenodd" clip-rule="evenodd" d="M1248.77 1571.54H993.634L978.098 1461.05L968.642 1393.74C985.454 1386.18 1005.25 1379.52 1026.51 1374.86C1041.97 1371.46 1056.66 1369.16 1070.11 1367.88C1075.93 1385.82 1085.46 1409.68 1100.05 1432.69C1114.31 1455.23 1133.46 1476.96 1158.74 1491.49C1238.41 1537.27 1248.77 1571.54 1248.77 1571.54Z" fill="#B6CCFC"/>
</g>
<path d="M765.857 636.394C766.621 636.364 767.27 636.922 767.369 637.664L767.381 637.805L769.85 702.298C770.377 714.747 760.434 725.129 747.979 725.129C747.167 725.129 746.51 724.472 746.51 723.66C746.51 722.849 747.167 722.192 747.979 722.192C758.644 722.192 767.182 713.399 766.927 702.772L766.915 702.417L764.446 637.917C764.415 637.107 765.047 636.424 765.857 636.394Z" fill="#21211D"/>
<path d="M851.685 636.504C852.434 636.192 853.294 636.547 853.605 637.295C857.9 647.605 864.43 656.622 873.628 663.49C885.16 672.102 900.279 676.85 919.48 676.85C920.292 676.85 920.949 677.508 920.949 678.318C920.949 679.13 920.292 679.787 919.48 679.787C899.662 679.787 883.924 674.845 871.871 665.844C862.219 658.637 855.379 649.192 850.894 638.424C850.583 637.676 850.937 636.816 851.685 636.504Z" fill="#21211D"/>
<path d="M652.018 637.297C652.328 636.548 653.188 636.193 653.936 636.503C654.685 636.813 655.041 637.673 654.731 638.422C650.28 649.158 643.46 658.595 633.807 665.807C621.729 674.829 605.932 679.787 586.013 679.787C585.201 679.787 584.544 679.129 584.544 678.318C584.544 677.507 585.201 676.85 586.013 676.85C605.315 676.85 620.493 672.086 632.049 663.454C641.248 656.582 647.758 647.574 652.018 637.297Z" fill="#21211D"/>
<path d="M785.791 803.586C786.602 803.586 787.26 804.243 787.26 805.055C787.26 805.819 786.677 806.446 785.933 806.517L785.791 806.523H753.785C752.975 806.523 752.317 805.866 752.317 805.055C752.317 804.292 752.9 803.665 753.644 803.594L753.785 803.586H785.791Z" fill="#21211D"/>
<path d="M773.986 804.54C774.72 804.344 775.474 804.741 775.737 805.437L775.784 805.58L939.172 1417.99C939.38 1418.77 938.914 1419.58 938.131 1419.79C937.396 1419.98 936.643 1419.58 936.38 1418.89L936.333 1418.74L772.945 806.337C772.736 805.554 773.202 804.749 773.986 804.54Z" fill="#21211D"/>
<path d="M601.056 676.919C601.818 676.946 602.426 677.55 602.47 678.297L602.472 678.438L576.923 1403.71C576.894 1404.52 576.214 1405.15 575.403 1405.12C574.641 1405.09 574.035 1404.49 573.99 1403.74L573.988 1403.6L599.537 678.336C599.565 677.524 600.245 676.89 601.056 676.919Z" fill="#21211D"/>
<path d="M1021.91 1337.29C1054.27 1331.15 1089.74 1329.47 1128.38 1333.02C1129.19 1333.09 1129.79 1333.81 1129.71 1334.62C1129.64 1335.42 1128.93 1336.02 1128.12 1335.94C1089.75 1332.42 1054.55 1334.09 1022.46 1340.18C995.885 1345.22 972.307 1353.11 951.664 1363.08C938.566 1369.4 927.441 1376.18 918.259 1382.94C915.052 1385.31 912.318 1387.5 910.054 1389.46L909.406 1390.03C908.993 1390.4 908.617 1390.74 908.28 1391.05L907.673 1391.62C907.54 1391.74 907.444 1391.84 907.386 1391.89C906.813 1392.47 905.883 1392.47 905.31 1391.9C904.735 1391.32 904.735 1390.39 905.309 1389.82L905.753 1389.39L906.03 1389.13C906.613 1388.58 907.313 1387.95 908.129 1387.25C910.451 1385.23 913.245 1382.99 916.516 1380.58C925.842 1373.71 937.121 1366.84 950.388 1360.43C971.257 1350.36 995.081 1342.38 1021.91 1337.29Z" fill="#21211D"/>
<path d="M669.939 1348.63C700.19 1348.74 728.761 1352.98 754.793 1359.98C764.035 1362.46 772.295 1365.12 779.464 1367.79L780.803 1368.29C782.546 1368.95 784.121 1369.57 785.524 1370.15L786.788 1370.68L788.34 1371.36C789.076 1371.7 789.399 1372.57 789.061 1373.3C788.722 1374.04 787.85 1374.37 787.113 1374.03L786.567 1373.78L785.638 1373.38L784.911 1373.08C783.078 1372.31 780.917 1371.46 778.44 1370.54C771.356 1367.91 763.182 1365.27 754.032 1362.81C728.232 1355.88 699.91 1351.68 669.928 1351.57C631.443 1351.43 593.018 1358.09 555.503 1372.92C554.749 1373.21 553.896 1372.84 553.598 1372.09C553.3 1371.34 553.669 1370.48 554.424 1370.19C591.821 1355.41 630.113 1348.66 668.464 1348.63L669.939 1348.63Z" fill="#21211D"/>
<path fill-rule="evenodd" clip-rule="evenodd" d="M613.626 1556.23C613.626 1555.42 614.284 1554.76 615.095 1554.76H865.006C865.817 1554.76 866.474 1555.42 866.474 1556.23C866.474 1557.04 865.817 1557.7 865.006 1557.7H615.095C614.284 1557.7 613.626 1557.04 613.626 1556.23Z" fill="#21211D"/>
<path d="M1236.44 1553.84C1237.25 1553.84 1237.9 1554.5 1237.9 1555.31C1237.9 1556.07 1237.33 1556.7 1236.58 1556.77L1236.44 1556.78H992.255C991.443 1556.78 990.786 1556.12 990.786 1555.31C990.786 1554.54 991.368 1553.92 992.113 1553.85L992.255 1553.84H1236.44Z" fill="#21211D"/>
<path d="M613.673 1514.95L614.219 1514.98L615.059 1515.04C615.261 1515.06 615.473 1515.08 615.695 1515.1C617.27 1515.24 619.022 1515.47 620.908 1515.8C626.298 1516.73 631.689 1518.26 636.737 1520.53C651.296 1527.06 660.116 1538.34 660.116 1555.31C660.116 1556.12 659.46 1556.78 658.648 1556.78C657.837 1556.78 657.179 1556.12 657.179 1555.31C657.179 1539.61 649.116 1529.3 635.534 1523.2C630.731 1521.05 625.571 1519.59 620.408 1518.69C618.6 1518.38 616.923 1518.16 615.421 1518.02L614.822 1517.97L613.794 1517.9C613.692 1517.89 613.617 1517.89 613.573 1517.89C612.761 1517.86 612.128 1517.18 612.155 1516.37C612.183 1515.56 612.863 1514.92 613.673 1514.95Z" fill="#21211D"/>
<path d="M987.399 1514.95L987.945 1514.98L988.784 1515.04C988.986 1515.06 989.198 1515.08 989.419 1515.1C990.995 1515.24 992.748 1515.47 994.633 1515.8C1000.02 1516.73 1005.41 1518.26 1010.46 1520.53C1025.02 1527.06 1033.84 1538.34 1033.84 1555.31C1033.84 1556.12 1033.18 1556.78 1032.37 1556.78C1031.56 1556.78 1030.9 1556.12 1030.9 1555.31C1030.9 1539.61 1022.84 1529.3 1009.26 1523.2C1004.46 1521.05 999.296 1519.59 994.133 1518.69C992.325 1518.38 990.648 1518.16 989.145 1518.02L988.547 1517.97C988.263 1517.94 988 1517.93 987.762 1517.91L987.297 1517.89C986.487 1517.86 985.852 1517.18 985.88 1516.37C985.908 1515.56 986.588 1514.92 987.399 1514.95Z" fill="#21211D"/>
<path fill-rule="evenodd" clip-rule="evenodd" d="M670.779 1433.22C670.779 1442.96 662.882 1450.86 653.138 1450.86C643.396 1450.86 635.498 1442.96 635.498 1433.22C635.498 1423.47 643.396 1415.58 653.138 1415.58C662.882 1415.58 670.779 1423.47 670.779 1433.22Z" fill="white"/>
<path fill-rule="evenodd" clip-rule="evenodd" d="M1030.15 1433.22C1030.15 1442.96 1022.25 1450.86 1012.5 1450.86C1002.76 1450.86 994.865 1442.96 994.865 1433.22C994.865 1423.47 1002.76 1415.58 1012.5 1415.58C1022.25 1415.58 1030.15 1423.47 1030.15 1433.22Z" fill="white"/>
<path d="M1168.96 1497.66C1169.69 1497.48 1170.44 1497.89 1170.7 1498.6L1170.73 1498.74L1174.42 1513.73C1178.11 1528.76 1166.88 1543.28 1151.48 1543.57L1151.02 1543.58H1030.14C1029.33 1543.58 1028.68 1542.92 1028.68 1542.11C1028.68 1541.35 1029.26 1540.72 1030 1540.65L1030.14 1540.64H1151.02C1164.61 1540.64 1174.64 1528.02 1171.66 1514.83L1171.57 1514.43L1167.88 1499.44C1167.69 1498.65 1168.17 1497.86 1168.96 1497.66Z" fill="#21211D"/>
<path d="M801.477 1498.54C802.221 1498.38 802.951 1498.82 803.176 1499.53L803.215 1499.67L806.326 1514.55C809.423 1529.37 798.258 1543.3 783.197 1543.57L782.74 1543.58H657.767C656.955 1543.58 656.299 1542.92 656.299 1542.11C656.299 1541.35 656.881 1540.72 657.626 1540.65L657.767 1540.64H782.74C796.033 1540.64 805.997 1528.54 803.529 1515.55L803.451 1515.15L800.34 1500.27C800.174 1499.48 800.683 1498.7 801.477 1498.54Z" fill="#21211D"/>
<path d="M747.163 1447.35C747.93 1447.09 748.766 1447.49 749.031 1448.26C749.279 1448.98 748.936 1449.76 748.261 1450.07L748.121 1450.13L723.996 1458.45C723.23 1458.71 722.394 1458.31 722.13 1457.54C721.882 1456.82 722.224 1456.04 722.9 1455.73L723.038 1455.67L747.163 1447.35Z" fill="#21211D"/>
<path d="M758.671 1463.85C759.432 1463.58 760.276 1463.97 760.553 1464.73C760.813 1465.44 760.484 1466.23 759.814 1466.55L759.676 1466.61L732.4 1476.55C731.638 1476.82 730.795 1476.43 730.517 1475.67C730.257 1474.95 730.586 1474.17 731.257 1473.84L731.395 1473.79L758.671 1463.85Z" fill="#21211D"/>
<path d="M773.822 1480.13C774.576 1479.83 775.43 1480.2 775.73 1480.95C776.012 1481.66 775.707 1482.45 775.048 1482.8L774.911 1482.86L747.747 1493.7C746.993 1494 746.139 1493.63 745.839 1492.88C745.557 1492.17 745.862 1491.38 746.521 1491.03L746.658 1490.97L773.822 1480.13Z" fill="#21211D"/>
<path d="M1098.18 1431.64C1098.94 1431.37 1099.78 1431.78 1100.05 1432.55C1100.29 1433.26 1099.95 1434.04 1099.27 1434.36L1099.13 1434.41L1075.01 1442.73C1074.24 1443 1073.41 1442.59 1073.14 1441.82C1072.89 1441.1 1073.24 1440.32 1073.91 1440.01L1074.05 1439.96L1098.18 1431.64Z" fill="#21211D"/>
<path d="M1110.57 1448.57C1111.33 1448.3 1112.17 1448.69 1112.44 1449.45C1112.71 1450.17 1112.38 1450.95 1111.71 1451.27L1111.57 1451.33L1084.3 1461.27C1083.53 1461.54 1082.69 1461.15 1082.41 1460.39C1082.15 1459.68 1082.48 1458.89 1083.15 1458.57L1083.29 1458.51L1110.57 1448.57Z" fill="#21211D"/>
<path d="M1124.83 1464.86C1125.58 1464.56 1126.45 1464.92 1126.74 1465.68C1127.03 1466.38 1126.72 1467.18 1126.06 1467.52L1125.92 1467.59L1098.76 1478.42C1098 1478.72 1097.15 1478.36 1096.86 1477.6C1096.57 1476.9 1096.88 1476.1 1097.53 1475.76L1097.68 1475.7L1124.83 1464.86Z" fill="#21211D"/>
<path fill-rule="evenodd" clip-rule="evenodd" d="M1159.75 1402.53C1174.21 1396.47 1186.44 1392.65 1195.77 1391.65C1207.2 1390.43 1214.34 1393.51 1215.81 1401.64C1217.31 1410.05 1211.43 1416.6 1199.66 1421.47C1190.08 1425.43 1176.7 1428.28 1160.47 1430.18C1149.76 1431.43 1138.31 1432.21 1126.7 1432.61C1119.81 1432.85 1113.71 1432.93 1108.84 1432.91L1107.07 1432.9L1106.02 1432.88C1104.54 1432.86 1104.02 1430.91 1105.29 1430.15L1108.15 1428.49C1109.82 1427.53 1111.66 1426.48 1113.63 1425.38L1115.93 1424.11C1124.12 1419.58 1132.78 1415.05 1141.51 1410.82C1147.81 1407.77 1153.92 1404.99 1159.75 1402.53ZM1160.13 1427.26C1195.15 1423.17 1215.2 1414.86 1212.91 1402.16L1212.86 1401.87C1211.62 1395.84 1206.02 1393.51 1196.08 1394.58C1187.45 1395.5 1176.06 1398.98 1162.59 1404.54L1160.9 1405.24C1155.11 1407.67 1149.05 1410.43 1142.79 1413.46C1134.11 1417.67 1125.5 1422.17 1117.35 1426.68C1116.05 1427.39 1114.8 1428.09 1113.62 1428.75L1111.47 1429.97L1113.66 1429.96C1117.26 1429.93 1121.34 1429.85 1125.75 1429.71L1126.6 1429.68C1138.12 1429.28 1149.51 1428.5 1160.13 1427.26Z" fill="#21211D"/>
<path fill-rule="evenodd" clip-rule="evenodd" d="M1106.28 1430.04L1108.53 1429.91C1120.81 1429.24 1133.62 1429.08 1145.62 1429.77C1159.78 1430.57 1171.35 1432.49 1179.47 1435.77C1189.55 1439.84 1194.18 1446.06 1191.86 1454.42C1189.76 1462.02 1183.52 1465.44 1174.13 1465.14C1166.39 1464.89 1156.55 1462.17 1145.07 1457.43C1139.37 1455.08 1133.38 1452.28 1127.2 1449.13C1120.38 1445.64 1113.69 1441.91 1107.41 1438.17L1106.68 1437.74C1104.77 1436.6 1103.02 1435.53 1101.47 1434.56L1100.77 1434.12L1099.29 1433.18C1098.11 1432.43 1098.56 1430.61 1099.96 1430.49L1100.56 1430.44L1102.89 1430.26C1103.95 1430.19 1105.08 1430.11 1106.28 1430.04ZM1147.2 1432.81L1145.44 1432.7C1133.58 1432.02 1120.87 1432.17 1108.69 1432.84C1107.92 1432.88 1107.18 1432.92 1106.47 1432.97L1104.66 1433.08L1105.48 1433.58C1106.34 1434.1 1107.24 1434.65 1108.18 1435.22L1108.9 1435.65C1115.14 1439.35 1121.78 1443.05 1128.54 1446.51C1134.65 1449.63 1140.57 1452.4 1146.18 1454.72C1170.36 1464.68 1185.83 1465.18 1189.04 1453.63C1190.88 1446.98 1187.22 1442.07 1178.36 1438.5C1170.95 1435.5 1160.28 1433.65 1147.2 1432.81Z" fill="#21211D"/>
<path fill-rule="evenodd" clip-rule="evenodd" d="M807.988 1417.23C822.266 1410.93 834.359 1406.92 843.626 1405.77C854.965 1404.37 862.128 1407.31 863.738 1415.39C865.412 1423.78 859.619 1430.46 847.896 1435.56C838.357 1439.7 824.99 1442.8 808.751 1445C796.892 1446.61 784.196 1447.65 771.501 1448.24C767.799 1448.41 764.318 1448.53 761.117 1448.61L758.156 1448.68L755.789 1448.71L754.563 1448.72C753.084 1448.72 752.529 1446.79 753.786 1446.01L756.259 1444.5L757.289 1443.88C759.432 1442.6 761.829 1441.19 764.442 1439.68L766.503 1438.49C774.096 1434.15 782.047 1429.83 790.051 1425.77C796.241 1422.63 802.245 1419.76 807.988 1417.23ZM808.356 1442.09C843.408 1437.34 863.387 1428.65 860.858 1415.96C859.622 1409.76 853.993 1407.45 843.989 1408.69C835.424 1409.75 824.155 1413.41 810.848 1419.19L809.173 1419.92C803.482 1422.43 797.525 1425.27 791.38 1428.39C782.699 1432.79 774.077 1437.5 765.91 1442.22C764.351 1443.12 762.87 1443.99 761.474 1444.81L759.964 1445.7L762.223 1445.65C764.749 1445.58 767.44 1445.48 770.268 1445.36L771.366 1445.31C783.98 1444.72 796.593 1443.69 808.356 1442.09Z" fill="#21211D"/>
<path fill-rule="evenodd" clip-rule="evenodd" d="M757.395 1444.79L759.068 1444.67C770.876 1443.86 782.974 1443.54 794.281 1443.98C808.416 1444.52 819.979 1446.23 828.121 1449.35C838.23 1453.23 842.955 1459.35 840.801 1467.74C838.829 1475.41 832.61 1478.94 823.141 1478.79C815.353 1478.66 805.405 1476.08 793.766 1471.52C787.997 1469.26 781.93 1466.55 775.676 1463.49C768.866 1460.16 762.191 1456.6 755.928 1453.03C754.223 1452.06 752.644 1451.14 751.206 1450.29L750.009 1449.58C749.642 1449.36 749.302 1449.16 748.99 1448.97L747.838 1448.27C746.65 1447.53 747.064 1445.71 748.454 1445.56L749.851 1445.42L752.034 1445.22C753.685 1445.07 755.478 1444.93 757.395 1444.79ZM795.919 1446.98L794.167 1446.91C782.98 1446.48 770.981 1446.8 759.268 1447.6C757.298 1447.74 755.446 1447.88 753.73 1448.02L753.207 1448.07L753.956 1448.5C754.815 1449.01 755.719 1449.53 756.665 1450.07L757.381 1450.48C763.594 1454.02 770.215 1457.55 776.966 1460.85C783.154 1463.88 789.149 1466.55 794.838 1468.78C819.363 1478.4 834.963 1478.65 837.956 1467C839.671 1460.33 835.942 1455.5 827.069 1452.1C819.623 1449.24 808.961 1447.59 795.919 1446.98Z" fill="#21211D"/>
<path d="M939.862 607.051H546.638V648.558H939.862V607.051Z" fill="#446A46"/>
<path fill-rule="evenodd" clip-rule="evenodd" d="M1189.19 674.107C1189.19 674.107 1278.19 699.23 1271.91 716.238C1266.34 731.35 1173.49 695.256 1173.49 695.256L1189.19 674.107Z" fill="#F0B5AA"/>
<path fill-rule="evenodd" clip-rule="evenodd" d="M1206.28 656.195C1206.28 656.195 1297.64 678.065 1293.53 694.342C1289.39 710.69 1196.18 682.6 1196.18 682.6L1206.28 656.195Z" fill="#F0B5AA"/>
<path fill-rule="evenodd" clip-rule="evenodd" d="M1212.76 633.289C1212.76 633.289 1308.72 652.99 1305.2 669.642C1301.78 685.852 1204.08 660.194 1204.08 660.194L1212.76 633.289Z" fill="#F0B5AA"/>
<path fill-rule="evenodd" clip-rule="evenodd" d="M1196.71 608.174C1196.71 608.174 1307.25 623.967 1304.46 640.705C1301.4 658.958 1207.25 638.317 1207.25 638.317L1196.71 608.174Z" fill="#F0B5AA"/>
<path fill-rule="evenodd" clip-rule="evenodd" d="M1158.28 606.211C1158.28 606.211 1263.17 568.985 1268.16 586.515C1275.04 610.638 1185.58 631.282 1185.58 631.282L1158.28 606.211Z" fill="#F0B5AA"/>
<path fill-rule="evenodd" clip-rule="evenodd" d="M683.65 345.441C696.094 341.797 708.586 338.324 721.063 334.8L758.564 324.483L777.34 319.414L779.688 318.782L780.527 318.559C781.535 318.297 782.548 318.053 783.567 317.825C785.595 317.36 787.656 317.004 789.742 316.735C798.064 315.632 806.62 316.02 814.789 317.859C831.138 321.479 846.045 331.038 856.189 344.501C857.453 346.172 858.629 347.91 859.757 349.673C860.069 350.159 860.247 350.466 860.448 350.806L861.043 351.827L862.197 353.892C862.228 353.946 862.528 354.503 862.336 354.145L861.762 353.111L861.891 353.342L862.168 353.836L862.735 354.844L865.051 358.945L869.753 367.208L879.248 383.773C891.967 405.861 904.931 427.822 918.133 449.471C931.336 471.102 944.793 492.494 958.569 513.017C965.452 523.264 972.428 533.288 979.413 542.731C982.9 547.442 986.403 551.993 989.794 556.209C993.171 560.401 996.533 564.292 999.279 567.176C1000.57 568.522 1001.87 569.801 1002.25 570.127C1002.44 570.329 1002.35 570.222 1002.34 570.24C1002.32 570.23 1002.33 570.268 1002.27 570.229C1002.14 570.13 1002.01 570.038 1001.87 569.954C1001.73 569.869 1001.59 569.798 1001.43 569.721C1001.11 569.508 1000.78 569.309 1000.43 569.125L999.913 568.862L999.527 568.682C999.504 568.668 999.476 568.659 999.448 568.654C999.343 568.674 1000.65 569.289 1002.29 569.882C1003.95 570.499 1006.05 571.186 1008.36 571.855C1012.94 573.209 1018.3 574.507 1023.79 575.726C1029.33 576.936 1035.09 578.07 1040.97 579.136C1052.73 581.269 1064.92 583.13 1077.22 584.834C1089.53 586.557 1101.99 588.141 1114.52 589.588C1127.04 591.035 1139.64 592.367 1152.25 593.59L1171.18 595.344L1189.87 596.903L1190.66 596.97C1218.56 599.296 1239.28 623.794 1236.95 651.688C1234.69 678.865 1211.26 699.233 1184.27 698.11L1174.1 697.672L1164.14 697.191L1144.28 696.095C1131.04 695.31 1117.8 694.408 1104.52 693.375C1077.91 691.291 1051.3 688.735 1023.7 684.659C1016.78 683.626 1009.78 682.486 1002.6 681.156C995.387 679.789 988.077 678.298 980.146 676.259C976.199 675.252 972.075 674.095 967.595 672.638C963.091 671.152 958.325 669.476 952.371 666.698C950.189 665.774 944.042 662.405 941.51 660.596L939.089 658.968L937.074 657.498C935.776 656.531 934.366 655.478 933.335 654.616C928.665 650.871 925.284 647.651 921.971 644.439C915.577 638.127 910.356 632.282 905.425 626.524C900.515 620.781 896.003 615.137 891.638 609.529C882.941 598.321 874.856 587.228 867.021 576.128C851.379 553.939 836.715 531.74 822.38 509.429C808.065 487.12 794.147 464.728 780.464 442.178C777.043 436.54 773.635 430.892 770.264 425.204L765.203 416.648L762.663 412.324L762.02 411.225L761.693 410.663L761.52 410.366L760.795 409.069C760.553 408.622 760.804 409.091 760.785 409.057C760.964 409.395 761.152 409.73 761.348 410.059L762.024 411.163C762.689 412.263 763.433 413.312 764.207 414.337C770.441 422.622 779.549 428.485 789.567 430.71C794.575 431.843 799.844 432.085 804.955 431.411C806.235 431.237 807.497 431.006 808.74 430.746C809.362 430.61 809.982 430.455 810.593 430.282C810.826 430.217 810.768 430.233 810.698 430.253L810.552 430.293L810.259 430.375L807.917 431.028L789.18 436.236L751.656 446.473C739.125 449.799 726.607 453.178 714.043 456.386C683.261 464.244 651.935 445.66 644.077 414.877C636.393 384.781 654.091 354.135 683.65 345.441Z" fill="#F0B5AA"/>
<path fill-rule="evenodd" clip-rule="evenodd" d="M633.678 368.048L553.564 624.359H903.181L820.392 368.561C809.674 336.244 771.148 313.572 726.948 313.572C683.011 313.572 644.643 335.982 633.678 368.048Z" fill="#446A46"/>
<path fill-rule="evenodd" clip-rule="evenodd" d="M502.062 951.525C501.828 951.525 501.59 951.501 501.352 951.452C499.469 951.062 498.26 949.219 498.65 947.337L520.196 843.37C524.948 822.863 514.327 802.204 494.962 794.166C475.516 786.095 452.703 793.633 441.895 811.702L390.901 902.855C389.963 904.533 387.842 905.131 386.165 904.192C384.486 903.254 383.887 901.133 384.826 899.456L435.87 808.217C448.489 787.115 475.018 778.349 497.631 787.736C520.151 797.083 532.501 821.108 526.996 844.862L505.467 948.75C505.126 950.395 503.678 951.525 502.062 951.525Z" fill="#21211D"/>
<path fill-rule="evenodd" clip-rule="evenodd" d="M509.623 1251.89L228.42 1112.5L399.836 864.207L605.753 963.41L514.679 1207.29C512.688 1212.62 511.513 1218.22 511.194 1223.9L509.623 1251.89Z" fill="#21211D"/>
<path fill-rule="evenodd" clip-rule="evenodd" d="M442.536 1219.29L174.548 1085.63L195.653 1068.06C197.667 1066.39 199.41 1064.41 200.819 1062.21L345.964 834.691L545.51 934.223L445.799 1175.37C442.608 1183.09 441.166 1191.41 441.575 1199.76L442.536 1219.29Z" fill="#EDC829"/>
<mask id="mask8_708_560" style="mask-type:alpha" maskUnits="userSpaceOnUse" x="174" y="834" width="372" height="386">
<path fill-rule="evenodd" clip-rule="evenodd" d="M345.965 834.693L545.511 934.225L445.8 1175.37C442.609 1183.09 441.166 1191.42 441.577 1199.76L442.537 1219.29L174.548 1085.63L195.653 1068.06C197.667 1066.39 199.411 1064.41 200.82 1062.21L345.965 834.693Z" fill="white"/>
</mask>
<g mask="url(#mask8_708_560)">
<path fill-rule="evenodd" clip-rule="evenodd" d="M91.1539 1007.34L368.091 819.299L465.192 879.311L141.79 1138.64L91.1539 1007.34Z" fill="#F4DA6D"/>
</g>
<mask id="mask9_708_560" style="mask-type:alpha" maskUnits="userSpaceOnUse" x="174" y="834" width="372" height="386">
<path fill-rule="evenodd" clip-rule="evenodd" d="M345.965 834.693L545.511 934.225L445.8 1175.37C442.609 1183.09 441.166 1191.42 441.577 1199.76L442.537 1219.29L174.548 1085.63L195.653 1068.06C197.667 1066.39 199.411 1064.41 200.82 1062.21L345.965 834.693Z" fill="white"/>
</mask>
<g mask="url(#mask9_708_560)">
<path fill-rule="evenodd" clip-rule="evenodd" d="M310.512 1212.41L561.734 1038.23L556.01 1181.74L460.136 1283.03L310.512 1212.41Z" fill="#F4DA6D"/>
</g>
<path fill-rule="evenodd" clip-rule="evenodd" d="M479.333 1237.37C478.549 1237.37 477.898 1236.74 477.867 1235.96L476.904 1212.23C476.664 1206.3 477.625 1200.48 479.761 1194.94L574.645 948.837C574.937 948.081 575.787 947.703 576.543 947.996C577.3 948.287 577.677 949.137 577.385 949.894L482.501 1196C480.511 1201.17 479.616 1206.59 479.839 1212.11L480.801 1235.84C480.833 1236.65 480.203 1237.33 479.394 1237.37C479.373 1237.37 479.353 1237.37 479.333 1237.37Z" fill="white"/>
<path fill-rule="evenodd" clip-rule="evenodd" d="M486.247 944.058C485.884 944.058 485.517 944.002 485.155 943.882C483.329 943.279 482.338 941.31 482.942 939.485L516.283 838.536C522.884 818.544 513.67 796.353 494.846 786.92C476.101 777.527 453.526 783.002 441.168 799.941L378.925 886.873C377.807 888.436 375.633 888.796 374.069 887.677C372.506 886.558 372.146 884.383 373.265 882.82L435.526 795.863C449.914 776.14 476.166 769.772 497.966 780.696C519.856 791.666 530.571 817.47 522.892 840.719L489.551 941.669C489.068 943.131 487.707 944.058 486.247 944.058Z" fill="#21211D"/>
<mask id="mask10_708_560" style="mask-type:alpha" maskUnits="userSpaceOnUse" x="437" y="296" width="382" height="544">
<path fill-rule="evenodd" clip-rule="evenodd" d="M437.533 296.84H818.408V839.157H437.533V296.84Z" fill="white"/>
</mask>
<g mask="url(#mask10_708_560)">
<path fill-rule="evenodd" clip-rule="evenodd" d="M752.212 428.308C742.377 426.811 732.565 425.178 722.743 423.597C712.918 422.041 703.124 420.3 693.313 418.66C683.509 416.98 673.693 415.372 663.898 413.632L656.55 412.343L654.713 412.021L654.254 411.94C653.826 411.864 654.595 412.006 655.034 412.071C655.999 412.221 656.972 412.328 657.944 412.391C661.872 412.727 665.885 412.491 669.782 411.729C673.682 410.993 677.451 409.71 680.964 407.953C684.488 406.225 687.764 404.014 690.69 401.382C696.572 396.177 701.077 389.143 703.343 381.724L696.932 395.458C696.99 395.345 696.283 396.468 695.871 397.136L694.371 399.599L691.233 404.938C689.124 408.574 687.012 412.368 684.89 416.172C680.658 423.817 676.512 431.713 672.436 439.686C664.291 455.657 656.451 472.036 648.923 488.655C633.828 521.89 619.967 556.044 606.795 590.574C593.599 625.103 581.383 660.164 569.806 695.502C558.159 730.823 547.22 766.468 536.955 802.366L536.948 802.39C529.251 829.307 501.193 844.888 474.277 837.191C448.016 829.683 432.571 802.69 438.979 776.388C448.164 738.915 458.05 701.551 468.792 664.345C479.655 627.173 491.232 590.13 503.954 553.314C510.233 534.884 516.984 516.566 523.909 498.274C530.858 479.987 538.113 461.761 545.773 443.598C553.419 425.43 561.476 407.335 570.088 389.253C574.407 380.208 578.84 371.175 583.551 362.084C585.916 357.527 588.329 352.981 590.89 348.357C592.153 346.058 593.479 343.708 594.826 341.346L596.954 337.688C597.766 336.323 598.287 335.417 599.611 333.299L593.2 347.031C595.124 340.964 597.848 335.077 601.345 329.641C604.855 324.223 609.076 319.28 613.865 314.994C618.67 310.734 624.019 307.125 629.76 304.267C635.515 301.431 641.658 299.361 647.993 298.124C654.338 296.905 660.849 296.565 667.259 297.057C668.848 297.196 670.439 297.38 672.02 297.606L674.183 297.942L676.023 298.247L683.383 299.468C693.2 301.076 702.993 302.815 712.8 304.481C722.6 306.189 732.416 307.795 742.201 309.586C751.991 311.352 761.79 313.066 771.565 314.916C802.781 320.822 823.3 350.915 817.394 382.132C811.625 412.633 782.652 432.903 752.212 428.308Z" fill="#F0B5AA"/>
</g>
<path fill-rule="evenodd" clip-rule="evenodd" d="M506.33 725.008L443.644 842.26C439.8 849.449 430.857 852.162 423.667 848.318C417.261 844.892 414.414 837.412 416.589 830.736L457.697 704.295C462.227 690.359 477.197 682.733 491.134 687.264C505.07 691.795 512.694 706.766 508.164 720.701C507.687 722.166 507.023 723.69 506.33 725.008Z" fill="#F0B5AA"/>
<path fill-rule="evenodd" clip-rule="evenodd" d="M513.846 766.78L462.959 854.539C458.975 861.412 450.172 863.754 443.298 859.768C437.383 856.338 434.83 849.333 436.771 843.068L466.77 746.161C470.994 732.517 485.478 724.881 499.122 729.105C512.765 733.329 520.401 747.813 516.178 761.455C515.604 763.308 514.769 765.165 513.846 766.78Z" fill="#F0B5AA"/>
<path fill-rule="evenodd" clip-rule="evenodd" d="M532.09 775.358L486.565 865.12C483.074 872.001 474.666 874.751 467.784 871.261C461.842 868.247 458.985 861.558 460.563 855.359L485.35 757.812C488.767 744.37 502.433 736.241 515.877 739.656C529.32 743.073 537.449 756.74 534.032 770.183C533.579 771.967 532.881 773.775 532.09 775.358Z" fill="#F0B5AA"/>
<path fill-rule="evenodd" clip-rule="evenodd" d="M544.454 786.604L505.87 871.825C502.969 878.233 495.422 881.075 489.015 878.174C483.464 875.66 480.593 869.656 481.808 863.931L501.203 772.415C503.824 760.046 515.976 752.144 528.345 754.766C540.714 757.387 548.617 769.539 545.995 781.908C545.654 783.517 545.097 785.16 544.454 786.604Z" fill="#F0B5AA"/>
<path fill-rule="evenodd" clip-rule="evenodd" d="M544.802 746.775C544.802 746.775 569.964 854.386 544.888 858.416C524.79 861.646 515.325 769.258 515.325 769.258L544.802 746.775Z" fill="#F0B5AA"/>
<path fill-rule="evenodd" clip-rule="evenodd" d="M1270.14 648.815C1270.02 648.815 1269.9 648.8 1269.78 648.771L1232.27 639.455C1231.48 639.259 1231 638.462 1231.2 637.675C1231.38 636.888 1232.18 636.409 1232.97 636.604L1270.49 645.921C1271.27 646.117 1271.75 646.913 1271.56 647.699C1271.39 648.368 1270.79 648.815 1270.14 648.815Z" fill="#21211D"/>
<path fill-rule="evenodd" clip-rule="evenodd" d="M1262.9 674.37C1262.75 674.37 1262.6 674.35 1262.46 674.306L1224.73 662.798C1223.96 662.561 1223.52 661.74 1223.76 660.965C1223.99 660.189 1224.81 659.751 1225.58 659.988L1263.32 671.498C1264.1 671.734 1264.53 672.554 1264.29 673.33C1264.1 673.963 1263.52 674.37 1262.9 674.37Z" fill="#21211D"/>
<path fill-rule="evenodd" clip-rule="evenodd" d="M1250.3 697.676C1250.15 697.676 1249.99 697.652 1249.83 697.6L1218.36 687.062C1217.6 686.805 1217.18 685.973 1217.44 685.204C1217.7 684.435 1218.53 684.019 1219.3 684.278L1250.77 694.815C1251.54 695.072 1251.95 695.904 1251.69 696.673C1251.49 697.288 1250.91 697.676 1250.3 697.676Z" fill="#21211D"/>
<path fill-rule="evenodd" clip-rule="evenodd" d="M1196.39 677.832C1196.11 677.832 1195.83 677.756 1195.59 677.596C1194.9 677.155 1194.72 676.246 1195.15 675.566C1208.03 655.684 1200 628.882 1199.93 628.614C1199.79 628.196 1199.86 627.742 1200.1 627.377C1200.34 627.011 1200.72 626.771 1201.16 626.722C1219.24 624.684 1235.73 613.933 1235.89 613.825C1236.57 613.378 1237.48 613.565 1237.93 614.242C1238.37 614.918 1238.19 615.829 1237.51 616.276C1236.83 616.721 1221.27 626.877 1203.19 629.424C1204.83 635.814 1209.49 658.826 1197.62 677.161C1197.34 677.596 1196.87 677.832 1196.39 677.832Z" fill="#21211D"/>
<path fill-rule="evenodd" clip-rule="evenodd" d="M760.784 409.055L761.58 410.439L761.346 410.058C761.151 409.728 760.964 409.393 760.784 409.055ZM810.592 430.28C810.581 430.283 810.57 430.286 810.558 430.289L810.697 430.251C810.768 430.23 810.825 430.215 810.592 430.28ZM822.384 509.427C829.75 520.881 837.207 532.307 844.832 543.717C871.659 534.402 917.743 519.804 958.999 513.631C958.858 513.42 958.715 513.213 958.574 513.001C944.806 492.461 931.345 471.089 918.136 449.466C904.929 427.824 891.975 405.849 879.251 383.77L869.754 367.206L865.053 358.946L862.738 354.849L862.197 353.891L861.043 351.827L860.447 350.804C860.246 350.464 860.068 350.159 859.756 349.672C858.629 347.908 857.451 346.172 856.189 344.501C846.045 331.037 831.138 321.477 814.789 317.857C806.618 316.018 771.476 312.252 763.155 313.355C761.069 313.623 785.595 317.358 783.566 317.824C782.549 318.051 781.535 318.295 780.527 318.558L779.687 318.78L777.34 319.412L758.564 324.481L721.062 334.798C708.584 338.323 696.093 341.795 683.649 345.439C654.09 354.133 636.393 384.779 644.076 414.876C651.934 445.657 683.26 464.242 714.043 456.384C726.606 453.176 739.124 449.797 751.655 446.471L778.625 439.113C779.241 440.13 779.849 441.158 780.466 442.175C794.16 464.723 808.061 487.12 822.384 509.427Z" fill="#446A46"/>
<path fill-rule="evenodd" clip-rule="evenodd" d="M698.355 392.407L703.342 381.724C702.207 385.442 700.507 389.063 698.355 392.407ZM654.253 411.94L654.653 412.01C654.277 411.947 653.936 411.883 654.253 411.94ZM771.564 314.915C761.789 313.066 751.99 311.352 742.201 309.586C732.416 307.795 722.599 306.189 712.8 304.482C702.993 302.815 693.199 301.076 683.382 299.468L676.022 298.248L674.183 297.942L672.02 297.606C670.437 297.38 668.847 297.196 667.258 297.056C660.849 296.565 654.338 296.906 647.992 298.124C641.657 299.361 635.514 301.431 629.758 304.267C624.017 307.125 618.668 310.734 613.863 314.995C609.075 319.28 604.854 324.223 601.344 329.64C599.554 332.421 597.975 335.324 596.593 338.305L594.825 341.347C593.478 343.708 592.153 346.058 590.889 348.357C588.329 352.981 585.916 357.527 583.551 362.084C578.839 371.175 574.406 380.208 570.087 389.253C561.475 407.335 553.418 425.43 545.772 443.598C538.112 461.76 530.857 479.986 523.908 498.274C523.585 499.127 523.268 499.981 522.946 500.834C577.852 508.016 613.095 518.088 632.93 525.233C638.117 512.938 643.435 500.733 648.921 488.655C656.45 472.036 664.29 455.657 672.435 439.685C676.339 432.048 680.311 424.487 684.358 417.144C687.343 417.647 690.328 418.149 693.312 418.661C703.123 420.299 712.918 422.04 722.743 423.597C732.564 425.178 742.376 426.811 752.211 428.308C782.65 432.903 811.623 412.633 817.393 382.132C823.299 350.915 802.78 320.821 771.564 314.915Z" fill="#446A46"/>
<path fill-rule="evenodd" clip-rule="evenodd" d="M436.479 850.272C436.278 850.272 436.075 850.231 435.879 850.143C435.14 849.811 434.809 848.943 435.14 848.202L443.845 828.776C444.176 828.037 445.045 827.706 445.786 828.037C446.526 828.368 446.857 829.236 446.525 829.976L437.82 849.404C437.575 849.949 437.04 850.272 436.479 850.272Z" fill="#21211D"/>
<path fill-rule="evenodd" clip-rule="evenodd" d="M460.241 859.251C460.036 859.251 459.83 859.208 459.632 859.117C458.895 858.781 458.569 857.909 458.906 857.172L467.17 839.066C467.508 838.328 468.378 838.003 469.115 838.34C469.854 838.677 470.179 839.548 469.843 840.285L461.577 858.391C461.331 858.932 460.798 859.251 460.241 859.251Z" fill="#21211D"/>
<path fill-rule="evenodd" clip-rule="evenodd" d="M482.01 871.424C481.809 871.424 481.606 871.382 481.41 871.295C480.671 870.963 480.34 870.094 480.671 869.354L489.376 849.926C489.708 849.187 490.576 848.856 491.317 849.187C492.057 849.519 492.388 850.387 492.056 851.128L483.351 870.555C483.107 871.101 482.571 871.424 482.01 871.424Z" fill="#21211D"/>
<path fill-rule="evenodd" clip-rule="evenodd" d="M525.924 832.167C525.762 832.167 525.597 832.14 525.434 832.082C524.67 831.812 524.27 830.972 524.54 830.209L532.615 807.408C532.887 806.644 533.726 806.243 534.489 806.515C535.254 806.785 535.655 807.625 535.384 808.388L527.308 831.189C527.095 831.792 526.528 832.167 525.924 832.167Z" fill="#21211D"/>
<path fill-rule="evenodd" clip-rule="evenodd" d="M632.93 526.703C632.75 526.703 632.567 526.67 632.389 526.6C631.635 526.299 631.267 525.446 631.566 524.692L678.164 407.504C678.464 406.751 679.318 406.382 680.071 406.683C680.825 406.982 681.193 407.836 680.893 408.59L634.296 525.777C634.066 526.353 633.515 526.703 632.93 526.703Z" fill="#21211D"/>
<path fill-rule="evenodd" clip-rule="evenodd" d="M873.982 534.136L831.741 410.725C831.53 410.112 832.41 409.749 832.694 410.331L893.584 528.26L873.982 534.136Z" fill="#21211D"/>
<path fill-rule="evenodd" clip-rule="evenodd" d="M644.767 496.931C644.569 496.931 644.367 496.891 644.173 496.804C609.441 481.389 536.668 470.719 535.937 470.613C535.134 470.497 534.578 469.752 534.694 468.95C534.81 468.147 535.554 467.59 536.358 467.707C537.093 467.814 610.263 478.54 645.364 494.121C646.105 494.449 646.44 495.317 646.11 496.058C645.867 496.606 645.331 496.931 644.767 496.931Z" fill="#21211D"/>
<path fill-rule="evenodd" clip-rule="evenodd" d="M872.836 497.284C872.19 497.284 871.597 496.853 871.42 496.198C871.209 495.415 871.672 494.609 872.454 494.398L934.844 477.553C935.628 477.342 936.434 477.804 936.644 478.587C936.856 479.371 936.393 480.177 935.61 480.387L873.221 497.233C873.092 497.268 872.963 497.284 872.836 497.284Z" fill="#21211D"/>
<path fill-rule="evenodd" clip-rule="evenodd" d="M685.564 299.994C685.564 299.994 685.564 392.407 766.188 397.72C846.813 403.033 799.771 315.647 799.771 315.647L685.564 299.994Z" fill="#F0B5AA"/>
<path fill-rule="evenodd" clip-rule="evenodd" d="M771.255 203.433L785.456 324.226C788.259 348.081 771.195 369.694 747.339 372.498C723.485 375.303 701.871 358.238 699.066 334.383C698.774 331.887 698.718 329.175 698.845 326.747L705.996 205.332C707.06 187.265 722.568 173.481 740.636 174.546C756.746 175.494 769.447 187.941 771.255 203.433Z" fill="#F0B5AA"/>
<path fill-rule="evenodd" clip-rule="evenodd" d="M780.385 281.239C780.385 281.239 772.181 279.969 758.646 273.013C756.99 272.163 755.355 274.176 756.546 275.606L783.368 306.617L780.385 281.239Z" fill="#21211D"/>
<mask id="mask11_708_560" style="mask-type:alpha" maskUnits="userSpaceOnUse" x="674" y="131" width="154" height="152">
<path fill-rule="evenodd" clip-rule="evenodd" d="M674.817 131.904H827.478V282.446H674.817V131.904Z" fill="white"/>
</mask>
<g mask="url(#mask11_708_560)">
<path fill-rule="evenodd" clip-rule="evenodd" d="M675.361 183.86C677.392 196.7 678.591 196.055 680.276 203.742C680.544 204.987 680.89 206.231 681.299 207.46C685.444 219.859 696.314 231.455 706.35 239.331C706.35 239.331 745.751 274.353 780.253 281.269C793.77 283.979 806.563 282.373 815.921 272.621C845.981 241.253 809.541 181.072 795.298 160.229C795.109 159.929 794.922 159.614 794.716 159.315C791.376 154.006 787.185 149.232 782.349 145.199C780.079 143.309 777.811 141.638 775.465 140.205C770.879 137.369 766.011 135.368 760.371 134.045C752.037 132.106 743.387 131.556 734.865 132.106C732.455 132.248 730.044 132.501 727.633 132.816C712.872 134.786 696.566 138.393 685.775 149.373C678.795 156.463 675.172 165.758 674.841 175.431C674.747 178.22 674.919 181.04 675.361 183.86Z" fill="#F0B5AA"/>
</g>
<path fill-rule="evenodd" clip-rule="evenodd" d="M710.269 227.527C709.486 241.03 697.905 251.342 684.402 250.559C670.9 249.776 660.587 238.195 661.37 224.692C662.154 211.189 673.734 200.878 687.238 201.661C700.74 202.443 711.052 214.025 710.269 227.527Z" fill="#F0B5AA"/>
<path fill-rule="evenodd" clip-rule="evenodd" d="M694.587 229.152C694.384 229.152 694.177 229.113 693.979 229.03L674.749 220.973C673.946 220.638 673.568 219.715 673.905 218.912C674.241 218.109 675.164 217.732 675.966 218.068L695.197 226.123C695.998 226.46 696.377 227.383 696.041 228.186C695.787 228.789 695.202 229.152 694.587 229.152Z" fill="#21211D"/>
<path fill-rule="evenodd" clip-rule="evenodd" d="M682.634 232.531C682.447 232.531 682.257 232.497 682.072 232.427C681.26 232.116 680.852 231.206 681.163 230.393L683.925 223.165C684.235 222.352 685.143 221.944 685.958 222.255C686.771 222.565 687.179 223.476 686.868 224.289L684.106 231.517C683.866 232.145 683.268 232.531 682.634 232.531Z" fill="#21211D"/>
<mask id="mask12_708_560" style="mask-type:alpha" maskUnits="userSpaceOnUse" x="674" y="131" width="102" height="45">
<path fill-rule="evenodd" clip-rule="evenodd" d="M674.842 131.904H775.466V175.431H674.842V131.904Z" fill="white"/>
</mask>
<g mask="url(#mask12_708_560)">
<path fill-rule="evenodd" clip-rule="evenodd" d="M674.842 175.43C709.832 168.592 743.846 156.698 775.466 140.203C770.88 137.367 766.012 135.367 760.372 134.043C752.038 132.105 743.388 131.553 734.866 132.105C732.456 132.247 730.046 132.499 727.634 132.814C712.873 134.783 696.567 138.391 685.775 149.372C678.796 156.462 675.173 165.756 674.842 175.43Z" fill="#792709"/>
</g>
<path fill-rule="evenodd" clip-rule="evenodd" d="M687.423 177.027C687.423 178.032 688.238 178.847 689.242 178.847C690.246 178.847 691.061 178.032 691.061 177.027C691.061 176.022 690.246 175.207 689.242 175.207C688.238 175.207 687.423 176.022 687.423 177.027Z" fill="#792709"/>
<path fill-rule="evenodd" clip-rule="evenodd" d="M690.948 189.869C690.948 190.873 691.763 191.688 692.768 191.688C693.772 191.688 694.588 190.873 694.588 189.869C694.588 188.864 693.772 188.049 692.768 188.049C691.763 188.049 690.948 188.864 690.948 189.869Z" fill="#792709"/>
<path fill-rule="evenodd" clip-rule="evenodd" d="M692.752 200.203C692.752 201.207 693.567 202.022 694.572 202.022C695.575 202.022 696.39 201.207 696.39 200.203C696.39 199.198 695.575 198.383 694.572 198.383C693.567 198.383 692.752 199.198 692.752 200.203Z" fill="#792709"/>
<path fill-rule="evenodd" clip-rule="evenodd" d="M684.45 184.671C684.45 185.676 685.265 186.491 686.27 186.491C687.274 186.491 688.089 185.676 688.089 184.671C688.089 183.666 687.274 182.852 686.27 182.852C685.265 182.852 684.45 183.666 684.45 184.671Z" fill="#792709"/>
<path fill-rule="evenodd" clip-rule="evenodd" d="M694.953 181.908C694.953 182.913 695.768 183.727 696.772 183.727C697.776 183.727 698.591 182.913 698.591 181.908C698.591 180.903 697.776 180.088 696.772 180.088C695.768 180.088 694.953 180.903 694.953 181.908Z" fill="#792709"/>
<path fill-rule="evenodd" clip-rule="evenodd" d="M677.984 178.845C677.984 179.85 678.799 180.665 679.804 180.665C680.808 180.665 681.623 179.85 681.623 178.845C681.623 177.84 680.808 177.025 679.804 177.025C678.799 177.025 677.984 177.84 677.984 178.845Z" fill="#792709"/>
<path fill-rule="evenodd" clip-rule="evenodd" d="M680.276 191.931C680.276 192.936 681.09 193.751 682.095 193.751C683.099 193.751 683.914 192.936 683.914 191.931C683.914 190.926 683.099 190.111 682.095 190.111C681.09 190.111 680.276 190.926 680.276 191.931Z" fill="#792709"/>
<path fill-rule="evenodd" clip-rule="evenodd" d="M686.27 196.216C686.27 197.221 687.085 198.036 688.09 198.036C689.094 198.036 689.909 197.221 689.909 196.216C689.909 195.211 689.094 194.396 688.09 194.396C687.085 194.396 686.27 195.211 686.27 196.216Z" fill="#792709"/>
<path fill-rule="evenodd" clip-rule="evenodd" d="M697.717 194.789C697.717 195.793 698.532 196.608 699.537 196.608C700.541 196.608 701.357 195.793 701.357 194.789C701.357 193.784 700.541 192.969 699.537 192.969C698.532 192.969 697.717 193.784 697.717 194.789Z" fill="#792709"/>
<path fill-rule="evenodd" clip-rule="evenodd" d="M703.645 243.867C703.645 243.867 706.956 241.893 709.34 238.398C709.703 237.866 710.527 238.018 710.651 238.65C711.5 242.967 712.26 254.391 702.498 263.796L703.645 243.867Z" fill="#21211D"/>
<path fill-rule="evenodd" clip-rule="evenodd" d="M834.875 206.61C834.875 206.61 826.751 216.653 813.539 216.183C807.94 215.974 801.424 213.903 794.256 208.34C794.256 208.34 801.238 200.329 812.859 199.555C819.017 199.124 826.463 200.707 834.875 206.61Z" fill="white"/>
<path fill-rule="evenodd" clip-rule="evenodd" d="M834.875 206.61C834.875 206.61 826.75 216.653 813.539 216.183C811.683 213.941 810.557 211.138 810.424 208.014C810.291 204.889 811.2 201.945 812.859 199.555C819.017 199.124 826.463 200.707 834.875 206.61Z" fill="#21211D"/>
<path d="M783.252 200.682C784.075 200.456 784.924 200.898 785.221 201.68L785.27 201.831L792.084 226.653C793.309 231.115 790.026 235.517 785.445 235.661L785.194 235.664L779.522 235.648C778.615 235.645 777.882 234.908 777.885 234.001C777.887 233.145 778.545 232.444 779.382 232.371L779.531 232.364L785.203 232.381C787.674 232.387 789.49 230.1 788.966 227.721L788.917 227.522L782.104 202.7C781.864 201.825 782.378 200.922 783.252 200.682Z" fill="#21211D"/>
<path d="M799.772 186.926C809.519 183.107 820.473 183.13 831.519 189.552C832.302 190.008 832.569 191.013 832.113 191.796C831.657 192.58 830.652 192.846 829.869 192.391C819.778 186.524 809.852 186.503 800.97 189.983C799.686 190.486 798.544 191.024 797.561 191.559L797.048 191.846C796.749 192.019 796.536 192.151 796.415 192.233C795.664 192.741 794.643 192.544 794.136 191.792C793.628 191.041 793.825 190.021 794.576 189.513L794.785 189.377C795.064 189.2 795.468 188.96 795.991 188.675C797.091 188.077 798.356 187.481 799.772 186.926Z" fill="#21211D"/>
<path fill-rule="evenodd" clip-rule="evenodd" d="M777.719 206.61C777.719 206.61 769.594 216.653 756.383 216.183C750.784 215.974 744.267 213.903 737.1 208.34C737.1 208.34 744.081 200.329 755.703 199.555C761.861 199.124 769.307 200.707 777.719 206.61Z" fill="white"/>
<path fill-rule="evenodd" clip-rule="evenodd" d="M777.719 206.61C777.719 206.61 769.594 216.653 756.383 216.183C754.527 213.941 753.401 211.138 753.268 208.014C753.134 204.889 754.043 201.945 755.702 199.555C761.861 199.124 769.307 200.707 777.719 206.61Z" fill="#21211D"/>
<path d="M737.513 189.552C748.559 183.13 759.513 183.107 769.26 186.926C770.676 187.481 771.941 188.077 773.041 188.675L773.46 188.908C773.915 189.165 774.249 189.373 774.456 189.513C775.207 190.021 775.404 191.041 774.897 191.792C774.389 192.543 773.368 192.741 772.617 192.233L772.368 192.074C772.156 191.944 771.856 191.769 771.471 191.559C770.488 191.024 769.346 190.486 768.062 189.983C759.179 186.503 749.254 186.524 739.164 192.391C738.38 192.846 737.375 192.58 736.919 191.796C736.464 191.013 736.73 190.008 737.513 189.552Z" fill="#21211D"/>
<path d="M769.231 239.026C770.036 238.742 770.914 239.123 771.266 239.881L771.381 240.169C771.443 240.316 771.544 240.531 771.687 240.796C772.031 241.434 772.473 242.076 773.015 242.671C774.804 244.633 777.228 245.651 780.54 245.256C781.44 245.149 782.257 245.792 782.364 246.692C782.471 247.592 781.829 248.409 780.928 248.516C776.511 249.043 773.061 247.595 770.589 244.883C769.326 243.497 768.578 242.111 768.229 241.12C767.927 240.265 768.376 239.327 769.231 239.026Z" fill="#21211D"/>
<path opacity="0.01" d="M757.716 234.817C763.066 230.952 769.433 230.293 776.458 232.751C783.697 235.283 788.647 237.492 791.165 245.625C791.7 247.354 790.732 249.189 789.003 249.724C787.275 250.26 785.439 249.292 784.904 247.563C782.979 241.343 779.49 240.755 774.294 238.937C769.204 237.157 765.078 237.584 761.554 240.13C760.087 241.189 758.039 240.859 756.979 239.393C755.919 237.926 756.249 235.878 757.716 234.817Z" fill="#792709"/>
</svg>
