<svg width="2373" height="1590" viewBox="0 0 2373 1590" fill="none" xmlns="http://www.w3.org/2000/svg">
<path fill-rule="evenodd" clip-rule="evenodd" d="M1361.14 256.541C1360.38 256.541 1359.64 256.13 1359.26 255.407C1358.7 254.36 1359.09 253.055 1360.13 252.494L1606.34 119.74C1617.22 113.876 1630.57 114.172 1641.18 120.517L1861.95 252.541C1862.97 253.149 1863.3 254.469 1862.7 255.49C1862.1 256.511 1860.78 256.846 1859.76 256.237L1638.98 124.213C1629.66 118.637 1617.93 118.377 1608.37 123.531L1362.16 256.285C1361.83 256.458 1361.49 256.541 1361.14 256.541Z" fill="#21211D"/>
<mask id="mask0_710_299" style="mask-type:alpha" maskUnits="userSpaceOnUse" x="1188" y="112" width="871" height="728">
<path fill-rule="evenodd" clip-rule="evenodd" d="M1188 839.541H2059V112.541H1188V839.541Z" fill="white"/>
</mask>
<g mask="url(#mask0_710_299)">
<path fill-rule="evenodd" clip-rule="evenodd" d="M1221 839.541H2026V270.541H1221V839.541Z" fill="#DCE9FF"/>
<path fill-rule="evenodd" clip-rule="evenodd" d="M1190 311.541H2057V233.541H1190V311.541Z" fill="#F0B5AA"/>
<path fill-rule="evenodd" clip-rule="evenodd" d="M1400 741.541H1486V556.541H1400V741.541Z" fill="#D5962F"/>
<path fill-rule="evenodd" clip-rule="evenodd" d="M1632 741.541H1718V599.541H1632V741.541Z" fill="#EE82DA"/>
<path fill-rule="evenodd" clip-rule="evenodd" d="M1516 741.541H1602V490.541H1516V741.541Z" fill="#2E4C9E"/>
<path fill-rule="evenodd" clip-rule="evenodd" d="M1748 741.541H1834V397.541H1748V741.541Z" fill="#F73132"/>
<path fill-rule="evenodd" clip-rule="evenodd" d="M1542.86 399.541H1400.14C1398.96 399.541 1398 398.646 1398 397.541C1398 396.436 1398.96 395.541 1400.14 395.541H1542.86C1544.04 395.541 1545 396.436 1545 397.541C1545 398.646 1544.04 399.541 1542.86 399.541Z" fill="#21211D"/>
<path fill-rule="evenodd" clip-rule="evenodd" d="M1471.85 437.541H1400.15C1398.96 437.541 1398 436.646 1398 435.541C1398 434.436 1398.96 433.541 1400.15 433.541H1471.85C1473.04 433.541 1474 434.436 1474 435.541C1474 436.646 1473.04 437.541 1471.85 437.541Z" fill="#21211D"/>
<path fill-rule="evenodd" clip-rule="evenodd" d="M1646 135.041C1646 147.468 1635.93 157.541 1623.5 157.541C1611.07 157.541 1601 147.468 1601 135.041C1601 122.614 1611.07 112.541 1623.5 112.541C1635.93 112.541 1646 122.614 1646 135.041Z" fill="#2E4C9E"/>
<path fill-rule="evenodd" clip-rule="evenodd" d="M2056.86 274.541H1190.14C1188.96 274.541 1188 273.646 1188 272.541C1188 271.436 1188.96 270.541 1190.14 270.541H2056.86C2058.04 270.541 2059 271.436 2059 272.541C2059 273.646 2058.04 274.541 2056.86 274.541Z" fill="white"/>
</g>
<path fill-rule="evenodd" clip-rule="evenodd" d="M2077.48 596.785C1952.95 596.785 1852 697.736 1852 822.265C1852 946.796 1952.95 1047.75 2077.48 1047.75C2202.01 1047.75 2302.96 946.796 2302.96 822.265H2077.48V596.785Z" fill="#4965CC"/>
<path fill-rule="evenodd" clip-rule="evenodd" d="M2115.06 563.541V788.757H2341.12C2341.12 664.374 2239.91 563.541 2115.06 563.541Z" fill="#D5962F"/>
<path d="M868 672.541H572V700.541H868V672.541Z" fill="#EDC829"/>
<path fill-rule="evenodd" clip-rule="evenodd" d="M874.221 1442.54L738.887 848.033L759.28 1418.45L540 1417.5L571.906 694.541H867.25L1084 1384.42L874.221 1442.54Z" fill="#EDC829"/>
<path fill-rule="evenodd" clip-rule="evenodd" d="M759.542 1417.52C759.542 1398.18 710.162 1382.64 649.84 1382.64C589.519 1382.64 540.473 1398.32 540.473 1417.66C540.473 1437 589.519 1452.68 649.84 1452.68C710.162 1452.68 759.542 1436.86 759.542 1417.52Z" fill="#21211D"/>
<path fill-rule="evenodd" clip-rule="evenodd" d="M1042.65 1430.93C1027.39 1438.54 1008.8 1445.26 988.137 1449.85C967.596 1454.4 948.01 1456.81 931.004 1457.19C899.239 1457.94 876.574 1451.65 873.899 1439.35C871.157 1426.7 891.146 1409.05 922.347 1394.85C937.739 1387.84 955.86 1381.68 975.326 1377.36C989.481 1374.22 1002.92 1372.08 1015.24 1370.9C1054.22 1367.17 1081.93 1373.1 1085.05 1387.45C1087.71 1399.73 1070.89 1416.85 1042.65 1430.93Z" fill="#21211D"/>
<mask id="mask1_710_299" style="mask-type:alpha" maskUnits="userSpaceOnUse" x="596" y="1382" width="243" height="178">
<path fill-rule="evenodd" clip-rule="evenodd" d="M596.922 1382.63H838.572V1559.53H596.922V1382.63Z" fill="white"/>
</mask>
<g mask="url(#mask1_710_299)">
<path fill-rule="evenodd" clip-rule="evenodd" d="M838.572 1559.53H596.922V1387C612.596 1384.21 630.624 1382.63 649.78 1382.63C666.395 1382.63 682.177 1383.82 696.319 1385.93C700.688 1403.92 707.866 1425.19 719.615 1444.57C729.187 1460.36 741.783 1474.9 758.372 1485.38C825.425 1527.79 838.572 1559.53 838.572 1559.53Z" fill="#F1A596"/>
</g>
<mask id="mask2_710_299" style="mask-type:alpha" maskUnits="userSpaceOnUse" x="922" y="1370" width="257" height="190">
<path fill-rule="evenodd" clip-rule="evenodd" d="M922.348 1370.9H1178.81V1559.53H922.348V1370.9Z" fill="white"/>
</mask>
<g mask="url(#mask2_710_299)">
<path fill-rule="evenodd" clip-rule="evenodd" d="M1178.81 1559.53H945.228L931.005 1457.19L922.348 1394.85C937.74 1387.84 955.861 1381.68 975.327 1377.36C989.482 1374.22 1002.93 1372.08 1015.24 1370.9C1020.58 1387.52 1029.3 1409.62 1042.65 1430.93C1055.71 1451.8 1073.24 1471.93 1096.38 1485.38C1169.32 1527.79 1178.81 1559.53 1178.81 1559.53Z" fill="#F1A596"/>
</g>
<path d="M736.698 693.407C737.396 693.381 737.99 693.892 738.081 694.571L738.092 694.7L740.352 754.434C740.834 765.951 731.735 775.563 720.329 775.563C719.586 775.563 718.984 774.961 718.984 774.218C718.984 773.476 719.586 772.874 720.329 772.874C730.089 772.874 737.91 764.725 737.676 754.87L737.665 754.541L735.405 694.801C735.377 694.059 735.956 693.435 736.698 693.407Z" fill="#21211D"/>
<path d="M815.278 693.508C815.965 693.226 816.751 693.553 817.033 694.24C820.966 703.792 826.946 712.146 835.368 718.508C845.925 726.483 859.764 730.88 877.34 730.88C878.083 730.88 878.685 731.482 878.685 732.224C878.685 732.967 878.083 733.569 877.34 733.569C859.193 733.569 844.783 728.991 833.747 720.654C824.912 713.979 818.652 705.234 814.547 695.264C814.264 694.577 814.592 693.791 815.278 693.508Z" fill="#21211D"/>
<path d="M632.474 694.242C632.755 693.555 633.54 693.226 634.227 693.507C634.914 693.789 635.243 694.574 634.962 695.261C630.888 705.202 624.646 713.941 615.81 720.619C604.751 728.976 590.287 733.569 572.048 733.569C571.305 733.569 570.703 732.967 570.703 732.224C570.703 731.482 571.305 730.88 572.048 730.88C589.716 730.88 603.61 726.469 614.188 718.474C622.611 712.109 628.572 703.763 632.474 694.242Z" fill="#21211D"/>
<path d="M754.946 848.264C755.689 848.264 756.291 848.866 756.291 849.608C756.291 850.307 755.758 850.882 755.076 850.947L754.946 850.953H725.645C724.903 850.953 724.301 850.351 724.301 849.608C724.301 848.91 724.834 848.335 725.516 848.27L725.645 848.264H754.946Z" fill="#21211D"/>
<path d="M744.143 849.147C744.816 848.969 745.504 849.335 745.744 849.973L745.786 850.104L895.369 1417.32C895.558 1418.04 895.129 1418.77 894.411 1418.96C893.738 1419.14 893.05 1418.77 892.81 1418.13L892.768 1418L743.185 850.789C742.996 850.071 743.425 849.336 744.143 849.147Z" fill="#21211D"/>
<path d="M585.82 730.944C586.518 730.968 587.073 731.521 587.115 732.205L587.116 732.334L563.726 1404.08C563.701 1404.82 563.078 1405.4 562.336 1405.38C561.638 1405.35 561.082 1404.8 561.041 1404.12L561.039 1403.99L584.429 732.241C584.455 731.499 585.077 730.918 585.82 730.944Z" fill="#21211D"/>
<path d="M971.115 1342.58C1000.74 1336.9 1033.22 1335.34 1068.59 1338.63C1069.33 1338.7 1069.88 1339.35 1069.81 1340.09C1069.74 1340.83 1069.09 1341.37 1068.35 1341.3C1033.22 1338.04 1001 1339.59 971.621 1345.22C947.293 1349.89 925.707 1357.2 906.811 1366.43C894.819 1372.29 884.634 1378.57 876.228 1384.83L874.996 1385.76C872.786 1387.45 870.844 1389.03 869.167 1390.48L868.716 1390.87C868.2 1391.33 867.738 1391.74 867.33 1392.12L866.633 1392.77C866.529 1392.87 866.444 1392.95 866.379 1393.02L866.273 1393.12C865.752 1393.65 864.9 1393.66 864.372 1393.14C863.844 1392.61 863.839 1391.76 864.361 1391.23L864.767 1390.84L865.02 1390.6C865.554 1390.09 866.195 1389.51 866.942 1388.85C869.068 1386.99 871.626 1384.91 874.62 1382.68C883.158 1376.31 893.485 1369.95 905.631 1364.02C924.737 1354.68 946.549 1347.3 971.115 1342.58Z" fill="#21211D"/>
<path d="M648.883 1353.09C676.579 1353.19 702.738 1357.12 726.572 1363.59C734.665 1365.8 741.937 1368.15 748.297 1370.51L749.158 1370.83C751.459 1371.69 753.471 1372.5 755.182 1373.22L756.176 1373.64L757.285 1374.14C757.958 1374.45 758.25 1375.25 757.937 1375.92C757.624 1376.6 756.825 1376.89 756.151 1376.57L755.652 1376.35L754.8 1375.98L754.136 1375.69C752.458 1374.99 750.479 1374.2 748.212 1373.34C741.727 1370.91 734.244 1368.47 725.867 1366.19C702.248 1359.77 676.32 1355.88 648.873 1355.78C613.642 1355.64 578.464 1361.82 544.121 1375.55C543.432 1375.82 542.649 1375.49 542.374 1374.8C542.098 1374.11 542.434 1373.33 543.123 1373.05C577.366 1359.36 612.431 1353.11 647.549 1353.09L648.883 1353.09Z" fill="#21211D"/>
<path d="M826.121 1543.15C826.864 1543.15 827.465 1543.75 827.465 1544.5C827.465 1545.19 826.932 1545.77 826.25 1545.83L826.121 1545.84H597.325C596.582 1545.84 595.98 1545.24 595.98 1544.5C595.98 1543.8 596.514 1543.22 597.195 1543.16L597.325 1543.15H826.121Z" fill="#21211D"/>
<path d="M1167.52 1543.15C1168.26 1543.15 1168.86 1543.75 1168.86 1544.5C1168.86 1545.19 1168.33 1545.77 1167.65 1545.83L1167.52 1545.84H943.966C943.223 1545.84 942.621 1545.24 942.621 1544.5C942.621 1543.8 943.154 1543.22 943.836 1543.16L943.966 1543.15H1167.52Z" fill="#21211D"/>
<path d="M597.372 1507.13L597.872 1507.16L598.371 1507.19C598.546 1507.21 598.731 1507.22 598.925 1507.24L599.223 1507.27C600.666 1507.41 602.271 1507.62 603.997 1507.92C608.932 1508.78 613.87 1510.2 618.492 1512.3C631.819 1518.35 639.89 1528.79 639.89 1544.5C639.89 1545.24 639.289 1545.84 638.546 1545.84C637.803 1545.84 637.201 1545.24 637.201 1544.5C637.201 1529.95 629.816 1520.4 617.379 1514.74C612.984 1512.75 608.26 1511.39 603.534 1510.57C602.086 1510.31 600.73 1510.13 599.492 1510L598.969 1509.95C598.586 1509.91 598.238 1509.88 597.929 1509.86L597.278 1509.82C596.536 1509.8 595.955 1509.17 595.981 1508.43C596.007 1507.69 596.63 1507.11 597.372 1507.13Z" fill="#21211D"/>
<path d="M939.52 1507.13L940.021 1507.16L940.519 1507.19C940.695 1507.21 940.88 1507.22 941.074 1507.24L941.372 1507.27C942.814 1507.41 944.419 1507.62 946.146 1507.92C951.081 1508.78 956.018 1510.2 960.64 1512.3C973.967 1518.35 982.039 1528.79 982.039 1544.5C982.039 1545.24 981.437 1545.84 980.694 1545.84C979.952 1545.84 979.35 1545.24 979.35 1544.5C979.35 1529.95 971.964 1520.4 959.528 1514.74C955.132 1512.75 950.409 1511.39 945.683 1510.57C944.235 1510.31 942.878 1510.13 941.641 1510L941.118 1509.95C940.735 1509.91 940.387 1509.88 940.077 1509.86L939.426 1509.82C938.684 1509.8 938.104 1509.17 938.13 1508.43C938.156 1507.69 938.778 1507.11 939.52 1507.13Z" fill="#21211D"/>
<path fill-rule="evenodd" clip-rule="evenodd" d="M649.652 1431.41C649.652 1440.44 642.422 1447.75 633.502 1447.75C624.583 1447.75 617.352 1440.44 617.352 1431.41C617.352 1422.39 624.583 1415.08 633.502 1415.08C642.422 1415.08 649.652 1422.39 649.652 1431.41Z" fill="white"/>
<path fill-rule="evenodd" clip-rule="evenodd" d="M978.655 1431.41C978.655 1440.44 971.425 1447.75 962.505 1447.75C953.586 1447.75 946.355 1440.44 946.355 1431.41C946.355 1422.39 953.586 1415.08 962.505 1415.08C971.425 1415.08 978.655 1422.39 978.655 1431.41Z" fill="white"/>
<path d="M1105.74 1491.12C1106.42 1490.96 1107.1 1491.34 1107.33 1491.98L1107.37 1492.11L1110.74 1506C1114.12 1519.9 1103.84 1533.35 1089.74 1533.61L1089.32 1533.62H978.653C977.911 1533.62 977.309 1533.02 977.309 1532.27C977.309 1531.57 977.842 1531 978.524 1530.93L978.653 1530.93H1089.32C1101.76 1530.93 1110.94 1519.23 1108.21 1507L1108.13 1506.63L1104.75 1492.75C1104.58 1492.02 1105.02 1491.3 1105.74 1491.12Z" fill="#21211D"/>
<path d="M769.31 1491.93C769.992 1491.79 770.659 1492.19 770.864 1492.84L770.899 1492.97L773.747 1506.75C776.58 1520.46 766.363 1533.36 752.572 1533.61L752.153 1533.62H637.739C636.996 1533.62 636.395 1533.02 636.395 1532.27C636.395 1531.57 636.928 1531 637.61 1530.93L637.739 1530.93H752.153C764.32 1530.93 773.448 1519.71 771.185 1507.66L771.113 1507.3L768.265 1493.52C768.115 1492.79 768.583 1492.08 769.31 1491.93Z" fill="#21211D"/>
<path d="M719.578 1444.52C720.279 1444.28 721.046 1444.65 721.29 1445.35C721.519 1446.01 721.209 1446.72 720.591 1447.01L720.464 1447.06L698.378 1454.77C697.677 1455.01 696.91 1454.64 696.665 1453.94C696.436 1453.29 696.747 1452.57 697.364 1452.28L697.492 1452.23L719.578 1444.52Z" fill="#21211D"/>
<path d="M730.113 1459.8C730.81 1459.55 731.582 1459.9 731.839 1460.6C732.08 1461.25 731.781 1461.97 731.169 1462.27L731.042 1462.33L706.071 1471.53C705.375 1471.78 704.602 1471.43 704.345 1470.73C704.104 1470.08 704.403 1469.36 705.015 1469.06L705.142 1469L730.113 1459.8Z" fill="#21211D"/>
<path d="M743.984 1474.89C744.673 1474.61 745.456 1474.94 745.734 1475.63C745.995 1476.27 745.718 1477 745.115 1477.32L744.991 1477.38L720.122 1487.42C719.433 1487.7 718.649 1487.36 718.372 1486.67C718.111 1486.03 718.387 1485.3 718.99 1484.98L719.115 1484.92L743.984 1474.89Z" fill="#21211D"/>
<path d="M1040.93 1429.97C1041.63 1429.72 1042.4 1430.09 1042.65 1430.79C1042.87 1431.45 1042.56 1432.16 1041.95 1432.45L1041.82 1432.5L1019.73 1440.21C1019.03 1440.46 1018.27 1440.09 1018.02 1439.38C1017.79 1438.73 1018.1 1438.01 1018.72 1437.72L1018.85 1437.67L1040.93 1429.97Z" fill="#21211D"/>
<path d="M1052.28 1445.65C1052.97 1445.4 1053.75 1445.75 1054 1446.45C1054.24 1447.1 1053.95 1447.82 1053.33 1448.12L1053.21 1448.18L1028.24 1457.38C1027.54 1457.63 1026.77 1457.28 1026.51 1456.58C1026.27 1455.93 1026.57 1455.21 1027.18 1454.91L1027.31 1454.85L1052.28 1445.65Z" fill="#21211D"/>
<path d="M1065.34 1460.73C1066.03 1460.46 1066.81 1460.79 1067.09 1461.48C1067.35 1462.12 1067.07 1462.85 1066.47 1463.17L1066.35 1463.23L1041.48 1473.27C1040.79 1473.55 1040 1473.21 1039.73 1472.52C1039.47 1471.88 1039.74 1471.15 1040.35 1470.83L1040.47 1470.77L1065.34 1460.73Z" fill="#21211D"/>
<path fill-rule="evenodd" clip-rule="evenodd" d="M1097.31 1403.01C1110.55 1397.39 1121.74 1393.86 1130.29 1392.94C1140.75 1391.8 1147.3 1394.65 1148.63 1402.17C1150.01 1409.94 1144.62 1416.01 1133.85 1420.52C1125.44 1424.04 1113.83 1426.61 1099.78 1428.36L1097.97 1428.58C1088.16 1429.74 1077.68 1430.47 1067.05 1430.84C1060.74 1431.06 1055.16 1431.13 1050.7 1431.11L1049.08 1431.1L1048.12 1431.09C1046.77 1431.07 1046.29 1429.29 1047.45 1428.59L1050.65 1426.71C1052.6 1425.58 1054.79 1424.33 1057.18 1422.99L1059.07 1421.94C1066.01 1418.1 1073.28 1414.28 1080.61 1410.68C1086.37 1407.86 1091.96 1405.28 1097.31 1403.01ZM1097.66 1425.91C1129.72 1422.12 1148.08 1414.43 1145.98 1402.64L1145.93 1402.37C1144.79 1396.78 1139.67 1394.62 1130.58 1395.61C1122.35 1396.5 1111.37 1399.96 1098.36 1405.49C1093.06 1407.74 1087.51 1410.29 1081.79 1413.1C1073.84 1416.99 1065.96 1421.17 1058.49 1425.34C1057.54 1425.87 1056.63 1426.39 1055.74 1426.89L1053.06 1428.42L1055.11 1428.41C1057.91 1428.39 1061 1428.33 1064.34 1428.23L1066.96 1428.15C1077.51 1427.78 1087.93 1427.06 1097.66 1425.91Z" fill="#21211D"/>
<path fill-rule="evenodd" clip-rule="evenodd" d="M1048.36 1428.48L1050.42 1428.36C1061.66 1427.74 1073.39 1427.6 1084.37 1428.23C1097.34 1428.98 1107.93 1430.76 1115.37 1433.8C1124.59 1437.57 1128.83 1443.31 1126.71 1451.04C1124.78 1458.07 1119.07 1461.24 1110.47 1460.96C1103.71 1460.74 1095.19 1458.44 1085.29 1454.41L1083.86 1453.82C1078.65 1451.65 1073.16 1449.06 1067.51 1446.13C1061.26 1442.9 1055.14 1439.44 1049.38 1435.99C1048.04 1435.18 1046.78 1434.41 1045.62 1433.69L1043.94 1432.64C1043.72 1432.5 1043.51 1432.36 1043.3 1432.24L1041.95 1431.37C1040.88 1430.67 1041.3 1429.02 1042.57 1428.9L1044.68 1428.73C1045.81 1428.65 1047.04 1428.57 1048.36 1428.48ZM1114.35 1436.29C1107.25 1433.39 1096.91 1431.65 1084.21 1430.92C1073.35 1430.29 1061.71 1430.43 1050.57 1431.05C1049.86 1431.09 1049.18 1431.13 1048.53 1431.17L1046.83 1431.28L1047.04 1431.4C1047.61 1431.76 1048.21 1432.13 1048.84 1432.51L1050.77 1433.68C1056.47 1437.11 1062.55 1440.54 1068.74 1443.74C1074.34 1446.63 1079.75 1449.2 1084.9 1451.34C1107.03 1460.57 1121.18 1461.03 1124.12 1450.33C1125.81 1444.15 1122.46 1439.6 1114.35 1436.29Z" fill="#21211D"/>
<path fill-rule="evenodd" clip-rule="evenodd" d="M775.262 1416.62C788.335 1410.79 799.408 1407.08 807.893 1406.01C818.276 1404.71 824.837 1407.43 826.309 1414.91C827.838 1422.67 822.539 1428.84 811.81 1433.56C803.075 1437.41 790.837 1440.27 775.969 1442.31C765.111 1443.8 753.487 1444.77 741.865 1445.31C737.798 1445.5 734.021 1445.63 730.631 1445.7L730.13 1445.71C729.145 1445.73 728.259 1445.74 727.479 1445.75L726.357 1445.76C725.006 1445.76 724.496 1443.99 725.64 1443.27L727.904 1441.88L730.052 1440.58C731.694 1439.59 733.481 1438.53 735.395 1437.41L737.282 1436.32C744.235 1432.29 751.513 1428.29 758.841 1424.53C764.508 1421.62 770.005 1418.97 775.262 1416.62ZM775.603 1439.65C807.702 1435.25 825.99 1427.2 823.671 1415.43C822.537 1409.67 817.386 1407.53 808.228 1408.68C800.063 1409.7 789.21 1413.34 776.358 1419.08C771.148 1421.4 765.694 1424.04 760.068 1426.92C752.122 1431 744.228 1435.37 736.751 1439.73C735.562 1440.43 734.422 1441.1 733.335 1441.75L731.251 1442.99L732.387 1442.97C734.98 1442.9 737.776 1442.8 740.735 1442.67L741.739 1442.63C753.287 1442.09 764.834 1441.13 775.603 1439.65Z" fill="#21211D"/>
<path fill-rule="evenodd" clip-rule="evenodd" d="M728.204 1442.2L730.48 1442.04C741.292 1441.29 752.368 1440.99 762.719 1441.39C775.662 1441.9 786.249 1443.48 793.705 1446.38C802.957 1449.97 807.278 1455.63 805.309 1463.38C803.507 1470.48 797.812 1473.75 789.14 1473.61C782.008 1473.49 772.9 1471.1 762.243 1466.87C756.961 1464.78 751.407 1462.27 745.68 1459.44C739.446 1456.35 733.335 1453.05 727.601 1449.75C725.594 1448.59 723.777 1447.52 722.182 1446.56L721.543 1446.17L720.194 1445.34C719.114 1444.66 719.495 1443 720.762 1442.86L722.692 1442.67L724.696 1442.49C725.802 1442.39 726.974 1442.3 728.204 1442.2ZM792.732 1448.88C785.613 1446.12 775.284 1444.58 762.614 1444.08C752.373 1443.68 741.388 1443.98 730.666 1444.72C728.862 1444.85 727.167 1444.98 725.596 1445.11L725.074 1445.16L725.807 1445.59C726.593 1446.06 727.421 1446.54 728.287 1447.04L728.943 1447.42C734.631 1450.7 740.693 1453.97 746.872 1457.03C752.537 1459.83 758.026 1462.31 763.234 1464.37C785.688 1473.28 799.961 1473.52 802.703 1462.72C804.277 1456.52 800.857 1452.04 792.732 1448.88Z" fill="#21211D"/>
<path fill-rule="evenodd" clip-rule="evenodd" d="M550.805 703.569L555.265 487.138C560.237 446.084 595.816 415.673 637.143 417.155L784.748 421.16C820.303 422.434 850.695 447.147 859.195 481.694L902.337 703.569H550.805Z" fill="#21211D"/>
<mask id="mask3_710_299" style="mask-type:alpha" maskUnits="userSpaceOnUse" x="332" y="169" width="769" height="644">
<path fill-rule="evenodd" clip-rule="evenodd" d="M332 169.316H1100.73V812.173H332V169.316Z" fill="white"/>
</mask>
<g mask="url(#mask3_710_299)">
<path fill-rule="evenodd" clip-rule="evenodd" d="M387.421 770.233L384.461 761.222L378.744 743.192C375.039 731.148 371.37 719.089 367.885 706.952C364.414 694.812 360.963 682.638 357.727 670.355C354.49 658.073 351.353 645.715 348.363 633.213C345.423 620.695 342.649 608.049 340.11 595.082C338.845 588.598 337.634 582.03 336.537 575.307C335.462 568.576 334.479 561.707 333.669 554.494C332.872 547.249 332.201 539.772 332.029 531.113C331.991 528.936 331.984 526.69 332.045 524.278C332.1 521.891 332.217 519.348 332.451 516.555C332.689 513.756 333.013 510.778 333.633 507.239C334.273 503.695 335.125 499.684 336.891 494.544L337.647 492.49L338.044 491.466C338.171 491.138 338.316 490.782 338.488 490.382C338.815 489.613 339.153 488.848 339.502 488.088L340.051 486.921L340.699 485.636C341.144 484.776 341.583 483.953 342.073 483.085C342.626 482.129 343.2 481.184 343.794 480.251L344.652 478.936L345.243 478.092L346.45 476.42C348.132 474.104 349.686 472.314 351.359 470.429C351.787 469.943 352.176 469.537 352.565 469.135L353.753 467.922L354.957 466.726C355.362 466.328 355.774 465.927 356.141 465.599C362.369 459.875 367.944 456.213 372.99 453.228C378.044 450.278 382.628 448.077 386.976 446.173C391.333 444.268 395.37 442.761 399.33 441.366C407.215 438.615 414.537 436.561 421.679 434.747C428.813 432.941 435.7 431.453 442.498 430.101C456.072 427.42 469.221 425.358 482.227 423.562C508.209 420.014 533.601 417.489 558.852 415.38C584.09 413.326 609.138 411.671 634.09 410.182L671.445 408.067L681.087 407.568L690.978 407.16C697.551 406.935 704.093 406.753 710.599 406.674C736.628 406.356 762.189 406.931 787.452 407.84C812.708 408.754 837.667 410.029 862.31 411.243C886.933 412.476 911.294 413.75 934.922 414.297C946.717 414.567 958.335 414.658 969.441 414.38C974.991 414.243 980.4 414.004 985.554 413.643C990.699 413.283 974.089 380.56 969.31 369.796C959.817 348.205 949.453 326.463 938.886 304.735C933.552 293.892 928.246 282.993 922.783 272.171L914.633 255.922L906.544 239.917L906.191 239.219C894.185 215.466 903.709 186.477 927.462 174.472C949.999 163.081 977.345 171.233 990.331 192.369L995.387 200.651L1000.29 208.796L1009.9 225.141C1016.19 236.095 1022.48 247.059 1028.55 258.177C1040.77 280.379 1052.53 302.923 1063.77 326.272C1069.34 337.983 1074.79 349.891 1080.01 362.314C1082.63 368.534 1085.18 374.888 1087.61 381.532C1090.06 388.191 1092.42 395.059 1094.63 402.688C1095.73 406.521 1096.79 410.5 1097.77 414.951C1098.73 419.402 1099.65 424.208 1100.25 430.227C1100.54 433.252 1100.77 436.554 1100.72 440.594C1100.65 444.653 1100.43 449.292 1099.09 455.654C1098.72 457.312 1098.37 458.83 1097.79 460.749C1097.51 461.677 1097.24 462.536 1096.91 463.506C1096.55 464.527 1096.17 465.541 1095.77 466.547C1095.56 467.064 1095.38 467.518 1095.13 468.081L1094.37 469.756L1093.57 471.412C1093.28 471.975 1093.04 472.467 1092.68 473.1C1092.02 474.307 1091.32 475.497 1090.59 476.664C1090.16 477.342 1089.89 477.752 1089.73 477.976L1089.12 478.879C1085.78 483.71 1082.12 487.756 1078.53 491.092C1074.94 494.435 1071.41 497.1 1068.07 499.327C1064.71 501.561 1061.58 503.303 1058.58 504.822C1055.58 506.335 1052.74 507.587 1050.07 508.648C1047.37 509.724 1044.8 510.636 1042.34 511.424C1037.4 513.021 1032.87 514.177 1028.54 515.144C1024.21 516.109 1020.12 516.852 1016.15 517.478C1008.22 518.722 1000.8 519.499 993.613 520.076C986.43 520.644 979.477 521.001 972.661 521.233C959.031 521.692 945.896 521.686 932.951 521.509C907.095 521.118 882.012 520.064 857.201 518.973C832.41 517.84 807.937 516.682 783.73 515.893C759.534 515.107 735.598 514.672 712.139 515.045C706.274 515.135 700.446 515.251 694.653 515.438L685.999 515.766L677.106 516.196L640.336 518.148C615.881 519.52 591.537 521.047 567.441 522.923C543.363 524.775 519.464 526.894 496.381 529.844C484.86 531.32 473.538 533.006 462.815 535.02C457.468 536.03 452.248 537.112 447.376 538.298C444.163 539.077 441.062 539.9 438.228 540.741C436.774 541.173 438.154 538.397 438.639 543.456C439.126 548.548 439.799 553.944 440.588 559.444C441.357 564.953 442.221 570.583 443.18 576.27C445.085 587.647 447.323 599.237 449.701 610.886C452.035 622.55 454.553 634.285 457.19 646.04C459.831 657.795 462.484 669.602 465.291 681.398C468.086 693.196 470.873 705.026 473.782 716.827L482.422 752.009L482.602 752.739C488.923 778.478 473.182 804.468 447.443 810.789C423.047 816.781 398.368 802.769 390.482 779.394L387.421 770.233Z" fill="#F0B5AA"/>
</g>
<path fill-rule="evenodd" clip-rule="evenodd" d="M449.525 714.621C449.525 714.621 529.428 777.854 518.265 790.26C502.904 807.333 443.371 747.999 443.371 747.999L449.525 714.621Z" fill="#F0B5AA"/>
<path fill-rule="evenodd" clip-rule="evenodd" d="M605.351 910.787L556.849 930.938L520.903 945.86L501.424 953.966L425.646 985.435C421.008 987.358 415.698 985.153 413.776 980.529L383.072 906.593L376.472 890.717L360.999 853.453L359.346 849.474C357.423 844.85 359.615 839.526 364.239 837.604L406.006 820.262L543.944 762.969C548.582 761.046 553.892 763.237 555.814 767.875L608.644 895.059L610.244 898.917C612.166 903.555 609.976 908.865 605.351 910.787Z" fill="#21211D"/>
<path fill-rule="evenodd" clip-rule="evenodd" d="M596.291 904.581L432.48 972.622L378.145 841.809L541.956 773.768L596.291 904.581Z" fill="#B6CCFC"/>
<path fill-rule="evenodd" clip-rule="evenodd" d="M596.291 904.581L587.44 883.272L397.029 833.965L378.145 841.809L403.036 901.733L532.859 930.929L596.291 904.581Z" fill="#DFE9FF"/>
<path fill-rule="evenodd" clip-rule="evenodd" d="M416 826.083L578.9 862.717L561.482 820.783L479.728 799.613L416 826.083Z" fill="#DFE9FF"/>
<path fill-rule="evenodd" clip-rule="evenodd" d="M577.304 837.535C576.423 837.901 575.428 837.525 575.083 836.694C574.738 835.863 575.173 834.893 576.054 834.527C576.936 834.161 577.93 834.537 578.275 835.368C578.62 836.199 578.185 837.169 577.304 837.535Z" fill="white"/>
<path fill-rule="evenodd" clip-rule="evenodd" d="M396.548 906.341C395.897 906.341 395.23 906.468 394.584 906.736C392.108 907.765 390.877 910.488 391.84 912.807C392.803 915.126 395.603 916.176 398.078 915.148C400.554 914.119 401.785 911.396 400.822 909.076C400.11 907.362 398.395 906.341 396.548 906.341ZM396.116 916.555C393.872 916.555 391.778 915.299 390.904 913.196C389.728 910.361 391.204 907.044 394.195 905.801C397.187 904.558 400.58 905.853 401.757 908.688C402.935 911.523 401.458 914.84 398.466 916.083C397.695 916.403 396.896 916.555 396.116 916.555Z" fill="white"/>
<path fill-rule="evenodd" clip-rule="evenodd" d="M411.912 771.634C411.912 771.634 435.729 852.877 419.484 856.283C405.051 859.31 387.875 769.754 387.875 769.754L411.912 771.634Z" fill="#F0B5AA"/>
<path fill-rule="evenodd" clip-rule="evenodd" d="M434.124 776.178C434.124 776.178 461.613 857.67 446.987 862.397C432.298 867.146 408.73 781.189 408.73 781.189L434.124 776.178Z" fill="#F0B5AA"/>
<path fill-rule="evenodd" clip-rule="evenodd" d="M455.036 770.051C455.036 770.051 486.446 854.056 471.822 859.432C457.585 864.665 429.945 776.406 429.945 776.406L455.036 770.051Z" fill="#F0B5AA"/>
<path fill-rule="evenodd" clip-rule="evenodd" d="M466.707 745.391C466.707 745.391 508.238 838.796 493.896 844.771C478.257 851.286 448.457 768.229 448.457 768.229L466.707 745.391Z" fill="#F0B5AA"/>
<path fill-rule="evenodd" clip-rule="evenodd" d="M472.051 822.729C471.486 822.729 470.959 822.37 470.774 821.803L459.747 788.177C459.515 787.472 459.9 786.712 460.605 786.481C461.314 786.25 462.071 786.634 462.301 787.339L473.328 820.966C473.56 821.671 473.176 822.43 472.47 822.662C472.331 822.707 472.19 822.729 472.051 822.729Z" fill="#21211D"/>
<path fill-rule="evenodd" clip-rule="evenodd" d="M448.706 829.548C448.114 829.548 447.571 829.153 447.409 828.554L437.977 793.694C437.783 792.977 438.207 792.239 438.924 792.045C439.643 791.851 440.379 792.275 440.573 792.992L450.005 827.852C450.199 828.569 449.775 829.307 449.058 829.501C448.94 829.533 448.822 829.548 448.706 829.548Z" fill="#21211D"/>
<path fill-rule="evenodd" clip-rule="evenodd" d="M424.506 831.123C423.9 831.123 423.349 830.71 423.2 830.094L416.062 800.562C415.887 799.841 416.331 799.114 417.052 798.94C417.773 798.765 418.501 799.21 418.675 799.932L425.814 829.463C425.988 830.184 425.545 830.911 424.823 831.085C424.717 831.111 424.61 831.123 424.506 831.123Z" fill="#21211D"/>
<path fill-rule="evenodd" clip-rule="evenodd" d="M971.35 203.994C971.35 203.994 936.558 126.812 952.177 121.198C966.055 116.21 995.416 202.542 995.416 202.542L971.35 203.994Z" fill="#F0B5AA"/>
<mask id="mask4_710_299" style="mask-type:alpha" maskUnits="userSpaceOnUse" x="921" y="118" width="53" height="85">
<path fill-rule="evenodd" clip-rule="evenodd" d="M921.09 118.541H973.181V202.556H921.09V118.541Z" fill="white"/>
</mask>
<g mask="url(#mask4_710_299)">
<path fill-rule="evenodd" clip-rule="evenodd" d="M948.722 202.556C948.722 202.556 910.258 125.634 924.092 118.934C937.986 112.206 973.181 194.091 973.181 194.091L948.722 202.556Z" fill="#F0B5AA"/>
</g>
<path fill-rule="evenodd" clip-rule="evenodd" d="M928.857 211.509C928.857 211.509 886.163 132.638 899.906 125.297C913.285 118.15 952.832 201.755 952.832 201.755L928.857 211.509Z" fill="#F0B5AA"/>
<path fill-rule="evenodd" clip-rule="evenodd" d="M920.695 237.543C920.695 237.543 866.68 150.757 880.061 142.862C894.652 134.252 935.621 212.407 935.621 212.407L920.695 237.543Z" fill="#F0B5AA"/>
<path fill-rule="evenodd" clip-rule="evenodd" d="M920.486 196.14C919.989 196.14 919.511 195.863 919.278 195.386L903.719 163.602C903.393 162.935 903.669 162.13 904.336 161.804C905.003 161.477 905.808 161.753 906.134 162.42L921.693 194.204C922.019 194.871 921.743 195.676 921.076 196.003C920.886 196.096 920.684 196.14 920.486 196.14Z" fill="#21211D"/>
<path fill-rule="evenodd" clip-rule="evenodd" d="M941.256 187.611C940.734 187.611 940.236 187.304 940.019 186.793L925.87 153.567C925.579 152.883 925.897 152.094 926.58 151.803C927.264 151.513 928.052 151.83 928.343 152.513L942.492 185.74C942.783 186.423 942.465 187.212 941.782 187.503C941.61 187.576 941.432 187.611 941.256 187.611Z" fill="#21211D"/>
<path fill-rule="evenodd" clip-rule="evenodd" d="M962 177.751C961.464 177.751 960.958 177.428 960.749 176.899L949.606 148.634C949.333 147.944 949.673 147.163 950.363 146.891C951.054 146.618 951.834 146.957 952.107 147.648L963.25 175.913C963.522 176.604 963.183 177.385 962.493 177.657C962.331 177.721 962.164 177.751 962 177.751Z" fill="#21211D"/>
<path fill-rule="evenodd" clip-rule="evenodd" d="M932.006 223.873C931.663 223.873 931.331 223.742 931.08 223.503C919.007 212.03 901.762 206.805 901.589 206.753C900.878 206.541 900.473 205.793 900.685 205.082C900.896 204.37 901.646 203.965 902.356 204.176C903.064 204.387 919.347 209.314 931.778 220.488C935.295 215.58 948.681 198.76 968.527 196.288C969.259 196.194 969.935 196.72 970.027 197.456C970.119 198.193 969.596 198.864 968.859 198.956C947.339 201.636 933.275 223.042 933.135 223.258C932.918 223.594 932.563 223.816 932.165 223.864C932.112 223.87 932.059 223.873 932.006 223.873Z" fill="#21211D"/>
<path fill-rule="evenodd" clip-rule="evenodd" d="M941.96 265.648C941.96 265.648 854.101 214.038 863.446 200.211C876.306 181.183 943.453 231.741 943.453 231.741L941.96 265.648Z" fill="#F0B5AA"/>
<path fill-rule="evenodd" clip-rule="evenodd" d="M977.237 521.062C975.704 521.116 974.172 521.183 972.666 521.237C959.035 521.694 945.902 521.68 932.956 521.506C910.331 521.17 888.299 520.323 866.521 519.382C863.416 519.247 848.642 534.438 845.537 534.303C820.748 533.174 797.519 528.039 773.308 527.246C749.111 526.466 736.273 523.872 712.815 524.248C706.954 524.342 702.921 521.062 697.127 521.25L686.184 527.743L678.239 530.244L635.45 527.743C610.998 529.114 594.53 528.872 570.427 530.754C566.112 531.077 558.812 523.589 554.511 523.952C534.817 525.565 515.325 527.421 496.383 529.84C486.275 531.144 476.341 532.609 466.809 534.303L448.406 428.991C459.886 426.854 471.124 425.093 482.228 423.561C508.214 420.012 533.607 417.484 558.853 415.374C584.085 413.33 609.143 411.664 634.093 410.185L650.762 409.244V409.23L671.451 408.061L681.089 407.563L690.983 407.16C697.557 406.932 704.09 406.757 710.597 406.676C736.635 406.353 762.191 406.932 787.45 407.846C812.709 408.76 837.673 410.024 862.313 411.247C886.927 412.47 911.299 413.747 934.919 414.298C941.533 414.446 948.092 414.527 954.532 414.54L977.237 521.062Z" fill="#21211D"/>
<mask id="mask5_710_299" style="mask-type:alpha" maskUnits="userSpaceOnUse" x="448" y="406" width="530" height="298">
<path fill-rule="evenodd" clip-rule="evenodd" d="M710.597 406.676C704.09 406.757 697.557 406.931 690.983 407.16L681.089 407.563L671.451 408.061L650.762 409.23V409.243L634.093 410.185C609.142 411.664 584.086 413.33 558.853 415.373C533.607 417.484 508.214 420.011 482.228 423.561C471.124 425.092 459.886 426.854 448.406 428.991L466.809 534.303C476.34 532.609 486.274 531.144 496.383 529.84C515.324 527.421 534.815 525.566 554.508 523.952L550.806 703.57H902.339L866.524 519.382C888.301 520.322 910.332 521.169 932.956 521.506C945.902 521.68 959.035 521.694 972.666 521.237C974.173 521.183 975.704 521.115 977.237 521.062L954.532 414.54C948.092 414.526 941.533 414.446 934.919 414.298C911.299 413.747 886.927 412.47 862.313 411.247C837.672 410.024 812.709 408.759 787.45 407.846C767 407.105 746.353 406.586 725.414 406.586C720.491 406.586 715.554 406.614 710.597 406.676Z" fill="white"/>
</mask>
<g mask="url(#mask5_710_299)">
<path fill-rule="evenodd" clip-rule="evenodd" d="M954.483 533.175C953.179 533.175 952.034 532.225 951.829 530.896L931.708 400.608C931.481 399.14 932.487 397.767 933.955 397.54C935.419 397.314 936.796 398.32 937.022 399.787L957.144 530.076C957.37 531.543 956.364 532.916 954.897 533.143C954.758 533.165 954.62 533.175 954.483 533.175Z" fill="#EDC829"/>
</g>
<mask id="mask6_710_299" style="mask-type:alpha" maskUnits="userSpaceOnUse" x="448" y="406" width="530" height="298">
<path fill-rule="evenodd" clip-rule="evenodd" d="M710.597 406.676C704.09 406.757 697.557 406.931 690.983 407.16L681.089 407.563L671.451 408.061L650.762 409.23V409.243L634.093 410.185C609.142 411.664 584.086 413.33 558.853 415.373C533.607 417.484 508.214 420.011 482.228 423.561C471.124 425.092 459.886 426.854 448.406 428.991L466.809 534.303C476.34 532.609 486.274 531.144 496.383 529.84C515.324 527.421 534.815 525.566 554.508 523.952L550.806 703.57H902.339L866.524 519.382C888.301 520.322 910.332 521.169 932.956 521.506C945.902 521.68 959.035 521.694 972.666 521.237C974.173 521.183 975.704 521.115 977.237 521.062L954.532 414.54C948.092 414.526 941.533 414.446 934.919 414.298C911.299 413.747 886.927 412.47 862.313 411.247C837.672 410.024 812.709 408.759 787.45 407.846C767 407.105 746.353 406.586 725.414 406.586C720.491 406.586 715.554 406.614 710.597 406.676Z" fill="white"/>
</mask>
<g mask="url(#mask6_710_299)">
<path fill-rule="evenodd" clip-rule="evenodd" d="M488.315 540.998C487.005 540.998 485.857 540.04 485.659 538.705L467.471 416.294C467.253 414.825 468.267 413.457 469.735 413.238C471.203 413.02 472.571 414.034 472.79 415.503L490.978 537.914C491.196 539.383 490.182 540.75 488.713 540.968C488.58 540.988 488.446 540.998 488.315 540.998Z" fill="#EDC829"/>
</g>
<mask id="mask7_710_299" style="mask-type:alpha" maskUnits="userSpaceOnUse" x="448" y="406" width="530" height="298">
<path fill-rule="evenodd" clip-rule="evenodd" d="M710.597 406.676C704.09 406.757 697.557 406.931 690.983 407.16L681.089 407.563L671.451 408.061L650.762 409.23V409.243L634.093 410.185C609.142 411.664 584.086 413.33 558.853 415.373C533.607 417.484 508.214 420.011 482.228 423.561C471.124 425.092 459.886 426.854 448.406 428.991L466.809 534.303C476.34 532.609 486.274 531.144 496.383 529.84C515.324 527.421 534.815 525.566 554.508 523.952L550.806 703.57H902.339L866.524 519.382C888.301 520.322 910.332 521.169 932.956 521.506C945.902 521.68 959.035 521.694 972.666 521.237C974.173 521.183 975.704 521.115 977.237 521.062L954.532 414.54C948.092 414.526 941.533 414.446 934.919 414.298C911.299 413.747 886.927 412.47 862.313 411.247C837.672 410.024 812.709 408.759 787.45 407.846C767 407.105 746.353 406.586 725.414 406.586C720.491 406.586 715.554 406.614 710.597 406.676Z" fill="white"/>
</mask>
<g mask="url(#mask7_710_299)">
<path fill-rule="evenodd" clip-rule="evenodd" d="M534.036 612.969C532.633 612.969 531.452 611.881 531.356 610.461L516.651 392.624C516.551 391.142 517.671 389.86 519.153 389.76C520.625 389.66 521.916 390.78 522.016 392.262L536.721 610.099C536.821 611.581 535.701 612.863 534.22 612.963C534.158 612.967 534.097 612.969 534.036 612.969Z" fill="#EDC829"/>
</g>
<mask id="mask8_710_299" style="mask-type:alpha" maskUnits="userSpaceOnUse" x="448" y="406" width="530" height="298">
<path fill-rule="evenodd" clip-rule="evenodd" d="M710.597 406.676C704.09 406.757 697.557 406.931 690.983 407.16L681.089 407.563L671.451 408.061L650.762 409.23V409.243L634.093 410.185C609.142 411.664 584.086 413.33 558.853 415.373C533.607 417.484 508.214 420.011 482.228 423.561C471.124 425.092 459.886 426.854 448.406 428.991L466.809 534.303C476.34 532.609 486.274 531.144 496.383 529.84C515.324 527.421 534.815 525.566 554.508 523.952L550.806 703.57H902.339L866.524 519.382C888.301 520.322 910.332 521.169 932.956 521.506C945.902 521.68 959.035 521.694 972.666 521.237C974.173 521.183 975.704 521.115 977.237 521.062L954.532 414.54C948.092 414.526 941.533 414.446 934.919 414.298C911.299 413.747 886.927 412.47 862.313 411.247C837.672 410.024 812.709 408.759 787.45 407.846C767 407.105 746.353 406.586 725.414 406.586C720.491 406.586 715.554 406.614 710.597 406.676Z" fill="white"/>
</mask>
<g mask="url(#mask8_710_299)">
<path fill-rule="evenodd" clip-rule="evenodd" d="M600.705 744.272C599.31 744.272 598.13 743.194 598.027 741.78L571.441 380.135C571.332 378.654 572.444 377.365 573.925 377.257C575.399 377.149 576.695 378.26 576.804 379.741L603.389 741.386C603.498 742.867 602.386 744.156 600.905 744.265C600.838 744.27 600.771 744.272 600.705 744.272Z" fill="#EDC829"/>
</g>
<mask id="mask9_710_299" style="mask-type:alpha" maskUnits="userSpaceOnUse" x="448" y="406" width="530" height="298">
<path fill-rule="evenodd" clip-rule="evenodd" d="M710.597 406.676C704.09 406.757 697.557 406.931 690.983 407.16L681.089 407.563L671.451 408.061L650.762 409.23V409.243L634.093 410.185C609.142 411.664 584.086 413.33 558.853 415.373C533.607 417.484 508.214 420.011 482.228 423.561C471.124 425.092 459.886 426.854 448.406 428.991L466.809 534.303C476.34 532.609 486.274 531.144 496.383 529.84C515.324 527.421 534.815 525.566 554.508 523.952L550.806 703.57H902.339L866.524 519.382C888.301 520.322 910.332 521.169 932.956 521.506C945.902 521.68 959.035 521.694 972.666 521.237C974.173 521.183 975.704 521.115 977.237 521.062L954.532 414.54C948.092 414.526 941.533 414.446 934.919 414.298C911.299 413.747 886.927 412.47 862.313 411.247C837.672 410.024 812.709 408.759 787.45 407.846C767 407.105 746.353 406.586 725.414 406.586C720.491 406.586 715.554 406.614 710.597 406.676Z" fill="white"/>
</mask>
<g mask="url(#mask9_710_299)">
<path fill-rule="evenodd" clip-rule="evenodd" d="M668.945 756.672C667.56 756.672 666.384 755.609 666.268 754.204L634.658 369.938C634.537 368.458 635.638 367.16 637.118 367.038C638.597 366.919 639.896 368.017 640.018 369.497L671.628 753.763C671.749 755.243 670.648 756.541 669.168 756.663C669.093 756.669 669.019 756.672 668.945 756.672Z" fill="#EDC829"/>
</g>
<mask id="mask10_710_299" style="mask-type:alpha" maskUnits="userSpaceOnUse" x="448" y="406" width="530" height="298">
<path fill-rule="evenodd" clip-rule="evenodd" d="M710.597 406.676C704.09 406.757 697.557 406.931 690.983 407.16L681.089 407.563L671.451 408.061L650.762 409.23V409.243L634.093 410.185C609.142 411.664 584.086 413.33 558.853 415.373C533.607 417.484 508.214 420.011 482.228 423.561C471.124 425.092 459.886 426.854 448.406 428.991L466.809 534.303C476.34 532.609 486.274 531.144 496.383 529.84C515.324 527.421 534.815 525.566 554.508 523.952L550.806 703.57H902.339L866.524 519.382C888.301 520.322 910.332 521.169 932.956 521.506C945.902 521.68 959.035 521.694 972.666 521.237C974.173 521.183 975.704 521.115 977.237 521.062L954.532 414.54C948.092 414.526 941.533 414.446 934.919 414.298C911.299 413.747 886.927 412.47 862.313 411.247C837.672 410.024 812.709 408.759 787.45 407.846C767 407.105 746.353 406.586 725.414 406.586C720.491 406.586 715.554 406.614 710.597 406.676Z" fill="white"/>
</mask>
<g mask="url(#mask10_710_299)">
<path fill-rule="evenodd" clip-rule="evenodd" d="M718.45 748.079C716.992 748.079 715.794 746.913 715.763 745.448L707.469 356.897C707.437 355.412 708.615 354.183 710.1 354.151C711.569 354.126 712.813 355.298 712.845 356.782L721.139 745.333C721.171 746.818 719.993 748.047 718.508 748.078C718.489 748.079 718.469 748.079 718.45 748.079Z" fill="#EDC829"/>
</g>
<mask id="mask11_710_299" style="mask-type:alpha" maskUnits="userSpaceOnUse" x="448" y="406" width="530" height="298">
<path fill-rule="evenodd" clip-rule="evenodd" d="M710.597 406.676C704.09 406.757 697.557 406.931 690.983 407.16L681.089 407.563L671.451 408.061L650.762 409.23V409.243L634.093 410.185C609.142 411.664 584.086 413.33 558.853 415.373C533.607 417.484 508.214 420.011 482.228 423.561C471.124 425.092 459.886 426.854 448.406 428.991L466.809 534.303C476.34 532.609 486.274 531.144 496.383 529.84C515.324 527.421 534.815 525.566 554.508 523.952L550.806 703.57H902.339L866.524 519.382C888.301 520.322 910.332 521.169 932.956 521.506C945.902 521.68 959.035 521.694 972.666 521.237C974.173 521.183 975.704 521.115 977.237 521.062L954.532 414.54C948.092 414.526 941.533 414.446 934.919 414.298C911.299 413.747 886.927 412.47 862.313 411.247C837.672 410.024 812.709 408.759 787.45 407.846C767 407.105 746.353 406.586 725.414 406.586C720.491 406.586 715.554 406.614 710.597 406.676Z" fill="white"/>
</mask>
<g mask="url(#mask11_710_299)">
<path fill-rule="evenodd" clip-rule="evenodd" d="M788.393 739.77C788.368 739.77 788.344 739.77 788.319 739.769C786.835 739.729 785.664 738.493 785.704 737.009L796.001 355.418C796.041 353.933 797.302 352.771 798.762 352.803C800.246 352.843 801.416 354.079 801.376 355.563L791.079 737.154C791.04 738.614 789.844 739.77 788.393 739.77Z" fill="#EDC829"/>
</g>
<mask id="mask12_710_299" style="mask-type:alpha" maskUnits="userSpaceOnUse" x="448" y="406" width="530" height="298">
<path fill-rule="evenodd" clip-rule="evenodd" d="M710.597 406.676C704.09 406.757 697.557 406.931 690.983 407.16L681.089 407.563L671.451 408.061L650.762 409.23V409.243L634.093 410.185C609.142 411.664 584.086 413.33 558.853 415.373C533.607 417.484 508.214 420.011 482.228 423.561C471.124 425.092 459.886 426.854 448.406 428.991L466.809 534.303C476.34 532.609 486.274 531.144 496.383 529.84C515.324 527.421 534.815 525.566 554.508 523.952L550.806 703.57H902.339L866.524 519.382C888.301 520.322 910.332 521.169 932.956 521.506C945.902 521.68 959.035 521.694 972.666 521.237C974.173 521.183 975.704 521.115 977.237 521.062L954.532 414.54C948.092 414.526 941.533 414.446 934.919 414.298C911.299 413.747 886.927 412.47 862.313 411.247C837.672 410.024 812.709 408.759 787.45 407.846C767 407.105 746.353 406.586 725.414 406.586C720.491 406.586 715.554 406.614 710.597 406.676Z" fill="white"/>
</mask>
<g mask="url(#mask12_710_299)">
<path fill-rule="evenodd" clip-rule="evenodd" d="M870.171 739.77C868.78 739.77 867.602 738.698 867.493 737.288L836.731 338.782C836.617 337.302 837.724 336.009 839.205 335.895C840.69 335.781 841.978 336.888 842.092 338.368L872.855 736.874C872.969 738.355 871.861 739.648 870.381 739.762C870.311 739.767 870.24 739.77 870.171 739.77Z" fill="#EDC829"/>
</g>
<mask id="mask13_710_299" style="mask-type:alpha" maskUnits="userSpaceOnUse" x="448" y="406" width="530" height="298">
<path fill-rule="evenodd" clip-rule="evenodd" d="M710.597 406.676C704.09 406.757 697.557 406.931 690.983 407.16L681.089 407.563L671.451 408.061L650.762 409.23V409.243L634.093 410.185C609.142 411.664 584.086 413.33 558.853 415.373C533.607 417.484 508.214 420.011 482.228 423.561C471.124 425.092 459.886 426.854 448.406 428.991L466.809 534.303C476.34 532.609 486.274 531.144 496.383 529.84C515.324 527.421 534.815 525.566 554.508 523.952L550.806 703.57H902.339L866.524 519.382C888.301 520.322 910.332 521.169 932.956 521.506C945.902 521.68 959.035 521.694 972.666 521.237C974.173 521.183 975.704 521.115 977.237 521.062L954.532 414.54C948.092 414.526 941.533 414.446 934.919 414.298C911.299 413.747 886.927 412.47 862.313 411.247C837.672 410.024 812.709 408.759 787.45 407.846C767 407.105 746.353 406.586 725.414 406.586C720.491 406.586 715.554 406.614 710.597 406.676Z" fill="white"/>
</mask>
<g mask="url(#mask13_710_299)">
<path fill-rule="evenodd" clip-rule="evenodd" d="M916.689 583.708C915.363 583.708 914.21 582.728 914.028 581.378L883.333 353.286C883.135 351.814 884.168 350.461 885.639 350.263C887.106 350.065 888.464 351.097 888.662 352.569L919.357 580.661C919.555 582.132 918.522 583.486 917.051 583.684C916.929 583.7 916.809 583.708 916.689 583.708Z" fill="#EDC829"/>
</g>
<mask id="mask14_710_299" style="mask-type:alpha" maskUnits="userSpaceOnUse" x="448" y="406" width="530" height="298">
<path fill-rule="evenodd" clip-rule="evenodd" d="M710.597 406.676C704.09 406.757 697.557 406.931 690.983 407.16L681.089 407.563L671.451 408.061L650.762 409.23V409.243L634.093 410.185C609.142 411.664 584.086 413.33 558.853 415.373C533.607 417.484 508.214 420.011 482.228 423.561C471.124 425.092 459.886 426.854 448.406 428.991L466.809 534.303C476.34 532.609 486.274 531.144 496.383 529.84C515.324 527.421 534.815 525.566 554.508 523.952L550.806 703.57H902.339L866.524 519.382C888.301 520.322 910.332 521.169 932.956 521.506C945.902 521.68 959.035 521.694 972.666 521.237C974.173 521.183 975.704 521.115 977.237 521.062L954.532 414.54C948.092 414.526 941.533 414.446 934.919 414.298C911.299 413.747 886.927 412.47 862.313 411.247C837.672 410.024 812.709 408.759 787.45 407.846C767 407.105 746.353 406.586 725.414 406.586C720.491 406.586 715.554 406.614 710.597 406.676Z" fill="white"/>
</mask>
<g mask="url(#mask14_710_299)">
<path fill-rule="evenodd" clip-rule="evenodd" d="M424.502 451.654C423.146 451.654 421.981 450.631 421.832 449.252C421.673 447.776 422.742 446.451 424.218 446.292C427.955 445.89 800.097 406.456 985.981 433.55C987.451 433.764 988.468 435.128 988.254 436.598C988.04 438.067 986.675 439.085 985.206 438.871C799.992 411.875 428.523 451.238 424.793 451.638C424.695 451.649 424.598 451.654 424.502 451.654Z" fill="#EDC829"/>
</g>
<mask id="mask15_710_299" style="mask-type:alpha" maskUnits="userSpaceOnUse" x="448" y="406" width="530" height="298">
<path fill-rule="evenodd" clip-rule="evenodd" d="M710.597 406.676C704.09 406.757 697.557 406.931 690.983 407.16L681.089 407.563L671.451 408.061L650.762 409.23V409.243L634.093 410.185C609.142 411.664 584.086 413.33 558.853 415.373C533.607 417.484 508.214 420.011 482.228 423.561C471.124 425.092 459.886 426.854 448.406 428.991L466.809 534.303C476.34 532.609 486.274 531.144 496.383 529.84C515.324 527.421 534.815 525.566 554.508 523.952L550.806 703.57H902.339L866.524 519.382C888.301 520.322 910.332 521.169 932.956 521.506C945.902 521.68 959.035 521.694 972.666 521.237C974.173 521.183 975.704 521.115 977.237 521.062L954.532 414.54C948.092 414.526 941.533 414.446 934.919 414.298C911.299 413.747 886.927 412.47 862.313 411.247C837.672 410.024 812.709 408.759 787.45 407.846C767 407.105 746.353 406.586 725.414 406.586C720.491 406.586 715.554 406.614 710.597 406.676Z" fill="white"/>
</mask>
<g mask="url(#mask15_710_299)">
<path fill-rule="evenodd" clip-rule="evenodd" d="M433.495 509.548C432.116 509.548 430.941 508.492 430.819 507.092C430.691 505.613 431.786 504.31 433.265 504.181C436.543 503.896 763.668 475.815 985.766 489.92C987.247 490.014 988.372 491.292 988.278 492.774C988.184 494.256 986.921 495.384 985.425 495.287C763.725 481.207 437.005 509.253 433.731 509.538C433.652 509.545 433.573 509.548 433.495 509.548Z" fill="#EDC829"/>
</g>
<mask id="mask16_710_299" style="mask-type:alpha" maskUnits="userSpaceOnUse" x="448" y="406" width="530" height="298">
<path fill-rule="evenodd" clip-rule="evenodd" d="M710.597 406.676C704.09 406.757 697.557 406.931 690.983 407.16L681.089 407.563L671.451 408.061L650.762 409.23V409.243L634.093 410.185C609.142 411.664 584.086 413.33 558.853 415.373C533.607 417.484 508.214 420.011 482.228 423.561C471.124 425.092 459.886 426.854 448.406 428.991L466.809 534.303C476.34 532.609 486.274 531.144 496.383 529.84C515.324 527.421 534.815 525.566 554.508 523.952L550.806 703.57H902.339L866.524 519.382C888.301 520.322 910.332 521.169 932.956 521.506C945.902 521.68 959.035 521.694 972.666 521.237C974.173 521.183 975.704 521.115 977.237 521.062L954.532 414.54C948.092 414.526 941.533 414.446 934.919 414.298C911.299 413.747 886.927 412.47 862.313 411.247C837.672 410.024 812.709 408.759 787.45 407.846C767 407.105 746.353 406.586 725.414 406.586C720.491 406.586 715.554 406.614 710.597 406.676Z" fill="white"/>
</mask>
<g mask="url(#mask16_710_299)">
<path fill-rule="evenodd" clip-rule="evenodd" d="M502.348 559.314C500.891 559.314 499.695 558.15 499.661 556.687C499.627 555.202 500.803 553.971 502.287 553.938L968.811 543.29C970.342 543.26 971.526 544.432 971.56 545.916C971.594 547.401 970.418 548.631 968.934 548.665L502.41 559.313C502.39 559.314 502.369 559.314 502.348 559.314Z" fill="#EDC829"/>
</g>
<mask id="mask17_710_299" style="mask-type:alpha" maskUnits="userSpaceOnUse" x="448" y="406" width="530" height="298">
<path fill-rule="evenodd" clip-rule="evenodd" d="M710.597 406.676C704.09 406.757 697.557 406.931 690.983 407.16L681.089 407.563L671.451 408.061L650.762 409.23V409.243L634.093 410.185C609.142 411.664 584.086 413.33 558.853 415.373C533.607 417.484 508.214 420.011 482.228 423.561C471.124 425.092 459.886 426.854 448.406 428.991L466.809 534.303C476.34 532.609 486.274 531.144 496.383 529.84C515.324 527.421 534.815 525.566 554.508 523.952L550.806 703.57H902.339L866.524 519.382C888.301 520.322 910.332 521.169 932.956 521.506C945.902 521.68 959.035 521.694 972.666 521.237C974.173 521.183 975.704 521.115 977.237 521.062L954.532 414.54C948.092 414.526 941.533 414.446 934.919 414.298C911.299 413.747 886.927 412.47 862.313 411.247C837.672 410.024 812.709 408.759 787.45 407.846C767 407.105 746.353 406.586 725.414 406.586C720.491 406.586 715.554 406.614 710.597 406.676Z" fill="white"/>
</mask>
<g mask="url(#mask17_710_299)">
<path fill-rule="evenodd" clip-rule="evenodd" d="M502.523 627.975C501.078 627.975 499.884 626.828 499.837 625.373C499.79 623.889 500.954 622.647 502.438 622.599L968.606 607.593C970.089 607.553 971.332 608.71 971.379 610.194C971.427 611.678 970.263 612.92 968.779 612.968L502.611 627.974C502.582 627.975 502.552 627.975 502.523 627.975Z" fill="#EDC829"/>
</g>
<mask id="mask18_710_299" style="mask-type:alpha" maskUnits="userSpaceOnUse" x="448" y="406" width="530" height="300">
<path fill-rule="evenodd" clip-rule="evenodd" d="M690.983 407.16L681.089 407.563L671.451 408.061L650.762 409.23V409.243L634.093 410.185C609.142 411.664 584.086 413.33 558.853 415.373C533.607 417.484 508.214 420.011 482.228 423.561C471.124 425.092 459.886 426.854 448.406 428.991L466.809 534.303C476.34 532.609 486.274 531.144 496.383 529.84C515.324 527.421 534.815 525.566 554.508 523.952L550.806 705.57H902.339L866.524 519.382C888.301 520.322 910.332 521.169 932.956 521.506C945.902 521.68 959.035 521.694 972.666 521.237C974.173 521.183 975.704 521.115 977.237 521.062L954.532 414.54C948.092 414.526 941.533 414.446 934.919 414.298C911.299 413.747 886.927 412.47 862.313 411.247C837.672 410.024 812.709 408.759 787.45 407.846C767 407.105 746.353 406.586 725.414 406.586C720.491 406.586 715.554 406.614 710.597 406.676C704.09 406.757 697.557 406.931 690.983 407.16Z" fill="white"/>
</mask>
<g mask="url(#mask18_710_299)">
<path fill-rule="evenodd" clip-rule="evenodd" d="M502.527 675.244C501.065 675.244 499.867 674.073 499.84 672.605C499.812 671.121 500.994 669.895 502.478 669.867L988.673 660.864C988.691 660.863 988.708 660.863 988.724 660.863C990.186 660.863 991.384 662.034 991.411 663.502C991.439 664.987 990.257 666.212 988.773 666.24L502.578 675.244C502.561 675.244 502.544 675.244 502.527 675.244Z" fill="#EDC829"/>
</g>
<path fill-rule="evenodd" clip-rule="evenodd" d="M724.805 488.735C665.589 488.735 650.762 409.244 650.762 409.244V409.231L671.45 408.061L681.088 407.564L690.982 407.16C697.556 406.932 704.089 406.757 710.596 406.676C736.635 406.354 762.19 406.932 787.449 407.846C787.449 407.846 784.008 488.735 724.805 488.735Z" fill="#F0B5AA"/>
<path fill-rule="evenodd" clip-rule="evenodd" d="M1014.6 415.434H985.594C984.852 415.434 984.25 414.832 984.25 414.09C984.25 413.347 984.852 412.746 985.594 412.746H1014.6C1015.35 412.746 1015.95 413.347 1015.95 414.09C1015.95 414.832 1015.35 415.434 1014.6 415.434Z" fill="#21211D"/>
<path fill-rule="evenodd" clip-rule="evenodd" d="M416.864 547.1C416.253 547.1 415.7 546.681 415.555 546.06C415.387 545.337 415.837 544.614 416.56 544.446L438.069 539.444C438.792 539.275 439.515 539.726 439.683 540.449C439.851 541.172 439.402 541.895 438.678 542.063L417.17 547.065C417.067 547.089 416.965 547.1 416.864 547.1Z" fill="#21211D"/>
<path fill-rule="evenodd" clip-rule="evenodd" d="M741.638 307.024L754.639 417.611C757.206 439.451 741.583 459.238 719.743 461.805C697.904 464.373 678.117 448.75 675.549 426.91C675.281 424.625 675.23 422.142 675.346 419.919L681.893 308.763C682.867 292.222 697.065 279.603 713.606 280.578C728.355 281.446 739.983 292.841 741.638 307.024Z" fill="#F0B5AA"/>
<path fill-rule="evenodd" clip-rule="evenodd" d="M749.997 378.257C749.997 378.257 742.486 377.094 730.095 370.726C728.579 369.948 727.082 371.791 728.172 373.1L752.728 401.491L749.997 378.257Z" fill="#21211D"/>
<mask id="mask19_710_299" style="mask-type:alpha" maskUnits="userSpaceOnUse" x="653" y="241" width="141" height="139">
<path fill-rule="evenodd" clip-rule="evenodd" d="M653.348 241.541H793.111V379.363H653.348V241.541Z" fill="white"/>
</mask>
<g mask="url(#mask19_710_299)">
<path fill-rule="evenodd" clip-rule="evenodd" d="M653.846 289.107C655.706 300.862 656.803 300.271 658.346 307.309C658.591 308.449 658.908 309.588 659.283 310.713C663.077 322.064 673.029 332.68 682.217 339.891C682.217 339.891 718.289 371.954 749.876 378.286C762.251 380.767 773.963 379.296 782.53 370.368C810.05 341.651 776.689 286.554 763.65 267.472C763.477 267.198 763.305 266.909 763.117 266.636C760.059 261.775 756.222 257.405 751.795 253.712C749.717 251.982 747.64 250.452 745.492 249.14C741.294 246.544 736.837 244.712 731.674 243.501C724.044 241.726 716.125 241.222 708.323 241.726C706.116 241.856 703.909 242.087 701.702 242.376C688.188 244.179 673.26 247.481 663.38 257.534C656.99 264.025 653.673 272.534 653.37 281.39C653.284 283.943 653.442 286.525 653.846 289.107Z" fill="#F0B5AA"/>
</g>
<path fill-rule="evenodd" clip-rule="evenodd" d="M685.805 329.085C685.088 341.447 674.486 350.887 662.124 350.171C649.762 349.454 640.321 338.851 641.038 326.489C641.755 314.127 652.357 304.687 664.72 305.404C677.081 306.12 686.522 316.723 685.805 329.085Z" fill="#F0B5AA"/>
<path fill-rule="evenodd" clip-rule="evenodd" d="M671.448 330.573C671.262 330.573 671.073 330.537 670.891 330.461L653.286 323.085C652.551 322.778 652.205 321.933 652.513 321.198C652.821 320.463 653.666 320.118 654.4 320.425L672.006 327.8C672.74 328.108 673.087 328.953 672.779 329.688C672.547 330.24 672.011 330.573 671.448 330.573Z" fill="#21211D"/>
<path fill-rule="evenodd" clip-rule="evenodd" d="M660.505 333.666C660.334 333.666 660.16 333.635 659.991 333.571C659.247 333.286 658.874 332.453 659.158 331.709L661.687 325.091C661.971 324.347 662.802 323.973 663.548 324.258C664.293 324.542 664.666 325.376 664.381 326.12L661.853 332.738C661.633 333.313 661.086 333.666 660.505 333.666Z" fill="#21211D"/>
<mask id="mask20_710_299" style="mask-type:alpha" maskUnits="userSpaceOnUse" x="653" y="241" width="93" height="41">
<path fill-rule="evenodd" clip-rule="evenodd" d="M653.371 241.541H745.493V281.39H653.371V241.541Z" fill="white"/>
</mask>
<g mask="url(#mask20_710_299)">
<path fill-rule="evenodd" clip-rule="evenodd" d="M653.371 281.391C685.405 275.131 716.545 264.242 745.493 249.141C741.295 246.544 736.838 244.713 731.675 243.501C724.045 241.727 716.126 241.222 708.324 241.727C706.117 241.857 703.911 242.088 701.703 242.376C688.189 244.179 673.261 247.482 663.381 257.535C656.991 264.026 653.674 272.535 653.371 281.391Z" fill="#E69BC8"/>
</g>
<path fill-rule="evenodd" clip-rule="evenodd" d="M664.889 282.852C664.889 283.772 665.635 284.518 666.555 284.518C667.474 284.518 668.22 283.772 668.22 282.852C668.22 281.932 667.474 281.186 666.555 281.186C665.635 281.186 664.889 281.932 664.889 282.852Z" fill="#E69BC8"/>
<path fill-rule="evenodd" clip-rule="evenodd" d="M668.117 294.607C668.117 295.527 668.863 296.273 669.783 296.273C670.702 296.273 671.449 295.527 671.449 294.607C671.449 293.687 670.702 292.941 669.783 292.941C668.863 292.941 668.117 293.687 668.117 294.607Z" fill="#E69BC8"/>
<path fill-rule="evenodd" clip-rule="evenodd" d="M669.768 304.068C669.768 304.988 670.514 305.734 671.434 305.734C672.353 305.734 673.099 304.988 673.099 304.068C673.099 303.148 672.353 302.402 671.434 302.402C670.514 302.402 669.768 303.148 669.768 304.068Z" fill="#E69BC8"/>
<path fill-rule="evenodd" clip-rule="evenodd" d="M662.168 289.852C662.168 290.772 662.914 291.518 663.834 291.518C664.753 291.518 665.499 290.772 665.499 289.852C665.499 288.932 664.753 288.186 663.834 288.186C662.914 288.186 662.168 288.932 662.168 289.852Z" fill="#E69BC8"/>
<path fill-rule="evenodd" clip-rule="evenodd" d="M671.783 287.32C671.783 288.24 672.529 288.986 673.449 288.986C674.368 288.986 675.114 288.24 675.114 287.32C675.114 286.4 674.368 285.654 673.449 285.654C672.529 285.654 671.783 286.4 671.783 287.32Z" fill="#E69BC8"/>
<path fill-rule="evenodd" clip-rule="evenodd" d="M656.248 284.518C656.248 285.438 656.994 286.184 657.914 286.184C658.833 286.184 659.579 285.438 659.579 284.518C659.579 283.598 658.833 282.852 657.914 282.852C656.994 282.852 656.248 283.598 656.248 284.518Z" fill="#E69BC8"/>
<path fill-rule="evenodd" clip-rule="evenodd" d="M658.346 296.496C658.346 297.416 659.092 298.162 660.012 298.162C660.931 298.162 661.677 297.416 661.677 296.496C661.677 295.576 660.931 294.83 660.012 294.83C659.092 294.83 658.346 295.576 658.346 296.496Z" fill="#E69BC8"/>
<path fill-rule="evenodd" clip-rule="evenodd" d="M663.834 300.42C663.834 301.34 664.58 302.086 665.5 302.086C666.419 302.086 667.165 301.34 667.165 300.42C667.165 299.5 666.419 298.754 665.5 298.754C664.58 298.754 663.834 299.5 663.834 300.42Z" fill="#E69BC8"/>
<path fill-rule="evenodd" clip-rule="evenodd" d="M674.314 299.111C674.314 300.031 675.06 300.777 675.98 300.777C676.899 300.777 677.646 300.031 677.646 299.111C677.646 298.191 676.899 297.445 675.98 297.445C675.06 297.445 674.314 298.191 674.314 299.111Z" fill="#E69BC8"/>
<path fill-rule="evenodd" clip-rule="evenodd" d="M679.741 344.043C679.741 344.043 682.772 342.236 684.955 339.036C685.287 338.549 686.041 338.688 686.155 339.267C686.932 343.219 687.628 353.678 678.691 362.288L679.741 344.043Z" fill="#21211D"/>
<path fill-rule="evenodd" clip-rule="evenodd" d="M799.883 309.934C799.883 309.934 792.445 319.129 780.35 318.698C775.224 318.507 769.258 316.611 762.696 311.518C762.696 311.518 769.088 304.184 779.727 303.475C785.365 303.081 792.182 304.53 799.883 309.934Z" fill="white"/>
<path fill-rule="evenodd" clip-rule="evenodd" d="M799.883 309.934C799.883 309.934 792.445 319.129 780.35 318.698C778.651 316.646 777.62 314.08 777.498 311.22C777.376 308.359 778.208 305.663 779.727 303.475C785.365 303.081 792.182 304.53 799.883 309.934Z" fill="#21211D"/>
<path d="M752.622 304.507C753.376 304.3 754.153 304.705 754.424 305.421L754.469 305.559L760.707 328.284C761.829 332.368 758.824 336.399 754.63 336.53L754.4 336.534L749.207 336.519C748.377 336.516 747.706 335.841 747.708 335.011C747.71 334.227 748.312 333.585 749.079 333.518L749.215 333.513L754.408 333.528C756.671 333.534 758.333 331.44 757.854 329.261L757.809 329.079L751.571 306.354C751.351 305.554 751.822 304.727 752.622 304.507Z" fill="#21211D"/>
<path d="M767.746 291.914C776.67 288.418 786.698 288.439 796.811 294.318C797.528 294.735 797.772 295.655 797.355 296.373C796.937 297.091 796.017 297.334 795.3 296.917C786.062 291.546 776.975 291.527 768.843 294.713C767.667 295.174 766.622 295.666 765.722 296.156L765.252 296.419C764.978 296.576 764.784 296.698 764.673 296.773C763.985 297.238 763.051 297.057 762.586 296.369C762.121 295.681 762.302 294.747 762.99 294.282L763.18 294.158C763.436 293.996 763.806 293.776 764.285 293.516C765.292 292.968 766.45 292.422 767.746 291.914Z" fill="#21211D"/>
<path fill-rule="evenodd" clip-rule="evenodd" d="M747.556 309.934C747.556 309.934 740.118 319.129 728.023 318.698C722.897 318.507 716.931 316.611 710.369 311.518C710.369 311.518 716.76 304.184 727.4 303.475C733.038 303.081 739.855 304.53 747.556 309.934Z" fill="white"/>
<path fill-rule="evenodd" clip-rule="evenodd" d="M747.556 309.934C747.556 309.934 740.118 319.129 728.023 318.698C726.324 316.646 725.293 314.08 725.171 311.22C725.049 308.359 725.881 305.663 727.4 303.475C733.038 303.081 739.855 304.53 747.556 309.934Z" fill="#21211D"/>
<path d="M710.748 294.318C720.86 288.439 730.888 288.418 739.812 291.914C741.109 292.422 742.267 292.968 743.274 293.516L743.657 293.728C744.074 293.964 744.38 294.154 744.569 294.282C745.257 294.747 745.437 295.681 744.972 296.369C744.508 297.057 743.573 297.238 742.886 296.773L742.657 296.627C742.464 296.508 742.189 296.347 741.836 296.156C740.936 295.666 739.891 295.174 738.715 294.713C730.583 291.527 721.496 291.546 712.259 296.917C711.541 297.334 710.621 297.091 710.204 296.373C709.787 295.655 710.03 294.735 710.748 294.318Z" fill="#21211D"/>
<path d="M739.786 339.613C740.523 339.353 741.326 339.702 741.648 340.397L741.754 340.66C741.811 340.794 741.904 340.991 742.034 341.234C742.349 341.819 742.753 342.406 743.25 342.951C744.888 344.747 747.107 345.679 750.139 345.317C750.963 345.219 751.711 345.808 751.809 346.632C751.907 347.456 751.319 348.204 750.495 348.302C746.45 348.784 743.292 347.459 741.028 344.976C739.872 343.707 739.188 342.438 738.868 341.531C738.592 340.748 739.003 339.889 739.786 339.613Z" fill="#21211D"/>
<path opacity="0.01" d="M729.243 335.758C734.141 332.22 739.97 331.616 746.402 333.867C753.029 336.185 757.561 338.207 759.866 345.653C760.356 347.236 759.47 348.916 757.887 349.406C756.305 349.896 754.624 349.01 754.134 347.427C752.372 341.733 749.178 341.194 744.421 339.53C739.761 337.9 735.983 338.291 732.757 340.622C731.414 341.592 729.539 341.29 728.569 339.947C727.598 338.604 727.9 336.729 729.243 335.758Z" fill="#E69BC8"/>
</svg>
